<svg width="500" height="500" viewbox = "0 0 500 500"  xmlns="http://www.w3.org/2000/svg">

<!--
<topfunctions>


function XYofT(){
    T = currentjson.plotparams.g*t;
    X = A*Math.cosh(2*Math.PI*T);
    Y = B*Math.sinh(2*Math.PI*T);
    y = currentjson.plotparams.y0 - currentjson.plotparams.G*Y;
    x = currentjson.plotparams.x0 - currentjson.plotparams.G*X;    
}

function XYofT2(){
    T = currentjson.plotparams.g*t;
    X = -A*Math.cosh(2*Math.PI*T);
    Y = B*Math.sinh(2*Math.PI*T);
    y = currentjson.plotparams.y0 - currentjson.plotparams.G*(Y);
    x = currentjson.plotparams.x0 - currentjson.plotparams.G*(X);   
}



function plotfunction(){
    
    currentStroke = "blue";
    currentLineWidth = 4;
    ctx.strokeStyle = currentStroke;
    ctx.lineWidth = currentLineWidth;
    ctx.beginPath();	
    x = 0;
    y = 0;
    t = currentjson.plotparams.tstart;
    XYofT();
    currentSVG += "	<path d = \"M";
    currentSVG += Math.round(x).toString() + " ";
    currentSVG += Math.round(y).toString() + " ";
    for(t = 1 + currentjson.plotparams.tstart; t < currentjson.plotparams.tstart + currentjson.plotparams.duration;t++){
        ctx.moveTo(x,y);
        XYofT();
        ctx.lineTo(x,y);
        currentSVG += "L" + x + " " + y + " ";
    }
    ctx.stroke();
    currentSVG += "\""+ " stroke = \"" + currentStroke + "\" stroke-width = \"" + currentLineWidth.toString() + "\" fill = \"" + "none" + "\" "+"/>";


    currentStroke = "blue";
    currentLineWidth = 4;
    ctx.strokeStyle = currentStroke;
    ctx.lineWidth = currentLineWidth;
    ctx.beginPath();	
    x = 0;
    y = 0;
    t = currentjson.plotparams.tstart;
    XYofT();
    currentSVG += "	<path d = \"M";
    currentSVG += Math.round(x).toString() + " ";
    currentSVG += Math.round(y).toString() + " ";
    for(t = 1 + currentjson.plotparams.tstart; t < currentjson.plotparams.tstart + currentjson.plotparams.duration;t++){
        ctx.moveTo(x,y);
        XYofT2();
        ctx.lineTo(x,y);
        currentSVG += "L" + x + " " + y + " ";
    }
    ctx.stroke();
    currentSVG += "\""+ " stroke = \"" + currentStroke + "\" stroke-width = \"" + currentLineWidth.toString() + "\" fill = \"" + "none" + "\" "+"/>";
    

}































</topfunctions>
-->

<!--
<currentjson>
{
    "constants": {},
    "YofXstring": "Y =  (1/Math.PI)*0.5/(X*X + 0.25);",
    "style": {
        "linewidth": 4,
        "color": "blue",
        "fill": "none"
    },
    "plotparams": {
        "G": 100,
        "g": 0.01,
        "duration": 450.78888054094654,
        "plotwidth": 500,
        "plotheight": 500,
        "x0": 250,
        "y0": 250,
        "tstart": -200
    },
    "funcparams": {},
    "image": {
        "url": "",
        "xoverw": 0.038011695906432746,
        "yoverw": -0.08771929824561403,
        "woverw": 0.8536631795472632,
        "angle": "0"
    },
    "A": 0.5598244299801641,
    "B": -0.3541778825696293
}
</currentjson>
-->

<!--
<equation>

</equation>
-->
	<path d = "M-8026270 -5077799 L-7537465.458063849 -4768552.426807957 L-7078428.893936063 -4478138.879983369 L-6647347.028866746 -4205411.121041317 L-6242517.459909249 -3949292.109683709 L-5862341.458128437 -3708770.395893814 L-5505317.654995201 -3482896.1255778405 L-5170036.113270837 -3270777.289457451 L-4855172.758966533 -3071576.2003996153 L-4559484.152388803 -2884506.185272217 L-4281802.577621174 -2708828.478261151 L-4021031.431049771 -2543849.3033802127 L-3776140.8907212587 -2388917.1346520483 L-3546163.849431067 -2243420.1231404133 L-3330192.0954809473 -2106783.680672618 L-3127372.726023162 -1978468.2107099777 L-2936904.778827147 -1857966.9774051602 L-2758036.0691669146 -1744804.1044310008 L-2590060.2193377465 -1638532.6956779303 L-2432313.869071229 -1538733.070398347 L-2284174.055832222 -1445011.1058283008 L-2145055.7546521174 -1356996.6807412177 L-2014409.5677829336 -1274342.2137871054 L-1891719.555048288 -1196721.2908448863 L-1776501.1963230525 -1123827.3759671084 L-1668299.4780951783 -1055372.6008263405 L-1566687.0965533198 -991086.6278826483 L-1471262.7701039505 -930715.5827826032 L-1381649.6546538805 -874021.051773736 L-1297493.855399913 -820779.1401750845 L-1218463.0292484513 -770779.5881855825 L-1144245.0723458652 -723824.9405385247 L-1074546.8875364496 -679729.7667229288 L-1009093.226880521 -638319.9286923602 L-947625.6046615586 -599431.8931692751 L-889901.276589738 -562912.0858290946 L-835692.2811705845 -528616.2848135962 L-784784.5394529378 -496409.0511784892 L-736977.009601056 -466163.1940259711 L-692080.8929521145 -437759.26820997277 L-649918.8884237182 -411085.10263046704 L-610324.4923269814 -386035.35725401336 L-573141.3408200236 -362511.1071111386 L-538222.5924051586 -340419.45162771357 L-505430.3480311557 -319673.14774751285 L-474635.1065104839 -300190.2653971104 L-445715.2531008944 -281893.8639324875 L-418556.5792316925 -264711.6882896047 L-393051.83147802006 -248575.8836389849 L-369100.2880019907 -233422.72741744563 L-346607.3607879737 -219192.37767872692 L-325484.22210121324 -205828.63676922652 L-305647.4536946033 -193278.7293955573 L-287018.7173782905 -181493.09420748692 L-269524.4456511413 -170425.18807319264 L-253095.55117232385 -160031.30227388244 L-237667.15392567986 -150270.38989191523 L-223178.32499940947 -141103.903710746 L-209571.84596922665 -132495.64398654498 L-196793.98293474742 -124411.61549031317 L-184794.2743167574 -116819.89325594065 L-173525.33157733423 -109690.49650402243 L-162942.65207584284 -102995.27024354195 L-153004.44332174526 -96707.77408384935 L-143671.4579301743 -90803.17781783834 L-134906.83862848784 -85258.16336396396 L-126675.97270171338 -80050.83267985797 L-118946.3553020646 -75160.62128387702 L-111687.46108272446 -70568.21704307156 L-104870.62364895444 -66255.48390685488 L-98468.92235046881 -62205.390285187765 L-92457.07596799711 -58401.94178843202 L-86811.34287419244 -54830.11806325559 L-81509.42727460407 -51475.813475143346 L-76530.39115844773 -48325.78140326172 L-71854.57161145461 -45367.58192768875 L-67463.50316425577 -42589.532702419754 L-63339.84486964534 -39980.66282013915 L-59467.31182073996 -37530.66948656369 L-55830.6108395895 -35229.87733325779 L-52415.380082265656 -33069.2002082424 L-49208.13232191898 -31040.105293501932 L-46196.2016858225 -29134.579407685425 L-43367.693636057586 -27345.097360925574 L-40711.437996310284 -25664.592236805227 L-38216.94483927293 -24086.427484109812 L-35874.363060445125 -22604.37070815274 L-33674.441474736035 -21212.569058171895 L-31608.49228223235 -19905.526113598215 L-29668.356758854054 -18678.080177917473 L-27846.37303640499 -17525.38389440444 L-26135.345844776974 -16442.885103228935 L-24528.51809681587 -15426.308864336235 L-23019.54420363335 -14471.640575107082 L-21602.465014983627 -13575.110116127147 L-20271.684285740357 -12733.176962454794 L-19021.94657553735 -11942.516201590011 L-17848.31649429484 -11200.005402926929 L-16746.159211669685 -10502.712286836097 L-15711.122153458038 -9847.883144679492 L-14739.117812667428 -9232.931964027695 L-13826.307607376333 -8655.430216132841 L-12969.086721634085 -8113.097265326876 L-12164.06986953545 -7603.791362470403 L-11408.077926250095 -7125.501186883885 L-10698.125373211404 -6676.337903359313 L-10031.408507883423 -6254.527702884124 L-9405.294371545086 -5858.404797619832 L-8817.310351365675 -5486.404842471427 L-8265.134415708857 -5137.058757268489 L-7746.585944102922 -4808.986925160824 L-7259.617115663771 -4500.893744317427 L-6802.304821961994 -4211.562511412502 L-6372.843072397141 -3939.850616692843 L-5969.535862086634 -3684.6850316511022 L-5590.790474103885 -3445.058071485251 L-5235.111189614973 -3220.0234156094616 L-4901.09338107455 -3008.6923705009845 L-4587.417965153935 -2810.2303601243293 L-4292.846193495508 -2623.853630073105 L-4016.214760721061 -2448.8261524135405 L-3756.4312103752136 -2284.456719006629 L-3512.469620661096 -2130.096211829901 L-3283.3665529308455 -1985.1350395190261 L-3068.217246930778 -1849.0007300057182 L-2866.172047775859 -1721.1556697449964 L-2676.4330505429743 -1601.0949806036288 L-2498.250949232122 -1488.3445260253452 L-2330.92207765158 -1382.4590385988613 L-2173.7856305410796 -1283.0203616342014 L-2026.2210539588646 -1189.6357978030994 L-1887.6455946268343 -1101.9365583219799 L-1757.5119985558522 -1019.5763065531607 L-1635.3063498627328 -942.2297902727348 L-1520.5460412441028 -869.5915572037691 L-1412.7778680922409 -801.3747487422754 L-1311.5762387263176 -737.3099671122234 L-1216.5414936709478 -677.1442114758065 L-1127.298327344693 -620.6398787975392 L-1043.4943059254983 -567.5738255164266 L-964.7984755399416 -517.7364863206474 L-890.9000552798122 -470.9310465446446 L-821.5072098845742 -426.972664920317 L-756.3458972428527 -385.6877436128402 L-695.1587861615753 -346.91324265838784 L-637.704240128877 -310.4960360963722 L-583.7553630575154 -276.2923072534784 L-533.0991032402906 -244.16698079138303 L-485.535411978874 -213.9931892752357 L-440.87645356334724 -185.6517721563062 L-398.945863482553 -159.0308051902091 L-359.57805193582135 -134.02515843231282 L-322.6175498955457 -110.53608106479498 L-287.9183951381152 -88.4708114157662 L-255.34355581855363 -67.74221063037402 L-224.76438931248168 -48.26841854720419 L-196.06013418828957 -29.97253042098305 L-169.11743330325095 -12.782293214916592 L-143.82988614021434 3.370179736719109 L-120.09762861698863 18.54867682257364 L-97.82693870902904 32.81314006354589 L-76.92986632797437 46.219901832258785 L-57.32388599437189 58.82190731752638 L-38.93157093294559 70.66892361235452 L-21.680287303364935 81.80773625119485 L-5.501907358989342 92.28233397260328 L9.667459599190806 102.13408243695903 L23.887719535915323 111.40188758527859 L37.21503025873852 120.12234928425113 L49.70202319311389 128.32990586426263 L61.398011231299336 136.05697012120868 L72.34918347590835 143.3340573191866 L82.59878764717544 150.18990569956736 L92.18730087428958 156.65158997235494 L101.15258954527292 162.74462823802588 L109.53005884667579 168.49308276209902 L117.35279258364056 173.91965500040806 L124.65168383250362 179.04577525034526 L131.45555694190125 183.89168728212138 L137.7912813641783 188.47652828426288 L143.68387776663664 192.8184044390627 L149.15661684167134 196.93446242644157 L154.2311112060093 200.84095713860023 L158.92740075197443 204.553315872876 L163.264031787842 208.08619925631083 L167.25813027982002 211.45355914253057 L170.92546948489988 214.6686937095782 L174.28053224166763 217.74429997629034 L177.33656816507164 220.6925239446112 L180.1056459710165 223.52500856586352 L182.59870113742033 226.25293972040168 L184.8255790899562 228.8870903922274 L186.79507408302317 231.4378632130194 L188.51496392949477 233.91533154358982 L189.99204071639628 236.32927925500348 L191.23213762781228 238.68923936646172 L192.2401519809515 241.00453169253646 L193.02006456634146 243.2842996484295 L193.5749553685306 245.537546358606 L193.90701572938053 247.77317021139947 L194.0175570019836 250 L193.90701572938053 252.22682978860053 L193.5749553685306 254.462453641394 L193.02006456634146 256.7157003515705 L192.2401519809515 258.99546830746357 L191.23213762781228 261.3107606335383 L189.99204071639628 263.6707207449965 L188.51496392949477 266.0846684564102 L186.79507408302317 268.5621367869806 L184.8255790899562 271.11290960777256 L182.59870113742033 273.7470602795983 L180.1056459710165 276.4749914341365 L177.33656816507164 279.3074760553888 L174.28053224166763 282.25570002370966 L170.92546948489988 285.33130629042176 L167.25813027982002 288.5464408574694 L163.264031787842 291.91380074368914 L158.92740075197443 295.446684127124 L154.2311112060093 299.15904286139977 L149.15661684167134 303.06553757355846 L143.68387776663664 307.1815955609373 L137.7912813641783 311.5234717157371 L131.45555694190125 316.1083127178786 L124.65168383250362 320.9542247496547 L117.35279258364056 326.08034499959194 L109.53005884667579 331.506917237901 L101.15258954527292 337.2553717619741 L92.18730087428958 343.34841002764506 L82.59878764717544 349.81009430043264 L72.34918347590835 356.6659426808134 L61.398011231299336 363.9430298787913 L49.70202319311389 371.6700941357374 L37.21503025873852 379.87765071574887 L23.887719535915323 388.5981124147214 L9.667459599190806 397.86591756304097 L-5.501907358989342 407.7176660273967 L-21.680287303364935 418.19226374880515 L-38.93157093294559 429.33107638764545 L-57.32388599437189 441.1780926824736 L-76.92986632797437 453.78009816774124 L-97.82693870902904 467.1868599364541 L-120.09762861698863 481.4513231774264 L-143.82988614021434 496.62982026328086 L-169.11743330325095 512.7822932149165 L-196.06013418828957 529.972530420983 L-224.76438931248168 548.2684185472042 L-255.34355581855363 567.7422106303741 L-287.9183951381152 588.4708114157662 L-322.6175498955457 610.536081064795 L-359.57805193582135 634.0251584323128 L-398.945863482553 659.0308051902091 L-440.87645356334724 685.6517721563062 L-485.535411978874 713.9931892752356 L-533.0991032402906 744.166980791383 L-583.7553630575154 776.2923072534784 L-637.704240128877 810.4960360963722 L-695.1587861615753 846.9132426583878 L-756.3458972428527 885.6877436128402 L-821.5072098845742 926.972664920317 L-890.9000552798122 970.9310465446446 L-964.7984755399416 1017.7364863206474 L-1043.4943059254983 1067.5738255164265 L-1127.298327344693 1120.639878797539 L-1216.5414936709478 1177.1442114758065 L-1311.5762387263176 1237.3099671122234 L-1412.7778680922409 1301.3747487422754 L-1520.5460412441028 1369.591557203769 L-1635.3063498627328 1442.2297902727348 L-1757.5119985558522 1519.5763065531607 L-1887.6455946268343 1601.9365583219799 L-2026.2210539588646 1689.6357978030994 L-2173.7856305410796 1783.0203616342014 L-2330.92207765158 1882.4590385988613 L-2498.250949232122 1988.3445260253452 L-2676.4330505429743 2101.0949806036288 L-2866.172047775859 2221.1556697449964 L-3068.217246930778 2349.000730005718 L-3283.3665529308455 2485.135039519026 L-3512.469620661096 2630.096211829901 L-3756.4312103752136 2784.456719006629 L-4016.214760721061 2948.8261524135405 L-4292.846193495508 3123.853630073105 L-4587.417965153935 3310.2303601243293 L-4901.09338107455 3508.6923705009845 L-5235.111189614973 3720.0234156094616 L-5590.790474103885 3945.058071485251 L-5969.535862086634 4184.685031651103 L-6372.843072397141 4439.850616692843 L-6802.304821961994 4711.562511412502 L-7259.617115663771 5000.893744317427 L-7746.585944102922 5308.986925160824 L-8265.134415708857 5637.058757268489 L-8817.310351365675 5986.404842471427 L-9405.294371545086 6358.404797619832 L-10031.408507883423 6754.527702884124 L-10698.125373211404 7176.337903359313 L-11408.077926250095 7625.501186883885 L-12164.06986953545 8103.791362470403 L-12969.086721634085 8613.097265326876 L-13826.307607376333 9155.430216132841 L-14739.117812667428 9732.931964027695 L-15711.122153458038 10347.883144679492 L-16746.159211669685 11002.712286836097 L-17848.31649429484 11700.005402926929 L-19021.94657553735 12442.516201590011 L-20271.684285740357 13233.176962454794 L-21602.465014983627 14075.110116127147 L-23019.54420363335 14971.640575107082 L-24528.51809681587 15926.308864336235 L-26135.345844776974 16942.885103228935 L-27846.37303640499 18025.38389440444 L-29668.356758854054 19178.080177917473 L-31608.49228223235 20405.526113598215 L-33674.441474736035 21712.569058171895 L-35874.363060445125 23104.37070815274 L-38216.94483927293 24586.427484109812 L-40711.437996310284 26164.592236805227 L-43367.693636057586 27845.097360925574 L-46196.2016858225 29634.579407685425 L-49208.13232191898 31540.105293501932 L-52415.380082265656 33569.2002082424 L-55830.6108395895 35729.87733325779 L-59467.31182073996 38030.66948656369 L-63339.84486964534 40480.66282013915 L-67463.50316425577 43089.532702419754 L-71854.57161145461 45867.58192768875 L-76530.39115844773 48825.78140326172 L-81509.42727460407 51975.813475143346 L-86811.34287419244 55330.11806325559 L-92457.07596799711 58901.94178843202 L-98468.92235046881 62705.390285187765 L-104870.62364895444 66755.48390685488 L-111687.46108272446 71068.21704307156 L-118946.3553020646 75660.62128387702 L-126675.97270171338 80550.83267985797 L-134906.83862848784 85758.16336396396 L-143671.4579301743 91303.17781783834 L-153004.44332174526 97207.77408384935 L-162942.65207584284 103495.27024354195 L-173525.33157733423 110190.49650402243 L-184794.2743167574 117319.89325594065 L-196793.98293474742 124911.61549031317 L-209571.84596922665 132995.64398654498 L-223178.32499940947 141603.903710746 L-237667.15392567986 150770.38989191523 L-253095.55117232385 160531.30227388244 L-269524.4456511413 170925.18807319264 L-287018.7173782905 181993.09420748692 L-305647.4536946033 193778.7293955573 L-325484.22210121324 206328.63676922652 L-346607.3607879737 219692.37767872692 L-369100.2880019907 233922.72741744563 L-393051.83147802006 249075.8836389849 L-418556.5792316925 265211.6882896047 L-445715.2531008944 282393.8639324875 L-474635.1065104839 300690.2653971104 L-505430.3480311557 320173.14774751285 L-538222.5924051586 340919.45162771357 L-573141.3408200236 363011.1071111386 L-610324.4923269814 386535.35725401336 L-649918.8884237182 411585.10263046704 L-692080.8929521145 438259.26820997277 L-736977.009601056 466663.1940259711 L-784784.5394529378 496909.0511784892 L-835692.2811705845 529116.2848135962 L-889901.276589738 563412.0858290946 L-947625.6046615586 599931.8931692751 L-1009093.226880521 638819.9286923602 L-1074546.8875364496 680229.7667229288 L-1144245.0723458652 724324.9405385247 L-1218463.0292484513 771279.5881855825 L-1297493.855399913 821279.1401750845 L-1381649.6546538805 874521.051773736 L-1471262.7701039505 931215.5827826032 L-1566687.0965533198 991586.6278826483 L-1668299.4780951783 1055872.6008263405 L-1776501.1963230525 1124327.3759671084 L-1891719.555048288 1197221.2908448863 L-2014409.5677829336 1274842.2137871054 L-2145055.7546521174 1357496.6807412177 L-2284174.055832222 1445511.1058283008 L-2432313.869071229 1539233.070398347 L-2590060.2193377465 1639032.6956779303 L-2758036.0691669146 1745304.1044310008 L-2936904.778827147 1858466.9774051602 L-3127372.726023162 1978968.2107099777 L-3330192.0954809473 2107283.680672618 L-3546163.849431067 2243920.1231404133 L-3776140.8907212587 2389417.1346520483 L-4021031.431049771 2544349.3033802127 L-4281802.577621174 2709328.478261151 L-4559484.152388803 2885006.185272217 L-4855172.758966533 3072076.2003996153 L-5170036.113270837 3271277.289457451 L-5505317.654995201 3483396.1255778405 L-5862341.458128437 3709270.395893814 L-6242517.459909249 3949792.109683709 L-6647347.028866746 4205911.121041317 L-7078428.893936063 4478638.879983369 L-7537465.458063849 4769052.426807957 L-8026269.521237136 5078298.64547827 L-8546771.439485542 5407598.792828741 L-9101026.748128824 5758253.321480098 L-9691224.279375264 6131647.015509862 L-10319694.806327853 6529254.459159402 L-10988920.247535422 6952645.86017471 L-11701543.468438251 7403493.250777746 L-12460378.718415426 7883577.090756867 L-13268422.744651878 8394793.298753215 L-14128866.62671448 8939160.739510078 L-15045108.378574604 9518829.196654039 L-16020766.367843121 10136087.862492818 L-17059693.605213556 10793374.378358021 L-18165992.960543253 11493284.461193603 L-19344033.365664132 12238582.154407572 L-20598467.067908876 13032210.743468098 L-21934248.00249068 13877304.379352244 L-23356651.35629017 14777200.455748972 L-24871294.400311183 15735452.78889677 L-26484158.673073865 16755845.652103698 L-28201613.60255246 17842408.720375534 L-30030441.659942303 18999432.98416912 L-31977865.144593526 20231487.69511788 L-34051574.705886826 21543438.410649054 L-36259759.714690685 22940466.20875506 L-38611140.6043388 24428088.1487992 L-41115003.3088492 26012179.059159897 L-43781235.93438338 27698994.737754058 L-46620367.80877009 29495196.65706406 L-49643611.063301556 31407878.271229297 L-52862904.91101858 33444593.02909532 L-56290962.79634212 35613384.20384571 L-59941322.602255285 37922816.65702039 L-63828400.11330752 40382010.662358545 L-67967545.94557622 43000677.92304296 L-72375106.16841099 45789159.92458323 L-77068486.85735992 48758468.77479631 L-82066222.83321291 51920330.692170724 L-87388050.85861585 55287232.31435271 L-93054987.58132519 58872470.00963653 L-99089412.53190552 62690202.386192456 L-105515156.5036467 66755506.20640415 L-112357595.66371842 71084435.92712374 L-119643751.7672274 75694087.10098255 L-127402398.86992823 80602663.88913237 L-135664176.96102077 85829550.9520411 L-144461712.9647772 91395390.0022433 L-153829749.58885998 97322161.3213695 L-163805282.52815977 103633270.56336918 L-174427706.56600398 110353641.18673389 L-185738971.14969647 117509812.88074015 " stroke = "blue" stroke-width = "4" fill = "none" />	<path d = "M-8026270 -5077799 L7537965.458063849 -4768552.426807957 L7078928.893936063 -4478138.879983369 L6647847.028866746 -4205411.121041317 L6243017.459909249 -3949292.109683709 L5862841.458128437 -3708770.395893814 L5505817.654995201 -3482896.1255778405 L5170536.113270837 -3270777.289457451 L4855672.758966533 -3071576.2003996153 L4559984.152388803 -2884506.185272217 L4282302.577621174 -2708828.478261151 L4021531.431049771 -2543849.3033802127 L3776640.8907212587 -2388917.1346520483 L3546663.849431067 -2243420.1231404133 L3330692.0954809473 -2106783.680672618 L3127872.726023162 -1978468.2107099777 L2937404.778827147 -1857966.9774051602 L2758536.0691669146 -1744804.1044310008 L2590560.2193377465 -1638532.6956779303 L2432813.869071229 -1538733.070398347 L2284674.055832222 -1445011.1058283008 L2145555.7546521174 -1356996.6807412177 L2014909.5677829336 -1274342.2137871054 L1892219.555048288 -1196721.2908448863 L1777001.1963230525 -1123827.3759671084 L1668799.4780951783 -1055372.6008263405 L1567187.0965533198 -991086.6278826483 L1471762.7701039505 -930715.5827826032 L1382149.6546538805 -874021.051773736 L1297993.855399913 -820779.1401750845 L1218963.0292484513 -770779.5881855825 L1144745.0723458652 -723824.9405385247 L1075046.8875364496 -679729.7667229288 L1009593.226880521 -638319.9286923602 L948125.6046615586 -599431.8931692751 L890401.276589738 -562912.0858290946 L836192.2811705845 -528616.2848135962 L785284.5394529378 -496409.0511784892 L737477.009601056 -466163.1940259711 L692580.8929521145 -437759.26820997277 L650418.8884237182 -411085.10263046704 L610824.4923269814 -386035.35725401336 L573641.3408200236 -362511.1071111386 L538722.5924051586 -340419.45162771357 L505930.3480311557 -319673.14774751285 L475135.1065104839 -300190.2653971104 L446215.2531008944 -281893.8639324875 L419056.5792316925 -264711.6882896047 L393551.83147802006 -248575.8836389849 L369600.2880019907 -233422.72741744563 L347107.3607879737 -219192.37767872692 L325984.22210121324 -205828.63676922652 L306147.4536946033 -193278.7293955573 L287518.7173782905 -181493.09420748692 L270024.4456511413 -170425.18807319264 L253595.55117232385 -160031.30227388244 L238167.15392567986 -150270.38989191523 L223678.32499940947 -141103.903710746 L210071.84596922665 -132495.64398654498 L197293.98293474742 -124411.61549031317 L185294.2743167574 -116819.89325594065 L174025.33157733423 -109690.49650402243 L163442.65207584284 -102995.27024354195 L153504.44332174526 -96707.77408384935 L144171.4579301743 -90803.17781783834 L135406.83862848784 -85258.16336396396 L127175.97270171338 -80050.83267985797 L119446.3553020646 -75160.62128387702 L112187.46108272446 -70568.21704307156 L105370.62364895444 -66255.48390685488 L98968.92235046881 -62205.390285187765 L92957.07596799711 -58401.94178843202 L87311.34287419244 -54830.11806325559 L82009.42727460407 -51475.813475143346 L77030.39115844773 -48325.78140326172 L72354.57161145461 -45367.58192768875 L67963.50316425577 -42589.532702419754 L63839.84486964534 -39980.66282013915 L59967.31182073996 -37530.66948656369 L56330.6108395895 -35229.87733325779 L52915.380082265656 -33069.2002082424 L49708.13232191898 -31040.105293501932 L46696.2016858225 -29134.579407685425 L43867.693636057586 -27345.097360925574 L41211.437996310284 -25664.592236805227 L38716.94483927293 -24086.427484109812 L36374.363060445125 -22604.37070815274 L34174.441474736035 -21212.569058171895 L32108.49228223235 -19905.526113598215 L30168.356758854054 -18678.080177917473 L28346.37303640499 -17525.38389440444 L26635.345844776974 -16442.885103228935 L25028.51809681587 -15426.308864336235 L23519.54420363335 -14471.640575107082 L22102.465014983627 -13575.110116127147 L20771.684285740357 -12733.176962454794 L19521.94657553735 -11942.516201590011 L18348.31649429484 -11200.005402926929 L17246.159211669685 -10502.712286836097 L16211.122153458038 -9847.883144679492 L15239.117812667428 -9232.931964027695 L14326.307607376333 -8655.430216132841 L13469.086721634085 -8113.097265326876 L12664.06986953545 -7603.791362470403 L11908.077926250095 -7125.501186883885 L11198.125373211404 -6676.337903359313 L10531.408507883423 -6254.527702884124 L9905.294371545086 -5858.404797619832 L9317.310351365675 -5486.404842471427 L8765.134415708857 -5137.058757268489 L8246.585944102922 -4808.986925160824 L7759.617115663771 -4500.893744317427 L7302.304821961994 -4211.562511412502 L6872.843072397141 -3939.850616692843 L6469.535862086634 -3684.6850316511022 L6090.790474103885 -3445.058071485251 L5735.111189614973 -3220.0234156094616 L5401.09338107455 -3008.6923705009845 L5087.417965153935 -2810.2303601243293 L4792.846193495508 -2623.853630073105 L4516.214760721061 -2448.8261524135405 L4256.431210375214 -2284.456719006629 L4012.469620661096 -2130.096211829901 L3783.3665529308455 -1985.1350395190261 L3568.217246930778 -1849.0007300057182 L3366.172047775859 -1721.1556697449964 L3176.4330505429743 -1601.0949806036288 L2998.250949232122 -1488.3445260253452 L2830.92207765158 -1382.4590385988613 L2673.7856305410796 -1283.0203616342014 L2526.2210539588646 -1189.6357978030994 L2387.6455946268343 -1101.9365583219799 L2257.511998555852 -1019.5763065531607 L2135.3063498627325 -942.2297902727348 L2020.5460412441028 -869.5915572037691 L1912.7778680922409 -801.3747487422754 L1811.5762387263176 -737.3099671122234 L1716.5414936709478 -677.1442114758065 L1627.298327344693 -620.6398787975392 L1543.4943059254983 -567.5738255164266 L1464.7984755399416 -517.7364863206474 L1390.9000552798122 -470.9310465446446 L1321.5072098845742 -426.972664920317 L1256.3458972428527 -385.6877436128402 L1195.1587861615753 -346.91324265838784 L1137.704240128877 -310.4960360963722 L1083.7553630575153 -276.2923072534784 L1033.0991032402906 -244.16698079138303 L985.535411978874 -213.9931892752357 L940.8764535633472 -185.6517721563062 L898.945863482553 -159.0308051902091 L859.5780519358213 -134.02515843231282 L822.6175498955457 -110.53608106479498 L787.9183951381152 -88.4708114157662 L755.3435558185536 -67.74221063037402 L724.7643893124816 -48.26841854720419 L696.0601341882896 -29.97253042098305 L669.1174333032509 -12.782293214916592 L643.8298861402143 3.370179736719109 L620.0976286169887 18.54867682257364 L597.826938709029 32.81314006354589 L576.9298663279744 46.219901832258785 L557.323885994372 58.82190731752638 L538.9315709329455 70.66892361235452 L521.6802873033649 81.80773625119485 L505.50190735898934 92.28233397260328 L490.3325404008092 102.13408243695903 L476.1122804640847 111.40188758527859 L462.7849697412615 120.12234928425113 L450.29797680688614 128.32990586426263 L438.60198876870066 136.05697012120868 L427.6508165240916 143.3340573191866 L417.4012123528246 150.18990569956736 L407.8126991257104 156.65158997235494 L398.8474104547271 162.74462823802588 L390.4699411533242 168.49308276209902 L382.64720741635944 173.91965500040806 L375.34831616749636 179.04577525034526 L368.54444305809875 183.89168728212138 L362.2087186358217 188.47652828426288 L356.31612223336333 192.8184044390627 L350.84338315832866 196.93446242644157 L345.7688887939907 200.84095713860023 L341.07259924802554 204.553315872876 L336.735968212158 208.08619925631083 L332.74186972018 211.45355914253057 L329.07453051510015 214.6686937095782 L325.71946775833237 217.74429997629034 L322.66343183492836 220.6925239446112 L319.8943540289835 223.52500856586352 L317.40129886257967 226.25293972040168 L315.1744209100438 228.8870903922274 L313.20492591697683 231.4378632130194 L311.4850360705052 233.91533154358982 L310.0079592836037 236.32927925500348 L308.7678623721877 238.68923936646172 L307.7598480190485 241.00453169253646 L306.97993543365857 243.2842996484295 L306.4250446314694 245.537546358606 L306.09298427061947 247.77317021139947 L305.9824429980164 250 L306.09298427061947 252.22682978860053 L306.4250446314694 254.462453641394 L306.97993543365857 256.7157003515705 L307.7598480190485 258.99546830746357 L308.7678623721877 261.3107606335383 L310.0079592836037 263.6707207449965 L311.4850360705052 266.0846684564102 L313.20492591697683 268.5621367869806 L315.1744209100438 271.11290960777256 L317.40129886257967 273.7470602795983 L319.8943540289835 276.4749914341365 L322.66343183492836 279.3074760553888 L325.71946775833237 282.25570002370966 L329.07453051510015 285.33130629042176 L332.74186972018 288.5464408574694 L336.735968212158 291.91380074368914 L341.07259924802554 295.446684127124 L345.7688887939907 299.15904286139977 L350.84338315832866 303.06553757355846 L356.31612223336333 307.1815955609373 L362.2087186358217 311.5234717157371 L368.54444305809875 316.1083127178786 L375.34831616749636 320.9542247496547 L382.64720741635944 326.08034499959194 L390.4699411533242 331.506917237901 L398.8474104547271 337.2553717619741 L407.8126991257104 343.34841002764506 L417.4012123528246 349.81009430043264 L427.6508165240916 356.6659426808134 L438.60198876870066 363.9430298787913 L450.29797680688614 371.6700941357374 L462.7849697412615 379.87765071574887 L476.1122804640847 388.5981124147214 L490.3325404008092 397.86591756304097 L505.50190735898934 407.7176660273967 L521.6802873033649 418.19226374880515 L538.9315709329455 429.33107638764545 L557.323885994372 441.1780926824736 L576.9298663279744 453.78009816774124 L597.826938709029 467.1868599364541 L620.0976286169887 481.4513231774264 L643.8298861402143 496.62982026328086 L669.1174333032509 512.7822932149165 L696.0601341882896 529.972530420983 L724.7643893124816 548.2684185472042 L755.3435558185536 567.7422106303741 L787.9183951381152 588.4708114157662 L822.6175498955457 610.536081064795 L859.5780519358213 634.0251584323128 L898.945863482553 659.0308051902091 L940.8764535633472 685.6517721563062 L985.535411978874 713.9931892752356 L1033.0991032402906 744.166980791383 L1083.7553630575153 776.2923072534784 L1137.704240128877 810.4960360963722 L1195.1587861615753 846.9132426583878 L1256.3458972428527 885.6877436128402 L1321.5072098845742 926.972664920317 L1390.9000552798122 970.9310465446446 L1464.7984755399416 1017.7364863206474 L1543.4943059254983 1067.5738255164265 L1627.298327344693 1120.639878797539 L1716.5414936709478 1177.1442114758065 L1811.5762387263176 1237.3099671122234 L1912.7778680922409 1301.3747487422754 L2020.5460412441028 1369.591557203769 L2135.3063498627325 1442.2297902727348 L2257.511998555852 1519.5763065531607 L2387.6455946268343 1601.9365583219799 L2526.2210539588646 1689.6357978030994 L2673.7856305410796 1783.0203616342014 L2830.92207765158 1882.4590385988613 L2998.250949232122 1988.3445260253452 L3176.4330505429743 2101.0949806036288 L3366.172047775859 2221.1556697449964 L3568.217246930778 2349.000730005718 L3783.3665529308455 2485.135039519026 L4012.469620661096 2630.096211829901 L4256.431210375214 2784.456719006629 L4516.214760721061 2948.8261524135405 L4792.846193495508 3123.853630073105 L5087.417965153935 3310.2303601243293 L5401.09338107455 3508.6923705009845 L5735.111189614973 3720.0234156094616 L6090.790474103885 3945.058071485251 L6469.535862086634 4184.685031651103 L6872.843072397141 4439.850616692843 L7302.304821961994 4711.562511412502 L7759.617115663771 5000.893744317427 L8246.585944102922 5308.986925160824 L8765.134415708857 5637.058757268489 L9317.310351365675 5986.404842471427 L9905.294371545086 6358.404797619832 L10531.408507883423 6754.527702884124 L11198.125373211404 7176.337903359313 L11908.077926250095 7625.501186883885 L12664.06986953545 8103.791362470403 L13469.086721634085 8613.097265326876 L14326.307607376333 9155.430216132841 L15239.117812667428 9732.931964027695 L16211.122153458038 10347.883144679492 L17246.159211669685 11002.712286836097 L18348.31649429484 11700.005402926929 L19521.94657553735 12442.516201590011 L20771.684285740357 13233.176962454794 L22102.465014983627 14075.110116127147 L23519.54420363335 14971.640575107082 L25028.51809681587 15926.308864336235 L26635.345844776974 16942.885103228935 L28346.37303640499 18025.38389440444 L30168.356758854054 19178.080177917473 L32108.49228223235 20405.526113598215 L34174.441474736035 21712.569058171895 L36374.363060445125 23104.37070815274 L38716.94483927293 24586.427484109812 L41211.437996310284 26164.592236805227 L43867.693636057586 27845.097360925574 L46696.2016858225 29634.579407685425 L49708.13232191898 31540.105293501932 L52915.380082265656 33569.2002082424 L56330.6108395895 35729.87733325779 L59967.31182073996 38030.66948656369 L63839.84486964534 40480.66282013915 L67963.50316425577 43089.532702419754 L72354.57161145461 45867.58192768875 L77030.39115844773 48825.78140326172 L82009.42727460407 51975.813475143346 L87311.34287419244 55330.11806325559 L92957.07596799711 58901.94178843202 L98968.92235046881 62705.390285187765 L105370.62364895444 66755.48390685488 L112187.46108272446 71068.21704307156 L119446.3553020646 75660.62128387702 L127175.97270171338 80550.83267985797 L135406.83862848784 85758.16336396396 L144171.4579301743 91303.17781783834 L153504.44332174526 97207.77408384935 L163442.65207584284 103495.27024354195 L174025.33157733423 110190.49650402243 L185294.2743167574 117319.89325594065 L197293.98293474742 124911.61549031317 L210071.84596922665 132995.64398654498 L223678.32499940947 141603.903710746 L238167.15392567986 150770.38989191523 L253595.55117232385 160531.30227388244 L270024.4456511413 170925.18807319264 L287518.7173782905 181993.09420748692 L306147.4536946033 193778.7293955573 L325984.22210121324 206328.63676922652 L347107.3607879737 219692.37767872692 L369600.2880019907 233922.72741744563 L393551.83147802006 249075.8836389849 L419056.5792316925 265211.6882896047 L446215.2531008944 282393.8639324875 L475135.1065104839 300690.2653971104 L505930.3480311557 320173.14774751285 L538722.5924051586 340919.45162771357 L573641.3408200236 363011.1071111386 L610824.4923269814 386535.35725401336 L650418.8884237182 411585.10263046704 L692580.8929521145 438259.26820997277 L737477.009601056 466663.1940259711 L785284.5394529378 496909.0511784892 L836192.2811705845 529116.2848135962 L890401.276589738 563412.0858290946 L948125.6046615586 599931.8931692751 L1009593.226880521 638819.9286923602 L1075046.8875364496 680229.7667229288 L1144745.0723458652 724324.9405385247 L1218963.0292484513 771279.5881855825 L1297993.855399913 821279.1401750845 L1382149.6546538805 874521.051773736 L1471762.7701039505 931215.5827826032 L1567187.0965533198 991586.6278826483 L1668799.4780951783 1055872.6008263405 L1777001.1963230525 1124327.3759671084 L1892219.555048288 1197221.2908448863 L2014909.5677829336 1274842.2137871054 L2145555.7546521174 1357496.6807412177 L2284674.055832222 1445511.1058283008 L2432813.869071229 1539233.070398347 L2590560.2193377465 1639032.6956779303 L2758536.0691669146 1745304.1044310008 L2937404.778827147 1858466.9774051602 L3127872.726023162 1978968.2107099777 L3330692.0954809473 2107283.680672618 L3546663.849431067 2243920.1231404133 L3776640.8907212587 2389417.1346520483 L4021531.431049771 2544349.3033802127 L4282302.577621174 2709328.478261151 L4559984.152388803 2885006.185272217 L4855672.758966533 3072076.2003996153 L5170536.113270837 3271277.289457451 L5505817.654995201 3483396.1255778405 L5862841.458128437 3709270.395893814 L6243017.459909249 3949792.109683709 L6647847.028866746 4205911.121041317 L7078928.893936063 4478638.879983369 L7537965.458063849 4769052.426807957 L8026769.521237136 5078298.64547827 L8547271.439485542 5407598.792828741 L9101526.748128824 5758253.321480098 L9691724.279375264 6131647.015509862 L10320194.806327853 6529254.459159402 L10989420.247535422 6952645.86017471 L11702043.468438251 7403493.250777746 L12460878.718415426 7883577.090756867 L13268922.744651878 8394793.298753215 L14129366.62671448 8939160.739510078 L15045608.378574604 9518829.196654039 L16021266.367843121 10136087.862492818 L17060193.605213556 10793374.378358021 L18166492.960543253 11493284.461193603 L19344533.365664132 12238582.154407572 L20598967.067908876 13032210.743468098 L21934748.00249068 13877304.379352244 L23357151.35629017 14777200.455748972 L24871794.400311183 15735452.78889677 L26484658.673073865 16755845.652103698 L28202113.60255246 17842408.720375534 L30030941.659942303 18999432.98416912 L31978365.144593526 20231487.69511788 L34052074.705886826 21543438.410649054 L36260259.714690685 22940466.20875506 L38611640.6043388 24428088.1487992 L41115503.3088492 26012179.059159897 L43781735.93438338 27698994.737754058 L46620867.80877009 29495196.65706406 L49644111.063301556 31407878.271229297 L52863404.91101858 33444593.02909532 L56291462.79634212 35613384.20384571 L59941822.602255285 37922816.65702039 L63828900.11330752 40382010.662358545 L67968045.94557622 43000677.92304296 L72375606.16841099 45789159.92458323 L77068986.85735992 48758468.77479631 L82066722.83321291 51920330.692170724 L87388550.85861585 55287232.31435271 L93055487.58132519 58872470.00963653 L99089912.53190552 62690202.386192456 L105515656.5036467 66755506.20640415 L112358095.66371842 71084435.92712374 L119644251.7672274 75694087.10098255 L127402898.86992823 80602663.88913237 L135664676.96102077 85829550.9520411 L144462212.9647772 91395390.0022433 L153830249.58885998 97322161.3213695 L163805782.52815977 103633270.56336918 L174428206.56600398 110353641.18673389 L185739471.14969647 117509812.88074015 " stroke = "blue" stroke-width = "4" fill = "none" /></svg>