<svg width="321" height="302" viewbox = "0 0 321 302"  xmlns="http://www.w3.org/2000/svg">

<!--
<json>
{
    "svgwidth": 321,
    "svgheight": 302,
    "unit": 100,
    "x0": 683,
    "y0": 290,
    "x0rel": -1,
    "y0rel": -20,
    "glyph": "0250,",
    "table": [
        "0220:0304,0350,0334,0330,0335,0336,0366,0334,0337,0331,0335,0330,0330,0335,0335,0335,0335,0367,0366,0330,0330,0334,0334,0334,0330,0334,0336,0367,0335,0337,0331,0334,0304,",
        "0221:0322,0350,0335,0220,0335,0220,0335,0220,0335,0220,0341,0333,0310,0350,0334,0304,0337,0362,0203,0334,0203,0334,0203,0334,0203,0354,0350,0335,0336,0331,0334,0304,0336,0313,0336,0312,0336,0330,0362,0335,0337,0203,0306,0335,0335,0203,0203,0335,0335,0203,0203,0335,0335,0203,0354,0304,0334,0336,0331,0337,0313,0337,0310,0337,0313,",
        "0222:0306,0350,0334,0330,0336,0335,0366,0334,0337,0331,0335,0330,0336,0330,0304,0335,0335,0367,0330,0330,0330,0306,0334,0334,0350,0334,0330,0330,0334,0366,0335,0337,0331,0334,0330,0336,0330,0335,0335,0335,0335,0335,0335,0367,0330,0330,0330,0334,0334,0334,0334,0334,0334,0337,0306,",
        "0223:0323,0222,0335,0222,0335,0222,0335,0222,0335,0222,0335,0222,0341,0335,0316,0336,0313,0337,0337,0341,0314,0336,0330,0313,0337,0341,0336,0331,0314,0337,0313,0336,0336,0316,0337,0304,0313,",
        "0224:0305,0350,0350,0334,0330,0335,0336,0336,0366,0334,0337,0337,0331,0335,0330,0336,0330,0304,0335,0335,0367,0366,0335,0335,0331,0337,0331,0305,0350,0350,0335,0330,0334,0336,0336,0367,0335,0337,0337,0331,0334,0305,0350,",
        "0225:0324,0224,0335,0224,0335,0224,0335,0224,0335,0224,0335,0224,0335,0224,0335,0224,0335,0224,0335,0224,0335,0341,0331,0306,0350,0335,0312,0337,0362,0203,0334,0334,0334,0334,0203,0334,0334,0334,0334,0203,0354,0335,0334,0334,0334,0334,0334,0336,0334,0330,0304,0313,",
        "0226:0306,0350,0350,0335,0330,0334,0336,0336,0366,0335,0337,0337,0331,0334,0330,0336,0330,0304,0335,0335,0367,0366,0330,0337,0330,0335,0335,0306,0350,0350,0334,0330,0335,0336,0336,0367,0334,0337,0337,0331,0335,0351,",
        "0227:0325,0306,0350,0350,0335,0226,0335,0226,0335,0226,0335,0226,0335,0226,0335,0226,0335,0226,0335,0226,0335,0226,0335,0226,0335,0226,0335,0226,0335,0341,0350,0334,0330,0306,0335,0335,0350,0335,0312,0337,0362,0203,0335,0335,0335,0335,0203,0335,0335,0335,0335,0203,0354,0335,0335,0335,0336,0330,0335,0335,0335,0337,0362,0203,0335,0335,0335,0335,0203,0335,0335,0335,0335,0203,0354,0334,0336,0331,0334,0334,0304,0313,",
        "0230:0304,0350,0350,0350,0334,0330,0335,0336,0336,0336,0366,0334,0337,0337,0337,0331,0335,0330,0336,0336,0330,0304,0335,0335,0367,0366,0330,0335,0335,0337,0337,0331,0350,0350,0350,0335,0330,0334,0336,0336,0336,0367,0335,0337,0337,0337,0331,0334,0351,0335,",
        "0231:0326,0230,0230,0230,0230,0230,0230,0230,0230,0230,0230,0230,0230,0230,0230,0230,0230,0306,0335,0341,0330,0350,0334,0334,0334,0334,0334,0312,0337,0362,0203,0334,0334,0334,0334,0203,0334,0334,0334,0334,0203,0354,0335,0336,0334,0334,0334,0334,0330,0335,0335,0331,0313,0336,0341,0304,0337,",
        "0232:0321,0341,0335,0350,0334,0330,0335,0336,0366,0334,0337,0331,0335,0330,0330,0335,0335,0335,0335,0367,0366,0330,0330,0335,0335,0335,0335,0335,0330,0334,0336,0367,0335,0337,0331,0335,0335,0330,0336,0335,0366,0334,0337,0331,0335,0330,0330,0334,0334,0334,0334,0367,0366,0330,0330,0335,0335,0335,0335,0335,0330,0334,0336,0367,0335,0337,0331,0335,0306,0335,0330,0350,0334,0334,0334,0334,0334,0312,0337,0362,0203,0334,0334,0334,0334,0203,0334,0334,0334,0334,0203,0354,0334,0334,0335,0335,0335,0336,0331,0334,0334,0313,0304,",
        "0233:0304,0330,0335,0335,0306,0351,0343,0330,0304,0335,0335,0306,0350,0335,",
        "0234:0320,0233,0233,0233,0233,0233,0233,0233,0233,0233,0233,0233,0233,0304,",
        "0235:0306,0330,0335,0335,0343,0335,0335,0343,0335,0335,0331,0350,0335,",
        "0236:0320,0235,0235,0235,0235,0235,0235,0235,0235,0235,0235,0235,0235,0235,",
        "0237:0330,0306,0335,0335,0321,0362,0203,0335,0203,0335,0203,0335,0203,0335,0203,0335,0203,0335,0354,0330,0335,0335,0350,0335,0312,0337,0362,0203,0334,0334,0334,0334,0203,0334,0334,0334,0334,0203,0354,0334,0336,0331,0334,0337,0362,0203,0334,0334,0334,0334,0203,0334,0334,0334,0334,0203,0354,0334,0336,0331,0334,0334,0330,0304,0313,0320,",
        "0240:0305,0350,0334,0330,0336,0366,0337,0331,0335,0330,0335,0335,0335,0335,0335,0336,0331,0331,0367,0366,0330,0330,0335,0335,0335,0335,0335,0337,0331,0335,0330,0336,0367,0337,0331,0335,",
        "0241:0240,0240,0240,0240,0240,",
        "0242:0305,0350,0335,0336,0213,0213,0213,0330,0330,0240,0334,0334,0331,0331,0214,0214,0214,0337,0335,",
        "0243:0241,0242,0242,0242,0242,0242,",
        "0244:0305,0350,0350,0336,0330,0330,0336,0336,0330,0337,0337,0240,0334,0334,0336,0336,0331,0337,0337,0331,0331,0335,0337,0351,",
        "0245:0244,0244,0244,0244,0244,0244,0244,0244,0244,0244,",
        "0246:0320,0335,0306,0350,0334,0330,0321,0337,0366,0336,0331,0335,0335,0330,0337,0336,0336,0336,0336,0336,0330,0337,0337,0337,0337,0337,0367,0336,0336,0336,0336,0336,0331,0335,0337,0320,0337,0362,0203,0334,0334,0334,0334,0203,0334,0334,0334,0334,0203,0363,0335,0337,0337,0330,0335,0335,0304,",
        "0247:0336,0336,0336,0347,0337,0337,0337,",
        "0250:0331,0331,0331,0331,0331,0336,0221,0330,0330,0330,0223,0330,0330,0330,0330,0225,0330,0330,0330,0227,0330,0330,0330,0231,0330,0330,0330,0232,0330,0330,0330,0236,",
        "01220:0333,0200,0332,0336,0333,0337,0220,0336,0333,0337,",
        "01221:0333,0200,0336,0332,0337,0336,0330,0210,0210,0210,0221,0211,0211,0211,0320,0333,0331,0337,",
        "01222:0333,0200,0332,0336,0330,0333,0222,0304,0333,0331,0337,",
        "01223:0333,0200,0336,0330,0332,0332,0330,0331,0333,0210,0210,0210,0223,0211,0211,0211,0333,0331,0337,",
        "01224:0333,0200,0336,0332,0224,0304,0313,0333,0337,",
        "01225:0333,0200,0336,0330,0330,0332,0225,0333,0333,0331,0331,0332,0337,",
        "01226:0333,0200,0336,0332,0337,0226,0304,0336,0333,0337,",
        "01227:0333,0200,0336,0332,0337,0336,0332,0336,0330,0337,0227,0304,0313,0336,0331,0337,0337,0333,",
        "01230:0333,0200,0336,0332,0337,0230,0334,0304,0336,0333,0337,",
        "01231:0333,0200,0332,0336,0330,0231,0333,0333,0331,0337,",
        "01232:0333,0200,0336,0330,0332,0337,0336,0232,0331,0333,0337,",
        "01233:0333,0200,0336,0332,0337,0233,0334,0304,0336,0333,0337,",
        "01234:0333,0200,0336,0330,0332,0234,0333,0331,0337,",
        "01235:0333,0200,0336,0330,0332,0337,0235,0336,0333,0331,0337,",
        "01236:0333,0200,0336,0330,0330,0332,0336,0331,0337,0236,0333,0331,0331,0336,0330,0337,0337,",
        "01237:0333,0200,0336,0330,0332,0237,0333,0331,0337,",
        "01240:0333,0200,0336,0332,0332,0333,0240,0334,0334,0304,0333,0337,",
        "01241:0333,0200,0330,0336,0331,0332,0336,0241,0304,0337,0333,0331,0337,",
        "01242:0333,0200,0336,0330,0332,0336,0241,0304,0333,0333,0331,0331,0337,0337,",
        "01243:0333,0200,0336,0336,0330,0330,0332,0332,0243,0304,0337,0333,0331,0337,",
        "01244:0333,0200,0332,0336,0330,0336,0336,0243,0243,0243,0243,0331,0331,0331,0331,0337,0337,0337,",
        "01245:0333,0200,0336,0332,0336,0331,0337,0245,0333,0336,0330,0337,0337,",
        "01246:0333,0200,0330,0332,0336,0331,0336,0332,0337,0246,0333,0333,0336,0333,0331,0331,0337,0337,",
        "01247:0333,0200,0336,0330,0332,0337,0247,0336,0333,0331,0337,"
    ]
}
</json>
-->
<path    d = "M160,581 C177,563 195,596 230,560" fill = "none" stroke-width = "4" stroke = "red" /><path    d = "M230,560 C195,596 227,613 210,631" fill = "none" stroke-width = "4" stroke = "red" /><path    d = "M210,631 C227,649 195,666 230,702" fill = "none" stroke-width = "4" stroke = "red" /><path    d = "M230,702 C195,666 177,699 160,681" fill = "none" stroke-width = "4" stroke = "red" /><path    d = "M160,681 C142,699 124,666 89,702" fill = "none" stroke-width = "4" stroke = "red" /><path    d = "M89,702 C124,666 92,649 110,631" fill = "none" stroke-width = "4" stroke = "red" /><path    d = "M110,631 C92,613 124,596 89,560" fill = "none" stroke-width = "4" stroke = "red" /><path    d = "M89,560 C124,596 142,563 160,581" fill = "none" stroke-width = "4" stroke = "red" />    <circle cx="160" cy = "631" r = "50" stroke = "red" stroke-width = "4" fill = "none" />
	<path d = "M195 596 L124 596 L124 666 L195 666 L195 596 Z" stroke = "red" stroke-width = "4" fill = "none" />	<path d = "M160 621 L177 621 L168 636 L160 651 L151 636 L142 621 L160 621 Z" stroke = "red" stroke-width = "4" fill = "none" /><path    d = "M134,438 C134,413 159,431 159,406" fill = "none" stroke-width = "4" stroke = "orange" /><path    d = "M184,438 C184,413 159,431 159,406" fill = "none" stroke-width = "4" stroke = "orange" /><path    d = "M184,438 C206,425 203,456 224,444" fill = "none" stroke-width = "4" stroke = "orange" /><path    d = "M209,481 C231,469 203,456 224,444" fill = "none" stroke-width = "4" stroke = "orange" /><path    d = "M209,481 C231,494 203,506 224,519" fill = "none" stroke-width = "4" stroke = "orange" /><path    d = "M184,524 C206,537 203,506 224,519" fill = "none" stroke-width = "4" stroke = "orange" /><path    d = "M184,524 C184,549 159,531 159,556" fill = "none" stroke-width = "4" stroke = "orange" /><path    d = "M134,524 C134,549 159,531 159,556" fill = "none" stroke-width = "4" stroke = "orange" /><path    d = "M134,524 C113,537 116,506 95,519" fill = "none" stroke-width = "4" stroke = "orange" /><path    d = "M109,481 C88,494 116,506 95,519" fill = "none" stroke-width = "4" stroke = "orange" /><path    d = "M109,481 C88,469 116,456 95,444" fill = "none" stroke-width = "4" stroke = "orange" /><path    d = "M134,438 C113,425 116,456 95,444" fill = "none" stroke-width = "4" stroke = "orange" />    <circle cx="159" cy = "481" r = "49.99999999999999" stroke = "orange" stroke-width = "4" fill = "none" />
    <circle cx="159" cy = "481" r = "39.99999999999999" stroke = "orange" stroke-width = "4" fill = "none" />
    <circle cx="159" cy = "468" r = "26.66666666666666" stroke = "orange" stroke-width = "4" fill = "none" />
<path    d = "M144,233 C144,221 159,231 159,206" fill = "none" stroke-width = "4" stroke = "yellow" /><path    d = "M159,206 C159,231 175,221 175,233" fill = "none" stroke-width = "4" stroke = "yellow" /><path    d = "M175,233 C182,223 189,241 204,220" fill = "none" stroke-width = "4" stroke = "yellow" /><path    d = "M204,220 C189,241 207,241 200,252" fill = "none" stroke-width = "4" stroke = "yellow" /><path    d = "M200,252 C212,248 207,266 231,258" fill = "none" stroke-width = "4" stroke = "yellow" /><path    d = "M231,258 C207,266 221,277 209,281" fill = "none" stroke-width = "4" stroke = "yellow" /><path    d = "M209,281 C221,285 207,296 231,304" fill = "none" stroke-width = "4" stroke = "yellow" /><path    d = "M231,304 C207,296 212,314 200,310" fill = "none" stroke-width = "4" stroke = "yellow" /><path    d = "M200,310 C207,321 189,321 204,342" fill = "none" stroke-width = "4" stroke = "yellow" /><path    d = "M204,342 C189,321 182,339 175,329" fill = "none" stroke-width = "4" stroke = "yellow" /><path    d = "M175,329 C175,341 159,331 159,356" fill = "none" stroke-width = "4" stroke = "yellow" /><path    d = "M159,356 C159,331 144,341 144,329" fill = "none" stroke-width = "4" stroke = "yellow" /><path    d = "M144,329 C137,339 130,321 115,342" fill = "none" stroke-width = "4" stroke = "yellow" /><path    d = "M115,342 C130,321 112,321 119,310" fill = "none" stroke-width = "4" stroke = "yellow" /><path    d = "M119,310 C107,314 112,296 88,304" fill = "none" stroke-width = "4" stroke = "yellow" /><path    d = "M88,304 C112,296 98,285 109,281" fill = "none" stroke-width = "4" stroke = "yellow" /><path    d = "M109,281 C98,277 112,266 88,258" fill = "none" stroke-width = "4" stroke = "yellow" /><path    d = "M88,258 C112,266 107,248 119,252" fill = "none" stroke-width = "4" stroke = "yellow" /><path    d = "M119,252 C112,241 130,241 115,220" fill = "none" stroke-width = "4" stroke = "yellow" /><path    d = "M115,220 C130,241 137,223 144,233" fill = "none" stroke-width = "4" stroke = "yellow" />    <circle cx="160" cy = "281" r = "49.99999999999999" stroke = "yellow" stroke-width = "4" fill = "none" />
	<path d = "M159 331 L203 256 L116 256 L160 331 Z" stroke = "yellow" stroke-width = "4" fill = "none" /><path    d = "M184,88 C188,76 172,83 179,59" fill = "none" stroke-width = "4" stroke = "green" /><path    d = "M179,59 C172,83 163,69 159,81" fill = "none" stroke-width = "4" stroke = "green" /><path    d = "M203,106 C212,97 195,96 213,78" fill = "none" stroke-width = "4" stroke = "green" /><path    d = "M213,78 C195,96 193,79 184,88" fill = "none" stroke-width = "4" stroke = "green" /><path    d = "M210,131 C222,128 208,118 232,112" fill = "none" stroke-width = "4" stroke = "green" /><path    d = "M232,112 C208,118 215,103 203,106" fill = "none" stroke-width = "4" stroke = "green" /><path    d = "M203,156 C215,159 208,144 232,150" fill = "none" stroke-width = "4" stroke = "green" /><path    d = "M232,150 C208,144 222,134 210,131" fill = "none" stroke-width = "4" stroke = "green" /><path    d = "M185,174 C193,183 195,166 213,184" fill = "none" stroke-width = "4" stroke = "green" /><path    d = "M213,184 C195,166 212,165 203,156" fill = "none" stroke-width = "4" stroke = "green" /><path    d = "M160,181 C163,193 172,179 179,203" fill = "none" stroke-width = "4" stroke = "green" /><path    d = "M179,203 C172,179 188,186 185,174" fill = "none" stroke-width = "4" stroke = "green" /><path    d = "M135,174 C131,186 147,179 140,203" fill = "none" stroke-width = "4" stroke = "green" /><path    d = "M140,203 C147,179 156,193 160,181" fill = "none" stroke-width = "4" stroke = "green" /><path    d = "M116,156 C107,165 124,166 106,184" fill = "none" stroke-width = "4" stroke = "green" /><path    d = "M106,184 C124,166 126,183 135,174" fill = "none" stroke-width = "4" stroke = "green" /><path    d = "M109,131 C97,134 111,144 87,150" fill = "none" stroke-width = "4" stroke = "green" /><path    d = "M87,150 C111,144 104,159 116,156" fill = "none" stroke-width = "4" stroke = "green" /><path    d = "M116,106 C104,103 111,118 87,112" fill = "none" stroke-width = "4" stroke = "green" /><path    d = "M87,112 C111,118 97,128 109,131" fill = "none" stroke-width = "4" stroke = "green" /><path    d = "M134,88 C126,79 124,96 106,78" fill = "none" stroke-width = "4" stroke = "green" /><path    d = "M106,78 C124,96 107,97 116,106" fill = "none" stroke-width = "4" stroke = "green" /><path    d = "M159,81 C156,69 147,83 140,59" fill = "none" stroke-width = "4" stroke = "green" /><path    d = "M140,59 C147,83 131,76 134,88" fill = "none" stroke-width = "4" stroke = "green" />    <circle cx="159" cy = "131" r = "49.99999999999999" stroke = "green" stroke-width = "4" fill = "none" />
	<path d = "M159 81 L203 156 L116 156 L159 81 Z" stroke = "green" stroke-width = "4" fill = "none" />	<path d = "M203 106 L160 181 L116 106 L203 106 Z" stroke = "green" stroke-width = "4" fill = "none" /><path    d = "M150,-68 C150,-74 159,-69 159,-82" fill = "none" stroke-width = "4" stroke = "blue" /><path    d = "M159,-82 C159,-69 169,-74 169,-68" fill = "none" stroke-width = "4" stroke = "blue" /><path    d = "M169,-68 C172,-74 179,-65 183,-77" fill = "none" stroke-width = "4" stroke = "blue" /><path    d = "M183,-77 C179,-65 190,-66 187,-61" fill = "none" stroke-width = "4" stroke = "blue" /><path    d = "M187,-61 C192,-65 195,-54 204,-63" fill = "none" stroke-width = "4" stroke = "blue" /><path    d = "M204,-63 C195,-54 205,-51 201,-47" fill = "none" stroke-width = "4" stroke = "blue" /><path    d = "M201,-47 C207,-49 206,-38 217,-43" fill = "none" stroke-width = "4" stroke = "blue" /><path    d = "M217,-43 C206,-38 214,-31 209,-29" fill = "none" stroke-width = "4" stroke = "blue" /><path    d = "M209,-29 C215,-29 209,-19 222,-19" fill = "none" stroke-width = "4" stroke = "blue" /><path    d = "M222,-19 C209,-19 215,-9 209,-9" fill = "none" stroke-width = "4" stroke = "blue" /><path    d = "M209,-9 C214,-7 206,0 217,5" fill = "none" stroke-width = "4" stroke = "blue" /><path    d = "M217,5 C206,0 207,11 201,9" fill = "none" stroke-width = "4" stroke = "blue" /><path    d = "M201,9 C205,13 195,16 204,25" fill = "none" stroke-width = "4" stroke = "blue" /><path    d = "M204,25 C195,16 192,27 187,23" fill = "none" stroke-width = "4" stroke = "blue" /><path    d = "M187,23 C190,28 179,27 183,39" fill = "none" stroke-width = "4" stroke = "blue" /><path    d = "M183,39 C179,27 172,36 169,30" fill = "none" stroke-width = "4" stroke = "blue" /><path    d = "M169,30 C169,36 159,31 159,44" fill = "none" stroke-width = "4" stroke = "blue" /><path    d = "M159,44 C159,31 150,36 150,30" fill = "none" stroke-width = "4" stroke = "blue" /><path    d = "M150,30 C147,36 140,27 136,39" fill = "none" stroke-width = "4" stroke = "blue" /><path    d = "M136,39 C140,27 129,28 132,23" fill = "none" stroke-width = "4" stroke = "blue" /><path    d = "M132,23 C127,27 124,16 115,25" fill = "none" stroke-width = "4" stroke = "blue" /><path    d = "M115,25 C124,16 114,13 118,9" fill = "none" stroke-width = "4" stroke = "blue" /><path    d = "M118,9 C112,11 113,0 102,5" fill = "none" stroke-width = "4" stroke = "blue" /><path    d = "M102,5 C113,0 105,-7 110,-9" fill = "none" stroke-width = "4" stroke = "blue" /><path    d = "M110,-9 C104,-9 109,-19 97,-19" fill = "none" stroke-width = "4" stroke = "blue" /><path    d = "M97,-19 C109,-19 104,-29 110,-29" fill = "none" stroke-width = "4" stroke = "blue" /><path    d = "M110,-29 C105,-31 113,-38 102,-43" fill = "none" stroke-width = "4" stroke = "blue" /><path    d = "M102,-43 C113,-38 112,-49 118,-47" fill = "none" stroke-width = "4" stroke = "blue" /><path    d = "M118,-47 C114,-51 124,-54 115,-63" fill = "none" stroke-width = "4" stroke = "blue" /><path    d = "M115,-63 C124,-54 127,-65 132,-61" fill = "none" stroke-width = "4" stroke = "blue" /><path    d = "M132,-61 C129,-66 140,-65 136,-77" fill = "none" stroke-width = "4" stroke = "blue" /><path    d = "M136,-77 C140,-65 147,-74 150,-68" fill = "none" stroke-width = "4" stroke = "blue" />    <circle cx="159" cy = "-19" r = "49.99999999999999" stroke = "blue" stroke-width = "4" fill = "none" />
	<path d = "M203 -44 L116 -44 L159 31 L203 -44 Z" stroke = "blue" stroke-width = "4" fill = "none" />    <circle cx="159" cy = "-19" r = "24.999999999999996" stroke = "blue" stroke-width = "4" fill = "none" />
    <circle cx="159" cy = "-169" r = "49.99999999999999" stroke = "#87cefa" stroke-width = "4" fill = "none" />
<path    d = "M195,-204 C220,-204 209,-169 259,-169" fill = "none" stroke-width = "4" stroke = "#87cefa" /><path    d = "M259,-169 C209,-169 220,-134 195,-134" fill = "none" stroke-width = "4" stroke = "#87cefa" /><path    d = "M124,-134 C99,-134 109,-169 59,-169" fill = "none" stroke-width = "4" stroke = "#87cefa" /><path    d = "M59,-169 C109,-169 99,-204 124,-204" fill = "none" stroke-width = "4" stroke = "#87cefa" />	<path d = "M203 -194 L116 -194 L159 -119 L203 -194 Z" stroke = "#87cefa" stroke-width = "4" fill = "none" />  <path d="M202.80127018879443 -394.00000000006054           A49.99999999999999 49.99999999999999 0 0 1 159.4999999996429 -319.0000000000212" fill = "none" stroke = "#4b0082" stroke-width = "4" />
  <path d="M159.4999999996429 -319.0000000000212           A49.99999999999999 49.99999999999999 0 0 1 116.19872981034831 -393.99999999997794" fill = "none" stroke = "#4b0082" stroke-width = "4" />
  <path d="M234.49999999960278 -362.30127018931955           A49.99999999999999 49.99999999999999 0 0 1 159.49999999964922 -319.0000000000195" fill = "none" stroke = "#4b0082" stroke-width = "4" />
  <path d="M159.49999999964922 -319.0000000000195           A49.99999999999999 49.99999999999999 0 0 1 159.4999999995544 -405.6025403784622" fill = "none" stroke = "#4b0082" stroke-width = "4" />
  <path d="M246.10254037809653 -319.00000000011596           A49.99999999999999 49.99999999999999 0 0 1 159.49999999965382 -319.00000000001484" fill = "none" stroke = "#4b0082" stroke-width = "4" />
  <path d="M159.49999999965382 -319.00000000001484           A49.99999999999999 49.99999999999999 0 0 1 202.80127018878423 -394.0000000000664" fill = "none" stroke = "#4b0082" stroke-width = "4" />
  <path d="M234.4999999997102 -275.6987298108836           A49.99999999999999 49.99999999999999 0 0 1 159.49999999965553 -319.0000000000085" fill = "none" stroke = "#4b0082" stroke-width = "4" />
  <path d="M159.49999999965553 -319.0000000000085           A49.99999999999999 49.99999999999999 0 0 1 234.49999999959692 -362.3012701893297" fill = "none" stroke = "#4b0082" stroke-width = "4" />
  <path d="M202.80127018898048 -244.000000000064           A49.99999999999999 49.99999999999999 0 0 1 159.49999999965382 -319.0000000000022" fill = "none" stroke = "#4b0082" stroke-width = "4" />
  <path d="M159.49999999965382 -319.0000000000022           A49.99999999999999 49.99999999999999 0 0 1 246.10254037809656 -319.0000000001277" fill = "none" stroke = "#4b0082" stroke-width = "4" />
  <path d="M159.49999999978104 -232.3974596215549           A49.99999999999999 49.99999999999999 0 0 1 159.49999999964922 -318.9999999999976" fill = "none" stroke = "#4b0082" stroke-width = "4" />
  <path d="M159.49999999964922 -318.9999999999976           A49.99999999999999 49.99999999999999 0 0 1 234.4999999997161 -275.6987298108938" fill = "none" stroke = "#4b0082" stroke-width = "4" />
  <path d="M116.19872981054456 -243.99999999992588           A49.99999999999999 49.99999999999999 0 0 1 159.4999999996429 -318.9999999999959" fill = "none" stroke = "#4b0082" stroke-width = "4" />
  <path d="M159.4999999996429 -318.9999999999959           A49.99999999999999 49.99999999999999 0 0 1 202.80127018899066 -244.00000000006986" fill = "none" stroke = "#4b0082" stroke-width = "4" />
  <path d="M84.49999999971371 -275.69872981064435           A49.99999999999999 49.99999999999999 0 0 1 159.4999999996366 -318.9999999999976" fill = "none" stroke = "#4b0082" stroke-width = "4" />
  <path d="M159.4999999996366 -318.9999999999976           A49.99999999999999 49.99999999999999 0 0 1 159.49999999979275 -232.39745962155487" fill = "none" stroke = "#4b0082" stroke-width = "4" />
  <path d="M72.89745962118926 -318.99999999983976           A49.99999999999999 49.99999999999999 0 0 1 159.499999999632 -319.0000000000022" fill = "none" stroke = "#4b0082" stroke-width = "4" />
  <path d="M159.499999999632 -319.0000000000022           A49.99999999999999 49.99999999999999 0 0 1 116.19872981055474 -243.99999999992002" fill = "none" stroke = "#4b0082" stroke-width = "4" />
  <path d="M84.49999999954491 -362.3012701890803           A49.99999999999999 49.99999999999999 0 0 1 159.4999999996303 -319.0000000000085" fill = "none" stroke = "#4b0082" stroke-width = "4" />
  <path d="M159.4999999996303 -319.0000000000085           A49.99999999999999 49.99999999999999 0 0 1 84.49999999971959 -275.69872981063423" fill = "none" stroke = "#4b0082" stroke-width = "4" />
  <path d="M116.19872981025219 -393.9999999999224           A49.99999999999999 49.99999999999999 0 0 1 159.499999999632 -319.0000000000149" fill = "none" stroke = "#4b0082" stroke-width = "4" />
  <path d="M159.499999999632 -319.0000000000149           A49.99999999999999 49.99999999999999 0 0 1 72.89745962118926 -318.999999999828" fill = "none" stroke = "#4b0082" stroke-width = "4" />
  <path d="M159.49999999944345 -405.6025403784622           A49.99999999999999 49.99999999999999 0 0 1 159.49999999963663 -319.00000000001944" fill = "none" stroke = "#4b0082" stroke-width = "4" />
  <path d="M159.49999999963663 -319.00000000001944           A49.99999999999999 49.99999999999999 0 0 1 84.49999999953906 -362.3012701890701" fill = "none" stroke = "#4b0082" stroke-width = "4" />
  <path d="M202.80127018868814 -394.0000000001219           A49.99999999999999 49.99999999999999 0 0 1 159.49999999964294 -319.00000000002115" fill = "none" stroke = "#4b0082" stroke-width = "4" />
  <path d="M159.49999999964294 -319.00000000002115           A49.99999999999999 49.99999999999999 0 0 1 116.19872981024203 -393.9999999999165" fill = "none" stroke = "#4b0082" stroke-width = "4" />
</svg>