<svg width="514" height="302" viewbox = "0 0 514 302"  xmlns="http://www.w3.org/2000/svg">

<!--
<json>
{
    "svgwidth": 514,
    "svgheight": 302,
    "unit": 100,
    "x0": 582,
    "y0": 372,
    "x0rel": -102,
    "y0rel": -27,
    "glyph": "0336,0330,0332,0332,0332,01101,01102,01103,01104,01105,01106,01107,01110,01111,0331,0331,0332,0332,0332,0332,0332,0332,0332,0332,0332,0332,01112,01113,01114,01115,01116,01117,01120,01121,01122,0331,0331,0332,0332,0332,0332,0332,0332,0332,0332,0332,0332,01123,01124,01125,01126,01127,01130,01131,01132,01011,",
    "table": [
        "0220:0336,0304,0350,0310,0362,0203,0335,0335,0335,0336,0203,0335,0335,0203,0363,0335,0335,0335,0304,0337,0333,0362,0203,0335,0350,0335,0336,0203,0335,0335,0203,0335,0335,0335,0337,0363,0304,0333,0362,0203,0335,0350,0335,0336,0203,0335,0335,0203,0363,0335,0335,0335,0337,0313,0304,0332,0332,0337,",
        "0221:0342,0330,0335,0335,0336,0336,0336,0336,0306,0350,0335,0306,0362,0203,0334,0334,0203,0334,0334,0203,0363,0350,0335,0304,0337,0337,0337,0337,0331,",
        "0222:0201,0335,0201,0336,0201,0334,0201,0335,0350,0335,0310,0337,0201,0201,0335,0335,0201,0201,0335,0335,0335,0336,0201,0334,0334,0304,0313,0201,0337,0201,0335,",
        "0223:0201,0335,0201,0201,0336,0201,0334,0201,0335,0350,0335,0310,0337,0201,0201,0335,0335,0201,0201,0335,0335,0335,0336,0201,0334,0334,0304,0313,0201,0337,0201,0201,0335,",
        "0224:0362,0203,0335,0203,0336,0203,0334,0203,0335,0350,0335,0310,0337,0203,0203,0335,0335,0203,0203,0335,0335,0335,0336,0203,0334,0334,0304,0313,0203,0337,0203,0335,0363,",
        "0225:0362,0203,0335,0203,0203,0336,0203,0334,0203,0335,0350,0335,0310,0337,0203,0203,0335,0335,0203,0203,0335,0335,0335,0336,0203,0334,0334,0304,0313,0203,0337,0203,0203,0335,0363,",
        "0226:0334,0327,0227,0335,0335,0323,0334,0334,0330,0334,0227,0330,0334,0322,0227,0330,0334,0326,0227,0330,0334,0324,0227,0330,0334,0304,0335,0313,0320,",
        "0227:0305,0311,0362,0203,0335,0350,0335,0337,0203,0335,0335,0335,0335,0203,0363,0320,0335,0335,0335,0336,0321,0362,0203,0335,0335,0335,0337,0203,0335,0335,0335,0335,0203,0364,0335,0335,0335,0336,0305,",
        "0230:0306,0362,0203,0335,0335,0203,0335,0335,0203,0354,0335,0335,",
        "0231:0335,0306,0350,0334,0336,0330,0337,0366,0336,0331,0335,0335,0330,0337,0367,0336,0336,0336,0334,0362,0203,0335,0335,0335,0335,0203,0335,0335,0335,0335,0203,0363,0334,0337,0337,0330,0334,0304,0335,0337,",
        "0232:0336,0336,0336,0336,0347,0337,0337,0337,0337,",
        "0233:0304,0314,0336,0201,0335,0331,0201,0201,0334,0332,0330,0335,0331,0201,0201,0334,0332,0201,0337,0313,",
        "0234:0336,0336,0336,0330,0341,0331,0337,0337,0337,",
        "0235:0335,0336,0336,0336,0362,0203,0335,0350,0335,0310,0337,0203,0335,0335,0203,0335,0335,0335,0336,0203,0364,0304,0334,0313,0337,0337,0337,",
        "0236:0306,0350,0350,0334,0330,0336,0336,0366,0337,0337,0331,0335,0330,0336,0330,0304,0335,0335,0367,0366,0335,0335,0331,0337,0331,0306,0350,0350,0335,0330,0336,0336,0367,0337,0337,0331,0334,0351,0335,",
        "0237:0330,0306,0335,0335,0321,0362,0203,0335,0203,0335,0203,0335,0203,0335,0203,0335,0203,0335,0354,0330,0335,0335,0350,0335,0312,0337,0362,0203,0334,0334,0334,0334,0203,0334,0334,0334,0334,0203,0354,0334,0336,0331,0334,0337,0362,0203,0334,0334,0334,0334,0203,0334,0334,0334,0334,0203,0354,0334,0336,0331,0334,0334,0330,0304,0313,0320,",
        "0240:0305,0350,0334,0330,0336,0366,0337,0331,0335,0330,0335,0335,0335,0335,0335,0336,0331,0331,0367,0366,0330,0330,0335,0335,0335,0335,0335,0337,0331,0335,0330,0336,0367,0337,0331,0335,",
        "0241:0240,0240,0240,0240,0240,",
        "0242:0305,0350,0335,0336,0213,0213,0213,0330,0330,0240,0334,0334,0331,0331,0214,0214,0214,0337,0335,",
        "0243:0241,0242,0242,0242,0242,0242,",
        "0244:0305,0350,0350,0336,0330,0330,0336,0336,0330,0337,0337,0240,0334,0334,0336,0336,0331,0337,0337,0331,0331,0335,0337,0351,",
        "0245:0244,0244,0244,0244,0244,0244,0244,0244,0244,0244,",
        "0246:0320,0335,0306,0350,0334,0330,0321,0337,0366,0336,0331,0335,0335,0330,0337,0336,0336,0336,0336,0336,0330,0337,0337,0337,0337,0337,0367,0336,0336,0336,0336,0336,0331,0335,0337,0320,0337,0362,0203,0334,0334,0334,0334,0203,0334,0334,0334,0334,0203,0363,0335,0337,0337,0330,0335,0335,0304,",
        "0247:0336,0336,0336,0347,0337,0337,0337,",
        "0250:0335,0337,0331,0337,0223,",
        "01220:0333,0200,0332,0336,0333,0337,0220,0336,0333,0337,",
        "01221:0333,0200,0336,0332,0337,0210,0221,0211,0336,0333,0337,",
        "01222:0333,0200,0332,0336,0330,0336,0222,0337,0333,0333,0331,0337,",
        "01223:0333,0200,0336,0330,0332,0332,0330,0223,0333,0333,0331,0331,0337,",
        "01224:0333,0200,0336,0332,0332,0336,0330,0224,0331,0337,0337,0333,",
        "01225:0333,0200,0336,0330,0330,0332,0332,0225,0333,0333,0331,0331,0337,",
        "01226:0333,0200,0336,0336,0330,0330,0332,0336,0330,0332,0332,0226,0337,0337,0333,0331,0336,0336,0331,0337,0337,0337,",
        "01227:0333,0200,0336,0332,0337,0336,0332,0336,0330,0337,0227,0304,0313,0336,0331,0337,0337,0333,",
        "01230:0230,0304,0333,0200,",
        "01231:0333,0200,0332,0336,0330,0231,0333,0333,0331,0337,",
        "01232:0333,0200,0336,0330,0332,0337,0232,0336,0333,0331,0337,",
        "01233:0333,0200,0336,0332,0337,0233,0336,0333,0337,0331,",
        "01234:0333,0200,0336,0330,0332,0234,0333,0331,0337,",
        "01235:0333,0200,0336,0330,0332,0337,0235,0336,0333,0331,0337,",
        "01236:0333,0200,0336,0330,0330,0332,0336,0331,0337,0236,0333,0331,0331,0336,0330,0337,0337,",
        "01237:0333,0200,0336,0330,0332,0237,0333,0331,0337,",
        "01240:0333,0200,0336,0332,0332,0333,0240,0334,0334,0304,0333,0337,",
        "01241:0333,0200,0330,0336,0331,0332,0336,0241,0304,0337,0333,0331,0337,",
        "01242:0333,0200,0336,0330,0332,0336,0241,0304,0333,0333,0331,0331,0337,0337,",
        "01243:0333,0200,0336,0336,0330,0330,0332,0332,0243,0304,0337,0333,0331,0337,",
        "01244:0333,0200,0332,0336,0330,0336,0336,0243,0243,0243,0243,0331,0331,0331,0331,0337,0337,0337,",
        "01245:0333,0200,0336,0332,0336,0331,0337,0245,0333,0336,0330,0337,0337,",
        "01246:0333,0200,0330,0332,0336,0331,0336,0332,0337,0246,0333,0333,0336,0333,0331,0331,0337,0337,",
        "01247:0333,0200,0336,0330,0332,0337,0247,0336,0333,0331,0337,"
    ]
}
</json>
-->
	<path d = "M5 74 L5 24 L30 24 L30 74 L5 74 Z" stroke = "black" stroke-width = "1" fill = "black" />	<path d = "M30 74 L30 24 L55 24 L41 49 L55 74 L30 74 Z" stroke = "blue" stroke-width = "1" fill = "blue" />	<path d = "M61 74 L61 24 L111 24 L97 49 L111 74 L86 74 L61 74 Z" stroke = "red" stroke-width = "1" fill = "red" />	<path d = "M117 24 L167 24 L167 34 L117 34 L117 24 Z" stroke = "blue" stroke-width = "1" fill = "blue" />	<path d = "M117 34 L167 34 L167 44 L117 44 L117 34 Z" stroke = "black" stroke-width = "1" fill = "black" />	<path d = "M117 44 L167 44 L167 54 L117 54 L117 44 Z" stroke = "red" stroke-width = "1" fill = "red" />	<path d = "M117 54 L167 54 L167 64 L117 64 L117 54 Z" stroke = "black" stroke-width = "1" fill = "black" />	<path d = "M117 64 L167 64 L167 74 L117 74 Z" stroke = "blue" stroke-width = "1" fill = "blue" />	<path d = "M174 74 L174 64 L224 64 L224 74 L174 74 Z" stroke = "yellow" stroke-width = "1" fill = "yellow" />	<path d = "M174 64 L224 64 L224 54 L224 44 L224 34 L174 34 L174 44 L174 54 L174 64 Z" stroke = "blue" stroke-width = "1" fill = "blue" />	<path d = "M174 34 L224 34 L224 24 L174 24 Z" stroke = "yellow" stroke-width = "1" fill = "yellow" />	<path d = "M230 74 L230 49 L255 49 L280 49 L280 74 L255 74 L230 74 Z" stroke = "red" stroke-width = "1" fill = "red" />	<path d = "M230 49 L230 24 L255 24 L280 24 L280 49 L255 49 L230 49 Z" stroke = "blue" stroke-width = "1" fill = "blue" />	<path d = "M336 74 L336 24 L286 24 L286 74 L336 74 Z" stroke = "black" stroke-width = "1" fill = "black" />	<path d = "M311 74 L286 49 L311 24 L336 49 L311 74 Z" stroke = "red" stroke-width = "1" fill = "red" />	<path d = "M342 74 L343 24 L353 24 L352 74 L342 74 Z" stroke = "yellow" stroke-width = "1" fill = "yellow" />	<path d = "M352 74 L353 24 L363 24 L362 74 L352 74 Z" stroke = "blue" stroke-width = "1" fill = "blue" />	<path d = "M362 74 L363 24 L373 24 L373 74 L363 74 Z" stroke = "yellow" stroke-width = "1" fill = "yellow" />	<path d = "M373 74 L372 24 L382 24 L383 74 L373 74 Z" stroke = "blue" stroke-width = "1" fill = "blue" />	<path d = "M383 74 L382 24 L392 24 L393 74 L383 74 Z" stroke = "yellow" stroke-width = "1" fill = "yellow" />	<path d = "M399 74 L399 24 L424 24 L424 74 L399 74 Z" stroke = "black" stroke-width = "1" fill = "black" />	<path d = "M424 74 L424 24 L449 24 L449 74 L424 74 Z" stroke = "red" stroke-width = "1" fill = "red" />	<path d = "M505 74 L505 24 L455 24 L455 74 L505 74 Z" stroke = "yellow" stroke-width = "1" fill = "yellow" />    <circle cx="480" cy = "49" r = "12.5" stroke = "black" stroke-width = "1" fill = "black" />
	<path d = "M11 174 L11 157 L61 157 L61 174 L11 174 Z" stroke = "blue" stroke-width = "1" fill = "blue" />	<path d = "M11 157 L11 141 L61 141 L61 157 L11 157 Z" stroke = "black" stroke-width = "1" fill = "black" />	<path d = "M11 141 L11 124 L61 124 L61 141 L11 141 Z" stroke = "blue" stroke-width = "1" fill = "blue" />	<path d = "M68 174 L68 124 L93 124 L93 174 L68 174 Z" stroke = "yellow" stroke-width = "1" fill = "yellow" />	<path d = "M93 174 L93 124 L118 124 L118 174 L93 174 Z" stroke = "blue" stroke-width = "1" fill = "blue" />	<path d = "M149 174 L149 149 L124 149 L124 174 L149 174 Z" stroke = "black" stroke-width = "1" fill = "black" />	<path d = "M174 149 L174 124 L149 124 L149 149 L174 149 Z" stroke = "black" stroke-width = "1" fill = "black" />	<path d = "M149 149 L149 124 L124 124 L124 149 L149 149 Z" stroke = "yellow" stroke-width = "1" fill = "yellow" />	<path d = "M174 174 L174 149 L149 149 L149 174 L174 174 Z" stroke = "yellow" stroke-width = "1" fill = "yellow" />	<path d = "M230 174 L230 124 L180 124 L180 174 L230 174 Z" stroke = "blue" stroke-width = "1" fill = "blue" />	<path d = "M230 174 L230 168 L224 162 L218 155 L211 149 L205 143 L199 137 L193 130 L186 124 L180 124 L180 130 L186 137 L193 143 L199 149 L205 155 L211 162 L218 168 L224 174 L230 174 Z" stroke = "black" stroke-width = "1" fill = "black" />	<path d = "M186 174 L193 168 L199 162 L205 155 L211 149 L218 143 L224 137 L230 130 L230 124 L224 124 L218 130 L211 137 L205 143 L199 149 L193 155 L186 162 L180 168 L180 174 L186 174 Z" stroke = "black" stroke-width = "1" fill = "black" />	<path d = "M249 174 L249 162 L236 162 L236 174 L249 174 Z" stroke = "black" stroke-width = "1" fill = "black" />	<path d = "M274 174 L274 162 L261 162 L261 174 L274 174 Z" stroke = "black" stroke-width = "1" fill = "black" />	<path d = "M286 162 L286 149 L274 149 L274 162 L286 162 Z" stroke = "black" stroke-width = "1" fill = "black" />	<path d = "M261 162 L261 149 L249 149 L249 162 L261 162 Z" stroke = "black" stroke-width = "1" fill = "black" />	<path d = "M249 149 L249 137 L236 137 L236 149 L249 149 Z" stroke = "black" stroke-width = "1" fill = "black" />	<path d = "M274 149 L274 137 L261 137 L261 149 L274 149 Z" stroke = "black" stroke-width = "1" fill = "black" />	<path d = "M286 137 L286 124 L274 124 L274 137 L286 137 Z" stroke = "black" stroke-width = "1" fill = "black" />	<path d = "M261 137 L261 124 L249 124 L249 137 L261 137 Z" stroke = "black" stroke-width = "1" fill = "black" />	<path d = "M249 137 L249 124 L236 124 L236 137 L249 137 Z" stroke = "blue" stroke-width = "1" fill = "blue" />	<path d = "M274 137 L274 124 L261 124 L261 137 L274 137 Z" stroke = "blue" stroke-width = "1" fill = "blue" />	<path d = "M261 149 L261 137 L249 137 L249 149 L261 149 Z" stroke = "blue" stroke-width = "1" fill = "blue" />	<path d = "M286 149 L286 137 L274 137 L274 149 L286 149 Z" stroke = "blue" stroke-width = "1" fill = "blue" />	<path d = "M274 162 L274 149 L261 149 L261 162 L274 162 Z" stroke = "blue" stroke-width = "1" fill = "blue" />	<path d = "M249 162 L249 149 L236 149 L236 162 L249 162 Z" stroke = "blue" stroke-width = "1" fill = "blue" />	<path d = "M261 174 L261 162 L249 162 L249 174 L261 174 Z" stroke = "blue" stroke-width = "1" fill = "blue" />	<path d = "M286 174 L286 162 L274 162 L274 174 L286 174 Z" stroke = "blue" stroke-width = "1" fill = "blue" />	<path d = "M293 174 L293 124 L343 174 L293 174 Z" stroke = "yellow" stroke-width = "1" fill = "yellow" />	<path d = "M343 174 L293 124 L343 124 L343 174 Z" stroke = "red" stroke-width = "1" fill = "red" />	<path d = "M399 174 L399 124 L349 124 L349 174 L399 174 Z" stroke = "blue" stroke-width = "1" fill = "blue" />	<path d = "M382 157 L382 141 L365 141 L365 157 L382 157 Z" stroke = "black" stroke-width = "1" fill = "black" />	<path d = "M455 174 L455 124 L405 124 L405 174 L455 174 Z" stroke = "yellow" stroke-width = "1" fill = "yellow" />	<path d = "M511 174 L511 124 L461 124 L461 174 L511 174 Z" stroke = "red" stroke-width = "1" fill = "red" />	<path d = "M491 174 L491 124 L481 124 L481 174 L491 174 Z" stroke = "yellow" stroke-width = "1" fill = "yellow" />	<path d = "M461 154 L511 154 L511 144 L461 144 L461 154 Z" stroke = "yellow" stroke-width = "1" fill = "yellow" />	<path d = "M68 274 L68 224 L18 224 L18 274 L68 274 Z" stroke = "black" stroke-width = "1" fill = "black" />	<path d = "M51 257 L51 241 L34 241 L34 257 L51 257 Z" stroke = "blue" stroke-width = "1" fill = "blue" />	<path d = "M74 274 L74 224 L90 224 L90 274 L74 274 Z" stroke = "red" stroke-width = "1" fill = "red" />	<path d = "M90 274 L90 224 L107 224 L107 274 L90 274 Z" stroke = "black" stroke-width = "1" fill = "black" />	<path d = "M107 274 L107 224 L124 224 L124 274 L107 274 Z" stroke = "blue" stroke-width = "1" fill = "blue" />	<path d = "M155 274 L155 249 L130 249 L130 274 L155 274 Z" stroke = "black" stroke-width = "1" fill = "black" />	<path d = "M180 249 L180 224 L155 224 L155 249 L180 249 Z" stroke = "black" stroke-width = "1" fill = "black" />	<path d = "M155 249 L155 224 L130 224 L130 249 L155 249 Z" stroke = "red" stroke-width = "1" fill = "red" />	<path d = "M180 274 L180 249 L155 249 L155 274 L180 274 Z" stroke = "red" stroke-width = "1" fill = "red" />	<path d = "M236 274 L236 224 L186 224 L186 274 L236 274 Z" stroke = "black" stroke-width = "1" fill = "black" />	<path d = "M236 274 L236 268 L230 262 L224 255 L218 249 L211 243 L205 237 L199 230 L193 224 L186 224 L186 230 L193 237 L199 243 L205 249 L211 255 L218 262 L224 268 L230 274 L236 274 Z" stroke = "red" stroke-width = "1" fill = "red" />	<path d = "M193 274 L199 268 L205 262 L211 255 L218 249 L224 243 L230 237 L236 230 L236 224 L230 224 L224 230 L218 237 L211 243 L205 249 L199 255 L193 262 L186 268 L186 274 L193 274 Z" stroke = "red" stroke-width = "1" fill = "red" />	<path d = "M293 274 L293 224 L243 224 L243 274 L293 274 Z" stroke = "blue" stroke-width = "1" fill = "blue" />	<path d = "M283 264 L283 234 L253 234 L253 264 L283 264 Z" stroke = "black" stroke-width = "1" fill = "black" />	<path d = "M273 254 L273 244 L263 244 L263 254 L273 254 Z" stroke = "red" stroke-width = "1" fill = "red" />	<path d = "M349 274 L349 224 L299 224 L299 274 L349 274 Z" stroke = "black" stroke-width = "1" fill = "black" />	<path d = "M329 274 L329 224 L319 224 L319 274 L329 274 Z" stroke = "blue" stroke-width = "1" fill = "blue" />	<path d = "M349 254 L299 254 L299 244 L349 244 L349 254 Z" stroke = "blue" stroke-width = "1" fill = "blue" />	<path d = "M355 274 L365 264 L375 254 L385 244 L395 234 L405 224 L405 234 L395 244 L385 254 L375 264 L365 274 L355 274 Z" stroke = "red" stroke-width = "1" fill = "red" />	<path d = "M355 274 L355 264 L365 254 L375 244 L385 234 L395 224 L405 224 L395 234 L385 244 L375 254 L365 264 L355 274 Z" stroke = "yellow" stroke-width = "1" fill = "yellow" />	<path d = "M355 264 L355 254 L365 244 L375 234 L385 224 L395 224 L385 234 L375 244 L365 254 L355 264 Z" stroke = "red" stroke-width = "1" fill = "red" />	<path d = "M355 254 L365 244 L375 234 L385 224 L375 224 L365 234 L355 244 L355 254 Z" stroke = "yellow" stroke-width = "1" fill = "yellow" />	<path d = "M355 244 L365 234 L375 224 L365 224 L355 234 L355 244 Z" stroke = "red" stroke-width = "1" fill = "red" />	<path d = "M355 234 L355 224 L365 224 L355 234 Z" stroke = "yellow" stroke-width = "1" fill = "yellow" />	<path d = "M405 234 L395 244 L385 254 L375 264 L365 274 L375 274 L385 264 L395 254 L405 244 L405 234 Z" stroke = "yellow" stroke-width = "1" fill = "yellow" />	<path d = "M405 244 L395 254 L385 264 L375 274 L385 274 L395 264 L405 254 L405 244 Z" stroke = "red" stroke-width = "1" fill = "red" />	<path d = "M405 254 L405 264 L395 274 L385 274 L395 264 L405 254 Z" stroke = "yellow" stroke-width = "1" fill = "yellow" />	<path d = "M405 264 L395 274 L405 274 L405 264 Z" stroke = "red" stroke-width = "1" fill = "red" />	<path d = "M411 274 L436 249 L411 224 L411 274 Z" stroke = "black" stroke-width = "1" fill = "black" />	<path d = "M411 274 L461 274 L436 249 L411 274 Z" stroke = "red" stroke-width = "1" fill = "red" />	<path d = "M436 249 L411 224 L461 224 L436 249 Z" stroke = "yellow" stroke-width = "1" fill = "yellow" />	<path d = "M436 249 L461 274 L461 224 L436 249 Z" stroke = "blue" stroke-width = "1" fill = "blue" /></svg>