<svg width="500" height="500" viewbox = "0 0 500 500"  xmlns="http://www.w3.org/2000/svg">

<!--
<topfunctions>



function YofX(){
    X = currentjson.plotparams.g*(x - currentjson.plotparams.x0);

    Y = Math.exp(-X/A)*(Math.sin(X));

    y = currentjson.plotparams.y0 - currentjson.plotparams.G*(Y);
}





function plotfunction(){
    
    /*plot one function:*/
    currentStroke = "red";
    currentLineWidth = 4;
    ctx.strokeStyle = currentStroke;
    ctx.lineWidth = currentLineWidth;
    ctx.beginPath();	
    x = 0;
    intx = x;
    YofX();
    currentSVG += "	<path d = \"M";
    currentSVG += Math.round(x).toString() + " ";
    currentSVG += Math.round(y).toString() + " ";
    for(x = 1;x < currentjson.plotparams.plotwidth;x++){
        ctx.moveTo(x-1,y);
        YofX();
        ctx.lineTo(x,y);
        currentSVG += "L" + x + " " + y + " ";
    }
    ctx.stroke();
    currentSVG += "\""+ " stroke = \"" + currentStroke + "\" stroke-width = \"" + currentLineWidth.toString() + "\" fill = \"" + "none" + "\" "+"/>";
    /*finish plot one function*/
    
    

}































</topfunctions>
-->

<!--
<currentjson>
{
    "constants": {},
    "YofXstring": "Y =  (1/Math.PI)*0.5/(X*X + 0.25);",
    "style": {
        "linewidth": 4,
        "color": "blue",
        "fill": "none"
    },
    "plotparams": {
        "G": 202.09499381910777,
        "g": 0.11292007915989843,
        "duration": 450.78888054094654,
        "plotwidth": 500,
        "plotheight": 500,
        "x0": 36,
        "y0": 255
    },
    "funcparams": {},
    "image": {
        "url": "",
        "xoverw": 0.038011695906432746,
        "yoverw": -0.08771929824561403,
        "woverw": 0.8536631795472632,
        "angle": "0"
    },
    "A": 13.676183278839833,
    "B": 1
}
</currentjson>
-->

<!--
<equation>
# Equations

$x$, $x_0$, $y$ and $y_0$ are all in pixels. x varies from 0 to the width in pixels of the plot.  Y and X are in the units of the system being studied.   

$$X = g(x - x_0)$$
$$Y = \sin{(X)}$$
$$y = y_0 - GY$$ 
</equation>
-->
	<path d = "M0 38 L1 59.465793567258515 L2 83.0853753118219 L3 108.50148400446693 L4 135.36190485092777 L5 163.30184839156425 L6 191.94878937421356 L7 220.92732462370452 L8 249.8639879006182 L9 278.39196130366855 L10 306.1556250739719 L11 332.814890664045 L12 358.0492655899939 L13 381.56160283494273 L14 403.0814923515867 L15 422.3682574524721 L16 439.21352450408006 L17 453.44334027722334 L18 464.9198174712127 L19 473.5422952406455 L20 479.24800792899293 L21 482.01226157036905 L22 481.84812397953027 L23 478.80564033239966 L24 472.9705919708792 L25 464.4628216764514 L26 453.4341537823458 L27 440.06594217507364 L28 424.5662834207442 L29 407.16693589474994 L30 388.11998885774676 L31 367.6943278769173 L32 346.17194481806627 L33 323.8441418182599 L34 301.00767918597853 L35 277.960917069864 L36 255 L37 232.41513205695333 L38 210.4869884906841 L39 189.48330712801408 L40 169.6556999141871 L41 151.23672147752012 L42 134.43722773771862 L43 119.44405335399014 L44 106.41803228811926 L45 95.49238100243787 L46 86.77145888736706 L47 80.32991548325896 L48 76.21222899222016 L49 74.43263553248056 L50 74.9754436342954 L51 77.79572367379009 L52 82.82035734809014 L53 89.94942796642903 L54 99.05792831833688 L55 109.99775922729765 L56 122.59998864690147 L57 136.6773383412312 L58 152.02686284062443 L59 168.43278350028092 L60 185.66943912814014 L61 203.50431379908858 L62 221.701102137271 L63 240.02277252292367 L64 258.234589354143 L65 276.10705665061266 L66 293.41874690295043 L67 309.9589811199229 L68 325.53032847323436 L69 339.9508967482984 L70 353.05638793776797 L71 364.7018967176554 L72 374.7634331759132 L73 383.1391549705327 L74 389.75029802731484 L75 394.54179889444674 L76 397.482605899787 L77 398.5656802558028 L78 397.8076921760962 L79 395.24842085796365 L80 390.9498708013943 L81 384.99512033328824 L82 377.48692134684165 L83 368.5460721143453 L84 358.3095875556843 L85 346.92869351786356 L86 334.56667342108057 L87 321.396597037448 L88 307.598962177914 L89 293.35928066498644 L90 278.86564016255073 L91 264.3062732236318 L92 249.86716431165382 L93 235.7297245647701 L94 222.0685627249242 L95 209.04937896649466 L96 196.82700636066144 L97 185.54362243149592 L98 175.3271507317814 L99 166.2898696268918 L100 158.52724256195117 L101 152.1169810407974 L102 147.11834840587437 L103 143.57170931745213 L104 141.49832662990332 L105 140.90040419294468 L106 141.76137100654933 L107 144.0463991678423 L108 147.70314520291348 L109 152.6627017098756 L110 158.84074378260314 L111 166.13885246517236 L112 174.44599552939258 L113 183.6401441925375 L114 193.59000301610865 L115 204.1568291617842 L116 215.19631643602054 L117 226.56051913432037 L118 238.09979059998244 L119 249.6647116361046 L120 261.1079844456522 L121 272.2862686106026 L122 283.06193674199085 L123 293.30472881922464 L124 302.89328586734734 L125 311.71654547029925 L126 319.6749836595887 L127 326.6816899220773 L128 332.6632644071194 L129 337.5605288502584 L130 341.3290452354613 L131 343.93943875755843 L132 345.3775241883019 L133 345.6442372609767 L134 344.7553751383631 L135 342.7411523869724 L136 339.64558111840756 L137 335.5256860499796 L138 330.4505671571856 L139 324.50032431873336 L140 317.7648598716751 L141 310.34257628409756 L142 302.3389872030292 L143 293.86526093636644 L144 285.0367159735839 L145 275.971288438033 L146 266.78799139431106 L147 257.6053857113198 L148 248.54008171222168 L149 239.7052901365365 L150 231.20944000993597 L151 223.15487987937567 L152 215.63667754289952 L153 208.74153190475548 L154 202.54680893920067 L155 197.11971197389852 L156 192.5165946306793 L157 188.78242281309582 L158 185.95039013262516 L159 184.04168914472305 L160 183.06543874827622 L161 183.01876611288756 L162 183.88703956267108 L163 185.64424698653175 L164 188.2535125856138 L165 191.6677431294218 L166 195.8303933919177 L167 200.67633909443674 L168 206.13284450807961 L169 212.12061087644932 L170 218.55489101981317 L171 225.34665488100018 L172 232.4037903759659 L173 239.63232371967405 L174 246.9376434098555 L175 254.2257122638012 L176 261.4042523106508 L177 268.38388793528225 L178 275.07923343930213 L179 281.40991211713725 L180 287.3014950263072 L181 292.686348844467 L182 297.50438353415836 L183 301.70369196064553 L184 305.2410751090839 L185 308.0824481042463 L186 310.2031238284339 L187 311.5879725402181 L188 312.2314574976432 L189 312.13754816423716 L190 311.3195141050642 L191 309.79960414442763 L192 307.60861673917213 L193 304.7853688056113 L194 301.37607140923177 L195 297.4336217714711 L196 293.01682195582083 L197 288.18953535698967 L198 283.01979272459823 L199 277.57885990166477 L200 271.94027974489074 L201 266.17890081746896 L202 260.36990540692483 L203 254.58784922348616 L204 248.90572478377985 L205 243.39405998722933 L206 238.12006275710442 L207 233.1468218550819 L208 228.53257309919874 L209 224.3300392332674 L210 220.58585062534948 L211 217.34005282877567 L212 214.62570583720753 L213 212.4685786215669 L214 210.88694126779345 L215 209.89145575685075 L216 209.4851651585646 L217 209.66357976473273 L218 210.41485747994028 L219 211.72007463533467 L220 213.55358230502108 L221 215.88344219941655 L222 218.67193529630202 L223 221.87613555853267 L224 225.4485403860566 L225 229.33774886614336 L226 233.4891784250267 L227 237.84581015035488 L228 242.3489528490836 L229 246.9390158302166 L230 251.556280454946 L231 256.14166067547717 L232 260.6374430838249 L233 264.98799740733796 L234 269.14044891147574 L235 273.04530479401296 L236 276.6570273688091 L237 279.9345476310182 L238 282.84171365773994 L239 285.34766921654943 L240 287.4271589165129 L241 289.06075722925937 L242 290.23501971831666 L243 290.94255583011386 L244 291.18202360683176 L245 290.9580476669962 L246 290.2810627521896 L247 289.16708604594317 L248 287.63742232297716 L249 285.7183067735671 L250 283.4404910600098 L251 280.83877879211883 L252 277.95151714974617 L253 274.82005182707917 L254 271.4881528217802 L255 268.00141883910453 L256 264.40666822546825 L257 260.7513243873981 L258 257.08280359152934 L259 253.4479128817682 L260 249.89226559453851 L261 246.45972160701592 L262 243.19185902228 L263 240.127483486263 L264 237.30218075198036 L265 234.74791746530653 L266 232.49269445266646 L267 230.56025605411838 L268 228.96985827548008 L269 227.73609774070445 L270 226.86880262108326 L271 226.37298591146464 L272 226.24886062578315 L273 226.49191570481318 L274 227.09305067776393 L275 228.03876640521818 L276 229.3114085624378 L277 230.88945990695964 L278 232.7478768196227 L279 234.85846511976143 L280 237.19028973838334 L281 239.71011249184824 L282 242.382851935978 L283 245.1720590986927 L284 248.04040278918143 L285 250.95015816320316 L286 253.8636922862752 L287 256.74394057712914 L288 259.55486822983073 L289 262.26191100039114 L290 264.83239009772154 L291 267.2358963338127 L292 269.4446391577931 L293 271.43375671615985 L294 273.1815836396359 L295 274.6698738480319 L296 275.883976280133 L297 276.81296208777826 L298 277.44970247363966 L299 277.79089699248874 L300 277.8370527678139 L301 277.5924156916421 L302 277.0648552677553 L303 276.26570532004365 L304 275.2095633118751 L305 273.9140515030419 L306 272.3995436026726 L307 270.6888609547948 L308 268.8069426140625 L309 266.780493929402 L310 264.6376184506518 L311 262.4074381062201 L312 260.11970666770134 L313 257.80442152050534 L314 255.49143869886302 L315 253.21009602090808 L316 250.98884897746234 L317 248.85492378996165 L318 246.8339917625894 L319 244.94986871568514 L320 243.224242906931 L321 241.67643442922608 L322 240.3231886254434 L323 239.17850558663912 L324 238.25350730816555 L325 237.55634357409022 L326 237.09213713092993 L327 236.86296820353712 L328 236.86789790545293 L329 237.10302960940396 L330 237.56160687681643 L331 238.23414610386033 L332 239.10860163080145 L333 240.17056068604924 L334 241.40346520043045 L335 242.78885723451094 L336 244.30664451524024 L337 245.9353823801837 L338 247.65256827985255 L339 249.4349448921945 L340 251.25880785856097 L341 253.1003141571272 L342 254.93578718689744 L343 256.7420147415171 L344 258.49653620499055 L345 260.17791549836033 L346 261.7659965442177 L347 263.2421382908921 L348 264.5894266462155 L349 265.79286100741325 L350 266.8395134342004 L351 267.71865889158323 L352 268.4218753820616 L353 268.94311318867057 L354 269.27873285535054 L355 269.42751193429996 L356 269.390620926143 L357 269.1715692230346 L358 268.7761222325246 L359 268.2121912067271 L360 267.48969762302204 L361 266.62041425548165 L362 265.61778533721287 L363 264.496728440049 L364 263.2734208872031 L365 261.96507366481745 L366 260.5896959085363 L367 259.1658531105475 L368 257.7124222207764 L369 256.24834680338114 L370 254.79239535722573 L371 253.36292581790673 L372 251.97765913098547 L373 250.65346462354097 L374 249.40615970665485 L375 248.25032621795253 L376 247.19914546417536 L377 246.26425375252217 L378 245.45561990999312 L379 244.78144598615813 L380 244.24809202075957 L381 243.86002543749277 L382 243.6197953033546 L383 243.52803137323102 L384 243.58346752592956 L385 243.782988894535 L386 244.12170170445862 L387 244.59302456031668 L388 245.18879967098476 L389 245.89942227369602 L390 246.7139863154 L391 247.62044427493183 L392 248.60577886460905 L393 249.6561842360402 L394 250.75725423312255 L395 251.8941751859463 L396 253.05192072269892 L397 254.2154460923541 L398 255.36987953820494 L399 256.5007083400456 L400 257.5939572495289 L401 258.63635717710514 L402 259.61550214782784 L403 260.51999272477434 L404 261.33956430019464 L405 262.06519887288886 L406 262.68921916266726 L407 263.205364155894 L408 263.6088454267828 L409 263.89638383399813 L410 264.06622644791526 L411 264.11814381733626 L412 264.05340793237053 L413 263.87475147951346 L414 263.5863092127858 L415 263.1935424784373 L416 262.70314812767856 L417 262.1229532299646 L418 261.46179715655654 L419 260.72940273877936 L420 259.93623831623466 L421 259.09337257619666 L422 258.21232414583574 L423 257.30490793342784 L424 256.3830802233026 L425 255.4587845122799 L426 254.54380003336888 L427 253.64959484651177 L428 252.7871852873604 L429 251.9670034549962 L430 251.1987742898754 L431 250.4914036460775 L432 249.85287859930776 L433 249.29018105637567 L434 248.80921554548377 L435 248.41475187216 L436 248.11038312565321 L437 247.89849931771477 L438 247.78027673253777 L439 247.7556828657984 L440 247.82349663475685 L441 247.98134335263788 L442 248.2257437813006 L443 248.5521764086431 L444 248.95515194320993 L445 249.42829887980955 L446 249.96445886811532 L447 250.5557905124919 L448 251.19388014667467 L449 251.86985806220076 L450 252.5745186251379 L451 253.2984426919131 L452 254.03212073187242 L453 254.7660750813058 L454 255.49097979050217 L455 256.1977765811642 L456 256.8777855051952 L457 257.5228089862408 L458 258.12522803100467 L459 258.6780895166689 L460 259.17518359199994 L461 259.6111103710386 L462 259.9813352477107 L463 260.28223231521156 L464 260.51111553354286 L465 260.6662574500246 L466 260.7468954388808 L467 260.7532255850646 L468 260.6863844923596 L469 260.54841944457365 L470 260.34224748953744 L471 260.0716041469709 L472 259.74098256158163 L473 259.35556403065266 L474 258.92114092970616 L475 258.444033139611 L476 257.9309991429648 L477 257.3891430061577 L478 256.8258184958533 L479 256.24853159456785 L480 255.66484267964523 L481 255.08226961349442 L482 254.50819296094687 L483 253.94976450266168 L484 253.41382015250147 L485 252.90679831272612 L486 252.43466461485545 L487 252.0028438974308 L488 251.61616016605166 L489 251.27878516747987 L490 250.99419608985522 L491 250.76514277677555 L492 250.59362471581605 L493 250.4808779336559 L494 250.4273718019995 L495 250.43281563254106 L496 250.49617481689188 L497 250.61569615016296 L498 250.78894186617896 L499 251.01283180938904 " stroke = "red" stroke-width = "4" fill = "none" /></svg>