<svg width="500" height="500" viewbox = "0 0 500 500"  xmlns="http://www.w3.org/2000/svg">

<!--
<topfunctions>


//put helper functions here, along with contsants and variables


function YofX(){
    
    X = currentjson.plotparams.g*(x - currentjson.plotparams.x0);
    Y = Math.cosh(X);
    y = currentjson.plotparams.y0 - currentjson.plotparams.G*(Y);

}




function plotfunction(){
    /*plot one function:*/
    currentStroke = currentjson.style.color;
    currentLineWidth = currentjson.style.linewidth;
    ctx.strokeStyle = currentStroke;
    ctx.lineWidth = currentLineWidth;
    ctx.beginPath();	
    x = 0;
    YofX();
    currentSVG += "	<path d = \"M";
    currentSVG += Math.round(x).toString() + " ";
    currentSVG += Math.round(y).toString() + " ";
    for(x = 1;x < currentjson.plotparams.plotwidth;x++){
        ctx.moveTo(x-1,y);
        YofX();
        ctx.lineTo(x,y);
        currentSVG += "L" + x + " " + y + " ";
    }
    ctx.stroke();
    currentSVG += "\""+ " stroke = \"" + currentStroke + "\" stroke-width = \"" + currentLineWidth.toString() + "\" fill = \"" + "none" + "\" "+"/>";
    /*finish plot one function*/

}





























</topfunctions>
-->

<!--
<currentjson>
{
    "constants": {},
    "YofXstring": "Y =  Math.cosh(X)",
    "style": {
        "linewidth": 4,
        "color": "blue",
        "fill": "none"
    },
    "plotparams": {
        "G": 217.63026869027198,
        "g": 0.003937031002964544,
        "duration": 450.78888054094654,
        "plotwidth": 500,
        "plotheight": 500,
        "x0": "250",
        "y0": "500"
    },
    "funcparams": {},
    "image": {
        "url": "",
        "xoverw": 0.038011695906432746,
        "yoverw": -0.08771929824561403,
        "woverw": 0.8536631795472632,
        "angle": "0"
    },
    "A": 1,
    "B": 1
}
</currentjson>
-->

<!--
<equation>

</equation>
-->
	<path d = "M0 168 L1 169.14740217597137 L2 170.1259476446898 L3 171.09937998868998 L4 172.06771429640025 L5 173.03096557722802 L6 173.98914876179276 L7 174.9422787021573 L8 175.89037017205789 L9 176.83343786713323 L10 177.77149640515262 L11 178.70456032624202 L12 179.63264409310977 L13 180.55576209127054 L14 181.47392862926864 L15 182.38715793889946 L16 183.29546417543014 L17 184.1988614178191 L18 185.09736366893424 L19 185.99098485577008 L20 186.8797388296631 L21 187.76363936650722 L22 188.64270016696685 L23 189.51693485668937 L24 190.3863569865162 L25 191.250980032693 L26 192.1108173970788 L27 192.96588240735304 L28 193.81618831722267 L29 194.66174830662771 L30 195.50257548194492 L31 196.33868287619174 L32 197.17008344922766 L33 197.99679008795528 L34 198.8188156065204 L35 199.6361727465101 L36 200.44887417715069 L37 201.2569324955037 L38 202.06036022666154 L39 202.85916982394133 L40 203.65337366907806 L41 204.44298407241655 L42 205.22801327310202 L43 206.00847343927023 L44 206.7843766682356 L45 207.55573498667917 L46 208.32256035083464 L47 209.08486464667396 L48 209.8426596900914 L49 210.5959572270869 L50 211.34476893394793 L51 212.0891064174303 L52 212.82898121493872 L53 213.564404794705 L54 214.2953885559661 L55 215.02194382914075 L56 215.74408187600505 L57 216.46181388986707 L58 217.17515099574035 L59 217.88410425051637 L60 218.58868464313593 L61 219.28890309475923 L62 219.98477045893566 L63 220.67629752177152 L64 221.36349500209752 L65 222.04637355163482 L66 222.7249437551601 L67 223.3992161306698 L68 224.069201129543 L69 224.7349091367031 L70 225.39635047077974 L71 226.0535353842676 L72 226.70647406368613 L73 227.35517662973706 L74 227.99965313746145 L75 228.63991357639537 L76 229.27596787072497 L77 229.90782587944 L78 230.53549739648696 L79 231.1589921509207 L80 231.7783198070552 L81 232.3934899646137 L82 233.00451215887688 L83 233.6113958608313 L84 234.21415047731574 L85 234.81278535116746 L86 235.40730976136638 L87 235.9977329231795 L88 236.58406398830363 L89 237.1663120450068 L90 237.74448611826972 L91 238.3185951699253 L92 238.88864809879772 L93 239.45465374084023 L94 240.01662086927217 L95 240.57455819471528 L96 241.12847436532797 L97 241.67837796694005 L98 242.22427752318572 L99 242.76618149563512 L100 243.3040982839263 L101 243.83803622589494 L102 244.36800359770353 L103 244.8940086139699 L104 245.41605942789448 L105 245.93416413138658 L106 246.44833075518983 L107 246.9585672690069 L108 247.46488158162256 L109 247.96728154102684 L110 248.4657749345361 L111 248.9603694889143 L112 249.45107287049223 L113 249.93789268528678 L114 250.42083647911855 L115 250.89991173772893 L116 251.3751258868961 L117 251.8464862925502 L118 252.31400026088738 L119 252.7776750384832 L120 253.23751781240475 L121 253.6935357103223 L122 254.1457358006195 L123 254.59412509250325 L124 255.03871053611212 L125 255.47949902262403 L126 255.91649738436337 L127 256.34971239490665 L128 256.7791507691875 L129 257.20481916360075 L130 257.6267241761059 L131 258.044872346329 L132 258.45927015566406 L133 258.86992402737377 L134 259.276840326689 L135 259.68002536090705 L136 260.07948537949017 L137 260.47522657416164 L138 260.8672550790023 L139 261.2555769705453 L140 261.6401982678706 L141 262.02112493269783 L142 262.3983628694793 L143 262.7719179254908 L144 263.14179589092294 L145 263.5080024989702 L146 263.8705434259207 L147 264.229424291243 L148 264.5846506576744 L149 264.9362280313063 L150 265.28416186167 L151 265.62845754182104 L152 265.96912040842255 L153 266.30615574182855 L154 266.6395687661653 L155 266.96936464941234 L156 267.2955485034827 L157 267.6181253843022 L158 267.9371002918877 L159 268.25247817042475 L160 268.5642639083438 L161 268.87246233839664 L162 269.1770782377307 L163 269.47811632796345 L164 269.77558127525543 L165 270.06947769038277 L166 270.3598101288084 L167 270.64658309075276 L168 270.92980102126364 L169 271.209468310285 L170 271.4855892927251 L171 271.75816824852325 L172 272.0272094027172 L173 272.2927169255073 L174 272.55469493232215 L175 272.81314748388195 L176 273.0680785862615 L177 273.31949219095225 L178 273.56739219492374 L179 273.8117824406838 L180 274.05266671633825 L181 274.29004875564954 L182 274.5239322380945 L183 274.75432078892186 L184 274.9812179792077 L185 275.20462732591136 L186 275.4245522919299 L187 275.6409962861515 L188 275.8539626635085 L189 276.0634547250295 L190 276.2694757178902 L191 276.4720288354641 L192 276.67111721737166 L193 276.8667439495293 L194 277.05891206419693 L195 277.2476245400251 L196 277.43288430210123 L197 277.6146942219948 L198 277.79305711780205 L199 277.9679757541893 L200 278.1394528424363 L201 278.30749104047777 L202 278.4720929529451 L203 278.63326113120627 L204 278.7909980734056 L205 278.9453062245025 L206 279.0961879763091 L207 279.2436456675281 L208 279.38768158378775 L209 279.52829795767843 L210 279.6654969687868 L211 279.79928074372947 L212 279.9296513561861 L213 280.05661082693166 L214 280.1801611238675 L215 280.30030416205204 L216 280.41704180373034 L217 280.5303758583631 L218 280.64030808265454 L219 280.74684018057985 L220 280.84997380341144 L221 280.9497105497443 L222 281.0460519655214 L223 281.138999544057 L224 281.22855472606045 L225 281.3147188996578 L226 281.39749340041396 L227 281.4768795113529 L228 281.5528784629778 L229 281.6254914332901 L230 281.69471954780795 L231 281.7605638795832 L232 281.82302544921816 L233 281.882105224882 L234 281.93780412232485 L235 281.9901230048926 L236 282.03906268354024 L237 282.08462391684407 L238 282.12680741101394 L239 282.1656138199037 L240 282.20104374502193 L241 282.2330977355406 L242 282.261776288304 L243 282.2870798478365 L244 282.3090088063491 L245 282.32756350374575 L246 282.3427442276287 L247 282.35455121330256 L248 282.36298464377853 L249 282.36804464977655 L250 282.369731309728 L251 282.36804464977655 L252 282.36298464377853 L253 282.35455121330256 L254 282.3427442276287 L255 282.32756350374575 L256 282.3090088063491 L257 282.2870798478365 L258 282.261776288304 L259 282.2330977355406 L260 282.20104374502193 L261 282.1656138199037 L262 282.12680741101394 L263 282.08462391684407 L264 282.03906268354024 L265 281.9901230048926 L266 281.93780412232485 L267 281.882105224882 L268 281.82302544921816 L269 281.7605638795832 L270 281.69471954780795 L271 281.6254914332901 L272 281.5528784629778 L273 281.4768795113529 L274 281.39749340041396 L275 281.3147188996578 L276 281.22855472606045 L277 281.138999544057 L278 281.0460519655214 L279 280.9497105497443 L280 280.84997380341144 L281 280.74684018057985 L282 280.64030808265454 L283 280.5303758583631 L284 280.41704180373034 L285 280.30030416205204 L286 280.1801611238675 L287 280.05661082693166 L288 279.9296513561861 L289 279.79928074372947 L290 279.6654969687868 L291 279.52829795767843 L292 279.38768158378775 L293 279.2436456675281 L294 279.0961879763091 L295 278.9453062245025 L296 278.7909980734056 L297 278.63326113120627 L298 278.4720929529451 L299 278.30749104047777 L300 278.1394528424363 L301 277.9679757541893 L302 277.79305711780205 L303 277.6146942219948 L304 277.43288430210123 L305 277.2476245400251 L306 277.05891206419693 L307 276.8667439495293 L308 276.67111721737166 L309 276.4720288354641 L310 276.2694757178902 L311 276.0634547250295 L312 275.8539626635085 L313 275.6409962861515 L314 275.4245522919299 L315 275.20462732591136 L316 274.9812179792077 L317 274.75432078892186 L318 274.5239322380945 L319 274.29004875564954 L320 274.05266671633825 L321 273.8117824406838 L322 273.56739219492374 L323 273.31949219095225 L324 273.0680785862615 L325 272.81314748388195 L326 272.55469493232215 L327 272.2927169255073 L328 272.0272094027172 L329 271.75816824852325 L330 271.4855892927251 L331 271.209468310285 L332 270.92980102126364 L333 270.64658309075276 L334 270.3598101288084 L335 270.06947769038277 L336 269.77558127525543 L337 269.47811632796345 L338 269.1770782377307 L339 268.87246233839664 L340 268.5642639083438 L341 268.25247817042475 L342 267.9371002918877 L343 267.6181253843022 L344 267.2955485034827 L345 266.96936464941234 L346 266.6395687661653 L347 266.30615574182855 L348 265.96912040842255 L349 265.62845754182104 L350 265.28416186167 L351 264.9362280313063 L352 264.5846506576744 L353 264.229424291243 L354 263.8705434259207 L355 263.5080024989702 L356 263.14179589092294 L357 262.7719179254908 L358 262.3983628694793 L359 262.02112493269783 L360 261.6401982678706 L361 261.2555769705453 L362 260.8672550790023 L363 260.47522657416164 L364 260.07948537949017 L365 259.68002536090705 L366 259.276840326689 L367 258.86992402737377 L368 258.45927015566406 L369 258.044872346329 L370 257.6267241761059 L371 257.20481916360075 L372 256.7791507691875 L373 256.34971239490665 L374 255.91649738436337 L375 255.47949902262403 L376 255.03871053611212 L377 254.59412509250325 L378 254.1457358006195 L379 253.6935357103223 L380 253.23751781240475 L381 252.7776750384832 L382 252.31400026088738 L383 251.8464862925502 L384 251.3751258868961 L385 250.89991173772893 L386 250.42083647911855 L387 249.93789268528678 L388 249.45107287049223 L389 248.9603694889143 L390 248.4657749345361 L391 247.96728154102684 L392 247.46488158162256 L393 246.9585672690069 L394 246.44833075518983 L395 245.93416413138658 L396 245.41605942789448 L397 244.8940086139699 L398 244.36800359770353 L399 243.83803622589494 L400 243.3040982839263 L401 242.76618149563512 L402 242.22427752318572 L403 241.67837796694005 L404 241.12847436532797 L405 240.57455819471528 L406 240.01662086927217 L407 239.45465374084023 L408 238.88864809879772 L409 238.3185951699253 L410 237.74448611826972 L411 237.1663120450068 L412 236.58406398830363 L413 235.9977329231795 L414 235.40730976136638 L415 234.81278535116746 L416 234.21415047731574 L417 233.6113958608313 L418 233.00451215887688 L419 232.3934899646137 L420 231.7783198070552 L421 231.1589921509207 L422 230.53549739648696 L423 229.90782587944 L424 229.27596787072497 L425 228.63991357639537 L426 227.99965313746145 L427 227.35517662973706 L428 226.70647406368613 L429 226.0535353842676 L430 225.39635047077974 L431 224.7349091367031 L432 224.069201129543 L433 223.3992161306698 L434 222.7249437551601 L435 222.04637355163482 L436 221.36349500209752 L437 220.67629752177152 L438 219.98477045893566 L439 219.28890309475923 L440 218.58868464313593 L441 217.88410425051637 L442 217.17515099574035 L443 216.46181388986707 L444 215.74408187600505 L445 215.02194382914075 L446 214.2953885559661 L447 213.564404794705 L448 212.82898121493872 L449 212.0891064174303 L450 211.34476893394793 L451 210.5959572270869 L452 209.8426596900914 L453 209.08486464667396 L454 208.32256035083464 L455 207.55573498667917 L456 206.7843766682356 L457 206.00847343927023 L458 205.22801327310202 L459 204.44298407241655 L460 203.65337366907806 L461 202.85916982394133 L462 202.06036022666154 L463 201.2569324955037 L464 200.44887417715069 L465 199.6361727465101 L466 198.8188156065204 L467 197.99679008795528 L468 197.17008344922766 L469 196.33868287619174 L470 195.50257548194492 L471 194.66174830662771 L472 193.81618831722267 L473 192.96588240735304 L474 192.1108173970788 L475 191.250980032693 L476 190.3863569865162 L477 189.51693485668937 L478 188.64270016696685 L479 187.76363936650722 L480 186.8797388296631 L481 185.99098485577008 L482 185.09736366893424 L483 184.1988614178191 L484 183.29546417543014 L485 182.38715793889946 L486 181.47392862926864 L487 180.55576209127054 L488 179.63264409310977 L489 178.70456032624202 L490 177.77149640515262 L491 176.83343786713323 L492 175.89037017205789 L493 174.9422787021573 L494 173.98914876179276 L495 173.03096557722802 L496 172.06771429640025 L497 171.09937998868998 L498 170.1259476446898 L499 169.14740217597137 " stroke = "blue" stroke-width = "4" fill = "none" /></svg>