<svg width="250" height="250" viewbox = "0 0 250 250"  xmlns="http://www.w3.org/2000/svg">

<!--
<json>
{
    "svgwidth": 250,
    "svgheight": 250,
    "unit": 100,
    "x0": 684,
    "y0": 399,
    "x0rel": 0,
    "y0rel": 0,
    "glyph": "0330,0335,0221,0335,0334,0334,0331,0331,0336,0330,0330,0335,0220,0333,0331,0333,0336,0332,0337,0220,",
    "table": [
        "0220:0334,0336,0336,0362,0203,0335,0337,0337,0203,0334,0336,0336,0203,0335,0310,0350,0335,0337,0203,0203,0335,0335,0203,0203,0335,0335,0335,0336,0304,0313,0203,0334,0337,0337,0203,0335,0336,0336,0203,0363,0335,0337,0337,",
        "0221:0336,0334,0336,0336,0306,0362,0203,0335,0335,0337,0203,0335,0335,0203,0335,0335,0336,0203,0363,0304,0337,0335,0321,0335,0335,0337,0366,0335,0332,0331,0331,0336,0367,0335,0330,0330,0332,0332,0332,0332,0337,0337,0320,",
        "0244:0243,0243,0243,0243,",
        "01220:0333,0200,0336,0332,0341,0333,0337,",
        "01221:0333,0200,",
        "01222:0333,0200,",
        "01223:0333,0200,",
        "01224:0333,0200,",
        "01225:0333,0200,",
        "01226:0333,0200,",
        "01227:0333,0200,",
        "01230:0333,0200,",
        "01231:0333,0200,",
        "01232:0333,0200,",
        "01233:0333,0200,",
        "01234:0333,0200,",
        "01235:0333,0200,",
        "01236:0333,0200,",
        "01237:0333,0200,",
        "01240:0333,0200,",
        "01241:0333,0200,",
        "01242:0333,0200,",
        "01243:0333,0200,",
        "01244:0333,0200,",
        "01245:0333,0200,",
        "01246:0333,0200,",
        "01247:0333,0200,"
    ],
    "imgurl": "",
    "imgw": 500,
    "imgx": 0,
    "imgy": 0,
    "angle": 0
}
</json>
-->
	<path d = "M125 25 L125 13 L147 25 L125 38 L125 25 Z" stroke = "black" stroke-width = "3" fill = "black" /><path    d = "M125,25 C75,25 75,100 75,125" fill = "none" stroke-width = "6" stroke = "black" />	<path d = "M125 125 L125 113 L175 112 L175 100 L188 112 L200 125 L188 137 L175 150 L175 137 L125 137 L125 125 Z" stroke = "black" stroke-width = "3" fill = "black" />	<path d = "M75 200 L75 187 L125 187 L125 175 L137 187 L150 200 L137 212 L125 225 L125 212 L75 212 L75 200 Z" stroke = "black" stroke-width = "3" fill = "black" /></svg>