<svg width="250" height="250" viewbox = "0 0 250 250"  xmlns="http://www.w3.org/2000/svg">

<!--
<json>
{
    "svgwidth": 250,
    "svgheight": 250,
    "unit": 64,
    "x0": 622,
    "y0": 404,
    "x0rel": -62,
    "y0rel": -15,
    "glyph": "0330,0335,0221,0335,0334,0334,0331,0331,0336,0330,0330,0335,0220,0333,0331,0333,0336,0332,0337,0220,0333,0330,0330,0222,0330,0333,0330,0223,0330,0332,0332,0332,0225,0335,0335,0330,0225,0336,0335,0333,0336,0331,0332,0337,061,062,0365,",
    "table": [
        "0220:0334,0336,0336,0362,0203,0335,0337,0337,0203,0334,0336,0336,0203,0335,0310,0350,0335,0337,0203,0203,0335,0335,0203,0203,0335,0335,0335,0336,0304,0313,0203,0334,0337,0337,0203,0335,0336,0336,0203,0363,0335,0337,0337,",
        "0221:0336,0334,0336,0336,0306,0362,0203,0335,0335,0337,0203,0335,0335,0203,0335,0335,0336,0203,0363,0304,0337,0335,0321,0335,0335,0337,0366,0335,0332,0331,0331,0336,0367,0335,0330,0330,0332,0332,0332,0332,0337,0337,0320,",
        "0222:0321,0201,0336,0336,0320,0334,0306,0336,0362,0203,0335,0335,0203,0203,0335,0335,0203,0203,0335,0335,0203,0363,0304,0335,0337,0337,0337,0331,",
        "0223:0334,0336,0336,0362,0203,0335,0203,0203,0203,0335,0203,0203,0335,0203,0203,0203,0335,0203,0363,0335,0330,0330,0330,0336,0330,0334,0337,0337,0306,0362,0203,0335,0335,0203,0203,0335,0335,0203,0203,0335,0335,0203,0363,0304,0335,0336,0336,0331,0337,0331,0331,0331,0331,0330,0337,0337,",
        "0224:0334,0336,0336,0362,0203,0335,0203,0203,0203,0335,0203,0203,0335,0203,0203,0203,0335,0203,0363,0335,0330,0330,0330,0336,0336,0330,0337,0337,0337,0334,0331,0337,0306,0350,0312,0362,0203,0335,0335,0335,0335,0335,0336,0203,0335,0335,0203,0363,0334,0337,0313,0336,0331,0304,0334,0331,0331,0336,0336,0330,0336,0330,0337,0337,0337,0337,",
        "0225:0201,0335,0335,0306,0336,0336,0335,0330,0335,0335,0335,0362,0203,0335,0203,0364,0331,0350,0334,0342,0335,0335,0335,0335,0335,0335,0342,0335,0335,0335,0304,0337,0337,0331,",
        "0226:0336,0366,0330,0330,0335,0335,0332,0332,0367,0336,0336,0306,0350,0335,0362,0203,0334,0334,0334,0334,0203,0334,0334,0334,0334,0203,0363,0335,0337,0337,0337,0304,",
        "0227:0306,0362,0203,0335,0203,0335,0203,0335,0203,0335,0203,0335,0203,0335,0354,0350,0335,0312,0337,0362,0203,0335,0335,0335,0335,0203,0335,0335,0335,0335,0203,0354,0335,0335,0335,0336,0330,0335,0335,0335,0337,0362,0203,0335,0335,0335,0335,0203,0335,0335,0335,0335,0203,0354,0335,0336,0331,0336,0335,0330,",
        "0230:0305,0350,0311,0362,0203,0335,0335,0203,0335,0335,0203,0335,0335,0203,0335,0335,0203,0354,0335,0335,",
        "0231:0306,0362,0203,0335,0335,0203,0335,0335,0203,0354,0335,0335,",
        "0232:0305,0334,0331,0230,0335,0335,0335,0230,0335,0335,0335,0230,0330,0335,0335,0335,0331,0334,0334,0334,0230,0334,0334,0334,0334,0230,0330,0334,0334,0230,0330,0334,0334,0330,0335,0335,0330,0335,0335,0330,0304,0335,0335,",
        "0233:0232,0232,",
        "0244:0243,0243,0243,0243,",
        "01220:0220,0220,0211,0211,0333,",
        "01221:0221,0333,",
        "01222:0333,0200,0332,0222,0222,0211,0211,0333,",
        "01223:0333,0200,0332,0223,0333,",
        "01224:0333,0200,",
        "01225:0333,0200,",
        "01226:0333,0200,",
        "01227:0333,0200,",
        "01230:0333,0200,0332,0230,0304,0313,0333,",
        "01231:0333,0200,0332,0231,0313,0304,0333,",
        "01232:0333,0200,",
        "01233:0333,0200,",
        "01234:0333,0200,",
        "01235:0333,0200,",
        "01236:0333,0200,",
        "01237:0333,0200,",
        "01240:0333,0200,",
        "01241:0333,0200,",
        "01242:0333,0200,",
        "01243:0333,0200,",
        "01244:0333,0200,",
        "01245:0333,0200,",
        "01246:0333,0200,",
        "01247:0333,0200,"
    ],
    "imgurl": "",
    "imgw": 500,
    "imgx": 0,
    "imgy": 0,
    "angle": 0
}
</json>
-->
	<path d = "M63 46 L63 38 L77 46 L63 54 L63 46 Z" stroke = "black" stroke-width = "3" fill = "black" /><path    d = "M63,46 C31,46 31,94 31,110" fill = "none" stroke-width = "6" stroke = "black" />	<path d = "M63 110 L63 102 L95 102 L95 94 L103 102 L111 110 L103 118 L95 126 L95 118 L63 118 L63 110 Z" stroke = "black" stroke-width = "3" fill = "black" />	<path d = "M31 158 L31 150 L63 150 L63 142 L71 150 L79 158 L71 166 L63 174 L63 166 L31 166 L31 158 Z" stroke = "black" stroke-width = "3" fill = "black" />    <line x1="95" y1="190" x2="127" y2="190" style="stroke:black;stroke-width:6" />
	<path d = "M127 190 L127 186 L130 188 L134 190 L130 192 L127 194 L127 190 Z" stroke = "black" stroke-width = "3" fill = "black" />	<path d = "M159 222 L159 214 L167 214 L175 214 L183 214 L183 222 L183 230 L175 230 L167 230 L159 230 L159 222 Z" stroke = "black" stroke-width = "3" fill = "black" />	<path d = "M187 222 L187 206 L201 214 L215 222 L201 230 L187 238 L187 222 Z" stroke = "black" stroke-width = "3" fill = "black" />    <line x1="191" y1="126" x2="223" y2="126" style="stroke:black;stroke-width:3" />
	<path d = "M219 119 L223 126 L219 133 " stroke = "black" stroke-width = "3" fill = "none" />    <line x1="223" y1="126" x2="223" y2="134" style="stroke:black;stroke-width:3" />
    <line x1="223" y1="126" x2="223" y2="118" style="stroke:black;stroke-width:3" />
    <line x1="159" y1="126" x2="127" y2="126" style="stroke:black;stroke-width:3" />
	<path d = "M131 133 L127 126 L131 119 " stroke = "black" stroke-width = "3" fill = "none" />    <line x1="127" y1="126" x2="127" y2="118" style="stroke:black;stroke-width:3" />
    <line x1="127" y1="126" x2="127" y2="134" style="stroke:black;stroke-width:3" />
    <text x="167" y = "134" fill = "black" font-size = "16px" font-family = "arial">12</text>
</svg>