<svg width="500" height="500" viewbox = "0 0 500 500"  xmlns="http://www.w3.org/2000/svg">

<!--
<topfunctions>



function YofX(){
    X = currentjson.plotparams.g*(x - currentjson.plotparams.x0);

    Y = Math.exp(-X/A)*(Math.sin(X));

    y = currentjson.plotparams.y0 - currentjson.plotparams.G*(Y);
}





function plotfunction(){
    
    /*plot one function:*/
    currentStroke = "red";
    currentLineWidth = 4;
    ctx.strokeStyle = currentStroke;
    ctx.lineWidth = currentLineWidth;
    ctx.beginPath();	
    x = 0;
    intx = x;
    YofX();
    currentSVG += "	<path d = \"M";
    currentSVG += Math.round(x).toString() + " ";
    currentSVG += Math.round(y).toString() + " ";
    for(x = 1;x < currentjson.plotparams.plotwidth;x++){
        ctx.moveTo(x-1,y);
        YofX();
        ctx.lineTo(x,y);
        currentSVG += "L" + x + " " + y + " ";
    }
    ctx.stroke();
    currentSVG += "\""+ " stroke = \"" + currentStroke + "\" stroke-width = \"" + currentLineWidth.toString() + "\" fill = \"" + "none" + "\" "+"/>";
    /*finish plot one function*/
    
    

}































</topfunctions>
-->

<!--
<currentjson>
{
    "constants": {},
    "YofXstring": "Y =  (1/Math.PI)*0.5/(X*X + 0.25);",
    "style": {
        "linewidth": 4,
        "color": "blue",
        "fill": "none"
    },
    "plotparams": {
        "G": 103.42365531743322,
        "g": 0.15083501404857097,
        "duration": 450.78888054094654,
        "plotwidth": 500,
        "plotheight": 500,
        "x0": 36,
        "y0": 255
    },
    "funcparams": {},
    "image": {
        "url": "",
        "xoverw": 0.038011695906432746,
        "yoverw": -0.08771929824561403,
        "woverw": 0.8536631795472632,
        "angle": "0"
    },
    "A": 10.169742146064136,
    "B": 1
}
</currentjson>
-->

<!--
<equation>
# Equations

$x$, $x_0$, $y$ and $y_0$ are all in pixels. x varies from 0 to the width in pixels of the plot.  Y and X are in the units of the system being studied.   

$$X = g(x - x_0)$$
$$Y = \sin{(X)}$$
$$y = y_0 - GY$$ 
</equation>
-->
	<path d = "M0 122 L1 108.37584764541558 L2 98.35735407292475 L3 92.1703198782806 L4 89.84252814126702 L5 91.31376756946133 L6 96.43976458914312 L7 104.99789952114901 L8 116.69452556527148 L9 131.17367840682522 L10 148.02693904586272 L11 166.80419333628552 L12 187.02501896226264 L13 208.19042427548194 L14 229.7946635225456 L15 251.3368593175404 L16 272.332175435776 L17 292.3223006725018 L18 310.885027066763 L19 327.6427325829981 L20 342.2696086424451 L21 354.49750591592425 L22 364.1203067036854 L23 370.99676819262544 L24 375.051817053148 L25 376.2763113940425 L26 374.7253202487696 L27 370.5150027898334 L28 363.81819869837216 L29 354.8588669750118 L30 343.9055324797735 L31 331.2639172491142 L32 317.26894687976016 L33 302.2763308248138 L34 286.65391926133003 L35 270.7730383126422 L36 255 L37 239.68797361125183 L38 225.16939155321919 L39 211.749045621777 L40 199.69800946913566 L41 189.24850041504664 L42 180.5897692213406 L43 173.86508063681669 L44 169.16982104270747 L45 166.55074300528958 L46 166.00633057225178 L47 167.48824430365573 L48 170.90378183515912 L49 176.1192687062536 L50 182.9642756632685 L51 191.2365430099537 L52 200.70748009647426 L53 211.12809890038946 L54 222.23523496930312 L55 233.75790679183118 L56 245.4236658893643 L57 256.9647944478977 L58 268.1242149382161 L59 278.6609866409402 L60 288.3552769809032 L61 297.01271071596824 L62 304.4680169137821 L63 310.5879118534723 L64 315.27317505827705 L65 318.45989514347616 L66 320.11988159976676 L67 320.2602575875891 L68 318.9222668786804 L69 316.17934486546136 L70 312.1345187248889 L71 306.9172150758194 L72 300.6795645642845 L73 293.59230156176807 L74 285.8403634384501 L75 277.618297606942 L76 269.12558571228544 L77 260.5619930188766 L78 252.1230473176781 L79 243.9957457020033 L80 236.35457953797436 L81 229.3579581275351 L82 223.1451002024419 L83 217.8334497983395 L84 213.51665955919594 L85 210.2631704455521 L86 208.11540250013013 L87 207.08955709194515 L88 207.1760172341315 L89 208.34031945168493 L90 210.52465853894182 L91 213.64987563830695 L92 217.6178706020387 L93 222.3143717396816 L94 227.61198993547046 L95 233.37347983005387 L96 239.4551283426696 L97 245.71019026337285 L98 251.99229192771153 L99 258.1587270159151 L100 264.0735731757144 L101 269.61056429957017 L102 274.65566071174044 L103 279.10926803274316 L104 282.8880648642927 L105 285.926409439673 L106 288.1773057685035 L107 289.6129203252048 L108 290.2246507455372 L109 290.0227580731597 L110 289.0355836204469 L111 287.3083802759234 L112 284.9017959285948 L113 281.89005343729684 L114 278.3588771298554 L115 274.40322008192777 L116 270.1248493402808 L117 265.6298477935711 L118 261.0260915609037 L119 256.4207606008609 L120 251.91793780670116 L121 247.61634823917927 L122 243.60728547299544 L123 239.97276643287933 L124 236.78394972427867 L125 234.09984548802228 L126 231.96633740340582 L127 230.41552980974387 L128 229.4654251927458 L129 229.11992966561746 L130 229.36917673448852 L131 230.19015273136768 L132 231.54760096867216 L133 233.39517604357013 L134 235.6768149044495 L135 238.32828737090426 L136 241.27888583513135 L137 244.4532119055142 L138 247.77301679775675 L139 251.15905232723162 L140 254.53289037779336 L141 257.818670665657 L142 260.9447394112104 L143 263.845145088821 L144 266.4609616421599 L145 268.7414143157162 L146 270.6447884384778 L147 272.1391069737109 L148 273.2025682871008 L149 273.8237412521384 L150 274.0015203777293 L151 273.7448489857489 L152 273.0722234715096 L153 272.01099624463467 L154 270.5964989814108 L155 268.8710112467216 L156 266.8826023044546 L157 264.6838759869247 L158 262.3306498107556 L159 259.8806001005261 L160 257.3919047210768 L161 254.92191414976494 L162 252.52588008153717 L163 250.25576860674292 L164 248.15918230075246 L165 246.27841239268915 L166 244.6496386233543 L167 243.30229055134114 L168 242.25858001698904 L169 241.53321032348984 L170 241.13326353983763 L171 241.05826326539076 L172 241.30040630979622 L173 241.8449531174717 L174 242.67076347698898 L175 243.75096116703378 L176 245.05370875570037 L177 246.543071830449 L178 248.17995052144778 L179 249.92305530785248 L180 251.7299037687485 L181 253.55781514945502 L182 255.3648803392643 L183 257.110886066975 L184 258.7581737742684 L185 260.27241567374807 L186 261.6232928805949 L187 262.7850631606606 L188 263.73700869554386 L189 264.4637572562427 L190 264.9554732298953 L191 265.2079179881279 L192 265.22238205211954 L193 265.0054943339165 L194 264.5689163561335 L195 263.92893171961333 L196 263.10594315486566 L197 262.1238912202859 L198 261.0096100691654 L199 259.7921366784019 L200 258.501990504013 L201 257.1704407007778 L202 255.82877782337775 L203 254.50760633070777 L204 253.23617326803029 L205 252.04174723499636 L206 250.94906019922863 L207 249.97982292835232 L208 249.15232283541351 L209 248.48111091380338 L210 247.97678223010075 L211 247.64585219911936 L212 247.49072863666433 L213 247.50977742196545 L214 247.69747755042854 L215 248.0446594612946 L216 248.53881882231278 L217 249.16449647741902 L218 249.90371404039863 L219 250.7364536678293 L220 251.6411698817139 L221 252.59532094271526 L222 253.5759071985682 L223 254.56000404222272 L224 255.52527759745848 L225 256.45047198719686 L226 257.31585800743835 L227 258.1036341990735 L228 258.79827264845 L229 259.3868033203378 L230 259.8590322966242 L231 260.207690922406 L232 260.42851450961535 L233 260.52025087910596 L234 260.4846005988988 L235 260.32609226501165 L236 260.05189754091015 L237 259.6715918946622 L238 259.1968680260098 L239 258.64120983996486 L240 258.019535485177 L241 257.3478184251978 L242 256.64269574489134 L243 255.9210729136485 L244 255.19973403757092 L245 254.4949662448059 L246 253.82220627628337 L247 253.1957166165423 L248 252.62829761762967 L249 252.1310410673452 L250 251.71312955752765 L251 251.38168484612223 L252 251.14166720662803 L253 250.99582654842368 L254 250.94470489903753 L255 250.98668869108766 L256 251.1181082170188 L257 251.33338062628818 L258 251.6251919619655 L259 251.98471298340647 L260 252.40184291195666 L261 252.86547477721152 L262 253.3637757381814 L263 253.88447560907485 L264 254.4151568319452 L265 254.94353930327708 L266 255.45775377053658 L267 255.94659795658856 L268 256.3997701308205 L269 256.8080755096633 L270 257.16360161794813 L271 257.45985955680356 L272 257.69188898325183 L273 257.8563254905912 L274 257.9514299663478 L275 257.9770803758999 L276 257.9347272556033 L277 257.82731498154527 L278 257.65917159281116 L279 257.43587057729957 L280 257.16406856189127 L281 256.85132327790114 L282 256.50589649058094 L283 256.136546784068 L284 255.75231717938212 L285 255.36232253430998 L286 254.97554153430295 L287 254.60061783923743 L288 254.24567461063273 L289 253.91814621817213 L290 253.62463042525252 L291 253.37076379421134 L292 253.16112244723166 L293 252.9991496836975 L294 252.88711130420498 L295 252.82607884067858 L296 252.81594025579676 L297 252.8554370671535 L298 252.94222628516238 L299 253.07296504024126 L300 253.2434153243459 L301 253.44856589278646 L302 253.6827680709422 L303 253.9398819915186 L304 254.21342965390738 L305 254.496751148562 L306 254.78316042469052 L307 255.06609709573922 L308 255.3392709691071 L309 255.59679624774367 L310 255.8333126738135 L311 256.04409125938287 L312 256.22512266610465 L313 256.37318674449 L314 256.48590221250214 L315 256.56175593169155 L316 256.6001117158292 L317 256.60119907126676 L318 256.5660827099375 L319 256.49661408569017 L320 256.39536657419393 L321 256.2655562387988 L322 256.11095039358383 L323 255.9357663858643 L324 255.74456317057852 L325 255.54212833662487 L326 255.33336327021271 L327 255.12316910390007 L328 254.91633600482484 L329 254.71743820557046 L330 254.53073698112908 L331 254.36009353151687 L332 254.2088934485487 L333 254.07998413452748 L334 253.97562620803657 L335 253.89745958579178 L336 253.84648457783163 L337 253.8230579843083 L338 253.82690384359066 L339 253.85713816064722 L340 253.91230664846864 L341 253.99043424958774 L342 254.08908497467297 L343 254.20543040486385 L344 254.33632505712157 L345 254.4783867094611 L346 254.6280797265075 L347 254.78179941531613 L348 254.93595547570072 L349 255.08705268634827 L350 255.23176708477052 L351 255.36701605185186 L352 255.49002089590243 L353 255.59836074163223 L354 255.69001676080484 L355 255.76340602766814 L356 255.81740453759565 L357 255.85135918567133 L358 255.8650887572916 L359 255.8588742295625 L360 255.83343891501 L361 255.78991919305545 L362 255.72982676554687 L363 255.65500353674705 L364 255.56757035263487 L365 255.4698709370053 L366 255.36441243126814 L367 255.25380398045002 L368 255.14069480987942 L369 255.0277132063213 L370 254.91740775557528 L371 254.81219209805897 L372 254.71429434755436 L373 254.62571217948033 L374 254.54817443756303 L375 254.48310993571076 L376 254.4316239495756 L377 254.39448270411677 L378 254.37210597389378 L379 254.36456772613536 L380 254.3716045569838 L381 254.39263150255758 L382 254.42676465210204 L383 254.472849853575 L384 254.52949668512352 L385 254.59511677110808 L386 254.66796545011277 L387 254.746185755668 L388 254.82785364854195 L389 254.91102344219897 L390 254.99377238959372 L391 255.07424344857426 L392 255.150685313036 L393 255.22148888541807 L394 255.28521947062077 L395 255.3406440891202 L396 255.38675343491738 L397 255.42277813880085 L398 255.44819913596945 L399 255.46275207612268 L400 255.46642585051825 L401 255.45945544121923 L402 255.44230942002068 L403 255.41567253584003 L404 255.38042392748451 L405 255.33761158184188 L406 255.2884237242356 L407 255.23415787691772 L408 255.1761883528397 L409 255.11593296476767 L410 255.05481972473487 L411 254.99425428639015 L412 254.93558884402447 L413 254.88009314828696 L414 254.82892823149487 L415 254.78312335690057 L416 254.74355661841508 L417 254.71093952235532 L418 254.6858057831356 L419 254.6685044628506 L420 254.65919748276673 L421 254.65786143515837 L422 254.66429352886774 L423 254.67812141345595 L424 254.69881654664914 L425 254.72571069953938 L426 254.7580151349693 L427 254.79484194771888 L428 254.83522702122394 L429 254.87815403497356 L430 254.9225789495381 L431 254.9674544021375 L432 255.01175346425606 L433 255.05449224325227 L434 255.09475085116938 L435 255.1316923147727 L436 255.1645790598001 L437 255.19278666793764 L438 255.21581467545568 L439 255.2332942560244 L440 255.24499270521866 L441 255.25081471888407 L442 255.2508005301947 L443 255.24512103930016 L444 255.23407013348663 L445 255.2180544534581 L446 255.19758091156808 L447 255.17324230967643 L448 255.145701437076 L449 255.11567405214942 L450 255.0839111648353 L451 255.05118104058883 L452 255.01825134051626 L453 254.98587179716745 L454 254.95475780169332 L455 254.92557524650562 L456 254.8989269291558 L457 254.87534077894588 L458 254.85526011896303 L459 254.83903612403367 L460 254.82692258079283 L461 254.81907300095688 L462 254.81554008423203 L463 254.81627747431796 L464 254.82114370131492 L465 254.8299081575692 L466 254.84225891252686 L467 254.85781213630332 L468 254.8761228720665 L469 254.8966968744564 L470 254.91900321544722 L471 254.9424873504482 L472 254.96658433602116 L473 254.99073189618807 L474 255.01438304657924 L475 255.03701800415965 L476 255.05815513436647 L477 255.07736071649174 L478 255.09425734124414 L479 255.1085307907637 L480 255.11993529002024 L481 255.12829705856527 L482 255.13351613207794 L483 255.13556646312554 L484 255.1344943491576 L485 255.13041527213676 L486 255.12350926762596 L487 255.11401497092695 L488 255.1022225134381 L489 255.0884654633126 L490 255.07311202041413 L491 255.05655568627668 L492 255.0392056351829 L493 255.0214770126195 L494 255.00378138239535 L495 254.9865175338815 L496 254.9700628465173 L497 254.95476539037492 L498 254.94093691972162 L499 254.92884689175844 " stroke = "red" stroke-width = "4" fill = "none" /></svg>