<svg width="500" height="500" viewbox = "0 0 500 500"  xmlns="http://www.w3.org/2000/svg">

<!--
<topfunctions>



function YofX(){
    X = currentjson.plotparams.g*(x - currentjson.plotparams.x0);

    Y = Math.exp(-X/A)*(Math.sin(X));

    y = currentjson.plotparams.y0 - currentjson.plotparams.G*(Y);
}





function plotfunction(){
    
    /*plot one function:*/
    currentStroke = "red";
    currentLineWidth = 4;
    ctx.strokeStyle = currentStroke;
    ctx.lineWidth = currentLineWidth;
    ctx.beginPath();	
    x = 0;
    intx = x;
    YofX();
    currentSVG += "	<path d = \"M";
    currentSVG += Math.round(x).toString() + " ";
    currentSVG += Math.round(y).toString() + " ";
    for(x = 1;x < currentjson.plotparams.plotwidth;x++){
        ctx.moveTo(x-1,y);
        YofX();
        ctx.lineTo(x,y);
        currentSVG += "L" + x + " " + y + " ";
    }
    ctx.stroke();
    currentSVG += "\""+ " stroke = \"" + currentStroke + "\" stroke-width = \"" + currentLineWidth.toString() + "\" fill = \"" + "none" + "\" "+"/>";
    /*finish plot one function*/
    
    

}































</topfunctions>
-->

<!--
<currentjson>
{
    "constants": {},
    "YofXstring": "Y =  (1/Math.PI)*0.5/(X*X + 0.25);",
    "style": {
        "linewidth": 4,
        "color": "blue",
        "fill": "none"
    },
    "plotparams": {
        "G": 103.42365531743322,
        "g": 0.15083501404857097,
        "duration": 450.78888054094654,
        "plotwidth": 500,
        "plotheight": 500,
        "x0": 36,
        "y0": 255
    },
    "funcparams": {},
    "image": {
        "url": "",
        "xoverw": 0.038011695906432746,
        "yoverw": -0.08771929824561403,
        "woverw": 0.8536631795472632,
        "angle": "0"
    },
    "A": 9.100480585213043,
    "B": 1
}
</currentjson>
-->

<!--
<equation>
# Equations

$x$, $x_0$, $y$ and $y_0$ are all in pixels. x varies from 0 to the width in pixels of the plot.  Y and X are in the units of the system being studied.   

$$X = g(x - x_0)$$
$$Y = \sin{(X)}$$
$$y = y_0 - GY$$ 
</equation>
-->
	<path d = "M0 113 L1 98.8492889145823 L2 88.47963137386463 L3 82.2134933417567 L4 80.05828396888319 L5 81.92824005284388 L6 87.64941276261928 L7 96.9664847179094 L8 109.55120344192676 L9 125.01218766717483 L10 142.9058399060043 L11 162.74808241101115 L12 184.0266242909626 L13 206.21346510086934 L14 228.77734451925215 L15 251.19585844396278 L16 272.9669785276744 L17 293.61973426272374 L18 312.72384353642383 L19 329.89810835169385 L20 344.8174263185735 L21 357.21830470073155 L22 366.90280135539626 L23 373.74085494129713 L24 377.6710044116193 L25 378.69953421957655 L26 376.8981160602342 L27 372.4000496420076 L28 365.3952332981029 L29 356.124019681622 L30 344.8701319128245 L31 331.9528310491547 L32 317.7185364288787 L33 302.53210621385546 L34 286.76798635601557 L35 270.801432374718 L36 255 L37 239.71548824520895 L38 225.27650224006265 L39 211.9817836711439 L40 200.09443448801855 L41 189.83713522964496 L42 181.3884335260944 L43 174.8801516669845 L44 170.39593523145354 L45 167.97093826060203 L46 167.59261490895088 L47 169.20256348233198 L48 172.6993467493707 L49 177.9421928343956 L50 184.7554642239774 L51 192.93376873485255 L52 202.24757590595695 L53 212.44919531850002 L54 223.2789698606743 L55 234.47153690299186 L56 245.7620136250796 L57 256.89196915223687 L58 267.6150554722819 L59 277.7021810049813 L60 286.9461248339166 L61 295.1655055912504 L62 302.20803638798805 L63 307.95301556608257 L64 312.3130219664217 L65 315.2348024132564 L66 316.6993577784099 L67 316.7212518970196 L68 315.3471843804497 L69 312.653883669302 L70 308.7453901926564 L71 303.7498110011076 L72 297.8156365269974 L73 291.1077170580188 L74 283.80300101036363 L75 276.0861391326463 L76 268.14505839605124 L77 260.1666066172062 L78 252.33236395573846 L79 244.81471051103128 L80 237.77323053457044 L81 231.35152353090524 L82 225.67448102340896 L83 220.846075311621 L84 216.94769345756663 L85 214.03703632591487 L86 212.14758908091792 L87 211.2886564154935 L88 211.44594324169447 L89 212.58264987174732 L90 214.641040101642 L91 217.544431279505 L92 221.1995475674713 L93 225.49917131883802 L94 230.32502288214803 L95 235.550796259878 L96 241.04527690031688 L97 246.67546845623906 L98 252.3096575348074 L99 257.8203491867484 L100 263.0870110049043 L101 267.9985700612555 L102 272.45561432319977 L103 276.37225845229875 L104 279.6776427872412 L105 282.317043625466 L106 284.2525824206634 L107 285.46353098520495 L108 285.9462190143233 L109 285.7135590319721 L110 284.79421201273414 L111 283.2314242961398 L112 281.0815728388239 L113 278.41246123125273 L114 275.30141315194254 L115 271.83321298429826 L116 268.09794514949755 L117 264.18878431193315 L118 260.1997880180586 L119 256.22374158773687 L120 252.35010226623285 L121 248.66308586334458 L122 245.23993447106955 L123 242.14939849535503 L124 239.45046030553226 L125 237.19132044992674 L126 235.40866076537404 L127 234.12719198030936 L128 233.35948673134195 L129 233.10609243119083 L130 233.3559122816098 L131 234.08683704631022 L132 235.2666050990368 L133 236.85386383721453 L134 238.79940187990564 L135 241.04751860855524 L136 243.53749559827963 L137 246.2051333439241 L138 248.98431640626578 L139 251.80857066758344 L140 254.61257775204112 L141 257.33361377780744 L142 259.91288239244403 L143 262.2967154158772 L144 264.43761828073144 L145 266.29514171445396 L146 267.83656564258433 L147 269.0373859960409 L148 269.8815998655616 L149 270.3617891539924 L150 270.4790074272579 L151 270.2424789598834 L152 269.66912292209884 L153 268.7829191847945 L154 267.61413525992 L155 266.1984363945469 L156 264.5759027579004 L157 262.7899789777454 L158 260.8863819855699 L159 258.9119932232373 L160 256.9137607650228 L161 254.93763584884815 L162 253.0275667314077 L163 251.22457073641954 L164 249.5659029149269 L165 248.0843369500535 L166 246.80757088987457 L167 245.7577670585949 L168 244.9512321571681 L169 244.39824019877997 L170 244.10299760921203 L171 244.0637466302971 L172 244.27300016458793 L173 244.71789845253113 L174 245.38067553367603 L175 246.23922135586386 L176 247.26772369660395 L177 248.43737277468594 L178 249.71711057304708 L179 251.0744064713449 L180 252.47604079391942 L181 253.88887830163875 L182 255.28061447135923 L183 256.62047858312434 L184 257.8798791343718 L185 259.03297887786607 L186 260.0571887865404 L187 260.9335724310673 L188 261.64715455967973 L189 262.18713003849564 L190 262.5469716886864 L191 262.72443789020656 L192 262.72148305918836 L193 262.5440762000567 L194 262.2019346413029 L195 261.7081817486182 L196 261.0789388399536 L197 260.33286267999455 L198 259.4906407895505 L199 258.57445735871295 L200 257.60744279878367 L201 256.6131199114131 L202 255.61485930528434 L203 254.63535606845133 L204 253.69613883111543 L205 252.8171212571606 L206 252.01620471525223 L207 251.30893943708986 L208 250.70824990921108 L209 250.22422860472093 L210 249.86400048212278 L211 249.63165899929328 L212 249.5282727495307 L213 249.55196025936706 L214 249.69802902748418 L215 249.95917356012274 L216 250.3257259962939 L217 250.785951936864 L218 251.3263833113426 L219 251.93217954608986 L220 252.58750794368203 L221 253.2759340462709 L222 253.98081283192988 L223 254.6856718735129 L224 255.3745780614273 L225 256.0324801380187 L226 256.6455200916623 L227 257.2013073900227 L228 257.6891510689382 L229 258.10024580911556 L230 258.4278092994812 L231 258.667169375596 L232 258.8158006063516 L233 258.8733111556108 L234 258.84138184247354 L235 258.7236603414996 L236 258.52561438208426 L237 258.2543486067845 L238 257.918390417466 L239 257.5274506648622 L240 257.0921654142618 L241 256.6238252439288 L242 256.1340986034746 L243 255.6347556801482 L244 255.13739899859533 L245 254.65320662376257 L246 254.19269335970336 L247 253.76549475381833 L248 253.38017804319608 L249 253.0440834353529 L250 252.76319831896825 L251 252.54206617090165 L252 252.38373108366258 L253 252.28971800205278 L254 252.2600479475702 L255 252.29328674184444 L256 252.38662503181055 L257 252.53598678361396 L258 252.73616286136556 L259 252.98096585050556 L260 253.26340193091673 L261 253.57585535673635 L262 253.91028096018115 L263 254.25840006522978 L264 254.61189527086876 L265 254.9625997376925 L266 255.30267687873646 L267 255.62478670643713 L268 255.92223551187283 L269 256.18910603795723 L270 256.4203658420555 L271 256.611952111923 L272 256.76083178794636 L273 256.8650364404074 L274 256.9236719391995 L275 256.93690352203595 L276 256.90591740349356 L277 256.83286056017397 L278 256.7207607671113 L279 256.5734293391018 L280 256.39534934132763 L281 256.1915522716916 L282 255.96748637966124 L283 255.7288798719531 L284 255.48160226464273 L285 255.23152707655453 L286 254.9843989239511 L287 254.74570787694293 L288 254.5205736803099 L289 254.3136421332909 L290 254.12899557297607 L291 253.97007902349787 L292 253.83964316797937 L293 253.73970488206032 L294 253.6715256466631 L295 253.63560774309764 L296 253.631707734794 L297 253.65886636539366 L298 253.71545366029855 L299 253.79922771477132 L300 253.90740539191248 L301 254.03674294273 L302 254.18362440125094 L303 254.34415550210164 L304 254.51426081683542 L305 254.68978180788602 L306 254.86657355356158 L307 255.0405980010273 L308 255.2080117528204 L309 255.3652465812587 L310 255.5090810885629 L311 255.6367021824283 L312 255.74575531052707 L313 255.83438268609504 L314 255.9012490333455 L315 255.9455546789899 L316 255.96703610787748 L317 255.96595438028612 L318 255.9430720697869 L319 255.89961961854755 L320 255.83725221682673 L321 255.75799849141018 L322 255.6642024308757 L323 255.558460081748 L324 255.44355261762666 L325 255.32237741295205 L326 255.19787874480312 L327 255.0729797014218 L328 254.95051679723633 L329 254.83317868391 L330 254.72345020889313 L331 254.62356291113198 L332 254.53545286242624 L333 254.46072656715427 L334 254.4006354276048 L335 254.35605907193096 L336 254.32749763167942 L337 254.3150728506946 L338 254.31853771142406 L339 254.33729408238312 L340 254.37041772544674 L341 254.41668985689807 L342 254.47463433438085 L343 254.54255944507995 L344 254.61860319996032 L345 254.70078099546663 L346 254.7870344878139 L347 254.87528053536923 L348 254.9634591005256 L349 255.04957906225593 L350 255.13176097207707 L351 255.2082758868911 L352 255.2775795292043 L353 255.33834115536953 L354 255.38946665238765 L355 255.43011552995537 L356 255.459711623352 L357 255.47794747096123 L358 255.48478247439573 L359 255.48043508620984 L360 255.46536939717976 L361 255.44027660956388 L362 255.40605198244896 L363 255.3637679184699 L364 255.31464392652336 L365 255.26001424168288 L366 255.20129391092792 L367 255.1399441615273 L368 255.07743785841242 L369 255.01522582848537 L370 254.95470478476048 L371 254.89718752309702 L372 254.84387599089845 L373 254.795837742625 L374 254.75398620356097 L375 254.7190650634055 L376 254.691637017377 L377 254.6720769671232 L378 254.66056968923814 L379 254.6571118779396 L380 254.66151837263644 L381 254.6734322927059 L382 254.69233872255955 L383 254.71758152149596 L384 254.74838277612122 L385 254.78386436915594 L386 254.82307110781824 L387 254.86499483793324 L388 254.90859896640856 L389 254.95284282437152 L390 254.9967053254376 L391 255.03920740735973 L392 255.07943278955165 L393 255.11654663234265 L394 255.14981174480232 L395 255.17860205494267 L396 255.20241312735274 L397 255.22086958709784 L398 255.2337293832681 L399 255.2408848991833 L400 255.24236098731325 L401 255.23831007393966 L402 255.22900454008035 L403 255.2148266400124 L404 255.1962562658461 L405 255.17385690520192 L406 255.14826016853533 L407 255.12014928267067 L408 255.09024195750106 L409 255.05927303366897 L410 255.02797731065166 L411 254.99707293753102 L412 254.96724572350206 L413 254.93913469270245 L414 254.91331916919813 L415 254.89030763402025 L416 254.87052854817654 L417 254.85432328477413 L418 254.84194126103114 L419 254.83353730825473 L420 254.82917126602666 L421 254.8288097370088 L422 254.83232989201846 L423 254.8395251722859 L424 254.8501126979278 L425 254.8637421593473 L426 254.88000594205351 L427 254.8984502156735 L428 254.91858670494082 L429 254.93990485426073 L430 254.96188409798955 L431 254.98400595559292 L432 255.00576568399367 L433 255.0266832381867 L434 255.0463133149794 L435 255.0642542828061 L436 255.08015583219427 L437 255.0937252157905 L438 255.10473198302742 L439 255.11301115164736 L440 255.11846479552446 L441 255.12106206469986 L442 255.1208376884651 L443 255.11788904495725 L444 255.11237191040377 L445 255.104495027301 L446 255.09451365295303 L447 255.08272226756586 L448 255.0694466342287 L449 255.05503541147314 L450 255.03985152265 L451 255.02426348517992 L452 255.0086368969973 L453 254.99332626749953 L454 254.97866736639745 L455 254.9649702464839 L456 254.95251307599798 L457 254.94153689352393 L458 254.9322413738133 L459 254.9247816671761 L460 254.9192663487679 L461 254.91575648782194 L462 254.91426582122935 L463 254.9147619914165 L464 254.9171687857198 L465 254.92136929387277 L466 254.92720988219395 L467 254.93450486791969 L468 254.9430417651113 L469 254.95258696485206 L470 254.9628917071218 L471 254.97369819981054 L472 254.98474574173304 L473 254.99577671109944 L474 255.00654228847026 L475 255.01680779351105 L476 255.02635752754009 L477 255.0349990285678 L478 255.0425666618597 L479 255.04892448659325 L480 255.053968357488 L481 255.05762723892667 L482 255.05986372762356 L483 255.06067379791554 L484 255.06008580086478 L485 255.05815876420922 L486 255.0549800544634 L487 255.05066247488523 L488 255.04534088336607 L489 255.0391684224034 L490 255.0323124590701 L491 255.02495033624677 L492 255.01726503733707 L493 255.0094408652983 L494 255.00165923319685 L495 254.99409465779692 L496 254.98691104010842 L497 254.9802583075864 L498 254.97426948205654 L499 254.96905822572094 " stroke = "red" stroke-width = "4" fill = "none" /></svg>