<svg width="410" height="410" viewbox = "0 0 410 410"  xmlns="http://www.w3.org/2000/svg">

<!--
<json>
{
    "svgwidth": 410,
    "svgheight": 410,
    "unit": 100.00000000000001,
    "x0": 684,
    "y0": 469,
    "x0rel": 0,
    "y0rel": 50,
    "glyph": "0336,0336,0336,0330,0330,0330,0330,0337,0337,0337,0236,",
    "table": [
        "0220:0321,0342,0350,0335,0330,0336,0336,0341,0337,0337,0331,0335,0351,",
        "0221:0220,0220,0220,0220,",
        "0222:0305,0220,0220,0220,0220,0220,",
        "0223:0306,0220,0220,0220,0220,0220,0220,",
        "0224:0350,0220,0220,0220,0220,0220,0220,0220,0220,",
        "0225:0306,0351,0220,0220,0220,0220,",
        "0226:0366,0350,0335,0330,0330,0304,0334,0367,0335,0335,0366,0334,0331,0331,0350,0335,0367,0304,",
        "0227:0321,0226,0226,0226,0226,",
        "0230:0321,0306,0334,0366,0333,0333,0335,0304,0334,0367,0335,0335,0366,0333,0333,0334,0306,0335,0367,0366,0335,0330,0330,0304,0334,0367,0335,0335,0366,0333,0333,0334,0306,0335,0367,0366,0335,0330,0330,0304,0334,0367,0335,0335,0366,0333,0333,0334,0306,0335,0367,",
        "0231:0305,0350,0334,0366,0333,0333,0335,0304,0334,0367,0335,0331,0331,0305,0350,0335,0366,0334,0330,0330,0304,0335,0367,0334,0331,0331,0305,0335,0304,",
        "0232:0321,0231,0231,0231,0231,0231,",
        "0233:0306,0350,0334,0366,0333,0333,0334,0334,0367,0335,0335,0335,0331,0331,0335,0366,0332,0332,0335,0335,0367,0334,0334,0334,0331,0331,0335,0335,",
        "0234:0321,0233,0233,0233,0233,0233,0233,",
        "0235:0304,0350,0350,0334,0366,0333,0333,0334,0334,0334,0367,0335,0335,0335,0335,0331,0331,0335,0366,0332,0332,0335,0335,0335,0367,0334,0334,0334,0334,0331,0331,0335,0335,",
        "0236:0321,0235,0235,0235,0235,0235,0235,0235,0235,",
        "0237:0321,0334,0362,0203,0306,0335,0335,0203,0203,0335,0335,0203,0203,0335,0335,0203,0354,",
        "0240:0333,0337,0321,0200,",
        "0241:0321,0334,0306,0362,0203,0335,0203,0335,0203,0335,0203,0335,0203,0335,0203,0354,",
        "0242:0322,0334,0350,0362,0203,0335,0203,0335,0203,0335,0203,0335,0203,0335,0203,0335,0203,0335,0203,0363,0335,0321,0362,0203,0335,0203,0335,0203,0335,0203,0335,0203,0335,0203,0335,0203,0335,0203,0335,0354,",
        "0244:0243,0243,0243,0243,",
        "01220:0220,0220,0211,0211,0333,",
        "01221:0221,0333,",
        "01222:0333,0200,0332,0222,0222,0211,0211,0333,",
        "01223:0333,0200,0332,0223,0333,",
        "01224:0333,0200,",
        "01225:0333,0200,",
        "01226:0333,0200,",
        "01227:0333,0200,",
        "01230:0333,0200,0332,0230,0304,0313,0333,",
        "01231:0333,0200,0332,0231,0313,0304,0333,",
        "01232:0333,0200,",
        "01233:0333,0200,",
        "01234:0333,0200,",
        "01235:0333,0200,",
        "01236:0333,0200,",
        "01237:0333,0200,",
        "01240:0333,0200,",
        "01241:0333,0200,",
        "01242:0333,0200,",
        "01243:0333,0200,",
        "01244:0333,0200,",
        "01245:0333,0200,",
        "01246:0333,0200,",
        "01247:0333,0200,"
    ],
    "imgurl": "",
    "imgx": -1.2312396694214882,
    "imgy": -0.43462809917355394,
    "imgw": 2.49,
    "angle": 0
}
</json>
-->
<path    d = "M205,205 C167,113 105,5 205,5" fill = "none" stroke-width = "4" stroke = "black" /><path    d = "M205,205 C243,113 305,5 205,5" fill = "none" stroke-width = "4" stroke = "black" /><path    d = "M205,205 C243,113 276,-7 346,64" fill = "none" stroke-width = "4" stroke = "black" /><path    d = "M205,205 C297,167 417,134 346,64" fill = "none" stroke-width = "4" stroke = "black" /><path    d = "M205,205 C297,167 405,105 405,205" fill = "none" stroke-width = "4" stroke = "black" /><path    d = "M205,205 C297,243 405,305 405,205" fill = "none" stroke-width = "4" stroke = "black" /><path    d = "M205,205 C297,243 417,276 346,346" fill = "none" stroke-width = "4" stroke = "black" /><path    d = "M205,205 C243,297 276,417 346,346" fill = "none" stroke-width = "4" stroke = "black" /><path    d = "M205,205 C243,297 305,405 205,405" fill = "none" stroke-width = "4" stroke = "black" /><path    d = "M205,205 C167,297 105,405 205,405" fill = "none" stroke-width = "4" stroke = "black" /><path    d = "M205,205 C167,297 134,417 64,346" fill = "none" stroke-width = "4" stroke = "black" /><path    d = "M205,205 C113,243 -7,276 64,346" fill = "none" stroke-width = "4" stroke = "black" /><path    d = "M205,205 C113,243 5,305 5,205" fill = "none" stroke-width = "4" stroke = "black" /><path    d = "M205,205 C113,167 5,105 5,205" fill = "none" stroke-width = "4" stroke = "black" /><path    d = "M205,205 C113,167 -7,134 64,64" fill = "none" stroke-width = "4" stroke = "black" /><path    d = "M205,205 C167,113 134,-7 64,64" fill = "none" stroke-width = "4" stroke = "black" /></svg>