<svg width="600" height="600" viewbox = "0 0 600 600"  xmlns="http://www.w3.org/2000/svg">

<!--
<json>
{
    "svgwidth": 600,
    "svgheight": 600,
    "unit": 50,
    "x0": 884,
    "y0": 369,
    "x0rel": 200,
    "y0rel": -50,
    "glyph": "01101,01102,01103,01104,01105,01106,",
    "table": [
        "0220:0333,0200,0332,0336,0333,0337,0326,0342,0336,0330,0332,0335,0337,0342,0336,0334,0331,0337,0320,0210,",
        "0221:0220,0220,0220,0220,0220,0220,0220,0220,0211,0211,0211,0211,0211,0211,0211,0211,",
        "0222:0304,0335,0306,0201,0334,0334,0201,0334,0334,0201,0334,0334,0322,0336,0330,0334,0201,0334,0334,0201,0334,0334,0201,0334,0331,0337,0320,0210,0304,0334,",
        "0223:0222,0222,0222,0222,0222,0222,0222,0211,0211,0211,0211,0211,0211,0211,",
        "0224:0304,0335,0305,0311,0201,0334,0201,0334,0201,0334,0201,0334,0201,0334,0334,0337,0201,0335,0335,0201,0335,0335,0336,0350,0334,0304,0330,0335,0313,0210,",
        "0225:0224,0224,0224,0224,0224,0224,0224,0224,0224,0224,0224,0224,0211,0211,0211,0211,0211,0211,0211,0211,0211,0211,0211,0211,",
        "0226:0306,0335,0201,0335,0335,0336,0330,0335,0335,0337,0201,0335,0335,0335,0350,0335,0336,0312,0337,0201,0334,0334,0334,0334,0201,0334,0336,0331,0334,0337,0201,0334,0334,0334,0334,0201,0335,0335,0335,0335,0335,0336,0342,0335,0335,0330,0330,0335,0335,0335,0335,0201,0335,0335,0335,0335,0330,0335,0335,0304,0313,0337,",
        "0227:0306,0362,0203,0335,0203,0335,0203,0335,0203,0335,0203,0335,0203,0335,0354,0350,0335,0312,0337,0362,0203,0335,0335,0335,0335,0203,0335,0335,0335,0335,0203,0354,0335,0335,0335,0336,0330,0335,0335,0335,0337,0362,0203,0335,0335,0335,0335,0203,0335,0335,0335,0335,0203,0354,0335,0336,0331,0336,0335,0330,",
        "0230:0305,0350,0311,0362,0203,0335,0335,0203,0335,0335,0203,0335,0335,0203,0335,0335,0203,0354,0335,0335,",
        "0231:0306,0362,0203,0335,0335,0203,0335,0335,0203,0354,0335,0335,",
        "0232:0305,0334,0331,0230,0335,0335,0335,0230,0335,0335,0335,0230,0330,0335,0335,0335,0331,0334,0334,0334,0230,0334,0334,0334,0334,0230,0330,0334,0334,0230,0330,0334,0334,0330,0335,0335,0330,0335,0335,0330,0304,0335,0335,",
        "0233:0232,0232,",
        "0244:0243,0243,0243,0243,",
        "01220:0220,0220,0211,0211,0333,",
        "01221:0221,0333,",
        "01222:0333,0200,0332,0222,0222,0211,0211,0333,",
        "01223:0333,0200,0332,0223,0333,",
        "01224:0333,0200,",
        "01225:0333,0200,",
        "01226:0333,0200,",
        "01227:0333,0200,",
        "01230:0333,0200,0332,0230,0304,0313,0333,",
        "01231:0333,0200,0332,0231,0313,0304,0333,",
        "01232:0333,0200,",
        "01233:0333,0200,",
        "01234:0333,0200,",
        "01235:0333,0200,",
        "01236:0333,0200,",
        "01237:0333,0200,",
        "01240:0333,0200,",
        "01241:0333,0200,",
        "01242:0333,0200,",
        "01243:0333,0200,",
        "01244:0333,0200,",
        "01245:0333,0200,",
        "01246:0333,0200,",
        "01247:0333,0200,"
    ],
    "imgurl": "",
    "imgw": 500,
    "imgx": 0,
    "imgy": 0,
    "angle": 0
}
</json>
-->
	<path d = "M464 204 L464 208 L464 210 L465 211 L466 213 L467 214 L469 215 L470 216 L472 217 L474 218 L475 219 L476 220 L478 221 L479 222 L481 223 L482 225 L483 226 L485 227 L486 229 L487 230 L489 231 L490 233 L490 234 L490 236 L490 238 L489 240 L489 241 L488 243 L487 244 L486 246 L485 248 L486 246 L486 244 L485 242 L484 241 L483 239 L482 238 L480 237 L479 236 L478 234 L476 233 L475 232 L473 231 L472 230 L471 229 L469 227 L468 226 L466 225 L465 224 L464 223 L462 222 L461 220 L460 218 L460 217 L459 215 L459 213 L460 211 L461 210 L461 208 L462 207 L463 205 Z" stroke = "black" stroke-width = "1" fill = "black" />	<path d = "M481 223 L483 220 L485 217 L482 216 L478 214 L478 213 L480 210 L482 207 L483 205 L484 207 L485 208 L487 208 L489 209 L490 209 L491 209 L489 216 L487 219 L484 221 L481 223 Z" stroke = "black" stroke-width = "1" fill = "black" />	<path d = "M464 225 L464 226 L464 228 L464 230 L464 232 L465 233 L466 235 L468 236 L469 237 L469 238 L467 241 L466 244 L465 246 L463 246 L461 246 L459 247 L458 248 L456 248 L457 247 L458 245 L459 244 L460 242 L459 240 L458 239 L458 237 L457 235 L458 233 L458 232 L459 230 L460 228 L461 227 L462 226 L463 224 Z" stroke = "black" stroke-width = "1" fill = "black" />	<path d = "M419 199 L421 201 L423 202 L426 204 L428 204 L431 204 L434 204 L437 204 L439 205 L441 207 L442 209 L442 212 L442 215 L442 218 L442 220 L442 223 L442 226 L442 229 L442 232 L442 234 L444 236 L446 237 L446 237 L443 242 L440 246 L437 246 L435 246 L432 246 L429 246 L426 246 L423 246 L421 246 L418 246 L415 246 L412 246 L410 246 L407 247 L406 247 L409 242 L412 237 L412 237 L424 236 L435 236 L436 236 L437 236 L437 233 L437 230 L436 227 L436 225 L436 222 L436 219 L435 216 L433 215 L431 214 L428 214 L425 214 L422 213 L419 213 L417 212 L414 211 L412 209 L412 208 L414 206 L415 204 L417 201 L418 199 L418 199 Z" stroke = "black" stroke-width = "1" fill = "black" />	<path d = "M373 209 L375 205 L378 202 L379 200 L379 200 L380 202 L380 204 L382 205 L384 207 L385 207 L385 207 L385 216 L385 224 L386 233 L386 237 L386 238 L386 239 L382 247 L382 247 L381 247 L380 239 L380 238 L380 237 L376 238 L372 240 L368 241 L367 243 L365 244 L363 245 L362 247 L363 245 L363 243 L364 241 L365 239 L366 237 L367 236 L369 234 L371 234 L373 233 L375 232 L377 232 L379 231 L380 229 L380 227 L380 225 L380 222 L380 220 L380 218 L379 217 L377 216 L375 215 L374 213 L373 211 L373 209 Z" stroke = "black" stroke-width = "1" fill = "black" />	<path d = "M308 198 L309 199 L310 199 L311 200 L312 200 L313 201 L314 201 L316 201 L317 202 L318 202 L319 202 L320 202 L322 202 L323 202 L324 202 L325 202 L327 202 L328 202 L329 202 L330 202 L332 202 L333 202 L334 202 L335 203 L337 203 L338 203 L339 204 L340 205 L340 206 L340 207 L340 208 L339 210 L338 211 L337 211 L337 212 L336 213 L335 214 L334 215 L333 216 L333 217 L333 219 L333 220 L333 221 L333 222 L333 224 L333 225 L334 226 L334 227 L334 229 L334 230 L334 231 L334 232 L334 234 L334 235 L334 236 L334 237 L333 238 L332 239 L332 240 L331 241 L330 242 L329 243 L329 244 L328 245 L327 246 L327 247 L326 248 L325 247 L325 246 L325 241 L325 236 L325 231 L325 226 L325 221 L325 219 L325 216 L326 214 L327 213 L325 213 L322 213 L320 212 L317 212 L315 212 L312 212 L310 212 L307 212 L305 211 L303 210 L301 208 L302 206 L304 204 L305 202 L306 200 L308 198 Z" stroke = "black" stroke-width = "1" fill = "black" />	<path d = "M258 201 L260 202 L262 204 L264 204 L266 204 L268 204 L271 205 L273 205 L275 205 L277 205 L279 205 L282 205 L284 205 L286 205 L288 206 L289 208 L289 210 L288 213 L287 215 L287 217 L286 218 L286 219 L286 220 L286 221 L286 222 L286 223 L286 224 L286 225 L286 226 L286 228 L286 229 L287 230 L287 231 L287 232 L287 233 L287 234 L286 235 L285 236 L285 237 L284 238 L284 239 L283 240 L282 241 L282 241 L281 242 L281 243 L280 244 L280 242 L280 240 L280 238 L280 235 L279 233 L279 231 L279 229 L279 227 L278 224 L278 222 L279 220 L279 218 L279 216 L279 215 L278 214 L276 214 L275 214 L274 214 L273 214 L272 214 L271 214 L270 214 L269 214 L268 214 L266 214 L265 214 L264 214 L263 214 L262 214 L261 214 L260 214 L259 213 L258 213 L257 213 L256 213 L255 212 L254 211 L253 211 L252 210 L252 209 L254 205 L257 202 L258 201 L258 201 Z" stroke = "black" stroke-width = "1" fill = "black" />	<path d = "M259 237 L259 233 L259 230 L259 228 L259 226 L259 224 L259 222 L260 219 L260 217 L259 219 L258 221 L256 223 L255 224 L254 226 L253 226 L253 227 L253 228 L253 228 L253 229 L253 231 L253 233 L253 235 L253 238 L253 240 L253 242 L253 244 L253 245 L254 243 L255 241 L257 240 L258 238 L259 237 Z" stroke = "black" stroke-width = "1" fill = "black" />	<path d = "M205 198 L205 199 L205 201 L206 202 L206 202 L207 203 L208 204 L209 205 L210 205 L214 206 L218 207 L223 207 L225 207 L227 207 L229 208 L231 208 L233 208 L235 209 L236 211 L236 213 L236 215 L235 217 L234 219 L234 221 L234 223 L234 225 L234 227 L234 230 L234 232 L234 234 L234 236 L234 238 L234 240 L232 242 L231 243 L229 245 L228 247 L226 248 L226 246 L226 244 L226 242 L226 239 L226 237 L226 235 L226 233 L226 231 L226 229 L226 226 L226 224 L226 222 L226 220 L226 218 L226 216 L224 216 L222 216 L220 216 L218 216 L215 216 L213 216 L211 216 L209 216 L207 216 L206 218 L205 220 L205 222 L205 224 L205 226 L205 228 L205 230 L205 233 L205 235 L205 237 L205 239 L203 241 L202 242 L201 244 L199 246 L198 248 L198 245 L198 243 L198 241 L197 239 L197 237 L197 235 L197 232 L197 230 L197 228 L197 226 L198 224 L199 222 L200 220 L201 218 L202 216 L201 215 L200 213 L198 211 L198 209 L199 208 L200 206 L201 204 L202 202 L204 200 L205 199 Z" stroke = "black" stroke-width = "1" fill = "black" /></svg>