<svg width="600" height="600" viewbox = "0 0 600 600"  xmlns="http://www.w3.org/2000/svg">

<!--
<json>
{
    "svgwidth": 600,
    "svgheight": 600,
    "unit": 50,
    "x0": 484,
    "y0": 199,
    "x0rel": -200,
    "y0rel": -200,
    "glyph": "01101,01102,01103,01104,01105,01106,",
    "table": [
        "0220:0336,0304,0350,0310,0362,0203,0335,0335,0335,0336,0203,0335,0335,0203,0363,0335,0335,0335,0304,0337,0333,0362,0203,0335,0350,0335,0336,0203,0335,0335,0203,0335,0335,0335,0337,0363,0304,0333,0362,0203,0335,0350,0335,0336,0203,0335,0335,0203,0363,0335,0335,0335,0337,0313,0304,0332,0332,0337,",
        "0221:0313,0304,0336,0324,0362,0203,0335,0203,0335,0350,0310,0335,0337,0203,0363,0335,0335,0335,0335,0320,0362,0203,0335,0336,0203,0335,0335,0335,0337,0203,0335,0336,0203,0363,0331,0335,0335,0335,0337,0324,0362,0203,0335,0335,0335,0336,0203,0335,0335,0203,0363,0335,0335,0335,0333,0334,0304,0313,0337,",
        "0222:0221,0221,0336,0362,0203,0335,0203,0335,0310,0350,0335,0337,0203,0363,0335,0335,0335,0335,0320,0362,0203,0335,0335,0335,0336,0203,0335,0335,0203,0363,0335,0335,0304,0333,0313,0337,0332,0332,0336,0332,0337,",
        "0223:0320,0304,0313,0220,0331,0336,0330,0337,0336,0222,0330,0330,0336,0330,0337,0222,0331,0331,0331,0333,0333,0333,0336,0336,0333,0337,0337,0337,0337,0321,0200,0336,0330,0332,0336,0331,0332,0336,0330,0336,0332,0337,0337,0337,",
        "0224:0304,0313,0336,0336,0334,0362,0203,0335,0203,0203,0334,0203,0335,0350,0310,0335,0337,0203,0203,0335,0335,0203,0203,0335,0335,0335,0336,0203,0304,0313,0334,0203,0203,0335,0203,0363,0335,0337,0337,0330,0313,0304,",
        "0225:0336,0332,0332,0223,0333,0333,0335,0224,0334,0331,0336,0330,0333,0337,0336,0330,0333,0337,0336,0330,0330,0332,0223,0337,0337,0331,0336,0336,0330,0223,0331,0331,0331,0331,0330,0223,0333,0331,0333,0337,0321,0337,0336,0331,0336,0330,0333,0337,0337,0362,0203,0203,0336,0203,0334,0203,0203,0203,0203,0203,0203,0334,0203,0203,0203,0203,0203,0334,0203,0203,0203,0203,0203,0203,0354,0334,0337,0337,",
        "0226:0321,0341,0320, ,",
        "0227:0333,0331,0337,0321,0200,0336,0332,0337,0320,0342,0336,0333,0330,0334,0337,0342,0335,0336,0332,",
        "0230:0312,0336,0330,0335,0337,0321,0306,0362,0203,0335,0335,0203,0203,0335,0335,0203,0203,0335,0335,0203,0354,0304,0334,0306,0335,0335,0350,0335,0320,0362,0203,0335,0335,0335,0335,0203,0335,0335,0335,0335,0203,0354,0334,0304,0312,0336,0331,0337,0313,",
        "0231:0331,0333,0334,0321,0337,0305,0311,0362,0203,0335,0350,0335,0337,0203,0335,0335,0335,0335,0203,0354,0335,0335,0335,0335,0320,0336,0201,0335,0335,0335,0335,0336,0201,0334,0334,0334,0334,0201,0335,0335,0335,0335,0336,0201,0334,0334,0334,0334,0201,0335,0335,0335,0335,0336,0201,0334,0334,0334,0334,0201,0331,0335,0335,0335,0335,0331,0334,0334,0334,0334,0337,0331,0335,0335,0335,0335,0337,0336,0331,0334,0334,0334,0334,0337,0331,0335,0335,0335,0335,0331,0334,0334,0334,0334,0337,0331,0335,0334,0334,0313,0336,0330,0304,0335,0337,0336,0330,",
        "0232:0331,0333,0334,0305,0337,0311,0335,0337,0321,0362,0203,0335,0335,0336,0203,0335,0203,0354,0335,0335,0320,0350,0335,0330,0334,0334,0334,0336,0201,0335,0335,0335,0336,0201,0334,0334,0336,0334,0201,0335,0335,0335,0336,0201,0334,0334,0334,0336,0201,0331,0335,0335,0335,0337,0331,0335,0335,0337,0330,0335,0335,0335,0337,0330,0334,0334,0334,0337,0330,0335,0335,0335,0337,0330,0335,0335,0313,0336,0304,0335,0332,0330,",
        "0233:0321,0350,0310,0362,0203,0203,0335,0335,0335,0337,0203,0203,0335,0335,0335,0336,0203,0203,0354,0335,0335,0335,0320,0337,0201,0334,0334,0334,0336,0201,0335,0335,0335,0336,0201,0334,0334,0334,0336,0201,0335,0335,0335,0336,0201,0334,0334,0334,0336,0201,0335,0335,0335,0336,0201,0331,0337,0333,0337,0331,0337,0333,0337,0331,0337,0333,0337,0331,0334,0336,0304,0313,",
        "0234:0320,0304,0313,0332,0332,0335,0321,0337,0362,0203,0334,0312,0336,0203,0306,0334,0334,0313,0337,0203,0354,0350,0335,0336,0312,0337,0331,0335,0335,0336,0313,0336,0312,0337,0320,0201,0334,0334,0334,0334,0335,0334,0201,0335,0335,0336,0335,0201,0334,0334,0334,0336,0201,0335,0335,0335,0336,0201,0331,0335,0335,0337,0333,0334,0334,0337,0331,0335,0335,0335,0337,0330,0334,0334,0331,0313,0337,0313,0334,0334,0336,0304,0304,0313,0335,",
        "0235:0332,0321,0337,0362,0203,0335,0311,0337,0203,0335,0336,0203,0335,0337,0203,0354,0335,0336,0333,0200,0350,0334,0343,0335,0330,0336,0331,0335,0343,0335,0342,0334,0335,0330,0336,0331,0335,0343,0335,0342,0330,0336,0331,0335,0343,0335,0342,0330,0336,0331,0335,0343,0335,0342,0330,0336,0331,0335,0343,0335,0342,0334,0334,0330,0337,0331,0335,0335,0331,0334,0334,0337,0331,0335,0335,0337,0337,0337,0331,0334,0334,0304,0313,0336,0333,0320,",
        "0236:0335,0331,0337,0321,0305,0362,0203,0335,0335,0203,0335,0335,0203,0335,0335,0203,0335,0335,0203,0354,0335,0350,0335,0311,0336,0362,0203,0335,0335,0203,0335,0335,0203,0335,0335,0203,0335,0335,0203,0354,0335,0335,0335,0337,0313,0336,0330,0304,0334,0320,",
        "0237:0330,0306,0335,0335,0321,0362,0203,0335,0203,0335,0203,0335,0203,0335,0203,0335,0203,0335,0354,0330,0335,0335,0350,0335,0312,0337,0362,0203,0334,0334,0334,0334,0203,0334,0334,0334,0334,0203,0354,0334,0336,0331,0334,0337,0362,0203,0334,0334,0334,0334,0203,0334,0334,0334,0334,0203,0354,0334,0336,0331,0334,0334,0330,0304,0313,0320,",
        "0240:0331,0321,0334,0336,0362,0203,0335,0337,0203,0203,0334,0336,0203,0335,0350,0310,0335,0337,0203,0203,0335,0335,0203,0203,0335,0335,0335,0336,0203,0313,0304,0334,0203,0203,0203,0203,0335,0203,0354,0335,0337,0330,0320,",
        "0241:0306,0362,0203,0335,0335,0203,0335,0335,0203,0363,0335,0335,0304,",
        "0242:0241,0333,0336,0333,0337,0241,0336,0333,0337,0333,0241,0333,0336,0333,0337,",
        "0243:0313,0304,0320,0350,0310,0335,0337,0362,0203,0335,0336,0203,0335,0335,0335,0337,0203,0335,0336,0203,0363,0335,0335,0324,0362,0203,0335,0335,0203,0335,0335,0335,0337,0203,0363,0335,0336,0331,0335,0335,0335,0337,0362,0203,0335,0335,0335,0336,0203,0335,0335,0203,0363,0320,0331,0335,0335,0304,0313,",
        "0244:0243,0243,0243,0243,",
        "0245:0321,0337,0201,0320,0336,0334,0336,0336,0306,0336,0362,0203,0335,0335,0337,0203,0335,0335,0203,0335,0335,0336,0203,0363,0304,0335,0337,0337,0337,0337,0331,0336,",
        "0246:0320,0335,0306,0350,0334,0330,0321,0337,0366,0336,0331,0335,0335,0330,0337,0336,0336,0336,0336,0336,0330,0337,0337,0337,0337,0337,0367,0336,0336,0336,0336,0336,0331,0335,0337,0320,0337,0362,0203,0334,0334,0334,0334,0203,0334,0334,0334,0334,0203,0363,0335,0337,0337,0330,0335,0335,0304,",
        "0247:0336,0336,0336,0347,0337,0337,0337,",
        "0250:0335,0337,0331,0337,0223,",
        "01220:0333,0200,0336,0332,0330,0220,0333,0331,0337,",
        "01221:0333,0200,0336,0332,0336,0330,0337,0221,0333,0331,0331,0336,0330,0337,0337,0336,0330,0332,0337,0320,",
        "01222:0333,0200,0336,0332,0330,0332,0222,0336,0333,0333,0333,0333,0331,0331,0337,0337,",
        "01223:0333,0200,0336,0330,0332,0336,0333,0332,0223,0336,0333,0331,0333,0333,0331,0331,0333,0320,0331,0337,0337,0337,",
        "01224:0333,0200,0336,0332,0337,0224,0333,0331,0336,0332,0337,",
        "01225:0333,0200,0336,0330,0332,0336,0332,0336,0333,0337,0225,0333,0331,0320,0333,0331,0331,0331,0331,0331,0337,0337,0337,0337,",
        "01226:0333,0200,0336,0330,0332,0226,0333,0331,0337,",
        "01227:0333,0200,0336,0330,0332,0210,0227,0211,0331,0333,0337,",
        "01230:0333,0200,0336,0330,0332,0230,0331,0304,0333,0337,",
        "01231:0333,0200,0332,0336,0330,0333,0231,0333,0331,0337,",
        "01232:0333,0200,0336,0332,0330,0332,0232,0333,0331,0333,0337,",
        "01233:0333,0200,0336,0332,0337,0336,0332,0336,0336,0333,0330,0337,0337,0210,0210,0233,0211,0211,0313,0336,0336,0332,0332,0333,0331,0337,0337,0337,0333,",
        "01234:0333,0200,0336,0234,0337,",
        "01235:0333,0200,0336,0332,0336,0330,0332,0235,0333,0333,0333,0336,0336,0331,0331,0331,0331,0337,0337,0337,0337,",
        "01236:0333,0200,0336,0330,0330,0332,0336,0331,0337,0236,0333,0331,0331,0336,0330,0337,0337,",
        "01237:0333,0200,0336,0330,0332,0237,0333,0331,0337,",
        "01240:0333,0200,0336,0336,0332,0332,0240,0333,0333,0337,0337,",
        "01241:0333,0200,0336,0332,0241,0333,0337,",
        "01242:0333,0200,0336,0332,0332,0336,0330,0330,0242,0336,0331,0331,0331,0331,0332,0337,0337,0337,",
        "01243:0333,0200,0336,0332,0332,0243,0337,",
        "01244:0333,0200,0332,0336,0330,0336,0336,0243,0243,0243,0243,0331,0331,0331,0331,0337,0337,0337,",
        "01245:0333,0200,0336,0332,0336,0331,0337,0245,0333,0336,0330,0337,0337,",
        "01246:0333,0200,0330,0332,0336,0331,0336,0332,0337,0246,0333,0333,0336,0333,0331,0331,0337,0337,",
        "01247:0333,0200,0336,0330,0332,0337,0247,0336,0333,0331,0337,"
    ]
}
</json>
-->
	<path d = "M64 54 L64 58 L64 60 L65 61 L66 63 L67 64 L69 65 L70 66 L72 67 L74 68 L75 69 L76 70 L78 71 L79 72 L81 73 L82 75 L83 76 L85 77 L86 79 L87 80 L89 81 L90 83 L90 84 L90 86 L90 88 L89 90 L89 91 L88 93 L87 94 L86 96 L85 98 L86 96 L86 94 L85 92 L84 91 L83 89 L82 88 L80 87 L79 86 L78 84 L76 83 L75 82 L73 81 L72 80 L71 79 L69 77 L68 76 L66 75 L65 74 L64 73 L62 72 L61 70 L60 68 L60 67 L59 65 L59 63 L60 61 L61 60 L61 58 L62 57 L63 55 Z" stroke = "black" stroke-width = "1" fill = "black" />	<path d = "M81 73 L83 70 L85 67 L82 66 L78 64 L78 63 L80 60 L82 57 L83 55 L84 57 L85 58 L87 58 L89 59 L90 59 L91 59 L89 66 L87 69 L84 71 L81 73 Z" stroke = "black" stroke-width = "1" fill = "black" />	<path d = "M64 75 L64 76 L64 78 L64 80 L64 82 L65 83 L66 85 L68 86 L69 87 L69 88 L67 91 L66 94 L65 96 L63 96 L61 96 L59 97 L58 98 L56 98 L57 97 L58 95 L59 94 L60 92 L59 90 L58 89 L58 87 L57 85 L58 83 L58 82 L59 80 L60 78 L61 77 L62 76 L63 74 Z" stroke = "black" stroke-width = "1" fill = "black" />	<path d = "M19 49 L21 51 L23 52 L26 54 L28 54 L31 54 L34 54 L37 54 L39 55 L41 57 L42 59 L42 62 L42 65 L42 68 L42 70 L42 73 L42 76 L42 79 L42 82 L42 84 L44 86 L46 87 L46 87 L43 92 L40 96 L37 96 L35 96 L32 96 L29 96 L26 96 L23 96 L21 96 L18 96 L15 96 L12 96 L10 96 L7 97 L6 97 L9 92 L12 87 L12 87 L24 86 L35 86 L36 86 L37 86 L37 83 L37 80 L36 77 L36 75 L36 72 L36 69 L35 66 L33 65 L31 64 L28 64 L25 64 L22 63 L19 63 L17 62 L14 61 L12 59 L12 58 L14 56 L15 54 L17 51 L18 49 L18 49 Z" stroke = "black" stroke-width = "1" fill = "black" />	<path d = "M-27 59 L-25 55 L-22 52 L-21 50 L-21 50 L-20 52 L-20 54 L-18 55 L-16 57 L-15 57 L-15 57 L-15 66 L-15 74 L-14 83 L-14 87 L-14 88 L-14 89 L-18 97 L-18 97 L-19 97 L-20 89 L-20 88 L-20 87 L-24 88 L-28 90 L-32 91 L-33 93 L-35 94 L-37 95 L-38 97 L-37 95 L-37 93 L-36 91 L-35 89 L-34 87 L-33 86 L-31 84 L-29 84 L-27 83 L-25 82 L-23 82 L-21 81 L-20 79 L-20 77 L-20 75 L-20 72 L-20 70 L-20 68 L-21 67 L-23 66 L-25 65 L-26 63 L-27 61 L-27 59 Z" stroke = "black" stroke-width = "1" fill = "black" />	<path d = "M-92 48 L-91 49 L-90 49 L-89 50 L-88 50 L-87 51 L-86 51 L-84 51 L-83 52 L-82 52 L-81 52 L-80 52 L-78 52 L-77 52 L-76 52 L-75 52 L-73 52 L-72 52 L-71 52 L-70 52 L-68 52 L-67 52 L-66 52 L-65 53 L-63 53 L-62 53 L-61 54 L-60 55 L-60 56 L-60 57 L-60 58 L-61 60 L-62 61 L-63 61 L-63 62 L-64 63 L-65 64 L-66 65 L-67 66 L-67 67 L-67 69 L-67 70 L-67 71 L-67 72 L-67 74 L-67 75 L-66 76 L-66 77 L-66 79 L-66 80 L-66 81 L-66 82 L-66 84 L-66 85 L-66 86 L-66 87 L-67 88 L-68 89 L-68 90 L-69 91 L-70 92 L-71 93 L-71 94 L-72 95 L-73 96 L-73 97 L-74 98 L-75 97 L-75 96 L-75 91 L-75 86 L-75 81 L-75 76 L-75 71 L-75 69 L-75 66 L-74 64 L-73 63 L-75 63 L-78 63 L-80 62 L-83 62 L-85 62 L-88 62 L-90 62 L-93 62 L-95 61 L-97 60 L-99 58 L-98 56 L-96 54 L-95 52 L-94 50 L-92 48 Z" stroke = "black" stroke-width = "1" fill = "black" />	<path d = "M-142 51 L-140 52 L-138 54 L-136 54 L-134 54 L-132 54 L-129 55 L-127 55 L-125 55 L-123 55 L-121 55 L-118 55 L-116 55 L-114 55 L-112 56 L-111 58 L-111 60 L-112 63 L-113 65 L-113 67 L-114 68 L-114 69 L-114 70 L-114 71 L-114 72 L-114 73 L-114 74 L-114 75 L-114 76 L-114 78 L-114 79 L-113 80 L-113 81 L-113 82 L-113 83 L-113 84 L-114 85 L-115 86 L-115 87 L-116 88 L-116 89 L-117 90 L-118 91 L-118 91 L-119 92 L-119 93 L-120 94 L-120 92 L-120 90 L-120 88 L-120 85 L-121 83 L-121 81 L-121 79 L-121 77 L-122 74 L-122 72 L-121 70 L-121 68 L-121 66 L-121 65 L-122 64 L-124 64 L-125 64 L-126 64 L-127 64 L-128 64 L-129 64 L-130 64 L-131 64 L-132 64 L-134 64 L-135 64 L-136 64 L-137 64 L-138 64 L-139 64 L-140 64 L-141 63 L-142 63 L-143 63 L-144 63 L-145 62 L-146 61 L-147 61 L-148 60 L-148 59 L-146 55 L-143 52 L-142 51 L-142 51 Z" stroke = "black" stroke-width = "1" fill = "black" />	<path d = "M-141 87 L-141 83 L-141 80 L-141 78 L-141 76 L-141 74 L-141 72 L-140 69 L-140 67 L-141 69 L-142 71 L-144 73 L-145 74 L-146 76 L-147 76 L-147 77 L-147 78 L-147 78 L-147 79 L-147 81 L-147 83 L-147 85 L-147 88 L-147 90 L-147 92 L-147 94 L-147 95 L-146 93 L-145 91 L-143 90 L-142 88 L-141 87 Z" stroke = "black" stroke-width = "1" fill = "black" />	<path d = "M-195 48 L-195 49 L-195 51 L-194 52 L-194 52 L-193 53 L-192 54 L-191 55 L-190 55 L-186 56 L-182 57 L-177 57 L-175 57 L-173 57 L-171 58 L-169 58 L-167 58 L-165 59 L-164 61 L-164 63 L-164 65 L-165 67 L-166 69 L-166 71 L-166 73 L-166 75 L-166 77 L-166 80 L-166 82 L-166 84 L-166 86 L-166 88 L-166 90 L-168 92 L-169 93 L-171 95 L-172 97 L-174 98 L-174 96 L-174 94 L-174 92 L-174 89 L-174 87 L-174 85 L-174 83 L-174 81 L-174 79 L-174 76 L-174 74 L-174 72 L-174 70 L-174 68 L-174 66 L-176 66 L-178 66 L-180 66 L-182 66 L-185 66 L-187 66 L-189 66 L-191 66 L-193 66 L-194 68 L-195 70 L-195 72 L-195 74 L-195 76 L-195 78 L-195 80 L-195 83 L-195 85 L-195 87 L-195 89 L-197 91 L-198 92 L-199 94 L-201 96 L-202 98 L-202 95 L-202 93 L-202 91 L-203 89 L-203 87 L-203 85 L-203 82 L-203 80 L-203 78 L-203 76 L-202 74 L-201 72 L-200 70 L-199 68 L-198 66 L-199 65 L-200 63 L-202 61 L-202 59 L-201 58 L-200 56 L-199 54 L-198 52 L-196 50 L-195 49 Z" stroke = "black" stroke-width = "1" fill = "black" /></svg>