<svg width="800" height="1000" viewbox = "0 0 800 1000"  xmlns="http://www.w3.org/2000/svg">

<!--
<json>
{
    "svgwidth": 800,
    "svgheight": 1000,
    "unit": 115.70247933884296,
    "x0": 655.900826446281,
    "y0": 450.8181818181818,
    "x0rel": -28.09917355371897,
    "y0rel": 31.818181818181813,
    "glyph": "0335,0305,0350,0350,0334,0233,",
    "table": [
        "0220:0333,0200,0332,0336,0333,0337,0326,0342,0336,0330,0332,0335,0337,0342,0336,0334,0331,0337,0320,0210,",
        "0221:0220,0220,0220,0220,0220,0220,0220,0220,0211,0211,0211,0211,0211,0211,0211,0211,",
        "0222:0304,0335,0306,0201,0334,0334,0201,0334,0334,0201,0334,0334,0322,0336,0330,0334,0201,0334,0334,0201,0334,0334,0201,0334,0331,0337,0320,0210,0304,0334,",
        "0223:0222,0222,0222,0222,0222,0222,0222,0211,0211,0211,0211,0211,0211,0211,",
        "0224:0304,0335,0305,0311,0201,0334,0201,0334,0201,0334,0201,0334,0201,0334,0334,0337,0201,0335,0335,0201,0335,0335,0336,0350,0334,0304,0330,0335,0313,0210,",
        "0225:0224,0224,0224,0224,0224,0224,0224,0224,0224,0224,0224,0224,0211,0211,0211,0211,0211,0211,0211,0211,0211,0211,0211,0211,",
        "0226:0306,0335,0201,0335,0335,0336,0330,0335,0335,0337,0201,0335,0335,0335,0350,0335,0336,0312,0337,0201,0334,0334,0334,0334,0201,0334,0336,0331,0334,0337,0201,0334,0334,0334,0334,0201,0335,0335,0335,0335,0335,0336,0342,0335,0335,0330,0330,0335,0335,0335,0335,0201,0335,0335,0335,0335,0330,0335,0335,0304,0313,0337,",
        "0227:0306,0362,0203,0335,0203,0335,0203,0335,0203,0335,0203,0335,0203,0335,0354,0350,0335,0312,0337,0362,0203,0335,0335,0335,0335,0203,0335,0335,0335,0335,0203,0354,0335,0335,0335,0336,0330,0335,0335,0335,0337,0362,0203,0335,0335,0335,0335,0203,0335,0335,0335,0335,0203,0354,0335,0336,0331,0336,0335,0330,",
        "0230:0305,0350,0311,0362,0203,0335,0335,0203,0335,0335,0203,0335,0335,0203,0335,0335,0203,0354,0335,0335,",
        "0231:0306,0362,0203,0335,0335,0203,0335,0335,0203,0354,0335,0335,",
        "0232:0305,0334,0331,0230,0335,0335,0335,0230,0335,0335,0335,0230,0330,0335,0335,0335,0331,0334,0334,0334,0230,0334,0334,0334,0334,0230,0330,0334,0334,0230,0330,0334,0334,0330,0335,0335,0330,0335,0335,0330,0304,0335,0335,",
        "0233:0232,0232,",
        "0244:0243,0243,0243,0243,",
        "01220:0220,0220,0211,0211,0333,",
        "01221:0221,0333,",
        "01222:0333,0200,0332,0222,0222,0211,0211,0333,",
        "01223:0333,0200,0332,0223,0333,",
        "01224:0333,0200,",
        "01225:0333,0200,",
        "01226:0333,0200,",
        "01227:0333,0200,",
        "01230:0333,0200,0332,0230,0304,0313,0333,",
        "01231:0333,0200,0332,0231,0313,0304,0333,",
        "01232:0333,0200,",
        "01233:0333,0200,",
        "01234:0333,0200,",
        "01235:0333,0200,",
        "01236:0333,0200,",
        "01237:0333,0200,",
        "01240:0333,0200,",
        "01241:0333,0200,",
        "01242:0333,0200,",
        "01243:0333,0200,",
        "01244:0333,0200,",
        "01245:0333,0200,",
        "01246:0333,0200,",
        "01247:0333,0200,"
    ],
    "imgurl": "",
    "imgx": -1.2312396694214882,
    "imgy": -0.43462809917355394,
    "imgw": 2.49,
    "angle": 0
}
</json>
-->
	<path d = "M372 648 L372 532 L482 496 L550 590 L482 683 L372 648 Z" stroke = "black" stroke-width = "1" fill = "none" />	<path d = "M372 648 L482 683 L482 799 L372 835 L304 741 L372 648 Z" stroke = "black" stroke-width = "1" fill = "none" />	<path d = "M372 648 L304 741 L194 705 L194 590 L304 554 L372 648 Z" stroke = "black" stroke-width = "1" fill = "none" />	<path d = "M372 835 L304 928 L194 893 L194 777 L304 741 L372 835 Z" stroke = "black" stroke-width = "1" fill = "none" />	<path d = "M372 835 L482 799 L550 893 L482 986 L372 950 L372 835 Z" stroke = "black" stroke-width = "1" fill = "none" />	<path d = "M482 799 L482 683 L592 648 L660 741 L592 835 L482 799 Z" stroke = "black" stroke-width = "1" fill = "none" />	<path d = "M482 380 L482 496 L372 532 L304 438 L372 345 L482 380 Z" stroke = "black" stroke-width = "1" fill = "none" />	<path d = "M482 380 L372 345 L372 229 L482 193 L550 287 L482 380 Z" stroke = "black" stroke-width = "1" fill = "none" />	<path d = "M482 380 L550 287 L660 323 L660 438 L550 474 L482 380 Z" stroke = "black" stroke-width = "1" fill = "none" />	<path d = "M482 193 L550 100 L660 135 L660 251 L550 287 L482 193 Z" stroke = "black" stroke-width = "1" fill = "none" />	<path d = "M482 193 L372 229 L304 135 L372 42 L482 77 L482 193 Z" stroke = "black" stroke-width = "1" fill = "none" />	<path d = "M372 229 L372 345 L262 380 L194 287 L262 193 L372 229 Z" stroke = "black" stroke-width = "1" fill = "none" /></svg>