<svg width="800" height="500" viewbox = "0 0 800 500"  xmlns="http://www.w3.org/2000/svg">

<!--
<json>
{
    "svgwidth": 800,
    "svgheight": 500,
    "unit": 140,
    "x0": 476,
    "y0": 663,
    "x0rel": -208,
    "y0rel": 244,
    "glyph": "0334,0331,0331,0331,0331,0333,0333,0336,0336,0330,0337,0337,0231,0330,0231,0330,0231,0330,0231,0330,0231,0335,0335,0331,0335,0335,0331,0334,0231,0330,0231,0330,0231,0330,0231,0330,0231,0330,0335,0201,0335,0335,0201,0201,0201,0201,0201,0335,0330,0335,0330,0331,0335,0335,0335,0335,0334,0332,0335,0331,0335,0335,0335,0231,0331,0231,0330,0330,0231,0330,0231,0330,0231,",
    "table": [
        "0220:0333,0200,0332,0336,0333,0337,0326,0342,0336,0330,0332,0335,0337,0342,0336,0334,0331,0337,0320,0210,",
        "0221:0220,0220,0220,0220,0220,0220,0220,0220,0211,0211,0211,0211,0211,0211,0211,0211,",
        "0222:0304,0335,0306,0201,0334,0334,0201,0334,0334,0201,0334,0334,0322,0336,0330,0334,0201,0334,0334,0201,0334,0334,0201,0334,0331,0337,0320,0210,0304,0334,",
        "0223:0222,0222,0222,0222,0222,0222,0222,0211,0211,0211,0211,0211,0211,0211,",
        "0224:0304,0335,0305,0311,0201,0334,0201,0334,0201,0334,0201,0334,0201,0334,0334,0337,0201,0335,0335,0201,0335,0335,0336,0350,0334,0304,0330,0335,0313,0210,",
        "0225:0224,0224,0224,0224,0224,0224,0224,0224,0224,0224,0224,0224,0211,0211,0211,0211,0211,0211,0211,0211,0211,0211,0211,0211,",
        "0226:0306,0335,0201,0335,0335,0336,0330,0335,0335,0337,0201,0335,0335,0335,0350,0335,0336,0312,0337,0201,0334,0334,0334,0334,0201,0334,0336,0331,0334,0337,0201,0334,0334,0334,0334,0201,0335,0335,0335,0335,0335,0336,0342,0335,0335,0330,0330,0335,0335,0335,0335,0201,0335,0335,0335,0335,0330,0335,0335,0304,0313,0337,",
        "0227:0306,0362,0203,0335,0203,0335,0203,0335,0203,0335,0203,0335,0203,0335,0354,0350,0335,0312,0337,0362,0203,0335,0335,0335,0335,0203,0335,0335,0335,0335,0203,0354,0335,0335,0335,0336,0330,0335,0335,0335,0337,0362,0203,0335,0335,0335,0335,0203,0335,0335,0335,0335,0203,0354,0335,0336,0331,0336,0335,0330,",
        "0230:0305,0350,0311,0362,0203,0335,0335,0203,0335,0335,0203,0335,0335,0203,0335,0335,0203,0354,0335,0335,",
        "0231:0306,0362,0203,0335,0335,0203,0335,0335,0203,0354,0335,0335,",
        "0232:0306,0350,0312,0362,0203,0335,0335,0335,0335,0335,0336,0203,0335,0335,0203,0354,0335,0335,0335,0335,0335,0333,0334,0334,0334,0334,0336,0342,0335,0335,0342,0335,0335,0335,0335,0331,0334,0334,0306,",
        "0244:0243,0243,0243,0243,",
        "01220:0220,0220,0211,0211,0333,",
        "01221:0221,0333,",
        "01222:0333,0200,0332,0222,0222,0211,0211,0333,",
        "01223:0333,0200,0332,0223,0333,",
        "01224:0333,0200,",
        "01225:0333,0200,",
        "01226:0333,0200,",
        "01227:0333,0200,",
        "01230:0333,0200,0332,0230,0304,0313,0333,",
        "01231:0333,0200,0332,0231,0313,0304,0333,",
        "01232:0333,0200,",
        "01233:0333,0200,",
        "01234:0333,0200,",
        "01235:0333,0200,",
        "01236:0333,0200,",
        "01237:0333,0200,",
        "01240:0333,0200,",
        "01241:0333,0200,",
        "01242:0333,0200,",
        "01243:0333,0200,",
        "01244:0333,0200,",
        "01245:0333,0200,",
        "01246:0333,0200,",
        "01247:0333,0200,"
    ],
    "imgurl": "",
    "imgx": -1.2312396694214882,
    "imgy": -0.43462809917355394,
    "imgw": 2.49,
    "angle": 0
}
</json>
-->
	<path d = "M717 214 L577 214 L647 93 L717 214 Z" stroke = "black" stroke-width = "1" fill = "none" />	<path d = "M577 214 L437 214 L507 93 L577 214 Z" stroke = "black" stroke-width = "1" fill = "none" />	<path d = "M437 214 L297 214 L367 93 L437 214 Z" stroke = "black" stroke-width = "1" fill = "none" />	<path d = "M297 214 L157 214 L227 93 L297 214 Z" stroke = "black" stroke-width = "1" fill = "none" />	<path d = "M157 214 L17 214 L87 93 L157 214 Z" stroke = "black" stroke-width = "1" fill = "none" />	<path d = "M17 214 L157 214 L87 335 L17 214 Z" stroke = "black" stroke-width = "1" fill = "none" />	<path d = "M157 214 L297 214 L227 335 L157 214 Z" stroke = "black" stroke-width = "1" fill = "none" />	<path d = "M297 214 L437 214 L367 335 L297 214 Z" stroke = "black" stroke-width = "1" fill = "none" />	<path d = "M437 214 L577 214 L507 335 L437 214 Z" stroke = "black" stroke-width = "1" fill = "none" />	<path d = "M577 214 L717 214 L647 335 L577 214 Z" stroke = "black" stroke-width = "1" fill = "none" />    <line x1="717" y1="214" x2="787" y2="335" style="stroke:black;stroke-width:1" />
    <line x1="787" y1="335" x2="647" y2="335" style="stroke:black;stroke-width:1" />
    <line x1="647" y1="335" x2="507" y2="335" style="stroke:black;stroke-width:1" />
    <line x1="507" y1="335" x2="367" y2="335" style="stroke:black;stroke-width:1" />
    <line x1="367" y1="335" x2="227" y2="335" style="stroke:black;stroke-width:1" />
    <line x1="227" y1="335" x2="87" y2="335" style="stroke:black;stroke-width:1" />
	<path d = "M227 335 L367 335 L297 456 L227 335 Z" stroke = "black" stroke-width = "1" fill = "none" />	<path d = "M87 335 L227 335 L157 456 L87 335 Z" stroke = "black" stroke-width = "1" fill = "none" />	<path d = "M367 335 L507 335 L437 456 L367 335 Z" stroke = "black" stroke-width = "1" fill = "none" />	<path d = "M507 335 L647 335 L577 456 L507 335 Z" stroke = "black" stroke-width = "1" fill = "none" />	<path d = "M647 335 L787 335 L717 456 L647 335 Z" stroke = "black" stroke-width = "1" fill = "none" /></svg>