<svg width="404" height="447" viewbox = "0 0 404 447"  xmlns="http://www.w3.org/2000/svg">

<!--
<json>
{
    "svgwidth": 404,
    "svgheight": 447,
    "unit": 244,
    "x0": 562,
    "y0": 492,
    "x0rel": -122,
    "y0rel": 73,
    "glyph": "0330,0335,0322,0230,0323,0230,0324,0230,0325,0230,0326,0230,0327,0230,",
    "table": [
        "0220:0333,0200,0332,0336,0333,0337,0326,0342,0336,0330,0332,0335,0337,0342,0336,0334,0331,0337,0320,0210,",
        "0221:0220,0220,0220,0220,0220,0220,0220,0220,0211,0211,0211,0211,0211,0211,0211,0211,",
        "0222:0304,0335,0306,0201,0334,0334,0201,0334,0334,0201,0334,0334,0322,0336,0330,0334,0201,0334,0334,0201,0334,0334,0201,0334,0331,0337,0320,0210,0304,0334,",
        "0223:0222,0222,0222,0222,0222,0222,0222,0211,0211,0211,0211,0211,0211,0211,",
        "0224:0304,0335,0305,0311,0201,0334,0201,0334,0201,0334,0201,0334,0201,0334,0334,0337,0201,0335,0335,0201,0335,0335,0336,0350,0334,0304,0330,0335,0313,0210,",
        "0225:0224,0224,0224,0224,0224,0224,0224,0224,0224,0224,0224,0224,0211,0211,0211,0211,0211,0211,0211,0211,0211,0211,0211,0211,",
        "0226:0306,0335,0201,0335,0335,0336,0330,0335,0335,0337,0201,0335,0335,0335,0350,0335,0336,0312,0337,0201,0334,0334,0334,0334,0201,0334,0336,0331,0334,0337,0201,0334,0334,0334,0334,0201,0335,0335,0335,0335,0335,0336,0342,0335,0335,0330,0330,0335,0335,0335,0335,0201,0335,0335,0335,0335,0330,0335,0335,0304,0313,0337,",
        "0227:0306,0362,0203,0335,0203,0335,0203,0335,0203,0335,0203,0335,0203,0335,0354,0350,0335,0312,0337,0362,0203,0335,0335,0335,0335,0203,0335,0335,0335,0335,0203,0354,0335,0335,0335,0336,0330,0335,0335,0335,0337,0362,0203,0335,0335,0335,0335,0203,0335,0335,0335,0335,0203,0354,0335,0336,0331,0336,0335,0330,",
        "0230:0305,0350,0311,0362,0203,0335,0335,0203,0335,0335,0203,0335,0335,0203,0335,0335,0203,0354,0335,0335,0335,0337,0362,0203,0335,0335,0335,0335,0203,0335,0335,0335,0335,0203,0335,0335,0335,0335,0203,0335,0335,0335,0335,0203,0354,0335,0335,0335,0335,0336,0336,0330,0336,",
        "0244:0243,0243,0243,0243,",
        "01220:0220,0220,0211,0211,0333,",
        "01221:0221,0333,",
        "01222:0333,0200,0332,0222,0222,0211,0211,0333,",
        "01223:0333,0200,0332,0223,0333,",
        "01224:0333,0200,",
        "01225:0333,0200,",
        "01226:0333,0200,",
        "01227:0333,0200,",
        "01230:0333,0200,",
        "01231:0333,0200,",
        "01232:0333,0200,",
        "01233:0333,0200,",
        "01234:0333,0200,",
        "01235:0333,0200,",
        "01236:0333,0200,",
        "01237:0333,0200,",
        "01240:0333,0200,",
        "01241:0333,0200,",
        "01242:0333,0200,",
        "01243:0333,0200,",
        "01244:0333,0200,",
        "01245:0333,0200,",
        "01246:0333,0200,",
        "01247:0333,0200,"
    ],
    "imgurl": "",
    "imgx": -1.2312396694214882,
    "imgy": -0.43462809917355394,
    "imgw": 2.49,
    "angle": 0
}
</json>
-->
	<path d = "M80 53 L324 53 L399 285 L202 428 L5 285 L80 53 Z" stroke = "red" stroke-width = "1" fill = "none" />	<path d = "M80 53 L399 285 L5 285 L324 53 L202 428 L80 53 Z" stroke = "red" stroke-width = "1" fill = "none" />	<path d = "M202 141 L277 196 L249 285 L155 285 L127 196 L202 141 Z" stroke = "#FF7900" stroke-width = "2" fill = "none" />	<path d = "M202 141 L249 285 L127 196 L277 196 L155 285 L202 141 Z" stroke = "#FF7900" stroke-width = "2" fill = "none" />	<path d = "M220 196 L231 230 L202 251 L173 230 L184 196 L220 196 Z" stroke = "yellow" stroke-width = "2" fill = "none" />	<path d = "M220 196 L202 251 L184 196 L231 230 L173 230 L220 196 Z" stroke = "yellow" stroke-width = "2" fill = "none" />	<path d = "M213 217 L209 230 L195 230 L191 217 L202 209 L213 217 Z" stroke = "green" stroke-width = "2" fill = "none" />	<path d = "M213 217 L195 230 L202 209 L209 230 L191 217 L213 217 Z" stroke = "green" stroke-width = "2" fill = "none" />	<path d = "M206 222 L202 225 L198 222 L199 217 L205 217 L206 222 Z" stroke = "blue" stroke-width = "1" fill = "none" />	<path d = "M206 222 L198 222 L205 217 L202 225 L199 217 L206 222 Z" stroke = "blue" stroke-width = "1" fill = "none" />	<path d = "M203 222 L201 222 L200 220 L202 219 L204 220 L203 222 Z" stroke = "purple" stroke-width = "2" fill = "none" />	<path d = "M203 222 L200 220 L204 220 L201 222 L202 219 L203 222 Z" stroke = "purple" stroke-width = "2" fill = "none" /></svg>