<svg width="800" height="1000" viewbox = "0 0 800 1000"  xmlns="http://www.w3.org/2000/svg">

<!--
<json>
{
    "svgwidth": 800,
    "svgheight": 1000,
    "unit": 140,
    "x0": 650,
    "y0": 518,
    "x0rel": -34,
    "y0rel": 99,
    "glyph": "0335,0305,0350,0350,0334,0233,",
    "table": [
        "0220:0333,0200,0332,0336,0333,0337,0326,0342,0336,0330,0332,0335,0337,0342,0336,0334,0331,0337,0320,0210,",
        "0221:0220,0220,0220,0220,0220,0220,0220,0220,0211,0211,0211,0211,0211,0211,0211,0211,",
        "0222:0304,0335,0306,0201,0334,0334,0201,0334,0334,0201,0334,0334,0322,0336,0330,0334,0201,0334,0334,0201,0334,0334,0201,0334,0331,0337,0320,0210,0304,0334,",
        "0223:0222,0222,0222,0222,0222,0222,0222,0211,0211,0211,0211,0211,0211,0211,",
        "0224:0304,0335,0305,0311,0201,0334,0201,0334,0201,0334,0201,0334,0201,0334,0334,0337,0201,0335,0335,0201,0335,0335,0336,0350,0334,0304,0330,0335,0313,0210,",
        "0225:0224,0224,0224,0224,0224,0224,0224,0224,0224,0224,0224,0224,0211,0211,0211,0211,0211,0211,0211,0211,0211,0211,0211,0211,",
        "0226:0306,0335,0201,0335,0335,0336,0330,0335,0335,0337,0201,0335,0335,0335,0350,0335,0336,0312,0337,0201,0334,0334,0334,0334,0201,0334,0336,0331,0334,0337,0201,0334,0334,0334,0334,0201,0335,0335,0335,0335,0335,0336,0342,0335,0335,0330,0330,0335,0335,0335,0335,0201,0335,0335,0335,0335,0330,0335,0335,0304,0313,0337,",
        "0227:0306,0362,0203,0335,0203,0335,0203,0335,0203,0335,0203,0335,0203,0335,0354,0350,0335,0312,0337,0362,0203,0335,0335,0335,0335,0203,0335,0335,0335,0335,0203,0354,0335,0335,0335,0336,0330,0335,0335,0335,0337,0362,0203,0335,0335,0335,0335,0203,0335,0335,0335,0335,0203,0354,0335,0336,0331,0336,0335,0330,",
        "0230:0305,0350,0311,0362,0203,0335,0335,0203,0335,0335,0203,0335,0335,0203,0335,0335,0203,0354,0335,0335,",
        "0231:0306,0362,0203,0335,0335,0203,0335,0335,0203,0354,0335,0335,",
        "0232:0305,0334,0331,0230,0335,0335,0335,0230,0335,0335,0335,0230,0330,0335,0335,0335,0331,0334,0334,0334,0230,0334,0334,0334,0334,0230,0330,0334,0334,0230,0330,0334,0334,0330,0335,0335,0330,0335,0335,0330,0304,0335,0335,",
        "0233:0232,0232,",
        "0244:0243,0243,0243,0243,",
        "01220:0220,0220,0211,0211,0333,",
        "01221:0221,0333,",
        "01222:0333,0200,0332,0222,0222,0211,0211,0333,",
        "01223:0333,0200,0332,0223,0333,",
        "01224:0333,0200,",
        "01225:0333,0200,",
        "01226:0333,0200,",
        "01227:0333,0200,",
        "01230:0333,0200,0332,0230,0304,0313,0333,",
        "01231:0333,0200,0332,0231,0313,0304,0333,",
        "01232:0333,0200,",
        "01233:0333,0200,",
        "01234:0333,0200,",
        "01235:0333,0200,",
        "01236:0333,0200,",
        "01237:0333,0200,",
        "01240:0333,0200,",
        "01241:0333,0200,",
        "01242:0333,0200,",
        "01243:0333,0200,",
        "01244:0333,0200,",
        "01245:0333,0200,",
        "01246:0333,0200,",
        "01247:0333,0200,"
    ],
    "imgurl": "",
    "imgx": -1.2312396694214882,
    "imgy": -0.43462809917355394,
    "imgw": 2.49,
    "angle": 0
}
</json>
-->
	<path d = "M366 739 L366 599 L499 556 L581 669 L499 782 L366 739 Z" stroke = "black" stroke-width = "1" fill = "none" />	<path d = "M366 739 L499 782 L499 922 L366 966 L284 852 L366 739 Z" stroke = "black" stroke-width = "1" fill = "none" />	<path d = "M366 739 L284 852 L151 809 L151 669 L284 626 L366 739 Z" stroke = "black" stroke-width = "1" fill = "none" />	<path d = "M366 966 L284 1079 L151 1036 L151 896 L284 852 L366 966 Z" stroke = "black" stroke-width = "1" fill = "none" />	<path d = "M366 966 L499 922 L581 1036 L499 1149 L366 1106 L366 966 Z" stroke = "black" stroke-width = "1" fill = "none" />	<path d = "M499 922 L499 782 L632 739 L715 852 L632 966 L499 922 Z" stroke = "black" stroke-width = "1" fill = "none" />	<path d = "M499 416 L499 556 L366 599 L284 486 L366 372 L499 416 Z" stroke = "black" stroke-width = "1" fill = "none" />	<path d = "M499 416 L366 372 L366 232 L499 189 L581 302 L499 416 Z" stroke = "black" stroke-width = "1" fill = "none" />	<path d = "M499 416 L581 302 L715 346 L715 486 L581 529 L499 416 Z" stroke = "black" stroke-width = "1" fill = "none" />	<path d = "M499 189 L581 76 L715 119 L715 259 L581 302 L499 189 Z" stroke = "black" stroke-width = "1" fill = "none" />	<path d = "M499 189 L366 232 L284 119 L366 6 L499 49 L499 189 Z" stroke = "black" stroke-width = "1" fill = "none" />	<path d = "M366 232 L366 372 L233 416 L151 302 L233 189 L366 232 Z" stroke = "black" stroke-width = "1" fill = "none" /></svg>