<svg width="299" height="250" viewbox = "0 0 299 250"  xmlns="http://www.w3.org/2000/svg">

<!--
<json>
{
    "svgwidth": 299,
    "svgheight": 250,
    "unit": 71.07438016528924,
    "x0": 556.3140495867768,
    "y0": 564.0413223140496,
    "x0rel": -127.68595041322317,
    "y0rel": 145.04132231404958,
    "glyph": "0225,0225,0225,0225,0337,0337,0337,0322,0222,0330,0333,0333,0223,0330,0336,0327,0223,0366,0330,0330,0330,0335,0367,",
    "table": [
        "0220:0336,0333,0341,0330,0341,0336,0330,0341,0336,0330,0341,0333,0330,0335,0337,0337,0211,0211,0211,",
        "0221:0220,0220,0220,0220,0220,0220,0220,0220,0220,",
        "0222:0306,0201,0335,0335,0201,0335,0335,0201,0335,0335,",
        "0223:0306,0201,0335,0201,0335,0201,0335,0201,0335,0201,0335,0201,0335,",
        "0224:0305,0201,0335,0201,0335,0201,0335,0201,0335,0201,0335,",
        "0225:0337,0337,0366,0336,0336,0330,0330,0333,0334,0336,0335,0335,0367,",
        "01220:0370,0220,0371,0333,0200,",
        "01221:0370,0221,0371,0333,0200,",
        "01222:0370,0222,0371,0333,0200,",
        "01223:0370,0336,0223,0371,0333,0200,",
        "01224:0370,0336,0224,0371,0333,0200,",
        "01225:0370,0336,0336,0333,0225,0371,0333,0200,",
        "01226:0370,0226,0371,0333,0200,",
        "01227:0370,0227,0371,0333,0200,",
        "01230:0370,0230,0371,0333,0200,",
        "01231:0370,0231,0371,0333,0200,",
        "01232:0370,0232,0371,0333,0200,",
        "01233:0370,0233,0371,0333,0200,",
        "01234:0370,0234,0371,0333,0200,",
        "01235:0370,0235,0371,0333,0200,",
        "01236:0370,0236,0371,0333,0200,",
        "01237:0370,0237,0371,0333,0200,",
        "01240:0370,0240,0371,0333,0200,",
        "01241:0370,0241,0371,0333,0200,",
        "01242:0370,0242,0371,0333,0200,",
        "01243:0370,0243,0371,0333,0200,",
        "01244:0370,0244,0371,0333,0200,",
        "01245:0370,0245,0371,0333,0200,",
        "01246:0370,0246,0371,0333,0200,",
        "01247:0370,0247,0371,0333,0200,"
    ],
    "imgurl": "",
    "imgw": 2.335000000000001,
    "imgx": -1.3099999999999996,
    "imgy": -0.5839999999999999,
    "angle": 0.3141592653589793
}
</json>
-->
<path    d = "M22,270 C22,-14 128,128 93,128" fill = "none" stroke-width = "1" stroke = "black" /><path    d = "M93,128 C235,128 164,181 164,163" fill = "none" stroke-width = "1" stroke = "black" /><path    d = "M164,163 C164,235 137,199 146,199" fill = "none" stroke-width = "1" stroke = "black" /><path    d = "M146,199 C111,199 128,186 128,190" fill = "none" stroke-width = "1" stroke = "black" />    <line x1="128" y1="190" x2="128" y2="155" style="stroke:red;stroke-width:1" />
    <line x1="128" y1="155" x2="159" y2="172" style="stroke:red;stroke-width:1" />
    <line x1="159" y1="172" x2="128" y2="190" style="stroke:red;stroke-width:1" />
    <line x1="190" y1="119" x2="190" y2="83" style="stroke:red;stroke-width:1" />
    <line x1="190" y1="83" x2="221" y2="66" style="stroke:red;stroke-width:1" />
    <line x1="221" y1="66" x2="252" y2="83" style="stroke:red;stroke-width:1" />
    <line x1="252" y1="83" x2="252" y2="119" style="stroke:red;stroke-width:1" />
    <line x1="252" y1="119" x2="221" y2="137" style="stroke:red;stroke-width:1" />
    <line x1="221" y1="137" x2="190" y2="119" style="stroke:red;stroke-width:1" />
    <line x1="190" y1="83" x2="190" y2="66" style="stroke:purple;stroke-width:1" />
    <line x1="190" y1="66" x2="205" y2="57" style="stroke:purple;stroke-width:1" />
    <line x1="205" y1="57" x2="221" y2="66" style="stroke:purple;stroke-width:1" />
    <line x1="221" y1="66" x2="221" y2="83" style="stroke:purple;stroke-width:1" />
    <line x1="221" y1="83" x2="205" y2="92" style="stroke:purple;stroke-width:1" />
    <line x1="205" y1="92" x2="190" y2="83" style="stroke:purple;stroke-width:1" />
<path    d = "M190,83 C190,66 205,21 190,30" fill = "none" stroke-width = "1" stroke = "purple" /></svg>