<svg width="404" height="447" viewbox = "0 0 404 447"  xmlns="http://www.w3.org/2000/svg">

<!--
<json>
{
    "svgwidth": 404,
    "svgheight": 447,
    "unit": 210,
    "x0": 505,
    "y0": 526,
    "x0rel": -179,
    "y0rel": 107,
    "glyph": "0322,0227,0323,0227,0324,0227,0325,0227,0326,0227,0327,0227,0322,0227,0323,0227,0324,0227,",
    "table": [
        "0220:0333,0200,0332,0336,0333,0337,0326,0342,0336,0330,0332,0335,0337,0342,0336,0334,0331,0337,0320,0210,",
        "0221:0220,0220,0220,0220,0220,0220,0220,0220,0211,0211,0211,0211,0211,0211,0211,0211,",
        "0222:0304,0335,0306,0201,0334,0334,0201,0334,0334,0201,0334,0334,0322,0336,0330,0334,0201,0334,0334,0201,0334,0334,0201,0334,0331,0337,0320,0210,0304,0334,",
        "0223:0222,0222,0222,0222,0222,0222,0222,0211,0211,0211,0211,0211,0211,0211,",
        "0224:0304,0335,0305,0311,0201,0334,0201,0334,0201,0334,0201,0334,0201,0334,0334,0337,0201,0335,0335,0201,0335,0335,0336,0350,0334,0304,0330,0335,0313,0210,",
        "0225:0224,0224,0224,0224,0224,0224,0224,0224,0224,0224,0224,0224,0211,0211,0211,0211,0211,0211,0211,0211,0211,0211,0211,0211,",
        "0226:0306,0335,0201,0335,0335,0336,0330,0335,0335,0337,0201,0335,0335,0335,0350,0335,0336,0312,0337,0201,0334,0334,0334,0334,0201,0334,0336,0331,0334,0337,0201,0334,0334,0334,0334,0201,0335,0335,0335,0335,0335,0336,0342,0335,0335,0330,0330,0335,0335,0335,0335,0201,0335,0335,0335,0335,0330,0335,0335,0304,0313,0337,",
        "0227:0306,0362,0203,0335,0203,0335,0203,0335,0203,0335,0203,0335,0203,0335,0354,0350,0335,0312,0337,0362,0203,0335,0335,0335,0335,0203,0335,0335,0335,0335,0203,0354,0335,0335,0335,0336,0330,0335,0335,0335,0337,0362,0203,0335,0335,0335,0335,0203,0335,0335,0335,0335,0203,0354,0335,0336,0331,0336,0335,0330,",
        "0244:0243,0243,0243,0243,",
        "01220:0220,0220,0211,0211,0333,",
        "01221:0221,0333,",
        "01222:0333,0200,0332,0222,0222,0211,0211,0333,",
        "01223:0333,0200,0332,0223,0333,",
        "01224:0333,0200,",
        "01225:0333,0200,",
        "01226:0333,0200,",
        "01227:0333,0200,",
        "01230:0333,0200,",
        "01231:0333,0200,",
        "01232:0333,0200,",
        "01233:0333,0200,",
        "01234:0333,0200,",
        "01235:0333,0200,",
        "01236:0333,0200,",
        "01237:0333,0200,",
        "01240:0333,0200,",
        "01241:0333,0200,",
        "01242:0333,0200,",
        "01243:0333,0200,",
        "01244:0333,0200,",
        "01245:0333,0200,",
        "01246:0333,0200,",
        "01247:0333,0200,"
    ],
    "imgurl": "",
    "imgx": -1.2312396694214882,
    "imgy": -0.43462809917355394,
    "imgw": 2.49,
    "angle": 0
}
</json>
-->
	<path d = "M23 331 L23 121 L205 16 L387 120 L387 331 L205 436 L23 331 Z" stroke = "red" stroke-width = "1" fill = "none" />	<path d = "M23 331 L205 16 L387 331 L23 331 Z" stroke = "red" stroke-width = "1" fill = "none" />	<path d = "M23 121 L387 120 L205 435 L23 121 Z" stroke = "red" stroke-width = "1" fill = "none" />	<path d = "M84 226 L144 121 L265 120 L326 225 L265 330 L144 331 L84 226 Z" stroke = "#FF7900" stroke-width = "2" fill = "none" />	<path d = "M84 226 L265 120 L265 330 L84 226 Z" stroke = "#FF7900" stroke-width = "2" fill = "none" />	<path d = "M144 121 L326 225 L144 330 L144 120 Z" stroke = "#FF7900" stroke-width = "2" fill = "none" />	<path d = "M144 190 L205 155 L265 190 L265 260 L205 295 L144 260 L144 190 Z" stroke = "yellow" stroke-width = "2" fill = "none" />	<path d = "M144 190 L265 190 L205 295 L144 190 Z" stroke = "yellow" stroke-width = "2" fill = "none" />	<path d = "M205 155 L265 261 L144 260 L205 155 Z" stroke = "yellow" stroke-width = "2" fill = "none" />	<path d = "M185 190 L225 191 L245 226 L225 261 L185 260 L164 225 L185 190 Z" stroke = "green" stroke-width = "2" fill = "none" />	<path d = "M185 190 L245 226 L185 260 L185 190 Z" stroke = "green" stroke-width = "2" fill = "none" />	<path d = "M225 191 L225 261 L164 225 L225 191 Z" stroke = "green" stroke-width = "2" fill = "none" />	<path d = "M205 202 L225 214 L225 237 L205 249 L185 237 L185 214 L205 202 Z" stroke = "blue" stroke-width = "1" fill = "none" />	<path d = "M205 202 L225 237 L185 237 L205 202 Z" stroke = "blue" stroke-width = "1" fill = "none" />	<path d = "M225 214 L205 249 L185 214 L225 214 Z" stroke = "blue" stroke-width = "1" fill = "none" />	<path d = "M212 214 L218 226 L212 237 L198 237 L191 225 L198 214 L212 214 Z" stroke = "purple" stroke-width = "2" fill = "none" />	<path d = "M212 214 L212 237 L191 225 L212 214 Z" stroke = "purple" stroke-width = "2" fill = "none" />	<path d = "M218 226 L198 237 L198 214 L218 226 Z" stroke = "purple" stroke-width = "2" fill = "none" />	<path d = "M212 222 L212 229 L205 233 L198 229 L198 222 L205 218 L212 222 Z" stroke = "red" stroke-width = "1" fill = "none" />	<path d = "M212 222 L205 233 L198 222 L212 222 Z" stroke = "red" stroke-width = "1" fill = "none" />	<path d = "M212 229 L198 229 L205 218 L212 229 Z" stroke = "red" stroke-width = "1" fill = "none" />	<path d = "M209 226 L207 229 L203 229 L200 225 L203 222 L207 222 L209 226 Z" stroke = "#FF7900" stroke-width = "2" fill = "none" />	<path d = "M209 226 L203 229 L203 222 L209 226 Z" stroke = "#FF7900" stroke-width = "2" fill = "none" />	<path d = "M207 229 L200 225 L207 222 L207 229 Z" stroke = "#FF7900" stroke-width = "2" fill = "none" />	<path d = "M207 227 L205 228 L203 227 L203 224 L205 223 L207 224 L207 227 Z" stroke = "yellow" stroke-width = "2" fill = "none" />	<path d = "M207 227 L203 227 L205 223 L207 227 Z" stroke = "yellow" stroke-width = "2" fill = "none" />	<path d = "M205 228 L203 224 L207 224 L205 228 Z" stroke = "yellow" stroke-width = "2" fill = "none" /></svg>