<svg width="500" height="500" viewbox = "0 0 500 500"  xmlns="http://www.w3.org/2000/svg">

<!--
<topfunctions>


//put helper functions here, along with contsants and variables


function YofX(){
    
    X = currentjson.plotparams.g*(x - currentjson.plotparams.x0);
    Y = Math.exp(-X*X);
    y = currentjson.plotparams.y0 - currentjson.plotparams.G*(Y);

}




function plotfunction(){
    /*plot one function:*/
    currentStroke = currentjson.style.color;
    currentLineWidth = currentjson.style.linewidth;
    ctx.strokeStyle = currentStroke;
    ctx.lineWidth = currentLineWidth;
    ctx.beginPath();	
    x = 0;
    YofX();
    currentSVG += "	<path d = \"M";
    currentSVG += Math.round(x).toString() + " ";
    currentSVG += Math.round(y).toString() + " ";
    for(x = 1;x < currentjson.plotparams.plotwidth;x++){
        ctx.moveTo(x-1,y);
        YofX();
        ctx.lineTo(x,y);
        currentSVG += "L" + x + " " + y + " ";
    }
    ctx.stroke();
    currentSVG += "\""+ " stroke = \"" + currentStroke + "\" stroke-width = \"" + currentLineWidth.toString() + "\" fill = \"" + "none" + "\" "+"/>";
    /*finish plot one function*/

}





























</topfunctions>
-->

<!--
<currentjson>
{
    "constants": {},
    "YofXstring": "Y =  Math.exp(-X*X)",
    "style": {
        "linewidth": 4,
        "color": "blue",
        "fill": "none"
    },
    "plotparams": {
        "G": 225.08117895663068,
        "g": 0.020421193263372602,
        "duration": 450.78888054094654,
        "plotwidth": 500,
        "plotheight": 500,
        "x0": 235,
        "y0": 298
    },
    "funcparams": {},
    "image": {
        "url": "",
        "xoverw": 0.038011695906432746,
        "yoverw": -0.08771929824561403,
        "woverw": 0.8536631795472632,
        "angle": "0"
    },
    "A": 1.0033720250030878,
    "B": 1
}
</currentjson>
-->

<!--
<equation>

</equation>
-->
	<path d = "M0 298 L1 297.99999997274875 L2 297.99999996688956 L3 297.99999995980403 L4 297.999999951243 L5 297.9999999409079 L6 297.99999992844175 L7 297.999999913418 L8 297.9999998953272 L9 297.9999998735621 L10 297.99999984739856 L11 297.9999998159746 L12 297.99999977826474 L13 297.9999997330503 L14 297.999999678884 L15 297.999999614049 L16 297.99999953651013 L17 297.9999994438575 L18 297.9999993332398 L19 297.9999992012865 L20 297.999999044017 L21 297.9999988567345 L22 297.9999986339022 L23 297.99999836899883 L24 297.99999805435084 L25 297.9999976809369 L26 297.9999972381609 L27 297.99999671358836 L28 297.99999609264097 L29 297.99999535824236 L30 297.9999944904088 L31 297.9999934657753 L32 297.99999225704863 L33 297.99999083237634 L34 297.99998915461936 L35 297.9999871805145 L36 297.9999848597108 L37 297.999982133663 L38 297.9999789343605 L39 297.99997518287023 L40 297.99997078766773 L41 297.99996564272675 L42 297.99995962533586 L43 297.9999525936048 L44 297.9999443836198 L45 297.99993480620196 L46 297.999923643217 L47 297.9999106433787 L48 297.9998955174816 L49 297.99987793299147 L50 297.9998575079129 L51 297.9998338038456 L52 297.99980631812997 L53 297.99977447497196 L54 297.9997376154264 L55 297.9996949861031 L56 297.99964572644734 L57 297.99958885443056 L58 297.9995232504703 L59 297.9994476393798 L60 297.99936057012917 L61 297.9992603931772 L62 297.9991452351123 L63 297.99901297031266 L64 297.9988611893146 L65 297.9986871635438 L66 297.99848780603884 L67 297.99825962776066 L68 297.99799868904967 L69 297.9977005457534 L70 297.99736018951086 L71 297.99697198163886 L72 297.99652958002025 L73 297.99602585835305 L74 297.9954528170685 L75 297.99480148517927 L76 297.9940618122678 L77 297.9932225497709 L78 297.99227112066427 L79 297.9911934765926 L80 297.98997394143714 L81 297.98859504025177 L82 297.987037312443 L83 297.98527910801 L84 297.98329636560305 L85 297.98106237110227 L86 297.9785474953623 L87 297.9757189097166 L88 297.97254027778257 L89 297.96897142206365 L90 297.9649679638007 L91 297.9604809344886 L92 297.95545635744344 L93 297.9498347977807 L94 297.9435508791531 L95 297.93653276558916 L96 297.92870160678103 L97 297.91997094518956 L98 297.91024608336517 L99 297.89942340993395 L100 297.8873896827601 L101 297.87402126788237 L102 297.8591833329229 L103 297.84272899379397 L104 297.8244984136747 L105 297.8043178534042 L106 297.781998672637 L107 297.7573362813324 L108 297.7301090414096 L109 297.7000771186836 L110 297.6669812855201 L111 297.6305416749982 L112 297.5904564877564 L113 297.5464006531185 L114 297.49802444655364 L115 297.44495206601465 L116 297.3867801702274 L117 297.323076382567 L118 297.2533777647525 L119 297.1771892652216 L120 297.09398214771227 L121 297.00319240626675 L122 296.9042191735959 L123 296.7964231304866 L124 296.6791249247013 L125 296.55160360860197 L126 296.41309510553094 L127 296.2627907157837 L128 296.0998356738207 L129 295.9233277691675 L130 295.73231604425075 L131 295.52579958319455 L132 295.302726406355 L133 295.061992486093 L134 294.80244089996245 L135 294.52286113811977 L136 294.2219885823285 L137 293.89850417442983 L138 293.5510342925664 L139 293.17815085377373 L140 292.7783716617792 L141 292.35016101895985 L142 291.8919306214054 L143 291.40204075588827 L144 290.8788018172642 L145 290.320476164388 L146 289.72528033203827 L147 289.09138761557904 L148 288.4169310441466 L149 287.70000675702715 L150 286.93867779657893 L151 286.13097832954867 L152 285.27491830693225 L153 284.36848857063137 L154 283.4096664130653 L155 282.3964215936043 L156 281.3267228132139 L157 280.1985446460265 L158 279.0098749237145 L159 277.7587225655215 L160 276.4431258436354 L161 275.06116107027145 L162 273.6109516893877 L163 272.09067775240527 L164 270.4985857536594 L165 268.83299879760284 L166 267.09232706602944 L167 265.2750785498215 L168 263.3798700059696 L169 261.40543809690223 L170 259.3506506655247 L171 257.21451809583414 L172 254.99620470558443 L173 252.69504011425488 L174 250.31053052656483 L175 247.84236986900848 L176 245.29045071439057 L177 242.65487492716585 L178 239.9359639605486 L179 237.1342687349014 L180 234.250579025861 L181 231.28593229004454 L182 228.24162185602825 L183 225.11920440862338 L184 221.92050669531574 L185 218.6476313851 L186 215.3029620118417 L187 211.8891669367515 L188 208.40920226755708 L189 204.86631367551675 L190 201.26403705552542 L191 197.60619797921208 L192 193.8969098961061 L193 190.14057104363638 L194 186.34186003290142 L195 182.50573008377927 L196 178.63740189000242 L197 174.74235510226413 L198 170.8263184252068 L199 166.8952583322238 L200 162.9553664103276 L201 159.0130453558528 L202 155.0748936504003 L203 151.14768895514212 L204 147.23837027031794 L205 143.35401891540627 L206 139.50183839397454 L207 135.6891332155343 L208 131.92328675478487 L209 128.21173823634788 L210 124.56195894041531 L211 120.98142773158261 L212 117.4776060194605 L213 114.05791226538707 L214 110.72969615464595 L215 107.50021255797816 L216 104.3765954098144 L217 101.3658316335015 L218 98.47473524582193 L219 95.7099217742753 L220 93.0777831208822 L221 90.58446300566953 L222 88.23583312149287 L223 86.03747012944132 L224 83.99463362076415 L225 82.1122451670675 L226 80.3948685754728 L227 78.84669145954044 L228 77.4715082300734 L229 76.2727046024701 L230 75.25324370914785 L231 74.41565389675606 L232 73.762018278511 L233 73.2939661020749 L234 73.01266598304278 L235 72.91882104336932 L236 73.01266598304278 L237 73.2939661020749 L238 73.762018278511 L239 74.41565389675606 L240 75.25324370914785 L241 76.2727046024701 L242 77.4715082300734 L243 78.84669145954044 L244 80.3948685754728 L245 82.1122451670675 L246 83.99463362076415 L247 86.03747012944132 L248 88.23583312149287 L249 90.58446300566953 L250 93.0777831208822 L251 95.7099217742753 L252 98.47473524582193 L253 101.3658316335015 L254 104.3765954098144 L255 107.50021255797816 L256 110.72969615464595 L257 114.05791226538707 L258 117.4776060194605 L259 120.98142773158261 L260 124.56195894041531 L261 128.21173823634788 L262 131.92328675478487 L263 135.6891332155343 L264 139.50183839397454 L265 143.35401891540627 L266 147.23837027031794 L267 151.14768895514212 L268 155.0748936504003 L269 159.0130453558528 L270 162.9553664103276 L271 166.8952583322238 L272 170.8263184252068 L273 174.74235510226413 L274 178.63740189000242 L275 182.50573008377927 L276 186.34186003290142 L277 190.14057104363638 L278 193.8969098961061 L279 197.60619797921208 L280 201.26403705552542 L281 204.86631367551675 L282 208.40920226755708 L283 211.8891669367515 L284 215.3029620118417 L285 218.6476313851 L286 221.92050669531574 L287 225.11920440862338 L288 228.24162185602825 L289 231.28593229004454 L290 234.250579025861 L291 237.1342687349014 L292 239.9359639605486 L293 242.65487492716585 L294 245.29045071439057 L295 247.84236986900848 L296 250.31053052656483 L297 252.69504011425488 L298 254.99620470558443 L299 257.21451809583414 L300 259.3506506655247 L301 261.40543809690223 L302 263.3798700059696 L303 265.2750785498215 L304 267.09232706602944 L305 268.83299879760284 L306 270.4985857536594 L307 272.09067775240527 L308 273.6109516893877 L309 275.06116107027145 L310 276.4431258436354 L311 277.7587225655215 L312 279.0098749237145 L313 280.1985446460265 L314 281.3267228132139 L315 282.3964215936043 L316 283.4096664130653 L317 284.36848857063137 L318 285.27491830693225 L319 286.13097832954867 L320 286.93867779657893 L321 287.70000675702715 L322 288.4169310441466 L323 289.09138761557904 L324 289.72528033203827 L325 290.320476164388 L326 290.8788018172642 L327 291.40204075588827 L328 291.8919306214054 L329 292.35016101895985 L330 292.7783716617792 L331 293.17815085377373 L332 293.5510342925664 L333 293.89850417442983 L334 294.2219885823285 L335 294.52286113811977 L336 294.80244089996245 L337 295.061992486093 L338 295.302726406355 L339 295.52579958319455 L340 295.73231604425075 L341 295.9233277691675 L342 296.0998356738207 L343 296.2627907157837 L344 296.41309510553094 L345 296.55160360860197 L346 296.6791249247013 L347 296.7964231304866 L348 296.9042191735959 L349 297.00319240626675 L350 297.09398214771227 L351 297.1771892652216 L352 297.2533777647525 L353 297.323076382567 L354 297.3867801702274 L355 297.44495206601465 L356 297.49802444655364 L357 297.5464006531185 L358 297.5904564877564 L359 297.6305416749982 L360 297.6669812855201 L361 297.7000771186836 L362 297.7301090414096 L363 297.7573362813324 L364 297.781998672637 L365 297.8043178534042 L366 297.8244984136747 L367 297.84272899379397 L368 297.8591833329229 L369 297.87402126788237 L370 297.8873896827601 L371 297.89942340993395 L372 297.91024608336517 L373 297.91997094518956 L374 297.92870160678103 L375 297.93653276558916 L376 297.9435508791531 L377 297.9498347977807 L378 297.95545635744344 L379 297.9604809344886 L380 297.9649679638007 L381 297.96897142206365 L382 297.97254027778257 L383 297.9757189097166 L384 297.9785474953623 L385 297.98106237110227 L386 297.98329636560305 L387 297.98527910801 L388 297.987037312443 L389 297.98859504025177 L390 297.98997394143714 L391 297.9911934765926 L392 297.99227112066427 L393 297.9932225497709 L394 297.9940618122678 L395 297.99480148517927 L396 297.9954528170685 L397 297.99602585835305 L398 297.99652958002025 L399 297.99697198163886 L400 297.99736018951086 L401 297.9977005457534 L402 297.99799868904967 L403 297.99825962776066 L404 297.99848780603884 L405 297.9986871635438 L406 297.9988611893146 L407 297.99901297031266 L408 297.9991452351123 L409 297.9992603931772 L410 297.99936057012917 L411 297.9994476393798 L412 297.9995232504703 L413 297.99958885443056 L414 297.99964572644734 L415 297.9996949861031 L416 297.9997376154264 L417 297.99977447497196 L418 297.99980631812997 L419 297.9998338038456 L420 297.9998575079129 L421 297.99987793299147 L422 297.9998955174816 L423 297.9999106433787 L424 297.999923643217 L425 297.99993480620196 L426 297.9999443836198 L427 297.9999525936048 L428 297.99995962533586 L429 297.99996564272675 L430 297.99997078766773 L431 297.99997518287023 L432 297.9999789343605 L433 297.999982133663 L434 297.9999848597108 L435 297.9999871805145 L436 297.99998915461936 L437 297.99999083237634 L438 297.99999225704863 L439 297.9999934657753 L440 297.9999944904088 L441 297.99999535824236 L442 297.99999609264097 L443 297.99999671358836 L444 297.9999972381609 L445 297.9999976809369 L446 297.99999805435084 L447 297.99999836899883 L448 297.9999986339022 L449 297.9999988567345 L450 297.999999044017 L451 297.9999992012865 L452 297.9999993332398 L453 297.9999994438575 L454 297.99999953651013 L455 297.999999614049 L456 297.999999678884 L457 297.9999997330503 L458 297.99999977826474 L459 297.9999998159746 L460 297.99999984739856 L461 297.9999998735621 L462 297.9999998953272 L463 297.999999913418 L464 297.99999992844175 L465 297.9999999409079 L466 297.999999951243 L467 297.99999995980403 L468 297.99999996688956 L469 297.99999997274875 L470 297.9999999775898 L471 297.9999999815863 L472 297.99999998488266 L473 297.99999998759927 L474 297.99999998983617 L475 297.99999999167653 L476 297.9999999931893 L477 297.99999999443185 L478 297.99999999545145 L479 297.99999999628744 L480 297.99999999697235 L481 297.99999999753294 L482 297.9999999979914 L483 297.99999999836604 L484 297.9999999986719 L485 297.9999999989214 L486 297.9999999991248 L487 297.99999999929037 L488 297.99999999942514 L489 297.9999999995347 L490 297.9999999996237 L491 297.9999999996959 L492 297.9999999997545 L493 297.99999999980196 L494 297.9999999998403 L495 297.9999999998714 L496 297.99999999989654 L497 297.9999999999168 L498 297.99999999993315 L499 297.99999999994634 " stroke = "blue" stroke-width = "4" fill = "none" /></svg>