<svg width="552" height="376" viewbox = "0 0 552 376"  xmlns="http://www.w3.org/2000/svg">

<!--
<topfunctions>



function YofX(){
    X = currentjson.plotparams.g*(x - currentjson.plotparams.x0);

    Y = Math.exp(-X/100)*(Math.sin(X));

    y = currentjson.plotparams.y0 - currentjson.plotparams.G*(Y);
}


function XYofT(){
    T = currentjson.plotparams.g*t;
    X = A*Math.cos(2*Math.PI*T);
    Y = B*Math.sin(2*Math.PI*T);
    y = currentjson.plotparams.y0 - currentjson.plotparams.G*(Y);
    x = currentjson.plotparams.x0 - currentjson.plotparams.G*(X);    
}




function plotfunction(){
    
    /*plot one function:*/
    currentStroke = "red";
    currentLineWidth = 4;
    ctx.strokeStyle = currentStroke;
    ctx.lineWidth = currentLineWidth;
    ctx.beginPath();	
    x = 0;
    y = 0;
    t = 0;
    intx = x;
    XYofT();
    currentSVG += "	<path d = \"M";
    currentSVG += Math.round(x).toString() + " ";
    currentSVG += Math.round(y).toString() + " ";
    for(t = 1;t < currentjson.plotparams.duration;t++){
        ctx.moveTo(x,y);
        XYofT();
        ctx.lineTo(x,y);
        currentSVG += "L" + x + " " + y + " ";
    }
    ctx.stroke();
    currentSVG += "\""+ " stroke = \"" + currentStroke + "\" stroke-width = \"" + currentLineWidth.toString() + "\" fill = \"" + "none" + "\" "+"/>";
    /*finish plot one function*/
    
    

}































</topfunctions>
-->

<!--
<currentjson>
{
    "constants": {},
    "YofXstring": "Y =  (1/Math.PI)*0.5/(X*X + 0.25);",
    "style": {
        "linewidth": 4,
        "color": "blue",
        "fill": "none"
    },
    "plotparams": {
        "G": 100,
        "g": 0.01,
        "duration": 450.78888054094654,
        "plotwidth": 552,
        "plotheight": 376,
        "x0": 280,
        "y0": 187
    },
    "funcparams": {},
    "image": {
        "url": "",
        "xoverw": 0.038011695906432746,
        "yoverw": -0.08771929824561403,
        "woverw": 0.8536631795472632,
        "angle": "0"
    },
    "A": 2.258401583197969,
    "B": 0.8450853728609813
}
</currentjson>
-->

<!--
<equation>

</equation>
-->
	<path d = "M54 187 L54.60548564437016 181.69366503914355 L55.940658783740304 176.40827175814374 L58.160091779914865 171.16467918961422 L61.2550255448206 165.98358139785333 L65.21324578882803 160.88542580882677 L70.01913122497288 155.8903325135187 L75.65371521903896 151.01801486312462 L82.09476064219822 146.28770166946043 L89.31684763079923 141.71806131762702 L97.29147390695562 137.32712809042295 L105.98716726401565 133.13223099526942 L115.36960977298335 129.14992537453486 L125.40177321970617 125.39592756916187 L136.04406523831932 121.88505289344982 L147.2544855642261 118.63115716577771 L158.98879178995406 115.64708202601908 L171.2006739697248 112.94460425545628 L183.84193738365303 110.53438929920512 L196.86269274028788 108.42594917457542 L210.2115530668541 106.62760493148443 L223.83583651015672 105.14645381307429 L237.68177424778827 103.9883412461358 L251.69472268910545 103.15783777187933 L265.81937912851754 102.65822100809689 L280 102.49146271390187 L294.18062087148246 102.65822100809689 L308.30527731089455 103.15783777187934 L322.3182257522118 103.9883412461358 L336.1641634898432 105.14645381307429 L349.7884469331459 106.62760493148441 L363.1373072597121 108.42594917457541 L376.158062616347 110.53438929920513 L388.79932603027527 112.94460425545631 L401.011208210046 115.64708202601909 L412.7455144357739 118.63115716577771 L423.9559347616807 121.88505289344982 L434.5982267802939 125.39592756916188 L444.63039022701656 129.14992537453483 L454.0128327359844 133.13223099526942 L462.7085260930444 137.32712809042295 L470.6831523692008 141.71806131762702 L477.90523935780175 146.2877016694604 L484.346284780961 151.0180148631246 L489.9808687750271 155.89033251351867 L494.78675421117197 160.88542580882677 L498.74497445517943 165.98358139785333 L501.83990822008514 171.16467918961422 L504.05934121625967 176.4082717581437 L505.39451435562984 181.69366503914353 L505.8401583197969 187 L505.39451435562984 192.30633496085645 L504.05934121625967 197.59172824185626 L501.8399082200851 202.8353208103858 L498.74497445517943 208.0164186021467 L494.78675421117197 213.11457419117323 L489.9808687750271 218.10966748648133 L484.346284780961 222.98198513687538 L477.9052393578018 227.71229833053954 L470.6831523692008 232.28193868237298 L462.7085260930444 236.67287190957705 L454.0128327359844 240.86776900473058 L444.6303902270166 244.85007462546514 L434.5982267802939 248.60407243083813 L423.9559347616806 252.11494710655018 L412.74551443577394 255.36884283422228 L401.0112082100459 258.35291797398094 L388.7993260302752 261.0553957445437 L376.15806261634685 263.4656107007949 L363.1373072597121 265.5740508254246 L349.78844693314596 267.3723950685156 L336.16416348984336 268.8535461869257 L322.31822575221173 270.0116587538642 L308.3052773108946 270.8421622281206 L294.1806208714824 271.3417789919031 L280.00000000000006 271.50853728609815 L265.8193791285177 271.3417789919031 L251.69472268910545 270.8421622281207 L237.68177424778835 270.0116587538642 L223.83583651015672 268.8535461869257 L210.21155306685412 267.3723950685156 L196.86269274028786 265.5740508254246 L183.84193738365303 263.46561070079485 L171.20067396972468 261.0553957445437 L158.98879178995418 258.352917973981 L147.25448556422614 255.36884283422228 L136.0440652383194 252.11494710655018 L125.40177321970617 248.60407243083813 L115.36960977298344 244.85007462546517 L105.98716726401562 240.86776900473058 L97.29147390695564 236.67287190957708 L89.3168476307992 232.28193868237298 L82.09476064219822 227.71229833053957 L75.65371521903893 222.98198513687535 L70.01913122497288 218.1096674864813 L65.21324578882803 213.11457419117323 L61.2550255448206 208.0164186021467 L58.160091779914865 202.8353208103858 L55.940658783740304 197.5917282418563 L54.60548564437016 192.30633496085645 L54.1598416802031 187.00000000000003 L54.60548564437016 181.6936650391436 L55.940658783740304 176.40827175814377 L58.160091779914865 171.16467918961425 L61.2550255448206 165.98358139785333 L65.21324578882798 160.8854258088268 L70.01913122497291 155.89033251351867 L75.65371521903896 151.01801486312462 L82.09476064219828 146.2877016694604 L89.31684763079923 141.71806131762702 L97.2914739069557 137.3271280904229 L105.98716726401568 133.13223099526942 L115.3696097729835 129.1499253745348 L125.40177321970623 125.39592756916184 L136.04406523831932 121.88505289344982 L147.2544855642262 118.6311571657777 L158.98879178995392 115.6470820260191 L171.20067396972456 112.94460425545633 L183.84193738365292 110.53438929920515 L196.86269274028774 108.42594917457544 L210.211553066854 106.62760493148443 L223.83583651015664 105.1464538130743 L237.68177424778827 103.9883412461358 L251.69472268910533 103.15783777187934 L265.8193791285176 102.65822100809689 L279.99999999999994 102.49146271390187 L294.1806208714823 102.65822100809689 L308.30527731089455 103.15783777187933 L322.3182257522118 103.9883412461358 L336.16416348984325 105.14645381307429 L349.78844693314585 106.62760493148441 L363.137307259712 108.4259491745754 L376.15806261634714 110.53438929920515 L388.7993260302753 112.94460425545631 L401.011208210046 115.64708202601908 L412.7455144357739 118.63115716577771 L423.95593476168085 121.88505289344988 L434.598226780294 125.39592756916191 L444.6303902270167 129.14992537453486 L454.0128327359844 133.13223099526942 L462.7085260930443 137.32712809042292 L470.6831523692007 141.71806131762696 L477.90523935780163 146.28770166946035 L484.3462847809609 151.0180148631245 L489.98086877502715 155.8903325135187 L494.78675421117197 160.88542580882674 L498.74497445517943 165.98358139785327 L501.839908220085 171.1646791896141 L504.05934121625967 176.40827175814377 L505.39451435562984 181.69366503914355 L505.8401583197969 186.99999999999997 L505.39451435562984 192.3063349608564 L504.0593412162598 197.59172824185617 L501.8399082200851 202.8353208103858 L498.74497445517943 208.01641860214667 L494.786754211172 213.11457419117318 L489.98086877502715 218.10966748648124 L484.346284780961 222.98198513687544 L477.90523935780175 227.7122983305396 L470.6831523692008 232.28193868237298 L462.7085260930444 236.67287190957703 L454.0128327359842 240.86776900473063 L444.6303902270165 244.8500746254652 L434.59822678029377 248.60407243083816 L423.9559347616807 252.11494710655018 L412.745514435774 255.36884283422228 L401.01120821004577 258.352917973981 L388.79932603027544 261.05539574454366 L376.15806261634725 263.46561070079485 L363.1373072597121 265.5740508254246 L349.788446933146 267.3723950685156 L336.1641634898434 268.8535461869257 L322.31822575221196 270.0116587538642 L308.3052773108945 270.8421622281207 L294.18062087148246 271.3417789919031 L280.0000000000001 271.50853728609815 L265.81937912851777 271.3417789919031 L251.6947226891057 270.8421622281207 L237.6817742477882 270.0116587538642 L223.83583651015678 268.8535461869257 L210.21155306685418 267.3723950685156 L196.86269274028808 265.5740508254246 L183.8419373836529 263.46561070079485 L171.20067396972473 261.0553957445437 L158.98879178995406 258.35291797398094 L147.25448556422617 255.3688428342223 L136.04406523831915 252.11494710655012 L125.40177321970606 248.6040724308381 L115.36960977298332 244.85007462546514 L105.98716726401565 240.86776900473058 L97.2914739069557 236.67287190957708 L89.31684763079909 232.28193868237292 L82.09476064219837 227.71229833053965 L75.6537152190391 222.9819851368755 L70.01913122497291 218.10966748648133 L65.21324578882803 213.11457419117326 L61.2550255448206 208.01641860214673 L58.16009177991498 202.8353208103859 L55.940658783740304 197.59172824185623 L54.60548564437016 192.30633496085647 L54.1598416802031 187.00000000000003 L54.60548564437016 181.69366503914347 L55.94065878374025 176.40827175814385 L58.16009177991492 171.1646791896142 L61.25502554482057 165.98358139785336 L65.21324578882786 160.88542580882697 L70.01913122497282 155.89033251351876 L75.65371521903887 151.0180148631247 L82.09476064219825 146.2877016694604 L89.31684763079897 141.71806131762713 L97.29147390695553 137.32712809042297 L105.98716726401551 133.13223099526948 L115.36960977298347 129.1499253745348 L125.40177321970592 125.39592756916196 L136.0440652383193 121.88505289344984 L147.254485564226 118.63115716577775 L158.98879178995423 115.64708202601904 L171.20067396972453 112.94460425545634 L183.84193738365306 110.53438929920512 L196.86269274028786 108.42594917457542 L210.21155306685435 106.62760493148438 L223.83583651015658 105.1464538130743 L237.68177424778838 103.98834124613578 L251.69472268910548 103.15783777187933 L265.81937912851794 102.65822100809687 L279.9999999999999 102.49146271390187 L294.18062087148263 102.65822100809689 L308.30527731089427 103.15783777187933 L322.31822575221173 103.9883412461358 L336.1641634898432 105.14645381307429 L349.7884469331462 106.62760493148446 L363.13730725971186 108.4259491745754 L376.1580626163467 110.53438929920507 L388.7993260302752 112.94460425545631 L401.01120821004554 115.64708202601898 L412.74551443577377 118.6311571657777 L423.9559347616805 121.88505289344978 L434.5982267802939 125.3959275691619 L444.6303902270164 129.14992537453475 L454.0128327359844 133.13223099526942 L462.70852609304427 137.3271280904229 L470.6831523692009 141.71806131762708 L477.90523935780163 146.28770166946032 L484.346284780961 151.01801486312462 L489.9808687750271 155.89033251351867 L494.78675421117214 160.88542580882688 L498.7449744551793 165.98358139785324 L501.83990822008514 171.16467918961425 L504.05934121625967 176.40827175814377 L505.39451435562984 181.69366503914367 L505.8401583197969 186.99999999999994 L505.39451435562984 192.30633496085653 L504.0593412162598 197.59172824185615 L501.8399082200851 202.8353208103858 L498.74497445517943 208.01641860214664 L494.7867542111719 213.11457419117332 L489.98086877502703 218.10966748648136 L484.34628478096135 222.98198513687515 L477.90523935780175 227.71229833053957 L470.6831523692008 232.28193868237298 L462.7085260930445 236.67287190957703 L454.0128327359845 240.86776900473052 L444.63039022701685 244.85007462546506 L434.5982267802941 248.60407243083802 L423.9559347616804 252.11494710655023 L412.74551443577434 255.36884283422216 L401.0112082100458 258.352917973981 L388.79932603027515 261.0553957445437 L376.15806261634697 263.46561070079485 L363.13730725971214 265.5740508254246 L349.7884469331461 267.3723950685156 L336.1641634898435 268.8535461869257 L322.3182257522112 270.01165875386425 L308.30527731089495 270.8421622281206 L294.1806208714821 271.34177899190314 L280.00000000000057 271.50853728609815 L265.8193791285174 271.3417789919031 L251.69472268910536 270.8421622281206 L237.68177424778827 270.0116587538642 L223.83583651015684 268.8535461869257 L210.2115530668542 267.3723950685156 L196.86269274028814 265.5740508254246 L183.84193738365332 263.4656107007949 L171.20067396972513 261.0553957445438 L158.98879178995443 258.352917973981 L147.2544855642259 255.36884283422222 L136.0440652383198 252.11494710655032 L125.40177321970612 248.60407243083813 L115.36960977298335 244.85007462546514 L105.98716726401568 240.86776900473058 L97.2914739069557 236.6728719095771 L89.31684763079934 232.28193868237307 L82.09476064219837 227.71229833053968 L75.65371521903879 222.98198513687527 L70.01913122497308 218.10966748648147 L65.21324578882795 213.11457419117312 L61.25502554482057 208.01641860214662 L58.160091779914865 202.83532081038575 L55.940658783740304 197.59172824185626 L54.60548564437016 192.30633496085647 L54.1598416802031 187.00000000000006 L54.60548564437022 181.69366503914335 L55.94065878374025 176.40827175814388 L58.16009177991498 171.16467918961405 L61.255025544820455 165.98358139785353 L65.21324578882806 160.8854258088267 L70.01913122497297 155.89033251351864 L75.65371521903901 151.0180148631246 L82.09476064219822 146.28770166946043 L89.31684763079917 141.71806131762702 L97.2914739069555 137.327128090423 L105.98716726401548 133.13223099526948 L115.36960977298313 129.14992537453494 L125.40177321970586 125.39592756916198 L136.04406523831955 121.88505289344977 L147.25448556422563 118.63115716577785 L158.98879178995415 115.64708202601905 L171.20067396972482 112.94460425545628 L183.841937383653 110.53438929920513 L196.86269274028783 108.42594917457544 L210.21155306685392 106.62760493148444 L223.83583651015653 105.1464538130743 L237.68177424778872 103.98834124613576 L251.69472268910502 103.15783777187936 L265.8193791285179 102.65822100809687 L280.0000000000002 102.49146271390187 L294.1806208714826 102.65822100809689 L308.3052773108946 103.15783777187934 L322.3182257522117 103.98834124613579 L336.16416348984313 105.14645381307429 L349.78844693314574 106.6276049314844 L363.13730725971186 108.4259491745754 L376.15806261634737 110.53438929920519 L388.79932603027487 112.94460425545621 L401.01120821004554 115.64708202601898 L412.7455144357741 118.63115716577775 L423.95593476168017 121.88505289344968 L434.5982267802939 125.39592756916188 L444.6303902270166 129.14992537453486 L454.01283273598426 133.1322309952694 L462.70852609304427 137.3271280904229 L470.6831523692006 141.7180613176269 L477.90523935780163 146.28770166946032 L484.34628478096124 151.01801486312473 L489.9808687750269 155.89033251351853 L494.786754211172 160.88542580882685 L498.74497445517943 165.98358139785338 L501.83990822008514 171.16467918961422 L504.05934121625967 176.40827175814374 L505.39451435562984 181.6936650391435 L505.8401583197969 186.99999999999991 L505.3945143556298 192.30633496085665 L504.0593412162598 197.59172824185612 L501.839908220085 202.83532081038592 L498.74497445517954 208.01641860214647 L494.7867542111719 213.1145741911733 L489.9808687750271 218.10966748648136 L484.346284780961 222.9819851368754 L477.9052393578018 227.71229833053957 L470.68315236920085 232.28193868237295 L462.7085260930445 236.672871909577 L454.01283273598455 240.8677690047305 L444.63039022701685 244.85007462546506 L434.59822678029417 248.60407243083802 L423.9559347616805 252.11494710655023 L412.74551443577434 255.36884283422216 L401.0112082100459 258.35291797398094 L388.7993260302752 261.0553957445437 L376.158062616347 263.46561070079485 L363.1373072597122 265.5740508254246 L349.78844693314613 267.3723950685156 L336.16416348984353 268.8535461869257 L322.3182257522113 270.01165875386425 L308.305277310895 270.8421622281206 L294.1806208714822 271.34177899190314 L280.0000000000006 271.50853728609815 L265.8193791285175 271.3417789919031 L251.69472268910542 270.8421622281206 L237.68177424778833 270.0116587538642 L223.8358365101569 268.8535461869257 L210.21155306685426 267.37239506851563 L196.8626927402882 265.5740508254246 L183.84193738365263 263.4656107007948 L171.2006739697252 261.05539574454383 L158.98879178995446 258.352917973981 L147.25448556422594 255.36884283422225 L136.04406523831986 252.11494710655035 L125.40177321970614 248.60407243083813 L115.36960977298344 244.85007462546517 L105.98716726401574 240.8677690047306 L97.29147390695573 236.6728719095771 L89.31684763079937 232.2819386823731 L82.0947606421984 227.71229833053968 L75.65371521903882 222.98198513687527 L70.01913122497308 218.1096674864815 L65.21324578882795 213.11457419117315 L61.25502554482057 208.01641860214664 L58.160091779914865 202.83532081038578 L55.940658783740304 197.5917282418563 L54.60548564437016 192.3063349608565 L54.1598416802031 187.00000000000009 L54.60548564437016 181.69366503914367 L55.94065878374033 176.4082717581436 L58.16009177991498 171.16467918961408 L61.25502554482043 165.98358139785353 L65.2132457888278 160.885425808827 L70.01913122497291 155.89033251351867 L75.65371521903896 151.01801486312462 L82.0947606421982 146.28770166946043 L89.31684763079915 141.71806131762705 L97.29147390695502 137.32712809042323 L105.98716726401597 133.13223099526928 L115.36960977298313 129.14992537453497 L125.40177321970583 125.39592756916198 L136.0440652383189 121.88505289344997 L147.25448556422623 118.63115716577768 L158.98879178995412 115.64708202601905 L171.2006739697248 112.9446042554563 L183.84193738365224 110.53438929920526 L196.86269274028854 108.42594917457534 L210.21155306685387 106.62760493148444 L223.83583651015647 105.14645381307432 L237.6817742477879 103.98834124613582 L251.69472268910576 103.15783777187933 L265.8193791285178 102.65822100809687 L280.00000000000017 102.49146271390187 L294.1806208714817 102.65822100809686 L308.30527731089535 103.15783777187939 L322.3182257522117 103.98834124613579 L336.1641634898431 105.14645381307427 L349.7884469331457 106.6276049314844 L363.13730725971254 108.42594917457549 L376.15806261634737 110.53438929920519 L388.7993260302748 112.9446042554562 L401.0112082100455 115.64708202601896 L412.745514435774 118.63115716577775 L423.95593476168074 121.88505289344985 L434.5982267802939 125.39592756916187 L444.63039022701656 129.14992537453483 L454.01283273598375 133.13223099526914 L462.7085260930447 137.32712809042312 L470.68315236920057 141.7180613176269 L477.9052393578016 146.2877016694603 L484.3462847809608 151.01801486312445 L489.9808687750272 155.89033251351879 L494.786754211172 160.88542580882682 L498.74497445517943 165.98358139785336 L501.8399082200849 171.1646791896139 L504.0593412162598 176.40827175814402 L505.39451435562984 181.6936650391435 L505.8401583197969 186.99999999999991 " stroke = "red" stroke-width = "4" fill = "none" /></svg>