<svg width="500" height="500" viewbox = "0 0 500 500"  xmlns="http://www.w3.org/2000/svg">

<!--
<topfunctions>



function YofX(){
    X = currentjson.plotparams.g*(x - currentjson.plotparams.x0);

    Y = Math.exp(-X/A)*(Math.sin(X));

    y = currentjson.plotparams.y0 - currentjson.plotparams.G*(Y);
}





function plotfunction(){
    
    /*plot one function:*/
    currentStroke = "red";
    currentLineWidth = 4;
    ctx.strokeStyle = currentStroke;
    ctx.lineWidth = currentLineWidth;
    ctx.beginPath();	
    x = 0;
    intx = x;
    YofX();
    currentSVG += "	<path d = \"M";
    currentSVG += Math.round(x).toString() + " ";
    currentSVG += Math.round(y).toString() + " ";
    for(x = 1;x < currentjson.plotparams.plotwidth;x++){
        ctx.moveTo(x-1,y);
        YofX();
        ctx.lineTo(x,y);
        currentSVG += "L" + x + " " + y + " ";
    }
    ctx.stroke();
    currentSVG += "\""+ " stroke = \"" + currentStroke + "\" stroke-width = \"" + currentLineWidth.toString() + "\" fill = \"" + "none" + "\" "+"/>";
    /*finish plot one function*/
    
    

}































</topfunctions>
-->

<!--
<currentjson>
{
    "constants": {},
    "YofXstring": "Y =  (1/Math.PI)*0.5/(X*X + 0.25);",
    "style": {
        "linewidth": 4,
        "color": "blue",
        "fill": "none"
    },
    "plotparams": {
        "G": 103.42365531743322,
        "g": 0.054942153364123114,
        "duration": 450.78888054094654,
        "plotwidth": 500,
        "plotheight": 500,
        "x0": 36,
        "y0": 255
    },
    "funcparams": {},
    "image": {
        "url": "",
        "xoverw": 0.038011695906432746,
        "yoverw": -0.08771929824561403,
        "woverw": 0.8536631795472632,
        "angle": "0"
    },
    "A": 10.169742146064136,
    "B": 1
}
</currentjson>
-->

<!--
<equation>
# Equations

$x$, $x_0$, $y$ and $y_0$ are all in pixels. x varies from 0 to the width in pixels of the plot.  Y and X are in the units of the system being studied.   

$$X = g(x - x_0)$$
$$Y = \sin{(X)}$$
$$y = y_0 - GY$$ 
</equation>
-->
	<path d = "M0 370 L1 372.28191558773545 L2 373.828111922716 L3 374.9975650008425 L4 375.79077942507564 L5 376.20939462342466 L6 376.2561676846087 L7 375.9349529909414 L8 375.2506787445844 L9 374.2093204916974 L10 372.8178717569863 L11 371.08431190870004 L12 369.0175713812312 L13 366.62749438911413 L14 363.92479927238276 L15 360.92103661892173 L16 357.6285453146189 L17 354.0604066767838 L18 350.2303968304383 L19 346.1529374906921 L20 341.8430453174968 L21 337.316280011605 L22 332.58869132256984 L23 327.67676514107416 L24 322.59736884880675 L25 317.36769609948993 L26 312.00521120452095 L27 306.52759329602407 L28 300.95268043892827 L29 295.2984138619943 L30 289.5827824755297 L31 283.8237678408583 L32 278.0392897534667 L33 272.2471525981522 L34 266.4649926304537 L35 260.7102263341827 L36 255 L37 249.3511406647254 L38 243.78010854544263 L39 238.3029510964908 L40 232.9352588111385 L41 227.6921228831406 L42 222.58809483650268 L43 217.63714822464922 L44 212.85264249283256 L45 208.2472890900545 L46 203.833119909029 L47 199.62145812481353 L48 195.6228914947097 L49 191.84724817389977 L50 188.30357509307856 L51 185.0001189360758 L52 181.94430974717872 L53 179.14274718957284 L54 176.6011894680571 L55 174.32454492097128 L56 172.316866278132 L57 170.58134757352877 L58 169.12032369360566 L59 167.93527253417386 L60 167.0268197313835 L61 166.39474592475358 L62 166.03799650303682 L63 165.95469377670054 L64 166.14215151405435 L65 166.59689177156866 L66 167.3146639427229 L67 168.29046594380912 L68 169.51856744952067 L69 170.99253508587637 L70 172.70525948309512 L71 174.6489840864445 L72 176.81533561885422 L73 179.19535608522273 L74 181.77953620485363 L75 184.55785015535307 L76 187.51979150859603 L77 190.6544102370428 L78 193.95035066674814 L79 197.39589025186737 L80 200.9789790443192 L81 204.6872797315151 L82 208.50820811471053 L83 212.4289739005667 L84 216.43662167893166 L85 220.5180719606507 L86 224.66016215038894 L87 228.84968733099078 L88 233.07344073779825 L89 237.31825380359655 L90 241.57103565743907 L91 245.81881196351412 L92 250.04876298943816 L93 254.24826079688575 L94 258.4049054512761 L95 262.5065601513193 L96 266.5413851835659 L97 270.49787061168126 L98 274.3648676149741 L99 278.1316183957192 L100 281.78778458001574 L101 285.32347404229887 L102 288.7292660891489 L103 291.9962349437078 L104 295.1159714777924 L105 298.0806031446744 L106 300.8828120714539 L107 303.5158512759751 L108 305.97355897928963 L109 308.25037099076013 L110 310.34133114898094 L111 312.24209980776754 L112 313.9489603625063 L113 315.4588238181446 L114 316.76923140602423 L115 317.8783552625962 L116 318.7849971887881 L117 319.48858551441157 L118 319.98917009747714 L119 320.28741549361587 L120 320.38459233597473 L121 320.2825669709413 L122 319.98378939985355 L123 319.49127958144373 L124 318.8086121541468 L125 317.9398996415546 L126 316.8897742082175 L127 315.66336803666337 L128 314.2662923999221 L129 312.70461550699855 L130 310.9848392016241 L131 309.1138745972279 L132 307.0990167334022 L133 304.94791834118496 L134 302.6685628062452 L135 300.269236420531 L136 297.7585000141215 L137 295.1451600599187 L138 292.43823934441485 L139 289.6469472980866 L140 286.78065007899147 L141 283.84884050288457 L142 280.8611079126376 L143 277.8271080789266 L144 274.7565332230733 L145 271.65908225157773 L146 268.5444312902758 L147 265.4222046042017 L148 262.3019459871436 L149 259.1930907025508 L150 256.1049380549063 L151 253.04662466791504 L152 250.02709854289571 L153 247.055093967613 L154 244.13910734245113 L155 241.2873739873343 L156 238.50784598914368 L157 235.80817114558482 L158 233.19567305753742 L159 230.67733241787658 L160 228.25976954061503 L161 225.9492281699845 L162 223.7515606047707 L163 221.67221416884834 L164 219.7162190544541 L165 217.8881775602854 L166 216.19225474205268 L167 214.63217048863896 L168 213.21119303256108 L169 211.93213389898625 L170 210.79734429315056 L171 209.8087129216708 L172 208.96766523894212 L173 208.27516410558985 L174 207.73171184180558 L175 207.3373536543533 L176 207.0916824120971 L177 206.99384474108533 L178 207.04254840653763 L179 207.23607094553284 L180 207.57226951079366 L181 208.0485918827199 L182 208.66208860374138 L183 209.40942618615418 L184 210.2869013418753 L185 211.290456180008 L186 212.4156943157584 L187 213.65789783208828 L188 215.01204503353563 L189 216.47282892988372 L190 218.034676385817 L191 219.6917678713719 L192 221.4380577468679 L193 223.2672950150993 L194 225.17304447287242 L195 227.14870819349488 L196 229.18754727155343 L197 231.2827037612607 L198 233.4272227398038 L199 235.6140744274847 L200 237.83617629700314 L201 240.08641510499444 L202 242.35766877988684 L203 244.64282810128805 L204 246.9348181074394 L205 249.2266191687811 L206 251.5112876673504 L207 253.78197622357592 L208 256.03195341403335 L209 258.25462292587446 L210 260.4435420959324 L211 262.59243978493237 L212 264.69523353978127 L213 266.74604599957445 L214 268.7392205037268 L215 270.6693358635003 L216 272.5312202611503 L217 274.3199642439438 L218 276.0309327833964 L219 277.65977637322544 L220 279.2024411427175 L221 280.655177965441 L222 282.0145505464946 L223 283.2774424747606 L224 284.4410632299125 L225 285.5029531372049 L226 286.46098726633755 L227 287.31337827392554 L228 288.05867819231383 L229 288.69577917063793 L230 289.22391317714596 L231 289.64265067484627 L232 289.9518982855284 L233 290.15189546010885 L234 290.2432101760713 L235 290.2267336854961 L236 290.10367433980014 L237 289.875550519824 L238 289.5441827023069 L239 289.11168469607577 L240 288.5804540834305 L241 287.95316190423546 L242 287.2327416221208 L243 286.42237741394763 L244 285.5254918253004 L245 284.545732836231 L246 283.4869603827938 L247 282.3532323810655 L248 281.1487903013558 L249 279.87804434116106 L250 278.54555824610827 L251 277.15603382867647 L252 275.71429523486006 L253 274.2252730091661 L254 272.69398800840656 L255 271.1255352146613 L256 269.525067497553 L257 267.89777937558995 L258 266.2488908258002 L259 264.5836311902053 L260 262.9072232268667 L261 261.2248673522874 L262 259.5417261208675 L263 257.8629089859036 L264 256.1934573852907 L265 254.53833019363688 L266 252.90238958094207 L267 251.29038731633034 L268 249.70695155355986 L269 248.15657413318232 L270 246.64359843428196 L271 245.17220780670533 L272 243.74641461260072 L273 242.37004990393044 L274 241.04675376040586 L275 239.77996631002898 L276 238.57291945211875 L277 237.42862930035778 L278 236.34988936102297 L279 235.33926445917396 L280 234.39908542316945 L281 233.5314445354701 L282 232.73819175528 L283 232.02093171618117 L284 231.38102149952883 L285 230.8195691820212 L286 230.3374331535241 L287 229.93522219893998 L288 229.6132963356634 L289 229.37176839596302 L290 229.21050634149054 L291 229.12913629503268 L292 229.12704627261064 L293 229.20339059708988 L294 229.35709497259933 L295 229.58686219728062 L296 229.8911784901929 L297 230.26832040659912 L298 230.7163623143523 L299 231.23318440269378 L300 231.8164811934693 L301 232.46377052356934 L302 233.1724029663071 L303 233.93957165846322 L304 234.76232249885635 L305 235.63756468353748 L306 236.56208154206257 L307 237.53254163876667 L308 238.5455101025476 L309 239.5974601483664 L310 240.68478475348707 L311 241.80380845140618 L312 242.95079920646316 L313 244.12198033227787 L314 245.31354241742287 L315 246.52165522211024 L316 247.74247951015008 L317 248.97217878101762 L318 250.20693086754613 L319 251.4429393655423 L320 252.6764448624901 L321 253.90373593347283 L322 255.12115987348955 L323 256.3251331364734 L324 257.5121514525272 L325 258.67879959617073 L326 259.8217607797495 L327 260.93782564756157 L328 262.02390084773754 L329 263.07701716043323 L330 264.0943371624681 L331 265.07316241016383 L332 266.0109401237913 L333 266.9052693587245 L334 267.75390665011446 L335 268.5547711196348 L336 269.30594903460224 L337 270.0056978115416 L338 270.652449458031 L339 271.24481344843394 L340 271.78157903088595 L341 272.2617169646573 L342 272.6843806887477 L343 273.0489069242833 L344 273.35481571497644 L345 273.6018099115632 L346 273.78977410775764 L347 273.91877303684214 L348 273.98904943954835 L349 274.0010214153741 L350 273.95527927091376 L351 273.8525818801597 L352 273.69385257305015 L353 273.4801745697941 L354 273.2127859796903 L355 272.8930743842797 L356 272.52257102571326 L357 272.10294462219116 L358 271.6359948332253 L359 271.1236453982921 L360 270.56793697317994 L361 269.97101968899113 L362 269.33514545933 L363 268.66266006169684 L364 267.9559950195136 L365 267.2176593115263 L366 266.4502309355657 L367 265.65634835379717 L368 264.8387018466627 L369 264.000024802696 L370 263.1430849713004 L371 262.27067570539583 L372 261.385607220584 L373 260.49069789714594 L374 259.5887656507708 L375 258.6826193974311 L376 257.77505063725755 L377 256.86882518164333 L378 255.96667504710877 L379 255.07129053870239 L380 254.18531254489307 L381 253.3113250650329 L382 252.45184798953684 L383 251.60933015194476 L384 250.78614267100056 L385 249.98457259980947 L386 249.20681689802038 L387 248.45497674183042 L388 247.731052185425 L389 247.03693718625607 L390 246.3744150053255 L391 245.74515399238277 L392 245.15070376467497 L393 244.59249178659934 L394 244.07182035631703 L395 243.58986400408608 L396 243.14766730577406 L397 242.74614311371516 L398 242.3860712057878 L399 242.06809735231258 L400 241.79273279910868 L401 241.5603541638019 L402 241.37120374125865 L403 241.2253902128226 L404 241.1228897528651 L405 241.06354752502622 L406 241.04707955942362 L407 241.07307500104577 L408 241.14099871852662 L409 241.25019426152238 L410 241.3998871539813 L411 241.58918850971554 L412 241.8170989558546 L413 242.08251284898 L414 242.38422276801916 L415 242.72092426730694 L416 243.09122087261446 L417 243.49362930239278 L418 243.92658489598736 L419 244.38844723014753 L420 244.87750590478655 L421 245.391986478638 L422 245.93005653520902 L423 246.48983185924627 L424 247.0693827038082 L425 247.6667401279768 L426 248.27990238524168 L427 248.90684134265186 L428 249.5455089109496 L429 250.19384346608132 L430 250.8497762427164 L431 251.51123768069874 L432 252.17616370570258 L433 252.8425019257653 L434 253.50821772582196 L435 254.17130024286703 L436 254.82976820491788 L437 255.48167561754732 L438 256.1251172823905 L439 256.7582341327056 L440 257.37921837178624 L441 257.9863184007696 L442 258.5778435231708 L443 259.15216841428384 L444 259.7077373444319 L445 260.24306814591273 L446 260.75675591437073 L447 261.2474764362334 L448 261.71398933476746 L449 262.15514092824463 L450 262.5698667946495 L451 262.9571940383086 L452 263.3162432547772 L453 263.6462301912696 L454 263.9464671008741 L455 264.2163637897385 L456 264.45542835735273 L457 264.6632676309824 L458 264.8395872962248 L459 264.98419172655656 L460 265.0969835156241 L461 265.17796271689053 L462 265.22722579608615 L463 265.2449643027258 L464 265.23146326773696 L465 265.18709933499906 L466 265.11233863531584 L467 265.0077344120324 L468 264.87392440816166 L469 264.7116280255019 L470 264.52164326680577 L471 264.30484347259926 L472 264.0621738647472 L473 263.79464790931723 L474 263.50334351170744 L475 263.18939905737096 L476 262.8540093117968 L477 262.4984211936847 L478 262.1239294354866 L479 261.73187214567747 L480 261.3236262872597 L481 260.9006030871051 L482 260.46424339079 L483 260.01601297758793 L484 259.55739785024537 L485 259.0898995140877 L486 258.61503025987696 L487 258.13430846467736 L488 257.64925392477596 L489 257.16138323445864 L490 256.67220522415437 L491 256.183216471134 L492 255.69589689559035 L493 255.21170545452816 L494 254.73207594546363 L495 254.25841293147027 L496 253.79208779861736 L497 253.3344349563263 L498 252.8867481906247 L499 252.45027717970655 " stroke = "red" stroke-width = "4" fill = "none" /></svg>