<svg width="500" height="310" viewbox = "0 0 500 310"  xmlns="http://www.w3.org/2000/svg">

<!--
<topfunctions>






function YofX(){
    X = currentjson.plotparams.g*(x - currentjson.plotparams.x0);

    Y = Math.exp(-X/A)*(Math.sin(X));

    y = currentjson.plotparams.y0 - currentjson.plotparams.G*(Y);
}





function plotfunction(){
    
    /*plot one function:*/
    currentStroke = "red";
    currentLineWidth = 4;
    ctx.strokeStyle = currentStroke;
    ctx.lineWidth = currentLineWidth;
    ctx.beginPath();	
    x = 0;
    intx = x;
    YofX();
    currentSVG += "	<path d = \"M";
    currentSVG += Math.round(x).toString() + " ";
    currentSVG += Math.round(y).toString() + " ";
    for(x = 1;x < currentjson.plotparams.plotwidth;x++){
        ctx.moveTo(x-1,y);
        YofX();
        ctx.lineTo(x,y);
        currentSVG += "L" + x + " " + y + " ";
    }
    ctx.stroke();
    currentSVG += "\""+ " stroke = \"" + currentStroke + "\" stroke-width = \"" + currentLineWidth.toString() + "\" fill = \"" + "none" + "\" "+"/>";
    /*finish plot one function*/
    
    

}

































</topfunctions>
-->

<!--
<currentjson>
{
    "constants": {},
    "YofXstring": "Y =  (1/Math.PI)*0.5/(X*X + 0.25);",
    "style": {
        "linewidth": 4,
        "color": "blue",
        "fill": "none"
    },
    "plotparams": {
        "G": 103.42365531743322,
        "g": 0.054942153364123114,
        "duration": 450.78888054094654,
        "plotwidth": 500,
        "plotheight": 310,
        "x0": 17,
        "y0": 153
    },
    "funcparams": {},
    "image": {
        "url": "https://upload.wikimedia.org/wikipedia/commons/b/b2/Insane_Clown_Posse.JPG",
        "xoverw": 0.02046783625730994,
        "yoverw": 0.005847953216374269,
        "woverw": 0.996639307336601,
        "angle": "0"
    },
    "A": 10.169742146064136,
    "B": 1
}
</currentjson>
-->

<!--
<equation>
# Equations

$x$, $x_0$, $y$ and $y_0$ are all in pixels. x varies from 0 to the width in pixels of the plot.  Y and X are in the units of the system being studied.   

$$X = g(x - x_0)$$
$$Y = \sin{(X)}$$
$$y = y_0 - GY$$ 
</equation>
-->
	<path d = "M0 244 L1 239.84304531749677 L2 235.316280011605 L3 230.58869132256984 L4 225.67676514107416 L5 220.59736884880675 L6 215.36769609948993 L7 210.00521120452095 L8 204.5275932960241 L9 198.9526804389283 L10 193.2984138619943 L11 187.5827824755297 L12 181.8237678408583 L13 176.03928975346668 L14 170.24715259815218 L15 164.46499263045368 L16 158.7102263341827 L17 153 L18 147.3511406647254 L19 141.78010854544263 L20 136.3029510964908 L21 130.9352588111385 L22 125.6921228831406 L23 120.58809483650268 L24 115.63714822464922 L25 110.85264249283254 L26 106.2472890900545 L27 101.83311990902898 L28 97.62145812481353 L29 93.6228914947097 L30 89.84724817389977 L31 86.30357509307855 L32 83.00011893607582 L33 79.94430974717872 L34 77.14274718957284 L35 74.6011894680571 L36 72.32454492097129 L37 70.31686627813203 L38 68.58134757352879 L39 67.12032369360567 L40 65.93527253417388 L41 65.02681973138353 L42 64.39474592475358 L43 64.03799650303681 L44 63.95469377670055 L45 64.14215151405435 L46 64.59689177156868 L47 65.31466394272289 L48 66.29046594380914 L49 67.51856744952069 L50 68.99253508587637 L51 70.70525948309513 L52 72.64898408644449 L53 74.81533561885422 L54 77.19535608522271 L55 79.77953620485364 L56 82.55785015535307 L57 85.51979150859603 L58 88.65441023704281 L59 91.95035066674815 L60 95.39589025186737 L61 98.9789790443192 L62 102.6872797315151 L63 106.50820811471053 L64 110.42897390056669 L65 114.43662167893167 L66 118.5180719606507 L67 122.66016215038893 L68 126.84968733099076 L69 131.07344073779825 L70 135.31825380359655 L71 139.57103565743907 L72 143.81881196351412 L73 148.04876298943816 L74 152.24826079688575 L75 156.40490545127605 L76 160.50656015131932 L77 164.54138518356595 L78 168.49787061168126 L79 172.3648676149741 L80 176.13161839571922 L81 179.78778458001577 L82 183.3234740422989 L83 186.72926608914892 L84 189.99623494370778 L85 193.1159714777924 L86 196.08060314467437 L87 198.88281207145388 L88 201.51585127597508 L89 203.97355897928963 L90 206.25037099076013 L91 208.34133114898094 L92 210.24209980776754 L93 211.94896036250628 L94 213.4588238181446 L95 214.7692314060242 L96 215.8783552625962 L97 216.78499718878808 L98 217.48858551441157 L99 217.98917009747714 L100 218.2874154936159 L101 218.38459233597473 L102 218.2825669709413 L103 217.98378939985352 L104 217.49127958144373 L105 216.8086121541468 L106 215.93989964155458 L107 214.88977420821746 L108 213.6633680366634 L109 212.26629239992215 L110 210.70461550699855 L111 208.98483920162408 L112 207.1138745972279 L113 205.0990167334022 L114 202.947918341185 L115 200.6685628062452 L116 198.269236420531 L117 195.75850001412152 L118 193.1451600599187 L119 190.43823934441485 L120 187.64694729808662 L121 184.78065007899147 L122 181.84884050288457 L123 178.86110791263758 L124 175.82710807892659 L125 172.7565332230733 L126 169.65908225157776 L127 166.54443129027578 L128 163.42220460420168 L129 160.3019459871436 L130 157.19309070255082 L131 154.1049380549063 L132 151.04662466791504 L133 148.02709854289571 L134 145.055093967613 L135 142.13910734245113 L136 139.2873739873343 L137 136.50784598914368 L138 133.80817114558482 L139 131.19567305753742 L140 128.67733241787658 L141 126.25976954061503 L142 123.94922816998452 L143 121.7515606047707 L144 119.67221416884834 L145 117.71621905445409 L146 115.88817756028541 L147 114.19225474205268 L148 112.63217048863895 L149 111.21119303256108 L150 109.93213389898625 L151 108.79734429315054 L152 107.8087129216708 L153 106.96766523894212 L154 106.27516410558985 L155 105.73171184180559 L156 105.3373536543533 L157 105.0916824120971 L158 104.99384474108533 L159 105.04254840653763 L160 105.23607094553284 L161 105.57226951079366 L162 106.0485918827199 L163 106.6620886037414 L164 107.40942618615419 L165 108.2869013418753 L166 109.290456180008 L167 110.41569431575839 L168 111.65789783208828 L169 113.01204503353564 L170 114.47282892988372 L171 116.034676385817 L172 117.69176787137191 L173 119.43805774686791 L174 121.2672950150993 L175 123.17304447287242 L176 125.14870819349488 L177 127.18754727155343 L178 129.2827037612607 L179 131.4272227398038 L180 133.6140744274847 L181 135.83617629700314 L182 138.08641510499444 L183 140.35766877988684 L184 142.64282810128805 L185 144.9348181074394 L186 147.2266191687811 L187 149.5112876673504 L188 151.78197622357592 L189 154.03195341403338 L190 156.25462292587446 L191 158.4435420959324 L192 160.59243978493237 L193 162.6952335397813 L194 164.74604599957448 L195 166.7392205037268 L196 168.6693358635003 L197 170.53122026115025 L198 172.3199642439438 L199 174.0309327833964 L200 175.65977637322544 L201 177.20244114271748 L202 178.65517796544097 L203 180.01455054649458 L204 181.27744247476062 L205 182.4410632299125 L206 183.50295313720488 L207 184.46098726633753 L208 185.31337827392554 L209 186.05867819231383 L210 186.69577917063796 L211 187.223913177146 L212 187.64265067484624 L213 187.95189828552836 L214 188.15189546010885 L215 188.24321017607127 L216 188.22673368549607 L217 188.10367433980016 L218 187.875550519824 L219 187.54418270230687 L220 187.11168469607577 L221 186.5804540834305 L222 185.95316190423543 L223 185.23274162212076 L224 184.42237741394766 L225 183.52549182530035 L226 182.54573283623102 L227 181.48696038279382 L228 180.35323238106548 L229 179.1487903013558 L230 177.87804434116103 L231 176.54555824610827 L232 175.15603382867647 L233 173.71429523486003 L234 172.22527300916607 L235 170.69398800840654 L236 169.12553521466126 L237 167.52506749755298 L238 165.89777937558992 L239 164.2488908258002 L240 162.5836311902053 L241 160.90722322686668 L242 159.22486735228736 L243 157.54172612086748 L244 155.86290898590357 L245 154.19345738529069 L246 152.53833019363688 L247 150.90238958094207 L248 149.29038731633034 L249 147.70695155355986 L250 146.15657413318232 L251 144.64359843428196 L252 143.17220780670533 L253 141.74641461260072 L254 140.37004990393044 L255 139.04675376040586 L256 137.77996631002898 L257 136.57291945211875 L258 135.42862930035778 L259 134.34988936102297 L260 133.33926445917396 L261 132.39908542316945 L262 131.5314445354701 L263 130.73819175528 L264 130.02093171618117 L265 129.38102149952883 L266 128.8195691820212 L267 128.3374331535241 L268 127.93522219894 L269 127.61329633566339 L270 127.37176839596302 L271 127.21050634149054 L272 127.12913629503268 L273 127.12704627261064 L274 127.20339059708986 L275 127.35709497259933 L276 127.58686219728064 L277 127.89117849019291 L278 128.26832040659912 L279 128.7163623143523 L280 129.23318440269378 L281 129.8164811934693 L282 130.46377052356934 L283 131.1724029663071 L284 131.93957165846322 L285 132.76232249885635 L286 133.63756468353748 L287 134.56208154206257 L288 135.53254163876667 L289 136.5455101025476 L290 137.5974601483664 L291 138.68478475348707 L292 139.80380845140618 L293 140.95079920646316 L294 142.12198033227787 L295 143.31354241742287 L296 144.52165522211024 L297 145.74247951015008 L298 146.97217878101762 L299 148.20693086754613 L300 149.4429393655423 L301 150.6764448624901 L302 151.90373593347283 L303 153.12115987348955 L304 154.32513313647343 L305 155.51215145252715 L306 156.67879959617076 L307 157.82176077974952 L308 158.93782564756154 L309 160.0239008477375 L310 161.07701716043323 L311 162.0943371624681 L312 163.0731624101638 L313 164.0109401237913 L314 164.90526935872452 L315 165.75390665011446 L316 166.55477111963478 L317 167.3059490346022 L318 168.00569781154158 L319 168.65244945803104 L320 169.24481344843397 L321 169.78157903088592 L322 170.26171696465732 L323 170.6843806887477 L324 171.04890692428333 L325 171.35481571497644 L326 171.60180991156315 L327 171.78977410775764 L328 171.91877303684214 L329 171.98904943954835 L330 172.0010214153741 L331 171.95527927091373 L332 171.85258188015965 L333 171.69385257305018 L334 171.4801745697941 L335 171.2127859796903 L336 170.8930743842797 L337 170.52257102571326 L338 170.10294462219116 L339 169.63599483322534 L340 169.1236453982921 L341 168.56793697317994 L342 167.97101968899116 L343 167.33514545933005 L344 166.66266006169684 L345 165.95599501951358 L346 165.21765931152632 L347 164.45023093556566 L348 163.6563483537972 L349 162.83870184666267 L350 162.00002480269598 L351 161.14308497130042 L352 160.27067570539583 L353 159.385607220584 L354 158.49069789714594 L355 157.58876565077082 L356 156.68261939743107 L357 155.77505063725755 L358 154.86882518164333 L359 153.96667504710877 L360 153.07129053870239 L361 152.18531254489307 L362 151.3113250650329 L363 150.45184798953684 L364 149.60933015194476 L365 148.78614267100056 L366 147.98457259980947 L367 147.20681689802038 L368 146.45497674183042 L369 145.731052185425 L370 145.03693718625607 L371 144.3744150053255 L372 143.74515399238277 L373 143.15070376467497 L374 142.59249178659934 L375 142.07182035631703 L376 141.58986400408608 L377 141.14766730577406 L378 140.74614311371516 L379 140.3860712057878 L380 140.06809735231258 L381 139.79273279910868 L382 139.5603541638019 L383 139.37120374125865 L384 139.2253902128226 L385 139.1228897528651 L386 139.06354752502622 L387 139.04707955942362 L388 139.07307500104577 L389 139.14099871852662 L390 139.25019426152238 L391 139.3998871539813 L392 139.58918850971554 L393 139.8170989558546 L394 140.08251284898 L395 140.38422276801916 L396 140.72092426730694 L397 141.09122087261446 L398 141.49362930239278 L399 141.92658489598736 L400 142.38844723014753 L401 142.87750590478655 L402 143.391986478638 L403 143.93005653520902 L404 144.48983185924627 L405 145.0693827038082 L406 145.6667401279768 L407 146.27990238524168 L408 146.90684134265186 L409 147.5455089109496 L410 148.19384346608132 L411 148.8497762427164 L412 149.51123768069874 L413 150.17616370570258 L414 150.8425019257653 L415 151.50821772582196 L416 152.17130024286703 L417 152.82976820491788 L418 153.48167561754732 L419 154.12511728239048 L420 154.7582341327056 L421 155.37921837178624 L422 155.98631840076962 L423 156.57784352317083 L424 157.15216841428384 L425 157.70773734443193 L426 158.24306814591273 L427 158.75675591437076 L428 159.24747643623343 L429 159.71398933476743 L430 160.15514092824466 L431 160.5698667946495 L432 160.95719403830861 L433 161.31624325477722 L434 161.6462301912696 L435 161.9464671008741 L436 162.21636378973852 L437 162.4554283573527 L438 162.66326763098238 L439 162.83958729622483 L440 162.98419172655656 L441 163.09698351562412 L442 163.17796271689053 L443 163.22722579608615 L444 163.2449643027258 L445 163.23146326773696 L446 163.18709933499903 L447 163.1123386353158 L448 163.0077344120324 L449 162.87392440816166 L450 162.7116280255019 L451 162.52164326680577 L452 162.30484347259926 L453 162.0621738647472 L454 161.79464790931726 L455 161.50334351170744 L456 161.18939905737096 L457 160.8540093117968 L458 160.4984211936847 L459 160.1239294354866 L460 159.73187214567747 L461 159.32362628725969 L462 158.90060308710505 L463 158.46424339079 L464 158.01601297758793 L465 157.55739785024537 L466 157.08989951408768 L467 156.61503025987696 L468 156.13430846467736 L469 155.64925392477593 L470 155.16138323445864 L471 154.6722052241544 L472 154.18321647113402 L473 153.69589689559035 L474 153.21170545452816 L475 152.73207594546363 L476 152.25841293147027 L477 151.79208779861736 L478 151.3344349563263 L479 150.8867481906247 L480 150.45027717970655 L481 150.0262241806149 L482 149.61574089524913 L483 149.2199255232677 L484 148.83982000880974 L485 148.47640748729637 L486 148.13060993789966 L487 147.8032860465834 L488 147.49522928392915 L489 147.20716620126436 L490 146.93975494791118 L491 146.69358401167227 L492 146.46917118397243 L493 146.2669627503777 L494 146.08733290652302 L495 145.9305833987963 L496 145.79694338845255 L497 145.6865695371681 L498 145.59954631139684 L499 145.5358865022535 " stroke = "red" stroke-width = "4" fill = "none" /></svg>