<svg width="500" height="310" viewbox = "0 0 500 310"  xmlns="http://www.w3.org/2000/svg">

<!--
<topfunctions>






function YofX(){
    X = currentjson.plotparams.g*(x - currentjson.plotparams.x0);

    Y = Math.exp(-X/A)*(Math.sin(X));

    y = currentjson.plotparams.y0 - currentjson.plotparams.G*(Y);
}





function plotfunction(){
    
    /*plot one function:*/
    currentStroke = "red";
    currentLineWidth = 4;
    ctx.strokeStyle = currentStroke;
    ctx.lineWidth = currentLineWidth;
    ctx.beginPath();	
    x = 0;
    intx = x;
    YofX();
    currentSVG += "	<path d = \"M";
    currentSVG += Math.round(x).toString() + " ";
    currentSVG += Math.round(y).toString() + " ";
    for(x = 1;x < currentjson.plotparams.plotwidth;x++){
        ctx.moveTo(x-1,y);
        YofX();
        ctx.lineTo(x,y);
        currentSVG += "L" + x + " " + y + " ";
    }
    ctx.stroke();
    currentSVG += "\""+ " stroke = \"" + currentStroke + "\" stroke-width = \"" + currentLineWidth.toString() + "\" fill = \"" + "none" + "\" "+"/>";
    /*finish plot one function*/
    
    

}

































</topfunctions>
-->

<!--
<currentjson>
{
    "constants": {},
    "YofXstring": "Y =  (1/Math.PI)*0.5/(X*X + 0.25);",
    "style": {
        "linewidth": 4,
        "color": "blue",
        "fill": "none"
    },
    "plotparams": {
        "G": 103.42365531743322,
        "g": 0.054942153364123114,
        "duration": 450.78888054094654,
        "plotwidth": 500,
        "plotheight": 310,
        "x0": 24,
        "y0": 114
    },
    "funcparams": {},
    "image": {
        "url": "https://upload.wikimedia.org/wikipedia/commons/b/b2/Insane_Clown_Posse.JPG",
        "xoverw": 0.02046783625730994,
        "yoverw": 0.005847953216374269,
        "woverw": 0.996639307336601,
        "angle": "0"
    },
    "A": 10.169742146064136,
    "B": 1
}
</currentjson>
-->

<!--
<equation>
# Equations

$x$, $x_0$, $y$ and $y_0$ are all in pixels. x varies from 0 to the width in pixels of the plot.  Y and X are in the units of the system being studied.   

$$X = g(x - x_0)$$
$$Y = \sin{(X)}$$
$$y = y_0 - GY$$ 
</equation>
-->
	<path d = "M0 228 L1 225.62749438911413 L2 222.92479927238273 L3 219.92103661892173 L4 216.62854531461892 L5 213.06040667678386 L6 209.23039683043828 L7 205.15293749069212 L8 200.84304531749677 L9 196.316280011605 L10 191.58869132256984 L11 186.67676514107416 L12 181.59736884880675 L13 176.36769609948993 L14 171.00521120452095 L15 165.5275932960241 L16 159.9526804389283 L17 154.2984138619943 L18 148.5827824755297 L19 142.8237678408583 L20 137.03928975346668 L21 131.24715259815218 L22 125.46499263045368 L23 119.71022633418269 L24 114 L25 108.35114066472539 L26 102.78010854544263 L27 97.3029510964908 L28 91.93525881113851 L29 86.6921228831406 L30 81.58809483650268 L31 76.63714822464922 L32 71.85264249283254 L33 67.2472890900545 L34 62.83311990902898 L35 58.621458124813536 L36 54.6228914947097 L37 50.847248173899764 L38 47.30357509307855 L39 44.00011893607582 L40 40.94430974717872 L41 38.142747189572844 L42 35.6011894680571 L43 33.32454492097129 L44 31.316866278132025 L45 29.581347573528788 L46 28.12032369360567 L47 26.935272534173876 L48 26.026819731383526 L49 25.39474592475358 L50 25.03799650303681 L51 24.95469377670055 L52 25.142151514054348 L53 25.59689177156868 L54 26.314663942722888 L55 27.29046594380914 L56 28.51856744952069 L57 29.99253508587637 L58 31.705259483095134 L59 33.648984086444486 L60 35.81533561885422 L61 38.19535608522271 L62 40.77953620485364 L63 43.557850155353066 L64 46.51979150859603 L65 49.65441023704281 L66 52.95035066674815 L67 56.395890251867364 L68 59.978979044319196 L69 63.6872797315151 L70 67.50820811471053 L71 71.42897390056669 L72 75.43662167893167 L73 79.5180719606507 L74 83.66016215038893 L75 87.84968733099076 L76 92.07344073779825 L77 96.31825380359655 L78 100.57103565743907 L79 104.81881196351412 L80 109.04876298943816 L81 113.24826079688576 L82 117.40490545127606 L83 121.5065601513193 L84 125.54138518356594 L85 129.49787061168126 L86 133.3648676149741 L87 137.13161839571922 L88 140.78778458001577 L89 144.3234740422989 L90 147.72926608914892 L91 150.99623494370778 L92 154.1159714777924 L93 157.08060314467437 L94 159.88281207145388 L95 162.51585127597508 L96 164.97355897928963 L97 167.25037099076013 L98 169.34133114898094 L99 171.24209980776754 L100 172.94896036250628 L101 174.4588238181446 L102 175.7692314060242 L103 176.8783552625962 L104 177.78499718878808 L105 178.48858551441157 L106 178.98917009747714 L107 179.2874154936159 L108 179.38459233597473 L109 179.2825669709413 L110 178.98378939985352 L111 178.49127958144373 L112 177.8086121541468 L113 176.93989964155458 L114 175.88977420821746 L115 174.6633680366634 L116 173.26629239992215 L117 171.70461550699855 L118 169.98483920162408 L119 168.1138745972279 L120 166.0990167334022 L121 163.947918341185 L122 161.6685628062452 L123 159.269236420531 L124 156.75850001412152 L125 154.1451600599187 L126 151.43823934441485 L127 148.64694729808662 L128 145.78065007899147 L129 142.84884050288457 L130 139.86110791263758 L131 136.82710807892659 L132 133.7565332230733 L133 130.65908225157776 L134 127.54443129027578 L135 124.42220460420168 L136 121.3019459871436 L137 118.1930907025508 L138 115.10493805490631 L139 112.04662466791504 L140 109.02709854289571 L141 106.05509396761302 L142 103.13910734245114 L143 100.2873739873343 L144 97.50784598914366 L145 94.80817114558484 L146 92.19567305753742 L147 89.6773324178766 L148 87.25976954061503 L149 84.94922816998452 L150 82.7515606047707 L151 80.67221416884834 L152 78.71621905445409 L153 76.88817756028541 L154 75.19225474205268 L155 73.63217048863895 L156 72.21119303256108 L157 70.93213389898625 L158 69.79734429315054 L159 68.8087129216708 L160 67.96766523894212 L161 67.27516410558985 L162 66.73171184180559 L163 66.3373536543533 L164 66.0916824120971 L165 65.99384474108533 L166 66.04254840653763 L167 66.23607094553284 L168 66.57226951079366 L169 67.0485918827199 L170 67.6620886037414 L171 68.40942618615419 L172 69.2869013418753 L173 70.290456180008 L174 71.41569431575839 L175 72.65789783208828 L176 74.01204503353564 L177 75.47282892988372 L178 77.034676385817 L179 78.69176787137191 L180 80.43805774686791 L181 82.2672950150993 L182 84.17304447287242 L183 86.14870819349488 L184 88.18754727155343 L185 90.28270376126072 L186 92.4272227398038 L187 94.61407442748468 L188 96.83617629700314 L189 99.08641510499443 L190 101.35766877988684 L191 103.64282810128803 L192 105.9348181074394 L193 108.22661916878111 L194 110.51128766735039 L195 112.78197622357592 L196 115.03195341403338 L197 117.25462292587446 L198 119.44354209593239 L199 121.59243978493235 L200 123.6952335397813 L201 125.74604599957446 L202 127.73922050372681 L203 129.6693358635003 L204 131.53122026115025 L205 133.3199642439438 L206 135.0309327833964 L207 136.65977637322544 L208 138.20244114271748 L209 139.65517796544097 L210 141.01455054649458 L211 142.27744247476062 L212 143.4410632299125 L213 144.50295313720488 L214 145.46098726633753 L215 146.31337827392554 L216 147.05867819231383 L217 147.69577917063796 L218 148.223913177146 L219 148.64265067484624 L220 148.95189828552836 L221 149.15189546010885 L222 149.24321017607127 L223 149.22673368549607 L224 149.10367433980016 L225 148.875550519824 L226 148.54418270230687 L227 148.11168469607577 L228 147.5804540834305 L229 146.95316190423543 L230 146.23274162212076 L231 145.42237741394766 L232 144.52549182530035 L233 143.54573283623102 L234 142.48696038279382 L235 141.35323238106548 L236 140.1487903013558 L237 138.87804434116103 L238 137.54555824610827 L239 136.15603382867647 L240 134.71429523486003 L241 133.22527300916607 L242 131.69398800840654 L243 130.12553521466126 L244 128.52506749755298 L245 126.89777937558992 L246 125.24889082580019 L247 123.5836311902053 L248 121.90722322686668 L249 120.22486735228736 L250 118.5417261208675 L251 116.86290898590357 L252 115.1934573852907 L253 113.53833019363687 L254 111.90238958094206 L255 110.29038731633035 L256 108.70695155355985 L257 107.15657413318232 L258 105.64359843428196 L259 104.17220780670533 L260 102.74641461260072 L261 101.37004990393044 L262 100.04675376040586 L263 98.77996631002897 L264 97.57291945211875 L265 96.4286293003578 L266 95.34988936102297 L267 94.33926445917396 L268 93.39908542316947 L269 92.53144453547007 L270 91.73819175528003 L271 91.02093171618115 L272 90.38102149952883 L273 89.81956918202123 L274 89.33743315352409 L275 88.93522219894 L276 88.61329633566339 L277 88.37176839596302 L278 88.21050634149054 L279 88.12913629503268 L280 88.12704627261064 L281 88.20339059708986 L282 88.35709497259933 L283 88.58686219728064 L284 88.89117849019291 L285 89.26832040659912 L286 89.71636231435231 L287 90.2331844026938 L288 90.8164811934693 L289 91.46377052356934 L290 92.17240296630708 L291 92.93957165846322 L292 93.76232249885635 L293 94.63756468353746 L294 95.56208154206256 L295 96.53254163876666 L296 97.5455101025476 L297 98.59746014836638 L298 99.68478475348707 L299 100.80380845140618 L300 101.95079920646316 L301 103.12198033227786 L302 104.31354241742285 L303 105.52165522211024 L304 106.74247951015009 L305 107.97217878101762 L306 109.20693086754613 L307 110.44293936554229 L308 111.67644486249009 L309 112.90373593347282 L310 114.12115987348953 L311 115.32513313647344 L312 116.51215145252716 L313 117.67879959617076 L314 118.82176077974952 L315 119.93782564756154 L316 121.02390084773752 L317 122.07701716043321 L318 123.0943371624681 L319 124.0731624101638 L320 125.01094012379129 L321 125.90526935872451 L322 126.75390665011447 L323 127.55477111963478 L324 128.3059490346022 L325 129.00569781154158 L326 129.65244945803104 L327 130.24481344843397 L328 130.78157903088592 L329 131.26171696465732 L330 131.6843806887477 L331 132.04890692428333 L332 132.35481571497644 L333 132.60180991156315 L334 132.78977410775764 L335 132.91877303684214 L336 132.98904943954835 L337 133.0010214153741 L338 132.95527927091373 L339 132.85258188015965 L340 132.69385257305018 L341 132.4801745697941 L342 132.2127859796903 L343 131.8930743842797 L344 131.52257102571326 L345 131.10294462219116 L346 130.63599483322534 L347 130.1236453982921 L348 129.56793697317994 L349 128.97101968899116 L350 128.33514545933005 L351 127.66266006169684 L352 126.95599501951357 L353 126.2176593115263 L354 125.45023093556567 L355 124.65634835379718 L356 123.83870184666267 L357 123.00002480269596 L358 122.14308497130042 L359 121.27067570539585 L360 120.38560722058399 L361 119.49069789714592 L362 118.58876565077082 L363 117.68261939743107 L364 116.77505063725755 L365 115.86882518164333 L366 114.96667504710878 L367 114.07129053870239 L368 113.18531254489307 L369 112.3113250650329 L370 111.45184798953684 L371 110.60933015194476 L372 109.78614267100055 L373 108.98457259980947 L374 108.20681689802038 L375 107.45497674183042 L376 106.73105218542499 L377 106.03693718625607 L378 105.37441500532549 L379 104.74515399238277 L380 104.15070376467497 L381 103.59249178659934 L382 103.07182035631703 L383 102.58986400408608 L384 102.14766730577406 L385 101.74614311371516 L386 101.38607120578779 L387 101.06809735231258 L388 100.79273279910866 L389 100.56035416380189 L390 100.37120374125867 L391 100.2253902128226 L392 100.12288975286509 L393 100.06354752502624 L394 100.04707955942364 L395 100.07307500104577 L396 100.1409987185266 L397 100.2501942615224 L398 100.3998871539813 L399 100.58918850971556 L400 100.81709895585459 L401 101.08251284898 L402 101.38422276801916 L403 101.72092426730693 L404 102.09122087261444 L405 102.49362930239279 L406 102.92658489598736 L407 103.38844723014753 L408 103.87750590478656 L409 104.391986478638 L410 104.930056535209 L411 105.48983185924627 L412 106.0693827038082 L413 106.6667401279768 L414 107.27990238524167 L415 107.90684134265184 L416 108.54550891094961 L417 109.19384346608132 L418 109.84977624271639 L419 110.51123768069876 L420 111.17616370570259 L421 111.8425019257653 L422 112.50821772582195 L423 113.17130024286705 L424 113.82976820491788 L425 114.48167561754734 L426 115.12511728239049 L427 115.75823413270561 L428 116.37921837178622 L429 116.98631840076962 L430 117.57784352317081 L431 118.15216841428384 L432 118.70773734443193 L433 119.24306814591273 L434 119.75675591437076 L435 120.24747643623343 L436 120.71398933476743 L437 121.15514092824465 L438 121.5698667946495 L439 121.95719403830863 L440 122.3162432547772 L441 122.64623019126961 L442 122.9464671008741 L443 123.21636378973854 L444 123.45542835735272 L445 123.66326763098238 L446 123.83958729622483 L447 123.98419172655655 L448 124.09698351562412 L449 124.17796271689053 L450 124.22722579608616 L451 124.2449643027258 L452 124.23146326773697 L453 124.18709933499905 L454 124.11233863531582 L455 124.00773441203239 L456 123.87392440816167 L457 123.71162802550191 L458 123.52164326680577 L459 123.30484347259927 L460 123.06217386474721 L461 122.79464790931726 L462 122.50334351170744 L463 122.18939905737096 L464 121.85400931179682 L465 121.49842119368468 L466 121.12392943548659 L467 120.73187214567747 L468 120.32362628725969 L469 119.90060308710505 L470 119.46424339078997 L471 119.01601297758793 L472 118.55739785024537 L473 118.08989951408768 L474 117.61503025987697 L475 117.13430846467737 L476 116.64925392477595 L477 116.16138323445864 L478 115.67220522415438 L479 115.18321647113403 L480 114.69589689559035 L481 114.21170545452816 L482 113.73207594546363 L483 113.25841293147026 L484 112.79208779861735 L485 112.3344349563263 L486 111.8867481906247 L487 111.45027717970655 L488 111.02622418061489 L489 110.61574089524912 L490 110.21992552326769 L491 109.83982000880974 L492 109.47640748729637 L493 109.13060993789965 L494 108.80328604658341 L495 108.49522928392913 L496 108.20716620126436 L497 107.93975494791117 L498 107.69358401167227 L499 107.46917118397245 " stroke = "red" stroke-width = "4" fill = "none" /></svg>