<svg width="500" height="500" viewbox = "0 0 500 500"  xmlns="http://www.w3.org/2000/svg">

<!--
<topfunctions>






function YofX(){
    X = currentjson.plotparams.g*(x - currentjson.plotparams.x0);

    Y = Math.exp(-X/A)*(Math.sin(X));

    y = currentjson.plotparams.y0 - currentjson.plotparams.G*(Y);
}





function plotfunction(){
    
    /*plot one function:*/
    currentStroke = "red";
    currentLineWidth = 4;
    ctx.strokeStyle = currentStroke;
    ctx.lineWidth = currentLineWidth;
    ctx.beginPath();	
    x = 0;
    intx = x;
    YofX();
    currentSVG += "	<path d = \"M";
    currentSVG += Math.round(x).toString() + " ";
    currentSVG += Math.round(y).toString() + " ";
    for(x = 1;x < currentjson.plotparams.plotwidth;x++){
        ctx.moveTo(x-1,y);
        YofX();
        ctx.lineTo(x,y);
        currentSVG += "L" + x + " " + y + " ";
    }
    ctx.stroke();
    currentSVG += "\""+ " stroke = \"" + currentStroke + "\" stroke-width = \"" + currentLineWidth.toString() + "\" fill = \"" + "none" + "\" "+"/>";
    /*finish plot one function*/
    
    

}

































</topfunctions>
-->

<!--
<currentjson>
{
    "constants": {},
    "YofXstring": "Y =  (1/Math.PI)*0.5/(X*X + 0.25);",
    "style": {
        "linewidth": 4,
        "color": "blue",
        "fill": "none"
    },
    "plotparams": {
        "G": 103.42365531743322,
        "g": 0.22439686643092313,
        "duration": 450.78888054094654,
        "plotwidth": 500,
        "plotheight": 500,
        "x0": 36,
        "y0": 255
    },
    "funcparams": {},
    "image": {
        "url": "",
        "xoverw": 0.038011695906432746,
        "yoverw": -0.08771929824561403,
        "woverw": 0.8536631795472632,
        "angle": "0"
    },
    "A": 10.169742146064136,
    "B": 1
}
</currentjson>
-->

<!--
<equation>

# Equations

$x$, $x_0$, $y$ and $y_0$ are all in pixels. x varies from 0 to the width in pixels of the plot.  Y and X are in the units of the system being studied.   

$$X = g(x - x_0)$$
$$Y = \sin{(X)}$$
$$y = y_0 - GY$$ 

</equation>
-->
	<path d = "M0 478 L1 478.8808273487848 L2 468.49998220296004 L3 447.99370249199256 L4 418.8146837038813 L5 382.78242467542304 L6 341.97728177659667 L7 298.6261778871985 L8 254.98598669544253 L9 213.23046806726887 L10 175.34620070806818 L11 143.04227763044952 L12 117.67764260826692 L13 100.20890470372782 L14 91.16033129908067 L15 90.61654826544722 L16 98.23732850931822 L17 113.2927829229794 L18 134.71633012111658 L19 161.17205411522377 L20 191.13249290042373 L21 222.96255516618928 L22 255.0051446016973 L23 285.66417753539633 L24 313.48099499318096 L25 337.2006700369545 L26 355.82536274175516 L27 368.65263956986513 L28 375.2975084733596 L29 375.6977814407575 L30 370.10321867401274 L31 359.04969218902727 L32 343.320295109252 L33 323.895886277828 L34 301.89797555047176 L35 278.52710903238614 L36 255 L37 232.48857324730642 L38 212.06385908063257 L39 194.64730624801462 L40 180.97160474879513 L41 171.5525482247661 L42 166.67285286077484 L43 166.37821799233137 L44 170.4852950352352 L45 178.60065598525273 L46 190.1493472138289 L47 204.41120062941712 L48 220.5627690036789 L49 237.72256581695027 L50 254.99722646188093 L51 271.5262648966914 L52 286.52326981097673 L53 299.3116537734305 L54 309.3534200372312 L55 316.2698237602821 L56 319.8532543176702 L57 320.07012922679854 L58 317.0550443987663 L59 311.0968478954091 L60 302.61767555704574 L61 292.14629060224854 L62 280.2872934571634 L63 267.6879049822532 L64 255.00407291480388 L65 242.86760932234066 L66 231.8559420745536 L67 222.46586554252758 L68 215.0924178719397 L69 210.01370961502747 L70 207.3821981586275 L71 207.22256181242574 L72 209.43599393106848 L73 213.8104272463101 L74 220.0359260378675 L75 227.72426074664142 L76 236.43151503884903 L77 245.68247479348824 L78 254.99551422201165 L79 263.9067251739806 L80 271.992127297438 L81 278.88694194705624 L82 284.3011020601996 L83 288.03039237052553 L84 289.96285688170934 L85 290.08036058705636 L86 288.4554372855679 L87 285.2437831089359 L88 280.67295549522356 L89 275.02800110598076 L90 268.6348570436949 L91 261.84244355224416 L92 255.00439154869463 L93 248.46132569472744 L94 242.5245564552464 L95 237.4619279677064 L96 233.48642953829696 L97 230.74801547268243 L98 229.3288998579284 L99 229.2424093053125 L100 230.43529687217307 L101 232.79325314425677 L102 236.14920351857452 L103 240.29386048168075 L104 244.98791093218534 L105 249.97516438450984 L106 254.99596940737362 L107 259.80022226822615 L108 264.15934113548394 L109 267.8766574740194 L110 270.7957783311172 L111 272.806592968947 L112 273.8487280604368 L113 273.91239047738924 L114 273.0366687112997 L115 271.30548676164443 L116 268.84151221992937 L117 265.7984085703828 L118 262.35188689333705 L119 258.69005196619725 L120 255.00355133255266 L121 251.4760237126324 L122 248.27530687463872 L123 245.54580761051375 L124 243.40236152407738 L125 241.92582240915428 L126 241.1605249860177 L127 241.11366577985564 L128 241.75654999566765 L129 243.0275620817204 L130 244.83663845157594 L131 247.0709560039371 L132 249.6015022295881 L133 252.29016346223915 L134 254.99695785912195 L135 257.5870486500014 L136 259.93719980953136 L137 261.94137850687343 L138 263.51526370559327 L139 264.59948484778084 L140 265.16148504979634 L141 265.1959759157289 L142 264.72402224481993 L143 263.7908611111652 L144 262.46261796380355 L145 260.8221299987047 L146 258.9641221898092 L147 256.99000283227986 L148 255.00255277453311 L149 253.10077594427932 L150 251.37515923300776 L151 249.90355882076008 L152 248.74788962701146 L153 247.95174717101725 L154 247.53903936616246 L155 247.51365240909726 L156 247.86012266787506 L157 248.54523786414086 L158 249.52044813255327 L159 250.72493258677684 L160 252.0891412217217 L161 253.53861621877115 L162 254.99789134188953 L163 256.39427293584106 L164 257.6613203839678 L165 258.7418666304591 L166 259.5904490315443 L167 260.17505560426883 L168 260.4781297446925 L169 260.49681566926745 L170 260.2424652024436 L171 259.73946222505515 L172 259.0234524597375 L173 258.13909193525456 L174 257.1374464159815 L175 256.073185657842 L176 255.00172030261933 L177 253.976425682247 L178 253.0460862721585 L179 252.2526778315247 L180 251.62958249166 L181 251.20030649963016 L182 250.97774242080072 L183 250.96398883504756 L184 251.15071238876774 L185 251.52001085817955 L186 252.0457128516966 L187 252.69503093361342 L188 253.43047104072522 L189 254.21189256370457 L190 254.99861056343119 L191 255.75143419105004 L192 256.4345431131674 L193 257.01711600569394 L194 257.47464116857816 L195 257.78985807632847 L196 257.95329916681703 L197 257.9634222942866 L198 257.82634495814835 L199 257.55521066151204 L200 257.1692346617574 L201 256.6924902132103 L202 256.1525066163794 L203 255.57875662978807 L204 255.0011129316029 L205 254.4483514109141 L206 253.94677339147287 L207 253.5190098878326 L208 253.18305925461885 L209 252.9515958135829 L210 252.83157200036524 L211 252.82412106318748 L212 252.92475215727404 L213 253.1238155500209 L214 253.40720323675717 L215 253.75724010627 L216 254.1537132949641 L217 254.57498278520433 L218 254.99911473810712 L219 255.4049804510293 L220 255.7732679979101 L221 256.0873602205383 L222 256.3340413579692 L223 256.50400471609464 L224 256.59214482428047 L225 256.59762891386646 L226 256.52375370539244 L227 256.37760386553737 L228 256.1695376107484 L229 255.9125323952336 L230 255.6214291283684 L231 255.31211673219602 L232 255.00069999935832 L233 254.70269268421288 L234 254.43227469995028 L235 254.20164744151018 L236 254.0205149257566 L237 253.8957110138149 L238 253.8309848709058 L239 253.82694845754776 L240 253.88118165761375 L241 253.9884830314805 L242 254.1412474889843 L243 254.32994669871624 L244 254.5436840061931 L245 254.77079316198814 L246 254.99944931651305 L247 255.21826149238515 L248 255.41681799182024 L249 255.58615975958887 L250 255.7191613684531 L251 255.81080474679044 L252 255.8583367224463 L253 255.86130759619502 L254 255.8214939704978 L255 255.74271465224382 L256 255.63055336296185 L257 255.49200601246358 L258 255.33507326133636 L259 255.16832091254182 L260 255.0004312925591 L261 254.83976822890324 L262 254.69397658153352 L263 254.569634669637 L264 254.4719745238128 L265 254.40468089009192 L266 254.36977554034186 L267 254.36758893584266 L268 254.39681687629644 L269 254.4546556598462 L270 254.53700567092918 L271 254.63873035920122 L272 254.75395539233182 L273 254.87639143279816 L274 254.99966353329722 L275 255.1176305517432 L276 255.2246791976894 L277 255.31597924270994 L278 255.3876889320312 L279 255.43710257425343 L280 255.46273549599724 L281 255.4643448580994 L282 255.44288807133887 L283 255.40042356502713 L284 255.33996131156525 L285 255.2652726788077 L286 255.1806707831394 L287 255.09077349478184 L288 255.00026158140244 L289 254.9136441778439 L290 254.83504288080735 L291 254.76800435714424 L292 254.71534951537475 L293 254.67906513175043 L294 254.6602414652847 L295 254.65905696598932 L296 254.67480880059327 L297 254.70598570598443 L298 254.7503777349905 L299 254.80521586667194 L300 254.8673332776569 L301 254.93333935243552 L302 254.9997972648058 L303 255.0633961815844 L304 255.12110979235652 L305 255.17033390439659 L306 255.2089971921454 L307 255.2356407753144 L308 255.24946403020382 L309 255.25033582316627 L310 255.23877210262975 L311 255.2158824117598 L312 255.18328931243892 L313 255.14302588052763 L314 255.09741729563058 L315 255.04895307628513 L316 255.00015669196597 L317 254.95345912261388 L318 254.91108245723382 L319 254.8749388629454 L320 254.84654926448925 L321 254.82698491066952 L322 254.81683373360934 L323 254.8161920965519 L324 254.82468124285572 L325 254.84148656517965 L326 254.86541676488744 L327 254.8949791131284 L328 254.9284663911694 L329 254.96405070005792 L330 254.9998791971401 L331 255.03416693490055 L332 255.06528232937688 L333 255.0918213435136 L334 255.11266719871028 L335 255.1270332821086 L336 255.13448785008796 L337 255.13496009040017 L338 255.12872804747695 L339 255.1163897918893 L340 255.0988199851528 L341 255.07711462149953 L342 255.05252719368838 L343 255.02639981447157 L344 255.0000929226933 L345 254.97491711642755 L346 254.95207039729178 L347 254.9325837003067 L348 254.91727704924165 L349 254.9067280501418 L350 254.90125375074626 L351 254.90090618719415 L352 254.90548124767767 L353 254.91453983916793 L354 254.92743977779884 L355 254.94337636059083 L356 254.96142923442008 L357 254.9806129691924 L358 254.99992867067223 L359 255.01841403196016 L360 255.03518941222475 L361 255.04949783214656 L362 255.06073716792065 L363 255.06848328620373 L364 255.0725033653346 L365 255.0727591667595 L366 255.06940052850283 L367 255.06274982503962 L368 255.05327855318197 L369 255.04157754348805 L370 255.02832254766437 L371 255.0142371058663 L372 255.0000546503218 L373 254.98648175506426 L374 254.97416430235285 L375 254.96365811547162 L376 254.95540531950155 L377 254.94971735351646 L378 254.94676518837738 L379 254.94657692351745 L380 254.9490425631806 L381 254.95392542562874 L382 254.9608793339261 L383 254.9694704873332 L384 254.9792027280642 L385 254.98954480549182 L386 254.99995820130943 L387 255.00992411339226 L388 255.01896829830247 L389 255.02668263455703 L390 255.03274248030485 L391 255.03691914733338 L392 255.03908708446065 L393 255.03922564295559 L394 255.03741557045137 L395 255.0338306345662 L396 255.0287250013247 L397 255.02241717673263 L398 255.01527145516863 L399 255.00767790099397 L400 255.0000319181126 L401 254.9927144370874 L402 254.9860736743847 L403 254.98040929925088 L404 254.97595968841605 L405 254.97289276653274 L406 254.9713007311772 L407 254.97119875595843 L408 254.97252756422583 L409 254.97515957881566 L410 254.97890818889059 L411 254.98353954036455 L412 254.98878615704783 L413 254.99436163889135 L414 254.99997566290122 L415 255.0053485307366 L416 255.01022456209148 L417 255.01438372038194 L418 255.017650971289 L419 255.01990300855016 L420 255.02107212756266 L421 255.02114717808897 L422 255.02017167497925 L423 255.0182392831679 L424 255.01548701390394 L425 255.01208656797928 L426 255.00823433467733 L427 255.00414059977686 L428 255.0000185312305 L429 254.99607349759987 L430 254.9924932338862 L431 254.989439305211 L432 254.9870402350787 L433 254.9853865666825 L434 254.98452801839184 L435 254.98447278388792 L436 254.98518891902262 L437 254.98660765663092 L438 254.98862840189997 L439 254.99112508834787 L440 254.99395352089473 L441 254.99695929974615 L442 254.99998590758545 L443 255.0028825525062 L444 255.00551138880886 L445 255.00775378490968 L446 255.00951536908076 L447 255.01072965589276 L448 255.0113601350331 L449 255.01140078543128 L450 255.0108750572095 L451 255.00983343802326 L452 255.00834978543114 L453 255.00651666020482 L454 255.00443993482716 L455 255.00223297548308 L456 255.0000107040925 L457 254.99788383964193 L458 254.99595359627227 L459 254.99430708098092 L460 254.993013588665 L461 254.99212193925368 L462 254.9916589438213 L463 254.99162902690742 L464 254.99201497383447 L465 254.99277971744496 L466 254.99386903089777 L467 254.9952149540475 L468 254.99673975204624 L469 254.99836018714154 L470 254.99999187858924 L471 255.00155353095204 L472 255.00297082705995 L473 255.00417980731007 L474 255.00512959012107 L475 255.0057843272553 L476 255.0061243302017 L477 255.00614634762186 L478 255.00586301676822 L479 255.00530155170202 L480 255.00450176622627 L481 255.00351355816775 L482 255.00239400285338 L483 255.0012042165977 L484 255.00000615546614 L485 254.99885951064905 L486 254.99781885003298 L487 254.99693113690347 L488 254.99623373238546 L489 254.99575295966622 L490 254.99550327685571 L491 254.99548707317288 L492 254.9956950716424 L493 254.99610729217466 L494 254.9966945031407 L495 254.9974200684636 L496 254.99824208167513 L497 254.99911566885936 L498 254.99999533913962 L499 255.00083726424793 " stroke = "red" stroke-width = "4" fill = "none" /></svg>