<svg width="500" height="500" viewbox = "0 0 500 500"  xmlns="http://www.w3.org/2000/svg">

<!--
<topfunctions>





function YofX(){
    X = currentjson.plotparams.g*(x - currentjson.plotparams.x0);
    Y = BesselJ0(X);
    y = currentjson.plotparams.y0 - currentjson.plotparams.G*Y;
}

function YofX2(){
    X = currentjson.plotparams.g*(x - currentjson.plotparams.x0);
    Y = BesselJ1(X);
    y = currentjson.plotparams.y0 - currentjson.plotparams.G*Y;
}

function YofX3(){
    X = currentjson.plotparams.g*(x - currentjson.plotparams.x0);
    Y = BesselJ(2,X);
    y = currentjson.plotparams.y0 - currentjson.plotparams.G*Y;
}


function plotfunction(){
    
    /*plot one function:*/
    currentStroke = "red";
    currentLineWidth = 4;
    ctx.strokeStyle = currentStroke;
    ctx.lineWidth = currentLineWidth;
    ctx.beginPath();	
    x = 0;
    intx = x;
    YofX();
    currentSVG += "	<path d = \"M";
    currentSVG += Math.round(x).toString() + " ";
    currentSVG += Math.round(y).toString() + " ";
    for(x = 1;x < currentjson.plotparams.plotwidth;x++){
        ctx.moveTo(x-1,y);
        YofX();
        ctx.lineTo(x,y);
        currentSVG += "L" + x + " " + y + " ";
    }
    ctx.stroke();
    currentSVG += "\""+ " stroke = \"" + currentStroke + "\" stroke-width = \"" + currentLineWidth.toString() + "\" fill = \"" + "none" + "\" "+"/>";
    /*finish plot one function*/
    
        /*plot one function:*/
    currentStroke = "green";
    currentLineWidth = 4;
    ctx.strokeStyle = currentStroke;
    ctx.lineWidth = currentLineWidth;
    ctx.beginPath();	
    x = 0;
    intx = x;
    YofX2();
    currentSVG += "	<path d = \"M";
    currentSVG += Math.round(x).toString() + " ";
    currentSVG += Math.round(y).toString() + " ";
    for(x = 1;x < currentjson.plotparams.plotwidth;x++){
        ctx.moveTo(x-1,y);
        YofX2();
        ctx.lineTo(x,y);
        currentSVG += "L" + x + " " + y + " ";
    }
    ctx.stroke();
    currentSVG += "\""+ " stroke = \"" + currentStroke + "\" stroke-width = \"" + currentLineWidth.toString() + "\" fill = \"" + "none" + "\" "+"/>";
    /*finish plot one function*/
    
    /*plot one function:*/
    currentStroke = "blue";
    currentLineWidth = 4;
    ctx.strokeStyle = currentStroke;
    ctx.lineWidth = currentLineWidth;
    ctx.beginPath();	
    x = 0;
    intx = x;
    YofX3();
    currentSVG += "	<path d = \"M";
    currentSVG += Math.round(x).toString() + " ";
    currentSVG += Math.round(y).toString() + " ";
    for(x = 1;x < currentjson.plotparams.plotwidth;x++){
        ctx.moveTo(x-1,y);
        YofX3();
        ctx.lineTo(x,y);
        currentSVG += "L" + x + " " + y + " ";
    }
    ctx.stroke();
    currentSVG += "\""+ " stroke = \"" + currentStroke + "\" stroke-width = \"" + currentLineWidth.toString() + "\" fill = \"" + "none" + "\" "+"/>";
    /*finish plot one function*/

}



function BesselJ(n,x){
	if (n == null || n.length == 0) return "n not specified";
	if (Math.floor(n) != n) return "Error: n not integer";
	if (n < 2) return "Error: n < 2";
	var ACC = 40.0;		// Make larger to increase accuracy.
	var BIGNO = 1.0e10;
	var BIGNI = 1.0e-10;
	var j,jsum,m,ax,bj,bjm,bjp,sum,tox,ans;
	ax=Math.abs(x);
	if (ax == 0.0) return 0.0;
	else if (ax > n) {
		tox = 2.0/ax;
		bjm=BesselJ0(ax);
		bj=BesselJ1(ax);
		for (j = 1; j < n ;j++ ) {
			bjp=j*tox*bj-bjm;
			bjm=bj;
			bj=bjp;
		}
		ans=bj;
	} else {
		tox=2.0/ax;
		if (Math.sqrt(ACC*n) >= 0)
			m=2*((n + Math.floor(Math.sqrt(ACC*n))) / 2);
		else
			m=2*((n + Math.ceil(Math.sqrt(ACC*n))) / 2);
		jsum=0;
		bjp=ans=sum=0.0;
		bj=1.0;
		for (j=m;j > 0; j = j-1 ) {
			bjm=j*tox*bj-bjp;
			bjp=bj;
			bj=bjm;
			if (Math.abs(bj) > BIGNO) {
				bj *= BIGNI;
				bjp *= BIGNI;
				ans *= BIGNI;
				sum *= BIGNI;
			}
			if (jsum) sum += bj;
			jsum=!jsum;
			if (j == n) ans=bjp;
		}
		sum=2.0*sum-bj;
		ans /= sum;
	}
	return x < 0.0 && (n & 1) ? -ans : ans;
}


function BesselJ0(x) {
	var ax,z,xx,y,ans,ans1,ans2;
	ax = Math.abs(x)
	if (ax < 8.0) {
		y = x * x;
		ans1 = 57568490574.0 + y * (-13362590354.0 + y * (651619640.7 + y * (-11214424.18 + y * (77392.33017 + y * (-184.9052456)))));
		ans2 = 57568490411.0 + y * (1029532985.0 + y * (9494680.718 + y * (59272.64853 + y * (267.8532712 + y * 1.0))));
		ans = ans1 / ans2;
	} else {
		z = 8.0 / ax;
		y = z * z;
		xx = ax - 0.785398164;
		ans1 = 1.0 + y * (-0.1098628627e-2 + y * (0.2734510407e-4 + y * (-0.2073370639e-5 + y * 0.2093887211e-6)));
		ans2 = -0.1562499995e-1 + y * (0.1430488765e-3 + y * (-0.6911147651e-5 + y * (0.7621095161e-6 - y * 0.934935152e-7)));
		ans = Math.sqrt(0.636619772 / ax) * (Math.cos(xx) * ans1 - z * Math.sin(xx) * ans2);
	}
	return ans;
}

function BesselJ1(x) {
	var ax,z,xx,y,ans,ans1,ans2;
	ax = Math.abs(x);
	if (ax < 8.0) {
		y=x*x;
		ans1 = x*(72362614232.0+y*(-7895059235.0+y*(242396853.1+y*(-2972611.439+y*(15704.48260+y*(-30.16036606))))));
		ans2 = 144725228442.0+y*(2300535178.0+y*(18583304.74+y*(99447.43394+y*(376.9991397+y*1.0))));
		ans = ans1/ans2;
	} else {
		z=8.0/ax;
		y=z*z;
		xx=ax-2.356194491;
		ans1=1.0+y*(0.183105e-2+y*(-0.3516396496e-4+y*(0.2457520174e-5+y*(-0.240337019e-6))));
		ans2=0.04687499995+y*(-0.2002690873e-3+y*(0.8449199096e-5+y*(-0.88228987e-6+y*0.105787412e-6)));
		ans=Math.sqrt(0.636619772/ax)*(Math.cos(xx)*ans1-z*Math.sin(xx)*ans2);
		if (x < 0.0) ans = -ans;
	}
	return ans;	
}







</topfunctions>
-->

<!--
<currentjson>
{
    "constants": {},
    "YofXstring": "Y =  (1/Math.PI)*0.5/(X*X + 0.25);",
    "style": {
        "linewidth": 4,
        "color": "blue",
        "fill": "none"
    },
    "plotparams": {
        "G": 244.0208303410385,
        "g": 0.03990403272513649,
        "duration": 450.78888054094654,
        "plotwidth": 500,
        "plotheight": 500,
        "x0": 0,
        "y0": 255
    },
    "funcparams": {},
    "image": {
        "url": "",
        "xoverw": 0.038011695906432746,
        "yoverw": -0.08771929824561403,
        "woverw": 0.8536631795472632,
        "angle": "0"
    },
    "A": 13.676183278839833,
    "B": 1
}
</currentjson>
-->

<!--
<equation>

</equation>
-->
	<path d = "M0 11 L1 11.076299839646623 L2 11.36757647008048 L3 11.852651060054512 L4 12.530944456831747 L5 13.401646922582614 L6 14.463719208587719 L7 15.715893933788891 L8 17.15667726576774 L9 18.78435090181037 L10 20.59697434729901 L11 22.5923874882578 L12 24.768213454469958 L13 27.121861769180043 L14 29.650531780997255 L15 32.35121637322112 L16 35.2207059454291 L17 38.255592661784874 L18 41.452274960157155 L19 44.806962315778236 L20 48.31568025281703 L21 51.974275596900355 L22 55.77842196128148 L23 59.723625459034 L24 63.80523063333496 L25 68.01842659760416 L26 72.35825337697443 L27 76.81960844229425 L28 81.397253427598 L29 86.08582102172997 L30 90.87982202456914 L31 95.77365255808013 L32 100.76160142220178 L33 105.83785758539446 L34 110.99651779948096 L35 116.23159432825256 L36 121.53702277915934 L37 126.90667002726784 L38 132.3343422205482 L39 137.81379285544813 L40 143.3387309116209 L41 148.9028290346021 L42 154.49973175517056 L43 160.12306373408873 L44 165.76643802089106 L45 171.42346431538022 L46 177.08775722049648 L47 182.7529444752495 L48 188.41267515643926 L49 194.06062783794832 L50 199.69051869645773 L51 205.2961095525244 L52 210.87121583606157 L53 216.4097144653796 L54 221.90555162907688 L55 227.35275046022096 L56 232.74541859241808 L57 238.07775558755154 L58 243.34406022515756 L59 248.53873764361327 L60 253.65630632353324 L61 258.6914049040012 L62 263.6387988225099 L63 268.4933867697437 L64 273.2502069506049 L65 277.90444314317233 L66 282.4514305475715 L67 286.8866614170444 L68 291.2057904638216 L69 295.40464003272507 L70 299.47920503576984 L71 303.4256576413728 L72 307.24035171213654 L73 310.91982698553335 L74 314.4608129921899 L75 317.86023270684484 L76 321.11520592743807 L77 324.2230523781813 L78 327.18129453285167 L79 329.98766015495244 L80 332.6400845517869 L81 335.13671253990344 L82 337.47590011977604 L83 339.65621585800136 L84 341.6764419757082 L85 343.5355751422916 L86 345.23282697400185 L87 346.7676242373356 L88 348.1396087575941 L89 349.3486370333895 L90 350.39477955829415 L91 351.27831985123953 L92 351.9997531976819 L93 352.5597851039548 L94 352.9593294676342 L95 353.1995064671335 L96 353.2816401741434 L97 353.207255892911 L98 352.9780772307395 L99 352.596022904455 L100 352.06320328795783 L101 351.38191670633114 L102 350.55464548232857 L103 349.58405174140205 L104 348.4729729817645 L105 347.2244174162977 L106 345.84155909343417 L107 344.32773280443087 L108 342.6864287847528 L109 340.9212872175521 L110 339.03609254749915 L111 337.0347676134725 L112 334.921367608854 L113 332.7000738784064 L114 330.3751875609182 L115 327.9511230870073 L116 325.43240154165585 L117 322.8236439012258 L118 320.1295641548586 L119 317.3549623203065 L120 314.50471736437504 L121 311.5837800382636 L122 308.59716563819836 L123 305.5499467018233 L124 302.44724565089655 L125 299.2942273908833 L126 296.0960918780749 L127 292.85806666489134 L128 289.5853994340222 L129 286.2833505320628 L130 282.95718551326826 L131 279.6121677040138 L132 276.2535507984979 L133 272.8865714961456 L134 269.5164421910949 L135 266.1483437240423 L136 262.787418206615 L137 259.4387619282983 L138 256.1074183558186 L139 252.79837123471094 L140 249.51653780263734 L141 246.26676212383566 L142 243.05380855387713 L143 239.8823553437076 L144 236.75698839171665 L145 233.68219515234622 L146 230.66235870950305 L147 227.70175202278236 L148 224.80453235422945 L149 221.97473588310388 L150 219.2162725157971 L151 216.5329208977754 L152 213.92832363408843 L153 211.40598272468313 L154 208.96925522042187 L155 206.62134910537446 L156 204.36531941060602 L157 202.2040645643395 L158 200.14032298300506 L159 198.1766699073384 L160 196.31551448731003 L161 194.55909711930613 L162 192.90948703859652 L163 191.36858016975123 L164 189.93809723728242 L165 188.6195821383997 L166 187.4144005793837 L167 186.32373897669248 L168 185.34860362352796 L169 184.4898201221925 L170 183.748033082191 L171 183.12370608363017 L172 182.6171219050946 L173 182.2283830147844 L174 181.95741232332648 L175 181.80395419628877 L176 181.76757572405666 L177 181.8476682463621 L178 182.04344912838542 L179 182.35396378500712 L180 182.77808794941853 L181 183.31453018196538 L182 183.96183461475925 L183 184.71838392726653 L184 185.58240254774788 L185 186.55196007513317 L186 187.6249749155948 L187 188.79921812779338 L188 190.0723174704998 L189 191.4417616460069 L190 192.90490473249582 L191 194.45897079827142 L192 196.1010586905423 L193 197.82814699119186 L194 199.637099131789 L195 201.52466865986372 L196 203.48750464831895 L197 205.52215723964082 L198 207.62508331645154 L199 209.79265228975862 L200 212.02115199617361 L201 214.30679368269932 L202 216.64571967859445 L203 219.0340093597633 L204 221.46768454019963 L205 223.94271612337627 L206 226.45503043753715 L207 229.00051561264738 L208 231.57502798937838 L209 234.1743985504853 L210 236.79443936492828 L211 239.43095003509688 L212 242.07972413752356 L213 244.73655564750334 L214 247.39724533809456 L215 250.05760714403698 L216 252.7134744812046 L217 255.3607065123034 L218 257.99519434963116 L219 260.6128671858364 L220 263.20969834374756 L221 265.7817112364891 L222 268.324985229261 L223 270.8356613943305 L224 273.30994815096585 L225 275.7441267822417 L226 278.13455682084947 L227 280.47768129626604 L228 282.7700318358646 L229 285.0082336127885 L230 287.1890101336617 L231 289.30918785946824 L232 291.36570065320075 L233 293.35559404815984 L234 295.276029331068 L235 297.12428743445935 L236 298.8977726331076 L237 300.5940160395637 L238 302.21067889419066 L239 303.7455556454043 L240 305.19657681615695 L241 306.56181165303326 L242 307.8394705546647 L243 309.027907276511 L244 310.12562090940025 L245 311.13125762957014 L246 312.0436122182997 L247 312.86162934957684 L248 313.58440464459864 L249 314.21118549225685 L250 314.7413716351166 L251 315.17451552075147 L252 315.5103224186509 L253 315.7486503032726 L254 315.8895095041592 L255 315.9330621243922 L256 315.87962122899984 L257 315.72964980527905 L258 315.483759497332 L259 315.1427091174512 L260 314.70740293731814 L261 314.1788887623052 L262 313.55835579248935 L263 312.8471322742988 L264 312.04668294702026 L265 311.15860628869336 L266 310.1846315662099 L267 309.1266156947181 L268 307.9865399117096 L269 306.7665062714295 L270 305.468733965509 L271 304.09555547596744 L272 302.6494125669659 L273 301.13285212192534 L274 299.54852183283333 L275 297.899165748776 L276 296.18761969092 L277 294.41680654135587 L278 292.5897314133851 L279 290.70947671099145 L280 288.7791970853859 L281 286.8021142966481 L282 284.7815119886111 L283 282.7207303852453 L284 280.62316091689274 L285 278.49224078479136 L286 276.331447472395 L287 274.14429321205574 L288 271.93431941567934 L289 269.7050910779955 L290 267.4601911611036 L291 265.2032149689596 L292 262.9377645204617 L293 260.6674429297707 L294 258.3958488024668 L295 256.12657065609864 L296 253.8631813736174 L297 251.6092326981183 L298 249.36824977722438 L299 247.14372576535064 L300 244.93911649197477 L301 242.7578352039191 L302 240.60324738951334 L303 238.4786656923614 L304 236.3873449222789 L305 234.33247717079658 L306 232.31718703844916 L307 230.34452698087523 L308 228.41747278055487 L309 226.53891915080118 L310 224.71167547840156 L311 222.93846171107543 L312 221.221904395676 L313 219.56453287281897 L314 217.96877563336403 L315 216.4369568419134 L316 214.97129303222312 L317 213.57388997914384 L318 212.24673975142713 L319 210.99171794944237 L320 209.81058113155692 L321 208.7049644326304 L322 207.6763793777723 L323 206.72621189420164 L324 205.85572052373752 L325 205.06603483813288 L326 204.35815405914732 L327 203.73294588493502 L328 203.19114552400106 L329 202.73335493765913 L330 202.36004229159798 L331 202.07154161684258 L332 201.86805268007126 L333 201.7496410629293 L334 201.7162384496568 L335 201.7676431220312 L336 201.90352066030673 L337 202.1234048485192 L338 202.42669878221417 L339 202.81267617634865 L340 203.2804828708137 L341 203.82913853072736 L342 204.45753853835322 L343 205.1644560732127 L344 205.94854437667738 L345 206.80833919705094 L346 207.74226141088445 L347 208.74861981600267 L348 209.82561409147013 L349 210.97133791947525 L350 212.18378226387608 L351 213.46083879992034 L352 214.80030348943288 L353 216.1998802955526 L354 217.6571850309004 L355 219.16974933286622 L356 220.73502475952523 L357 222.35038699951866 L358 224.01314018907775 L359 225.7205213292183 L360 227.4697047959952 L361 229.25780693658018 L362 231.08189074380957 L363 232.93897060174564 L364 234.82601709470276 L365 236.73996187210855 L366 238.677702561504 L367 240.6361077219271 L368 242.6120218298831 L369 244.60227029007066 L370 246.6036644630142 L371 248.61300670174464 L372 250.62709538967465 L373 252.64272997183235 L374 254.65671597164425 L375 256.66586998550025 L376 258.6670246473857 L377 260.65703355592893 L378 262.6327761562899 L379 264.5911625694021 L380 266.52913836118057 L381 268.44368924441534 L382 270.3318457061959 L383 272.19068755383967 L384 274.0173483724426 L385 275.80901988732137 L386 277.56295622478257 L387 279.27647806482145 L388 280.94697667954193 L389 282.5719178512755 L390 284.1488456645801 L391 285.6753861665086 L392 287.14925088975224 L393 288.56824023349276 L394 289.93024669702476 L395 291.2332579614555 L396 292.4753598150303 L397 293.6547389178896 L398 294.7696854023179 L399 295.8185953048139 L400 296.7999728265771 L401 297.7124324192826 L402 298.55470069329334 L403 299.3256181457422 L404 300.0241407062017 L405 300.6493410979473 L406 301.20041001311307 L407 301.67665710033043 L408 302.0775117637356 L409 302.4025237725277 L410 302.6513636805568 L411 302.823823055716 L412 302.91981451921 L413 302.9393715950679 L414 302.88264837056215 L415 302.74991896848866 L416 302.54157683255505 L417 302.2581338274103 L418 301.9002191551366 L419 301.4685780903049 L420 300.96407053597386 L421 300.3876694032865 L422 299.7404588175868 L423 299.02363215424435 L424 298.2384899076314 L425 297.38643739695203 L426 296.4689823128671 L427 295.4877321091002 L428 294.4443912434419 L429 293.3407582727954 L430 292.1787228071242 L431 290.9602623273714 L432 289.6874388726252 L433 288.36239560199203 L434 286.98735323682973 L435 285.5646063891616 L436 284.0965197822629 L437 282.585524369563 L438 281.0341133581556 L439 279.44483814334205 L440 277.8203041607622 L441 276.16316666277777 L442 274.47612642588314 L443 272.76192539600504 L444 271.0233422786441 L445 269.2631880808761 L446 267.4843016122936 L447 265.6895449520217 L448 263.88179888897344 L449 262.0639583425448 L450 260.23892777095944 L451 258.4096165744816 L452 256.5789345007069 L453 254.7497870591246 L454 252.9250709521142 L455 251.10766952950087 L456 249.30044827374167 L457 247.50625032275346 L458 245.72789203731983 L459 243.9681586199314 L460 242.22979979181937 L461 240.51552553483813 L462 238.82800190473807 L463 237.16984692224395 L464 235.54362654822256 L465 233.9518507490769 L466 232.3969696583516 L467 230.88136984037294 L468 229.40737066157473 L469 227.9772207749824 L470 226.59309472313964 L471 225.25708966456622 L472 223.97122222863328 L473 222.73742550353018 L474 221.55754616178194 L475 220.43334172755024 L476 219.36647798972257 L477 218.3585265645568 L478 217.41096261140868 L479 216.52516270482158 L480 215.7024028660083 L481 214.94385675649823 L482 214.2505940364651 L483 213.62357888998676 L484 213.06366871922347 L485 212.57161300923306 L486 212.14805236486993 L487 211.7935177209439 L488 211.5084297265401 L489 211.29309830412737 L490 211.1477223838078 L491 211.07238981278425 L492 211.06707743984873 L493 211.13165137442093 L494 211.26586741939224 L495 211.46937167676197 L496 211.74170132478125 L497 212.0822855650552 L498 212.49044673779022 L499 212.96540160311326 " stroke = "red" stroke-width = "4" fill = "none" />	<path d = "M0 255 L1 250.13226140995863 L2 245.27033533990829 L3 240.4200265979789 L4 235.58712457932168 L5 230.77739558646306 L6 225.99657518182732 L7 221.2503605830792 L8 216.54440311187645 L9 211.88430070654533 L10 207.27559050910125 L11 202.7237415369292 L12 198.23414744931836 L13 193.81211941890905 L14 189.46287911795906 L15 185.19155182917387 L16 181.0031596906648 L17 176.90261508440852 L18 172.89471417737536 L19 168.98413062427517 L20 165.17540944063884 L21 161.47296105470872 L22 157.88105554635658 L23 154.4038170809794 L24 151.0452185460444 L25 147.8090763976656 L26 144.6990457242933 L27 141.71861553428735 L28 138.87110427382632 L29 136.15965558127397 L30 133.58723428378835 L31 131.1566226416112 L32 128.8704168451241 L33 126.73102376939403 L34 124.74065799056723 L35 122.9013390680932 L36 121.21488909638543 L37 119.68293052913774 L38 118.3068842791304 L39 117.08796809596436 L40 116.02719522376998 L41 115.12537334053494 L42 114.38310378029826 L43 113.80078103905393 L44 113.37859256480493 L45 113.11651883180522 L46 113.01433369862423 L47 113.07160504926512 L48 113.28769571616871 L49 113.66176468353328 L50 114.1927685689866 L51 114.87946338125076 L52 115.72040655105212 L53 116.71395923214149 L54 117.85828886891025 L55 119.15137202671144 L56 120.59099748062556 L57 122.1747695580477 L58 123.9001117301157 L59 125.76427044665013 L60 127.7643192089372 L61 129.89716287434993 L62 132.15954218648352 L63 134.54803852416256 L64 137.05907886237532 L65 139.68894093789618 L66 142.4337586120718 L67 145.28952742297696 L68 148.25211031888188 L69 151.31724356472589 L70 154.4805428130539 L71 157.73750933064866 L72 161.08353637187847 L73 164.51391568958385 L74 168.02384417413873 L75 171.60843061115256 L76 175.26270254812079 L77 178.98161326018828 L78 182.76004880506082 L79 186.5928351569856 L80 190.47474540962043 L81 194.40050703752934 L82 198.36480920596617 L83 202.36231011855995 L84 206.38764439246816 L85 210.435430450544 L86 214.50027792005272 L87 218.57679502747348 L88 222.65959597894908 L89 226.74330831597732 L90 230.82258023598786 L91 234.89208786751627 L92 238.94654248976332 L93 242.98069768642608 L94 246.9893564237912 L95 250.96737804321074 L96 254.90968515821152 L97 258.81127044664595 L98 262.667203328454 L99 266.4726365197867 L100 270.22281245442997 L101 273.9130695636783 L102 277.53884840601614 L103 281.09569763820366 L104 284.5792798195966 L105 287.985377041788 L106 291.30989637592137 L107 294.5488751302988 L108 297.6984859111941 L109 300.7550414800736 L110 303.7149994007349 L111 306.57496647018155 L112 309.3317029273804 L113 311.9821264343703 L114 314.5233158245359 L115 316.9525146131976 L116 319.2671342660245 L117 321.464757221132 L118 323.54313966108816 L119 325.5002140314201 L120 327.33409130258445 L121 329.04306297273996 L122 330.6256028090397 L123 332.08036832554404 L124 333.4062019962346 L125 334.6021322019982 L126 335.66737391083876 L127 336.6013290909542 L128 337.40358685670896 L129 338.07392334791814 L130 338.61230134324023 L131 339.01886960886384 L132 339.2939619840481 L133 339.43809620546455 L134 339.4519724726482 L135 339.3364717572528 L136 339.09265385915603 L137 338.7217552128305 L138 338.225186447752 L139 337.6045297069545 L140 336.86153572820365 L141 335.9981206925746 L142 335.016362845564 L143 333.9184988961776 L144 332.7069201997492 L145 331.3841687305473 L146 329.9529328505224 L147 328.41604288082675 L148 326.77646648301294 L149 325.03730385708275 L150 323.20178276380386 L151 321.27325337895945 L152 319.25518298741423 L153 317.1511505251087 L154 314.96484097728586 L155 312.70003964145735 L156 310.360626263785 L157 307.950569057728 L158 305.47391861394976 L159 302.93480171062737 L160 300.3374150334223 L161 297.6860188144903 L162 294.98493039999926 L163 292.238517755713 L164 289.45119292026556 L165 286.6274054158037 L166 283.77163562571894 L167 280.8883881492129 L168 277.98218514246435 L169 275.0575596561371 L170 272.1190489789799 L171 269.17118799722687 L172 266.21850257944897 L173 263.26550299647573 L174 260.3166773859017 L175 257.3764852706329 L176 254.44935114080425 L177 251.5396581083022 L178 248.65174164298966 L179 245.78988339958957 L180 242.95830514403642 L181 240.16116278793086 L182 237.40254053956 L183 234.68644517974957 L184 232.01680047062368 L185 229.39744170511574 L186 226.83211040487018 L187 224.32444917392422 L188 221.87799671532284 L189 219.4961830175582 L190 217.18232471746913 L191 214.93962064595326 L192 212.77114756256978 L193 210.67985608481848 L194 208.66856681758213 L195 206.73996668791847 L196 204.89660549007195 L197 203.14089264525796 L198 201.47509418046653 L199 199.90132993016928 L200 198.42157096451993 L201 197.0376358884512 L202 195.75119361054936 L203 194.56375464401816 L204 193.4766737862148 L205 192.49114767345256 L206 191.60821361672984 L207 190.82874867823915 L208 190.15346898933737 L209 189.5829293102977 L210 189.11752283180363 L211 188.7574812177864 L212 188.50287488884902 L213 188.35361354516482 L214 188.30944692738393 L215 188.36996581373103 L216 188.534603251131 L217 188.80263601785467 L218 189.17318631483937 L219 189.64522368250493 L220 190.2175671395568 L221 190.8888875399471 L222 191.65771014384663 L223 192.52241739817387 L224 193.48125192192353 L225 194.53231969124425 L226 195.67359341892924 L227 196.90291612270622 L228 198.21800487644458 L229 199.61645473814008 L230 201.09574284828676 L231 202.6532326920083 L232 204.28617851809108 L233 205.99172990784592 L234 207.76693648651525 L235 209.60875276975054 L236 211.51404313749987 L237 213.4795869274725 L238 215.50208364019076 L239 217.57815824748855 L240 219.70436659618412 L241 221.87720089853096 L242 224.0930953009416 L243 226.3484315223845 L244 228.63954455376805 L245 230.96272840955973 L246 233.31424192282824 L247 235.6903145748565 L248 238.08715235044096 L249 240.5009436099785 L250 242.92786496943745 L251 245.36408717932153 L252 247.80578099375734 L253 250.24912302087589 L254 252.69030154570555 L255 255.1255223168604 L256 257.5510142883829 L257 259.9630353081886 L258 262.3578777446645 L259 264.73187404308493 L260 267.0814022036373 L261 269.4028911729878 L262 271.69282614146925 L263 273.94775373813377 L264 276.164287116089 L265 278.3391109207189 L266 280.46898613358775 L267 282.55075478503096 L268 284.5813445286518 L269 286.55777307117137 L270 288.47715245131076 L271 290.33669316163224 L272 292.13370810751684 L273 293.8656163977173 L274 295.52994696119623 L275 297.1243419852317 L276 298.6465601700608 L277 300.0944797956174 L278 301.4661015962189 L279 302.75955143935704 L280 303.97308280505575 L281 305.10507906256856 L282 306.15405554150647 L283 307.11866139480344 L284 307.99768125125183 L285 308.7900366556639 L286 309.49478729504347 L287 310.11113200948023 L288 310.63840958681203 L289 311.0760993404286 L290 311.4238214699229 L291 311.681337204629 L292 311.8485487304115 L293 311.92549890040567 L294 311.9123707307306 L295 311.8094866825242 L296 311.6173077319721 L297 311.33643223031834 L298 310.9675945561645 L299 310.5116635626731 L300 309.96964082259603 L301 309.3426586743532 L302 308.63197807267983 L303 307.83898624765027 L304 306.9651941761717 L305 306.0122338703137 L306 304.9818554871133 L307 303.87592426475186 L308 302.69641729025636 L309 301.44542010412266 L310 300.12512314749216 L311 298.737818057743 L312 297.28589381857284 L313 295.77183277085834 L314 294.1982064907758 L315 292.567671541852 L316 290.88296510779406 L317 289.14690051311163 L318 287.3623626387003 L319 285.5323032396976 L320 283.6597361730578 L321 281.7477325424089 L322 279.79941576786655 L323 277.8179565885754 L324 275.8065680058333 L325 273.7685001747245 L326 271.7070352522524 L327 269.62548221000486 L328 267.5271716194252 L329 265.4154504177819 L330 263.2936766629423 L331 261.1652142850525 L332 259.0334278432133 L333 256.9016772952128 L334 254.7733127883398 L335 252.65166947924916 L336 250.5400623907889 L337 248.44178131362153 L338 246.36008576038728 L339 244.29819998005587 L340 242.25930804000564 L341 240.2465489832449 L342 238.2630120680599 L343 236.31173209722834 L344 234.39568484378452 L345 232.51778258015742 L346 230.68086971732654 L347 228.88771856045915 L348 227.1410251872953 L349 225.44340545534538 L350 223.79739114375226 L351 222.20542623545 L352 220.66986334502087 L353 219.19296029741756 L354 217.7768768624715 L355 216.42367164985905 L356 215.13529916893629 L357 213.9136070575935 L358 212.76033348400642 L359 211.67710472488835 L360 210.6654329235663 L361 209.72671403091942 L362 208.8622259319297 L363 208.07312676030156 L364 207.36045340331185 L365 206.72512019875376 L366 206.16791782553622 L367 205.6895123891997 L368 205.29044470330447 L369 204.9711297673426 L370 204.7318564415216 L371 204.57278731846066 L372 204.4939587915384 L373 204.49528131932573 L374 204.5765398852375 L375 204.73739465123555 L376 204.97738180411923 L377 205.29591459264475 L378 205.69228455342304 L379 206.16566292325976 L380 206.71510223531618 L381 207.33953809619243 L382 208.0377911407606 L383 208.80856916130665 L384 209.65046940727925 L385 210.56198105168528 L386 211.54148781992578 L387 212.5872707766201 L388 213.6975112657343 L389 214.87029399909989 L390 216.1036102881923 L391 217.3953614138254 L392 218.74336212821797 L393 220.14534428369342 L394 221.5989605820917 L395 223.1017884387964 L396 224.65133395511626 L397 226.24503599260618 L398 227.88027034276686 L399 229.55435398543008 L400 231.2645494290119 L401 233.0080691257045 L402 234.7820799545749 L403 236.5837077654498 L404 238.41004197638392 L405 240.25814021744412 L406 242.12503301348303 L407 244.00772849853112 L408 245.90321715440325 L409 247.8084765660926 L410 249.7204761865147 L411 251.6361821031657 L412 253.5525617992704 L413 255.46658890202062 L414 257.3752479105392 L415 259.2755388962517 L416 261.16448216840564 L417 263.0391228975474 L418 264.89653568984437 L419 266.7338291052346 L420 268.54815011248365 L421 270.33668847434404 L422 272.09668105613434 L423 273.82541605118536 L424 275.52023711674605 L425 277.1785474140942 L426 278.7978135467555 L427 280.3755693909087 L428 281.90941981223244 L429 283.397044263638 L430 284.8362002585285 L431 286.22472671442944 L432 287.560547162048 L433 288.8416728150372 L434 290.066205495967 L435 291.23234041423837 L436 292.338368791914 L437 293.382680333684 L438 294.3637655374368 L439 295.2802178421581 L440 296.1307356101424 L441 296.9141239407649 L442 297.62929631332844 L443 298.2752760567736 L444 298.8511976443103 L445 299.35630781131005 L446 299.7899664950731 L447 300.1516475953664 L448 300.4409395549103 L449 300.6575457592717 L450 300.80128475590755 L451 300.8720902923801 L452 300.8700111740522 L453 300.7952109418473 L454 300.6479673709408 L455 300.4286717915263 L456 300.1378282330743 L457 299.7760523937751 L458 299.3440704371262 L459 298.84271761788904 L460 298.272936739904 L461 297.6357764485089 L462 296.9323893605583 L463 296.1640300352892 L464 295.3320527895216 L465 294.4379093609167 L466 293.4831464232477 L467 292.46940295785885 L468 291.3984074857077 L469 290.2719751645936 L470 289.0920047563755 L471 287.86047546917956 L472 286.5794436797792 L473 285.2510395415103 L474 283.87746348325 L475 282.4609826051512 L476 281.00392697697106 L477 279.5086858449762 L478 277.9777037535375 L479 276.41347658764926 L480 274.8185475427198 L481 273.1955030280825 L482 271.54696851076665 L483 269.8756043061513 L484 268.18410132219134 L485 266.47517676397183 L486 264.7515698053902 L487 263.0160372348071 L488 261.27134908153613 L489 259.52028423005754 L490 257.7656260288491 L491 256.0101579007229 L492 254.25665896154112 L493 252.50789965415998 L494 250.7666374044123 L495 249.03561230589457 L496 247.31754284026556 L497 245.61512163969684 L498 243.93101129803682 L499 242.26784023716232 " stroke = "green" stroke-width = "4" fill = "none" />	<path d = "M0 255 L1 254.95143617783017 L2 254.8058220320623 L3 254.5633894095101 L4 254.22452433699758 L5 253.7897664451608 L6 253.2598081629696 L7 252.63549368416554 L8 251.9178177071529 L9 251.10792395021423 L10 250.20710344425743 L11 249.21679260563045 L12 248.1385710918678 L13 246.9741594435543 L14 245.72541651581002 L15 244.394336703212 L16 242.98304696227584 L17 241.4938036359205 L18 239.92898908463286 L19 238.29110812933624 L20 236.58278431124617 L21 234.80675597426776 L22 232.96587217575168 L23 231.06308843168102 L24 229.10146230260548 L25 227.08414882687464 L26 225.0143958079493 L27 222.89553896278304 L28 220.73099693847334 L29 218.52426620457442 L30 216.27891582864694 L31 213.99858214279215 L32 211.6869633090772 L33 209.34781379190713 L34 206.9849387455342 L35 204.60218832502028 L36 202.20345192907823 L37 199.79265238331763 L38 197.37374007250668 L39 194.95068703053423 L40 192.5274809968184 L41 190.1081194479542 L42 187.69660361342787 L43 185.29693248424866 L44 182.91309682335518 L45 180.54907318665275 L46 178.20881796351858 L47 175.89626144558406 L48 173.6153019325607 L49 171.36979988382222 L50 169.16357212438737 L51 167.0004397083865 L52 164.88402055212163 L53 162.81801003565542 L54 160.80599435747146 L55 158.85148829062106 L56 156.95792989834104 L57 155.12867536206448 L58 153.36699392947386 L59 151.6760629900697 L60 150.05896328553388 L61 148.5186742619665 L62 147.05806957086656 L63 145.679912725498 L64 144.38685291905858 L65 143.18142101082125 L66 142.066025686172 L67 141.04294979620585 L68 140.11434688227683 L69 139.28223789062196 L70 138.54850808189525 L71 137.9149041401602 L72 137.383031485588 L73 136.9543517948115 L74 136.63018073256958 L75 136.41168589796848 L76 136.29988498836326 L77 136.29564418354153 L78 136.39967675256267 L79 136.61254188527698 L80 136.93464375021404 L81 137.36623078019406 L82 137.90739518667772 L83 138.55807270353267 L84 139.31804256055096 L85 140.1869276867145 L86 141.16419514286446 L87 142.24915678308878 L88 143.4409701438057 L89 144.73863955918347 L90 146.1410175012 L91 147.64680614231753 L92 149.2545591384134 L93 150.96268362928856 L94 152.76944245374722 L95 154.67295657593183 L96 156.67120771927915 L97 158.76204120416241 L98 160.94316898497996 L99 163.21217288216195 L100 165.5665080042749 L101 168.0035063551283 L102 170.520380620513 L103 173.1142281289407 L104 175.78203498049322 L105 178.52068033765136 L106 181.32694087172828 L107 184.1974953583119 L108 187.12892941489753 L109 190.1177403736891 L110 193.16034228234705 L111 196.2530710252782 L112 199.39218955788624 L113 202.5738932460365 L114 205.79431530284268 L115 209.0495323147351 L116 212.3355698486493 L117 215.6484081320525 L118 218.98398779742666 L119 222.3382156827321 L120 225.70697067929962 L121 229.08610961853344 L122 232.47147318875165 L123 235.85889187345842 L124 239.2441919023054 L125 242.62320120599333 L126 245.99175536636352 L127 249.3457035529358 L128 252.6809144371825 L129 255.9932820758583 L130 259.27873175476304 L131 262.5332257843763 L132 265.75276923887566 L133 268.9334156301462 L134 272.07127250848475 L135 275.1625069818192 L136 278.2033511453847 L137 281.1901074139466 L138 284.11915374879476 L139 286.98694877190655 L140 289.79003675984404 L141 292.5250525101306 L142 295.188726073054 L143 297.777887342037 L144 300.2894704959391 L145 302.7205182868728 L146 305.0681861673535 L147 307.3297462508382 L148 309.5025910999734 L149 311.58423733711186 L150 313.57232907194566 L151 315.4646411413607 L152 317.2590821569144 L153 318.95369735561434 L154 320.54667124997763 L155 322.03633007365113 L156 323.42114401917627 L157 324.699729264793 L158 325.8708497874962 L159 326.93341895987044 L160 327.8865009285602 L161 328.7293117725493 L162 329.4612204397586 L163 330.081749460796 L164 330.5905754390252 L165 330.98752931645436 L166 331.27259641527587 L167 331.4459162552204 L168 331.5077821472227 L169 331.45864056422806 L170 331.2990902902902 L171 331.0298813494527 L172 330.6519137162105 L173 330.166235809692 L174 329.5740427739979 L175 328.8766745474639 L176 328.07561372391086 L177 327.17248320925415 L178 326.16904367714864 L179 325.0671908276188 L180 323.86895245293096 L181 322.5764853152283 L182 321.19207184072445 L183 319.71811663550875 L184 318.1571428282886 L185 316.5117882456125 L186 314.784801425377 L187 312.9790374746417 L188 311.09745377798174 L189 309.14310556283283 L190 307.11914132846954 L191 305.0287981454419 L192 302.87539683247377 L193 300.66233701799234 L194 298.3930920935962 L195 296.07120406693116 L196 293.7002783215393 L197 291.28397829139584 L198 288.8260200579162 L199 286.3301668773396 L200 283.80022364643406 L201 281.2400319882524 L202 278.65346425399645 L203 276.04441635148544 L204 273.41680397764685 L205 270.77455629059057 L206 268.121610200012 L207 265.4619046561 L208 262.7993749453853 L209 260.1379470019443 L210 257.4815317423382 L211 254.83401943262308 L212 252.19927409570636 L213 249.5811279672561 L214 246.98337600828577 L215 244.40977048244184 L216 241.8640156059154 L217 239.3497622777804 L218 236.87060289843023 L219 234.43006628364412 L220 232.03161268166093 L221 229.67862890047584 L222 227.37442355240134 L223 225.12222242274703 L224 222.9251639692837 L225 220.78629495894717 L226 218.70856624802832 L227 216.69482871187037 L228 214.7478293298652 L229 212.87020743129864 L230 211.0644911073495 L231 209.33309379428894 L232 207.67831103266687 L233 206.1023174070001 L234 204.60716367020348 L235 203.19477405672149 L236 201.8669437880315 L237 200.62533677389663 L238 199.4714835124493 L239 198.40677919188514 L240 197.43248199624094 L241 196.5497116174227 L242 195.75944797533825 L243 195.0625301476734 L244 194.4596555105386 L245 193.9513790908915 L246 193.5381131313262 L247 193.22012686750034 L248 192.99754651815147 L249 192.87035548733843 L250 192.83839477822477 L251 192.9013636174062 L252 193.05882028847066 L253 193.3101831731679 L254 193.65473199825763 L255 194.0916092858001 L256 194.6198220043513 L257 195.23824341822845 L258 195.9456151317193 L259 196.74054932482073 L260 197.62153117681117 L261 198.58692147368544 L262 199.63495939521107 L263 200.7637654771025 L264 201.971344743555 L265 203.25559000513027 L266 204.6142853167481 L267 206.04510959030452 L268 207.5456403562152 L269 209.11335766796722 L270 210.74564814355884 L271 212.43980913750943 L272 214.19305303693793 L273 216.0025116750302 L274 217.86524085505377 L275 219.77822497791874 L276 221.73838176614453 L277 223.7425670769556 L278 225.78757979710934 L279 227.8701668119477 L280 229.98702804106543 L281 232.1348215329007 L282 234.3101686104777 L283 236.50965906046665 L284 238.7298563576766 L285 240.967302917053 L286 243.2185253652279 L287 245.48003982365208 L288 247.74835719533579 L289 250.01998844723278 L290 252.29144988032243 L291 254.5592683794774 L292 256.81998663524786 L293 259.0701683297493 L294 261.30640327891024 L295 263.52531252341237 L296 265.72355336074946 L297 267.8978243109319 L298 270.044870008477 L299 272.1614860134505 L300 274.24452353445787 L301 276.29089405663143 L302 278.297573867814 L303 280.2616084763052 L304 282.18011691371385 L305 284.0502959166438 L306 285.8694239811343 L307 287.6348652839811 L308 289.34407346527547 L309 290.99459526671683 L310 292.5840740204861 L311 294.1102529836992 L312 295.57097851370423 L313 296.9642030797359 L314 298.28798810669565 L315 299.54050664708814 L316 300.720045877413 L317 301.8250094155827 L318 302.8539194562148 L319 303.80541872092994 L320 304.6782722210712 L321 305.4713688305503 L322 306.1837226668188 L323 306.8144742782564 L324 307.36289163656613 L325 307.82837093306466 L326 308.2104371780551 L327 308.5087446027715 L328 308.723076863684 L329 308.8533470492543 L330 308.899597489533 L331 308.86199936928625 L332 308.7408521456393 L333 308.53658277151885 L334 308.24974472646966 L335 307.88101685670966 L336 307.4312020265772 L337 306.9012255838048 L338 306.29213364133403 L339 305.60509117866013 L340 304.8413799659645 L341 304.00239631455685 L342 303.0896486574073 L343 302.1047549638011 L344 301.04943999239276 L345 299.9255323871763 L346 298.7349616211188 L347 297.4797547924287 L348 296.1620332786446 L349 294.78400925394004 L350 293.3479820752358 L351 291.8563345429041 L352 290.31152904202725 L353 288.7161035703469 L354 287.0726676592006 L355 285.3838981938953 L356 283.65253514010703 L357 281.88137718303193 L358 280.07327728612904 L359 278.23113817641143 L360 276.3579077633369 L361 274.45657449844265 L362 272.53016268294124 L363 270.5817277305661 L364 268.6143513930073 L365 266.63113695532223 L366 264.63520440873964 L367 262.629685608296 L368 260.6177194227524 L369 258.6024468842395 L370 256.5870063450635 L371 254.57452864908313 L372 252.5681323250314 L373 250.57091880910815 L374 248.5859677041126 L375 246.6163320823153 L376 244.6650338391878 L377 242.73505910502035 L378 240.82935372135324 L379 238.95081878903792 L380 237.1023062946205 L381 235.2866148216089 L382 233.50648535304245 L383 231.7645971716311 L384 230.06356386357055 L385 228.40592943197032 L386 226.79416452565016 L387 225.2306627888771 L388 223.71773733741563 L389 222.25761736606233 L390 220.85244489262448 L391 219.5042716430833 L392 218.21505608245815 L393 216.98666059565448 L394 215.82084882234224 L395 214.7192831496658 L396 213.6835223663382 L397 212.7150194814169 L398 211.81511971080133 L399 210.9850586342265 L400 210.2259605252622 L401 209.53883685655524 L402 208.9245849822795 L403 208.38398699948183 L404 207.91770878973477 L405 207.5262992422252 L406 207.21018965912884 L407 206.96969334383738 L408 206.8050053723221 L409 206.7162025476373 L410 206.70324353728196 L411 206.76596919286055 L412 206.90410305120034 L413 207.117252015808 L414 207.40490721726994 L415 207.76644505092895 L416 208.20112838989934 L417 208.70810797121518 L418 209.2864239526445 L419 209.9350076374427 L420 210.65268336406484 L421 211.43817055760633 L422 212.29008593950024 L423 213.20694589175844 L424 214.18716897181395 L425 215.2290785737962 L426 216.33090573185154 L427 217.49079206091096 L428 218.70679283010165 L429 219.97688016380397 L430 221.29894636516616 L431 222.6708073567099 L432 224.09020623248756 L433 225.55481691609035 L434 227.06224791865233 L435 228.61004619085134 L436 230.19570106277303 L437 231.81664826537894 L438 233.47027402720525 L439 235.15391923981184 L440 236.86488368540859 L441 238.60043031999908 L442 240.35778960530826 L443 242.13416388269886 L444 243.92673178222353 L445 245.73265265992214 L446 247.5490710564389 L447 249.3731211700137 L448 251.20193133689216 L449 253.0326285121986 L450 254.86234274432817 L451 256.68821163593555 L452 258.5073847846311 L453 260.3170281965375 L454 262.11432866591474 L455 263.89649811412465 L456 265.66077788128075 L457 267.40444296401387 L458 269.1248061928795 L459 270.8192223430347 L460 272.4850921719309 L461 274.119866377887 L462 275.7210494735454 L463 277.28620356835404 L464 278.81295205436413 L465 280.2989831898007 L466 281.74205357502376 L467 283.13999151567737 L468 284.4907002680067 L469 285.79216116151474 L470 287.04243659432655 L471 288.2396728968376 L472 289.3821030594315 L473 290.4680493202705 L474 291.49592560938856 L475 292.464239845542 L476 293.3715960825104 L477 294.21669650177745 L478 294.9983432487661 L479 295.71544011004926 L480 296.36699402920783 L481 296.95211645926366 L482 297.4700245498708 L483 297.92004216770783 L484 298.3016007487769 L485 298.6142399815764 L486 298.85760832038034 L487 299.03146332812076 L488 299.13567184863666 L489 299.1702100083164 L490 299.13516304742825 L491 299.03072498169365 L492 298.85719809492576 L493 298.614992263812 L494 298.3046241161814 L495 297.92671602435354 L496 297.4819949354184 L497 296.9712910405485 L498 296.39553628569 L499 295.75576272622254 " stroke = "blue" stroke-width = "4" fill = "none" /></svg>