<svg width="425" height="173" viewbox = "0 0 425 173"  xmlns="http://www.w3.org/2000/svg">

<!--
<json>
{
    "svgwidth": 425,
    "svgheight": 173,
    "unit": 229,
    "x0": 476,
    "y0": 368,
    "x0rel": -208,
    "y0rel": -51,
    "glyph": "0241,",
    "table": [
        "0220:0200,0306,0335,0311,0336,0201,0334,0337,0201,0334,0334,0336,0342,0335,0337,0350,0334,0201,0334,0336,0201,0335,0335,0335,0335,0337,0331,0304,0333,0313,",
        "0221:0336,0336,0336,0333,0337,0337,0337,0342,",
        "0222:0334,0336,0336,0362,0203,0335,0203,0203,0334,0203,0335,0350,0310,0335,0337,0203,0203,0335,0335,0203,0203,0335,0335,0335,0336,0203,0304,0313,0334,0203,0203,0335,0203,0363,0335,0337,0337,",
        "0223:0334,0336,0350,0310,0362,0203,0335,0335,0335,0337,0203,0335,0335,0203,0335,0335,0335,0336,0203,0363,0335,0335,0330,0330,0304,0313,0337,",
        "0224:0220,0332,0221,0221,0221,0221,0221,0221,0221,0334,0336,0336,0336,0331,0337,0337,0337,0221,0221,0221,0221,0221,0221,0221,0335,0331,0336,0336,0336,0330,0337,0337,0337,0306,0313,0336,0336,0336,0330,0335,0337,0337,0337,0311,0336,0342,0337,0313,0336,0336,0336,0332,0337,0337,0337,0311,0336,0342,0337,0313,0336,0336,0336,0332,0337,0337,0337,0311,0336,0342,0337,0313,0336,0336,0336,0332,0337,0337,0337,0311,0336,0342,0337,0313,0336,0336,0336,0332,0337,0337,0337,0311,0336,0342,0337,0313,0336,0336,0336,0332,0337,0337,0337,0311,0336,0342,0337,0313,0336,0336,0336,0332,0337,0337,0337,0311,0336,0342,0337,0313,0336,0336,0336,0332,0337,0337,0337,0311,0336,0335,0335,0335,0331,0313,0336,0336,0336,0330,0334,0337,0337,0337,0311,0337,0342,0336,0313,0336,0336,0336,0333,0337,0337,0337,0311,0337,0342,0313,0336,0336,0336,0311,0336,0333,0337,0313,0337,0337,0337,0342,0336,0336,0336,0311,0336,0333,0337,0313,0337,0337,0337,0342,0336,0336,0336,0311,0336,0333,0337,0313,0337,0337,0337,0342,0336,0336,0336,0311,0336,0333,0337,0313,0337,0337,0337,0342,0336,0336,0336,0311,0336,0333,0337,0313,0337,0337,0337,0342,0335,0350,0335,0351,0306,0330,0335,0335,0335,0350,0342,0313,0336,0336,0336,0311,0336,0332,0337,0313,0337,0337,0337,0342,0336,0336,0336,0311,0336,0332,0337,0313,0337,0337,0337,0342,0336,0336,0336,0311,0336,0332,0337,0313,0337,0337,0337,0342,0336,0336,0336,0311,0336,0332,0337,0313,0337,0337,0337,0342,0336,0336,0336,0311,0336,0332,0337,0313,0337,0337,0337,0342,0336,0336,0336,0311,0336,0332,0337,0313,0337,0337,0337,0342,0336,0336,0336,0311,0336,0332,0337,0313,0337,0337,0337,0334,0311,0336,0331,0311,0337,0313,0336,0336,0336,0333,0337,0337,0337,0311,0336,0342,0337,0313,0336,0336,0336,0333,0337,0337,0337,0311,0336,0342,0337,0313,0336,0336,0336,0333,0337,0337,0337,0311,0336,0342,0337,0313,0336,0336,0336,0333,0337,0337,0337,0311,0336,0342,0337,0313,0336,0336,0336,0333,0337,0337,0337,0311,0336,0342,0337,0313,0336,0336,0336,0333,0337,0337,0337,0311,0336,0342,0337,0313,0336,0336,0336,0333,0337,0337,0337,0311,0336,0342,0337,0313,0336,0336,0336,0333,0334,0334,0313,0304,0337,0337,0337,0331,",
        "0225:0332,0224,0333,0333,0224,0331,0332,0332,0332,0336,0330,0336,0330,0336,0337,0101,0143,0164,0151,0157,0156,040,0365,0333,0333,0333,0333,0333,0333,0333,0333,0123,0171,0155,0142,0157,0154,0365,0330,0337,0337,",
        "0226:0333,0200,0332,0221,0221,0221,0221,0221,0221,0221,0336,0336,0336,0333,0337,0337,0337,0334,0221,0221,0221,0221,0221,0221,0221,0335,0331,0336,0336,0336,0330,0337,0337,0337,",
        "0227:0224,0370,0332,0336,0336,0336,0331,0336,0336,0330,0333,0322,0337,060,0365,0333,0333,061,0365,0333,0333,062,0365,0333,0333,063,0365,0333,0333,064,0365,0333,0333,065,0365,0333,0333,066,0365,0333,0333,067,0365,0325,0333,0333,0330,0336,0331,0337,0311,0336,0306,060,0337,0365,0336,0333,0333,061,0337,0365,0336,0333,0333,062,0337,0365,0336,0333,0333,063,0337,0365,0336,0333,0333,064,0337,0365,0336,0333,0333,065,0337,0365,0336,0333,0333,066,0337,0365,0336,0333,0333,067,0337,0365,0336,0335,0337,0331,0331,0331,0331,0331,0331,0331,0331,0331,0334,0371,0326,0332,0336,0336,0336,0336,0336,0330,0332,0332,0337,060,0365,0330,0330,061,0365,0330,0330,062,0365,0330,0330,063,0365,0330,0330,064,0365,0330,0330,065,0365,0330,0330,066,0365,0330,0330,067,0365,0371,0320,0336,0331,0332,0336,0330,0332,0336,0331,0337,060,0365,0336,0336,0333,0333,0333,0337,0337,0172,0326,0365,0336,0336,0333,0333,0333,0337,0337,0171,0325,0365,0336,0336,0333,0333,0333,0337,0337,0170,0322,0365,0371,0320,",
        "0230:0336,0336,0336,060,062,060,060,072,060,063,066,062,054,060,062,060,063,054,060,063,063,064,054,060,062,060,063,054,060,063,063,064,054,060,062,060,063,054,060,063,060,064,054,060,062,060,063,054,060,063,063,064,054,060,063,065,064,054,0365,0337,0337,0337,",
        "0231:0336,0336,0336,0331,1300,0333,0333,0333,1304,1305,1306,0331,0332,0332,0332,0332,0332,0332,0332,1310,1311,1312,1313,1314,1316,0333,0331,0332,0332,0332,0332,0332,0332,0332,1320,1321,1322,1323,1324,1325,1326,1327,0331,0332,0332,0332,0332,0332,0332,0332,0332,1330,1331,1332,1333,1334,1335,1336,1337,0330,0330,0201,0201,0334,0201,0201,0201,0201,0201,0201,0201,0201,0335,0333,0333,0333,0333,0333,0333,0331,0333,0333,0331,0331,0331,0337,0337,0332,0332,0337,",
        "0232:0336,0336,0336,0331,01340,01341,01342,01343,01344,01345,01346,01347,0331,0332,0332,0332,0332,0332,0332,0332,0332,01350,01351,01352,01353,01354,01355,01356,01357,0331,0332,0332,0332,0332,0332,01360,01361,01362,01363,01364,01365,01366,01367,0331,0332,0332,0332,0332,0332,0332,0332,0332,01370,01371,01372,01373,01374,01375,01376,01377,0337,0337,0337,0332,",
        "0233:0231,0232,",
        "0234:0331,226,0336,0331,0337,0332,0226,0330,0332,0336,0330,0336,0336,0331,0336,0336,0330,0333,0337,0333,0333,041,0365,0333,0333,042,0365,0333,0333,043,0365,0333,0333,044,0365,0333,0333,045,0365,0333,0333,046,0365,0333,0333,047,0365,0331,0331,0337,0337,0337,0332,0332,0336,0336,0333,0336,050,0365,0333,0333,051,0365,0333,0333,052,0365,0333,0333,053,0365,0333,0333,054,0365,0333,0333,055,0365,0333,0333,056,0365,0333,0333,057,0365,0331,0331,0337,0337,0337,0337,0332,0336,0336,0336,0333,0336,060,0365,0333,0333,061,0365,0333,0333,062,0365,0333,0333,063,0365,0333,0333,064,0365,0333,0333,065,0365,0333,0333,066,0365,0333,0333,067,0365,0331,0331,0337,0337,0337,0337,0332,0336,0336,0336,0333,0336,070,0365,0333,0333,071,0365,0333,0333,072,0365,0333,0333,073,0365,0333,0333,074,0365,0333,0333,075,0365,0333,0333,076,0365,0333,0333,077,0365,0337,0337,0337,0337,0332,0336,0330,0336,0336,0333,0336,0336,0331,0332,0337,0337,0337,0337,0337,",
        "0235:0234,0336,0331,0336,0331,0336,0330,0336,0336,0330,0333,0337,0100,0365,0333,0333,0101,0365,0333,0333,0102,0365,0333,0333,0103,0365,0333,0333,0104,0365,0333,0333,0105,0365,0333,0333,0106,0365,0333,0333,0107,0365,0331,0331,0332,0332,0332,0332,0332,0332,0332,0332,0332,0332,0332,0332,0332,0332,0110,0365,0333,0333,0111,0365,0333,0333,0112,0365,0333,0333,0113,0365,0333,0333,0114,0365,0333,0333,0115,0365,0333,0333,0116,0365,0333,0333,0117,0365,0331,0331,0337,0337,0337,0332,0336,0336,0332,0332,0332,0336,0120,0365,0333,0333,0121,0365,0333,0333,0122,0365,0333,0333,0123,0365,0333,0333,0124,0365,0333,0333,0125,0365,0333,0333,0126,0365,0333,0333,0127,0365,0331,0331,0337,0337,0337,0332,0336,0332,0336,0332,0336,0130,0365,0333,0333,0131,0365,0333,0333,0132,0365,0333,0333,0133,0365,0333,0333,0134,0365,0333,0333,0135,0365,0333,0333,0136,0365,0333,0333,0137,0365,0336,0332,0331,0337,0337,0333,0337,0337,0330,0332,0332,0330,0337,",
        "0236:0235,0331,0336,0336,0336,0331,0336,0336,0330,0333,0337,0140,0365,0333,0333,0141,0365,0333,0333,0142,0365,0333,0333,0143,0365,0333,0333,0144,0365,0333,0333,0145,0365,0333,0333,0146,0365,0333,0333,0147,0365,0331,0331,0337,0337,0337,0337,0332,0336,0336,0336,0333,0336,0150,0365,0333,0333,0151,0365,0333,0333,0152,0365,0333,0333,0153,0365,0333,0333,0154,0365,0333,0333,0155,0365,0333,0333,0156,0365,0333,0333,0157,0365,0331,0331,0337,0337,0337,0337,0332,0336,0336,0336,0333,0336,0160,0365,0333,0333,0161,0365,0333,0333,0162,0365,0333,0333,0163,0365,0333,0333,0164,0365,0333,0333,0165,0365,0333,0333,0166,0365,0333,0333,0167,0365,0337,0337,0337,0337,0332,0336,0336,0336,0333,0331,0336,0170,0365,0333,0333,0171,0365,0333,0333,0172,0365,0333,0333,0173,0365,0333,0333,0174,0365,0333,0333,0175,0365,0333,0333,0176,0365,0333,0333,0365,0336,0331,0332,0337,0337,0333,0337,0337,0337,0330,0336,0332,0332,0330,0337,",
        "0237:0336,0336,0336,0333,0331,0200,0333,0200,0333,0200,0333,0200,0333,0200,0333,0200,0333,0200,0333,0200,0331,0332,0332,0332,0332,0332,0332,0332,0332,01010,0333,0200,0333,0200,0333,0200,0333,0200,0333,0200,0333,0200,0333,0200,0331,0332,0332,0332,0332,0332,0332,0332,0332,01020,01021,01022,01023,01024,01025,01026,01027,0331,0332,0332,0332,0332,0332,0332,0332,0332,01030,01031,01032,01033,01034,01035,01036,01037,0332,0332,0332,0200,0333,0200,0330,0330,0330,0330,0332,0332,0332,0332,0332,0332,0337,0337,0337,",
        "0240:0236,0336,0336,0336,0336,0336,0330,0333,0337,060,0365,0333,0333,061,0365,0333,0333,062,0365,0333,0333,063,0365,0333,0333,064,0365,0333,0333,065,0365,0333,0333,066,0365,0333,0333,067,0365,0337,0337,0337,0337,0332,0336,0336,0336,0336,0331,0331,0332,0336,0332,0337,060,064,0170,0365,0331,0331,060,065,0170,0365,0331,0331,060,066,0170,0365,0331,0331,060,067,0170,0365,0331,0331,060,061,060,0170,0365,0331,0331,060,061,061,0170,0365,0331,0331,060,061,062,0170,0365,0331,0331,060,061,063,0170,0365,0331,0331,060,061,064,0170,0365,0331,0331,060,061,065,0170,0365,0331,0331,060,061,066,0170,0365,0331,0331,060,061,067,0170,0365,0337,0337,0337,0337,0330,0336,0330,0336,0333,0336,0336,0331,0332,0336,0330,0337,0337,0337,0337,0337,",
        "0241:0336,0336,0336,0331,1304,1305,1306,1350,1351,1352,1353,1310,1311,1312,1313,1314,1316,0331,0332,0332,0332,0332,0332,0332,0332,0332,0332,0332,0332,0332,0336,0333,0337,1362,1203,1363,1360,1366,1367,1361,1345,1346,1347,1365,1204,1201,0331,0332,0332,0332,0332,0332,0332,0332,0332,0332,0332,0332,0332,0332,0336,0333,0337,1330,1331,1332,1333,1334,1335,1336,1337,0331,0332,0332,0332,0332,0332,0332,0332,0336,0332,0337,1340,1341,1342,1343,1200,01030,01031,01032,01033,01020,0330,0332,0332,0336,0332,0337,01036,01037,01021,0330,0330,0330,0332,0332,0332,0332,0332,0332,0332,0332,0332,0332,0332,0332,0332,0337,0337,0337,",
        "0242:0333,",
        "0243:0333,",
        "0244:0333,",
        "0245:0333,",
        "0246:0333,",
        "0247:0333,",
        "0250:0241,",
        "01220:0333,0200,0336,0332,0220,0333,0337,",
        "01221:0333,0200,0332,0221,0221,0221,0221,0221,0221,0221,0336,0336,0336,0333,0337,0337,0337,",
        "01222:0333,0200,0336,0332,0337,0222,0336,0333,0337,0331,0330,",
        "01223:0333,0200,0336,0332,0337,0223,0336,0333,0337,0331,",
        "01224:0333,0200,0336,0336,0332,0337,0337,0210,0210,0224,0211,0211,0336,0336,0333,0337,0337,",
        "01225:0333,0200,0336,0330,0332,0336,0332,0336,0333,0337,0200,0333,0333,0200,0331,0334,0336,0333,0337,0342,0330,0330,0342,0335,0333,0333,0331,0336,0333,0331,0337,0337,0337,",
        "01226:0226,",
        "01227:0333,0200,0336,0336,0336,0330,0332,0332,0330,0337,0337,0337,0210,0210,0210,0210,0227,0211,0211,0211,0211,0336,0336,0333,0331,0337,0337,",
        "01230:0333,0200,0336,0330,0332,0336,0332,0332,0336,0333,0337,060,062,060,060,072,0365,0336,0332,0337,0337,0333,0331,0333,0337,",
        "01231:0333,0200,0332,0336,0330,0330,0337,0231,0333,0336,0331,0337,",
        "01232:0333,0200,0336,0330,0332,0332,0337,0232,0333,",
        "01233:0333,0200,0330,0332,0233,0333,",
        "01234:0330,0234,0333,0331,",
        "01235:0333,0200,0330,0332,0235,0331,0333,",
        "01236:0333,0200,0330,0332,0236,0333,0331,",
        "01237:0333,0200,0330,0332,0237,0333,0331,",
        "01240:0333,0200,0330,0332,0240,0333,0331,",
        "01241:0333,0200,0330,0332,0241,0331,0333,",
        "01242:0333,0200,",
        "01243:0333,0200,",
        "01244:0333,0200,",
        "01245:0333,0200,",
        "01246:0333,0200,",
        "01247:0333,0200,"
    ],
    "imgurl": "",
    "imgx": 0,
    "imgy": 0,
    "imgw": 278,
    "angle": 7.853981633974483,
    "styleJSON": {
        "color0": "black",
        "fill0": "black",
        "line0": 1,
        "color1": "black",
        "fill1": "black",
        "line1": 3,
        "color2": "red",
        "fill2": "red",
        "line2": 1,
        "color3": "#FF7900",
        "fill3": "#FF7900",
        "line3": 1,
        "color4": "yellow",
        "fill4": "yellow",
        "line4": 1,
        "color5": "green",
        "fill5": "green",
        "line5": 1,
        "color6": "blue",
        "fill6": "blue",
        "line6": 1,
        "color7": "purple",
        "fill7": "purple",
        "line7": 1
    }
}
</json>
-->
	<path d = "M33 64 L33 36 L5 36 L4 64 L33 64 Z" stroke = "black" stroke-width = "1" fill = "none" />    <circle cx="19" cy = "50" r = "14.3125" stroke = "black" stroke-width = "1" fill = "none" />
    <line x1="19" y1="50" x2="19" y2="35" style="stroke:black;stroke-width:1" />
    <line x1="19" y1="50" x2="33" y2="50" style="stroke:black;stroke-width:1" />
    <line x1="19" y1="50" x2="19" y2="64" style="stroke:black;stroke-width:1" />
    <line x1="19" y1="50" x2="5" y2="50" style="stroke:black;stroke-width:1" />
    <circle cx="14" cy = "45" r = "3.578125" stroke = "black" stroke-width = "1" fill = "none" />
    <circle cx="24" cy = "45" r = "3.578125" stroke = "black" stroke-width = "1" fill = "none" />
    <circle cx="24" cy = "55" r = "3.578125" stroke = "black" stroke-width = "1" fill = "none" />
    <circle cx="14" cy = "55" r = "3.578125" stroke = "black" stroke-width = "1" fill = "none" />
	<path d = "M62 64 L62 36 L33 36 L33 64 L62 64 Z" stroke = "black" stroke-width = "1" fill = "none" />    <line x1="47" y1="50" x2="47" y2="36" style="stroke:black;stroke-width:1" />
    <line x1="47" y1="50" x2="61" y2="45" style="stroke:black;stroke-width:1" />
    <line x1="47" y1="50" x2="56" y2="61" style="stroke:black;stroke-width:1" />
    <line x1="47" y1="50" x2="39" y2="61" style="stroke:black;stroke-width:1" />
    <line x1="47" y1="50" x2="34" y2="45" style="stroke:black;stroke-width:1" />
    <circle cx="47" cy = "50" r = "14.3125" stroke = "black" stroke-width = "1" fill = "none" />
    <circle cx="52" cy = "44" r = "1.7890625" stroke = "black" stroke-width = "1" fill = "none" />
    <circle cx="54" cy = "52" r = "1.7890625" stroke = "black" stroke-width = "1" fill = "none" />
    <circle cx="47" cy = "57" r = "1.7890625" stroke = "black" stroke-width = "1" fill = "none" />
    <circle cx="41" cy = "52" r = "1.7890625" stroke = "black" stroke-width = "1" fill = "none" />
    <circle cx="43" cy = "44" r = "1.7890625" stroke = "black" stroke-width = "1" fill = "none" />
	<path d = "M90 64 L90 35 L62 35 L62 64 L90 64 Z" stroke = "black" stroke-width = "1" fill = "none" />    <line x1="76" y1="50" x2="76" y2="36" style="stroke:black;stroke-width:1" />
    <line x1="76" y1="50" x2="88" y2="43" style="stroke:black;stroke-width:1" />
    <line x1="76" y1="50" x2="88" y2="57" style="stroke:black;stroke-width:1" />
    <line x1="76" y1="50" x2="76" y2="64" style="stroke:black;stroke-width:1" />
    <line x1="76" y1="50" x2="64" y2="57" style="stroke:black;stroke-width:1" />
    <circle cx="76" cy = "50" r = "14.3125" stroke = "black" stroke-width = "1" fill = "none" />
    <circle cx="72" cy = "44" r = "1.7890625" stroke = "black" stroke-width = "1" fill = "none" />
    <circle cx="80" cy = "44" r = "1.7890625" stroke = "black" stroke-width = "1" fill = "none" />
    <circle cx="83" cy = "50" r = "1.7890625" stroke = "black" stroke-width = "1" fill = "none" />
    <circle cx="80" cy = "56" r = "1.7890625" stroke = "black" stroke-width = "1" fill = "none" />
    <circle cx="72" cy = "56" r = "1.7890625" stroke = "black" stroke-width = "1" fill = "none" />
    <line x1="76" y1="50" x2="64" y2="43" style="stroke:black;stroke-width:1" />
    <circle cx="69" cy = "50" r = "1.7890625" stroke = "black" stroke-width = "1" fill = "none" />
	<path d = "M119 64 L119 35 L90 36 L90 64 L119 64 Z" stroke = "black" stroke-width = "1" fill = "none" />	<path d = "M115 40 L105 50 L115 60 " stroke = "black" stroke-width = "1" fill = "none" />    <line x1="105" y1="50" x2="108" y2="50" style="stroke:black;stroke-width:1" />
    <line x1="112" y1="50" x2="115" y2="50" style="stroke:black;stroke-width:1" />
	<path d = "M148 64 L148 35 L119 35 L119 64 L148 64 Z" stroke = "black" stroke-width = "1" fill = "none" />	<path d = "M143 60 L133 50 L136 47 " stroke = "black" stroke-width = "1" fill = "none" />    <line x1="138" y1="45" x2="141" y2="42" style="stroke:black;stroke-width:1" />
    <line x1="143" y1="40" x2="146" y2="37" style="stroke:black;stroke-width:1" />
    <line x1="133" y1="50" x2="148" y2="50" style="stroke:black;stroke-width:1" />
	<path d = "M176 64 L176 35 L148 35 L148 64 L176 64 Z" stroke = "black" stroke-width = "1" fill = "none" />    <line x1="162" y1="50" x2="172" y2="40" style="stroke:black;stroke-width:1" />
    <line x1="162" y1="50" x2="165" y2="49" style="stroke:black;stroke-width:1" />
    <line x1="169" y1="48" x2="172" y2="47" style="stroke:black;stroke-width:1" />
    <line x1="162" y1="50" x2="165" y2="51" style="stroke:black;stroke-width:1" />
    <line x1="169" y1="52" x2="172" y2="53" style="stroke:black;stroke-width:1" />
    <line x1="162" y1="50" x2="172" y2="60" style="stroke:black;stroke-width:1" />
	<path d = "M205 64 L205 35 L176 35 L176 64 L205 64 Z" stroke = "black" stroke-width = "1" fill = "none" />    <line x1="191" y1="50" x2="204" y2="46" style="stroke:black;stroke-width:1" />
    <line x1="191" y1="50" x2="204" y2="54" style="stroke:black;stroke-width:1" />
    <line x1="191" y1="50" x2="193" y2="52" style="stroke:black;stroke-width:1" />
    <line x1="196" y1="55" x2="198" y2="57" style="stroke:black;stroke-width:1" />
    <line x1="191" y1="50" x2="193" y2="47" style="stroke:black;stroke-width:1" />
    <line x1="196" y1="45" x2="198" y2="42" style="stroke:black;stroke-width:1" />
	<path d = "M234 64 L234 35 L205 35 L205 64 L234 64 Z" stroke = "black" stroke-width = "1" fill = "none" />    <line x1="219" y1="64" x2="234" y2="50" style="stroke:black;stroke-width:1" />
    <line x1="234" y1="50" x2="219" y2="35" style="stroke:black;stroke-width:1" />
    <line x1="219" y1="35" x2="205" y2="50" style="stroke:black;stroke-width:1" />
    <line x1="205" y1="50" x2="219" y2="64" style="stroke:black;stroke-width:1" />
	<path d = "M262 64 L262 35 L233 35 L234 64 L262 64 Z" stroke = "black" stroke-width = "1" fill = "none" />	<path d = "M262 64 L248 20 L234 64 L262 64 Z" stroke = "black" stroke-width = "1" fill = "none" />    <line x1="262" y1="64" x2="239" y2="47" style="stroke:black;stroke-width:1" />
    <line x1="239" y1="47" x2="253" y2="37" style="stroke:black;stroke-width:1" />
    <line x1="253" y1="37" x2="244" y2="30" style="stroke:black;stroke-width:1" />
	<path d = "M291 64 L291 35 L262 35 L262 64 L291 64 Z" stroke = "black" stroke-width = "1" fill = "none" />	<path d = "M291 64 L276 39 L262 64 " stroke = "black" stroke-width = "1" fill = "none" />    <line x1="276" y1="56" x2="276" y2="39" style="stroke:black;stroke-width:1" />
    <line x1="276" y1="56" x2="291" y2="64" style="stroke:black;stroke-width:1" />
    <line x1="276" y1="56" x2="262" y2="64" style="stroke:black;stroke-width:1" />
	<path d = "M319 64 L319 35 L291 35 L291 64 L319 64 Z" stroke = "black" stroke-width = "1" fill = "none" />	<path d = "M312 57 L312 50 L305 50 L298 50 L298 57 L305 57 L312 57 Z" stroke = "black" stroke-width = "1" fill = "none" />    <line x1="305" y1="57" x2="305" y2="50" style="stroke:black;stroke-width:1" />
	<path d = "M348 64 L348 35 L319 35 L319 64 L348 64 Z" stroke = "black" stroke-width = "1" fill = "none" />	<path d = "M329 55 L329 45 L319 45 L319 55 L329 55 Z" stroke = "black" stroke-width = "1" fill = "none" />	<path d = "M338 55 L338 45 L329 45 L329 55 L338 55 Z" stroke = "black" stroke-width = "1" fill = "none" />	<path d = "M348 55 L348 45 L338 45 L338 55 L348 55 Z" stroke = "black" stroke-width = "1" fill = "none" />	<path d = "M377 64 L377 35 L348 35 L348 64 L377 64 Z" stroke = "black" stroke-width = "1" fill = "none" />    <circle cx="355" cy = "57" r = "3.5781249999999982" stroke = "black" stroke-width = "1" fill = "none" />
    <circle cx="355" cy = "43" r = "3.5781249999999982" stroke = "black" stroke-width = "1" fill = "none" />
    <circle cx="362" cy = "50" r = "3.5781249999999982" stroke = "black" stroke-width = "1" fill = "none" />
    <circle cx="369" cy = "43" r = "3.5781249999999982" stroke = "black" stroke-width = "1" fill = "none" />
    <circle cx="369" cy = "57" r = "3.5781249999999982" stroke = "black" stroke-width = "1" fill = "none" />
	<path d = "M76 93 L76 64 L47 64 L47 93 L76 93 Z" stroke = "black" stroke-width = "1" fill = "none" /><circle cx="55" cy = "86" r = "1" stroke = "black" stroke-width = "1" fill = "black" />
	<path d = "M55 86 L55 71 L69 71 " stroke = "black" stroke-width = "1" fill = "none" />	<path d = "M64 66 L69 71 L64 76 " stroke = "black" stroke-width = "1" fill = "none" />    <line x1="76" y1="93" x2="81" y2="88" style="stroke:black;stroke-width:1" />
    <line x1="83" y1="93" x2="88" y2="88" style="stroke:black;stroke-width:1" />
    <line x1="90" y1="93" x2="95" y2="88" style="stroke:black;stroke-width:1" />
    <line x1="98" y1="93" x2="103" y2="88" style="stroke:black;stroke-width:1" />
	<path d = "M105 93 L105 64 L76 64 L76 93 L105 93 Z" stroke = "black" stroke-width = "1" fill = "none" />    <line x1="83" y1="78" x2="98" y2="78" style="stroke:black;stroke-width:1" />
    <line x1="98" y1="78" x2="95" y2="81" style="stroke:black;stroke-width:1" />
    <line x1="98" y1="78" x2="95" y2="76" style="stroke:black;stroke-width:1" />
    <line x1="105" y1="93" x2="110" y2="88" style="stroke:black;stroke-width:1" />
    <line x1="112" y1="93" x2="117" y2="88" style="stroke:black;stroke-width:1" />
    <line x1="119" y1="93" x2="124" y2="88" style="stroke:black;stroke-width:1" />
    <line x1="126" y1="93" x2="131" y2="88" style="stroke:black;stroke-width:1" />
	<path d = "M133 93 L133 64 L105 64 L105 93 L133 93 Z" stroke = "black" stroke-width = "1" fill = "none" />	<path d = "M112 71 L126 71 L126 86 " stroke = "black" stroke-width = "1" fill = "none" />	<path d = "M121 81 L126 86 L131 81 " stroke = "black" stroke-width = "1" fill = "none" /><circle cx="126" cy = "86" r = "1" stroke = "black" stroke-width = "1" fill = "black" />
	<path d = "M162 93 L162 64 L133 64 L133 93 L162 93 Z" stroke = "black" stroke-width = "1" fill = "none" />    <line x1="140" y1="86" x2="155" y2="86" style="stroke:black;stroke-width:1" />
<circle cx="140" cy = "86" r = "1" stroke = "black" stroke-width = "1" fill = "black" />
<path    d = "M140,86 C155,86 140,71 155,71" fill = "none" stroke-width = "1" stroke = "black" />    <line x1="133" y1="93" x2="138" y2="88" style="stroke:black;stroke-width:1" />
    <line x1="140" y1="93" x2="146" y2="88" style="stroke:black;stroke-width:1" />
    <line x1="148" y1="93" x2="153" y2="88" style="stroke:black;stroke-width:1" />
    <line x1="155" y1="93" x2="160" y2="88" style="stroke:black;stroke-width:1" />
	<path d = "M191 93 L191 64 L162 64 L162 93 L191 93 Z" stroke = "black" stroke-width = "1" fill = "none" />    <line x1="169" y1="86" x2="183" y2="86" style="stroke:black;stroke-width:1" />
<circle cx="169" cy = "86" r = "1" stroke = "black" stroke-width = "1" fill = "black" />
<path    d = "M169,86 C183,86 169,71 183,71" fill = "none" stroke-width = "1" stroke = "black" />	<path d = "M219 93 L219 64 L191 64 L191 93 L219 93 Z" stroke = "black" stroke-width = "1" fill = "none" /><path    d = "M198,86 C212,86 198,71 212,71" fill = "none" stroke-width = "1" stroke = "black" /><circle cx="212" cy = "71" r = "1" stroke = "black" stroke-width = "1" fill = "black" />
    <line x1="212" y1="71" x2="198" y2="71" style="stroke:black;stroke-width:1" />
	<path d = "M248 93 L248 64 L219 64 L219 93 L248 93 Z" stroke = "black" stroke-width = "1" fill = "none" /><path    d = "M226,86 C241,86 226,71 241,71" fill = "none" stroke-width = "1" stroke = "black" /><circle cx="241" cy = "71" r = "1" stroke = "black" stroke-width = "1" fill = "black" />
    <line x1="241" y1="71" x2="226" y2="71" style="stroke:black;stroke-width:1" />
    <line x1="219" y1="93" x2="224" y2="88" style="stroke:black;stroke-width:1" />
    <line x1="226" y1="93" x2="231" y2="88" style="stroke:black;stroke-width:1" />
    <line x1="234" y1="93" x2="239" y2="88" style="stroke:black;stroke-width:1" />
    <line x1="241" y1="93" x2="246" y2="88" style="stroke:black;stroke-width:1" />
    <line x1="248" y1="93" x2="253" y2="88" style="stroke:black;stroke-width:1" />
    <line x1="255" y1="93" x2="260" y2="88" style="stroke:black;stroke-width:1" />
    <line x1="262" y1="93" x2="267" y2="88" style="stroke:black;stroke-width:1" />
    <line x1="269" y1="93" x2="274" y2="88" style="stroke:black;stroke-width:1" />
	<path d = "M276 93 L276 64 L248 64 L248 93 L276 93 Z" stroke = "black" stroke-width = "1" fill = "none" />  <path d="M247.812500000002 92.74999999999528           A28.624999999999986 28.624999999999986 0 0 1 276.4375000000014 64.12499999999487" fill = "none" stroke = "black" stroke-width = "1" />
    <line x1="276" y1="93" x2="281" y2="88" style="stroke:black;stroke-width:1" />
    <line x1="284" y1="93" x2="289" y2="88" style="stroke:black;stroke-width:1" />
    <line x1="291" y1="93" x2="296" y2="88" style="stroke:black;stroke-width:1" />
    <line x1="298" y1="93" x2="303" y2="88" style="stroke:black;stroke-width:1" />
	<path d = "M305 93 L305 64 L276 64 L276 93 L305 93 Z" stroke = "black" stroke-width = "1" fill = "none" />  <path d="M276.43750000000176 64.12499999999424           A28.624999999999986 28.624999999999986 0 0 1 305.0625000000017 92.74999999999412" fill = "none" stroke = "black" stroke-width = "1" />
	<path d = "M334 93 L334 64 L305 64 L305 93 L334 93 Z" stroke = "black" stroke-width = "1" fill = "none" />    <circle cx="319" cy = "78" r = "7.1562499999999964" stroke = "black" stroke-width = "1" fill = "black" />
	<path d = "M362 93 L362 64 L334 64 L334 93 L362 93 Z" stroke = "black" stroke-width = "1" fill = "none" />	<path d = "M337 75 L343 84 L348 75 L353 84 L359 75 " stroke = "black" stroke-width = "1" fill = "none" />    <line x1="362" y1="93" x2="367" y2="88" style="stroke:black;stroke-width:1" />
    <line x1="369" y1="93" x2="375" y2="88" style="stroke:black;stroke-width:1" />
    <line x1="377" y1="93" x2="382" y2="88" style="stroke:black;stroke-width:1" />
    <line x1="384" y1="93" x2="389" y2="88" style="stroke:black;stroke-width:1" />
	<path d = "M391 93 L391 64 L362 64 L362 93 L391 93 Z" stroke = "black" stroke-width = "1" fill = "none" />	<path d = "M384 86 L384 71 L369 71 L369 86 L384 86 Z" stroke = "black" stroke-width = "1" fill = "none" />	<path d = "M420 93 L420 64 L391 64 L391 93 L420 93 Z" stroke = "black" stroke-width = "1" fill = "none" />    <line x1="398" y1="78" x2="412" y2="78" style="stroke:black;stroke-width:1" />
    <line x1="412" y1="78" x2="410" y2="81" style="stroke:black;stroke-width:1" />
    <line x1="412" y1="78" x2="410" y2="76" style="stroke:black;stroke-width:1" />
	<path d = "M90 121 L90 93 L62 93 L62 121 L90 121 Z" stroke = "black" stroke-width = "1" fill = "none" />	<path d = "M80 114 L72 114 L72 107 L69 107 L72 103 L76 100 L80 103 L83 107 L80 107 L80 114 Z" stroke = "black" stroke-width = "1" fill = "none" />	<path d = "M119 121 L119 93 L90 93 L90 121 L119 121 Z" stroke = "black" stroke-width = "1" fill = "none" />	<path d = "M101 100 L108 100 L108 107 L112 107 L108 111 L105 114 L101 111 L98 107 L101 107 L101 100 Z" stroke = "black" stroke-width = "1" fill = "none" />	<path d = "M148 121 L148 93 L119 93 L119 121 L148 121 Z" stroke = "black" stroke-width = "1" fill = "none" />	<path d = "M140 103 L140 111 L133 111 L133 114 L130 111 L126 107 L130 103 L133 100 L133 103 L140 103 Z" stroke = "black" stroke-width = "1" fill = "none" />	<path d = "M176 121 L176 93 L148 93 L148 121 L176 121 Z" stroke = "black" stroke-width = "1" fill = "none" />	<path d = "M155 111 L155 103 L162 103 L162 100 L166 103 L169 107 L166 111 L162 114 L162 111 L155 111 Z" stroke = "black" stroke-width = "1" fill = "none" />	<path d = "M205 121 L205 93 L176 93 L176 121 L205 121 Z" stroke = "black" stroke-width = "1" fill = "none" />  <path d="M185.50226709713283 102.00226709710428           A7.156250000000003 7.156250000000003 0 0 1 195.62273290286527 102.00226709710479" fill = "none" stroke = "black" stroke-width = "1" />
  <path d="M185.50226709713223 112.12273290283672           A7.156250000000003 7.156250000000003 0 0 1 185.50226709713283 102.00226709710428" fill = "none" stroke = "black" stroke-width = "1" />
  <path d="M195.62273290286467 112.12273290283734           A7.156250000000003 7.156250000000003 0 0 1 185.50226709713223 112.12273290283672" fill = "none" stroke = "black" stroke-width = "1" />
	<path d = "M193 119 L196 112 L189 109 " stroke = "black" stroke-width = "1" fill = "none" />	<path d = "M233 121 L233 93 L205 93 L205 121 L233 121 Z" stroke = "black" stroke-width = "1" fill = "none" />  <path d="M224.24773290286456 112.12273290283852           A7.156250000000003 7.156250000000003 0 0 1 214.12726709713212 112.1227329028379" fill = "none" stroke = "black" stroke-width = "1" />
  <path d="M214.12726709713212 112.1227329028379           A7.156250000000003 7.156250000000003 0 0 1 214.12726709713272 102.00226709710546" fill = "none" stroke = "black" stroke-width = "1" />
  <path d="M214.12726709713272 102.00226709710546           A7.156250000000003 7.156250000000003 0 0 1 224.24773290286515 102.00226709710597" fill = "none" stroke = "black" stroke-width = "1" />
	<path d = "M218 105 L224 102 L222 95 " stroke = "black" stroke-width = "1" fill = "none" />	<path d = "M262 121 L262 93 L233 93 L233 121 L262 121 Z" stroke = "black" stroke-width = "1" fill = "none" />    <line x1="255" y1="107" x2="241" y2="107" style="stroke:black;stroke-width:1" />
	<path d = "M291 121 L291 93 L262 93 L262 121 L291 121 Z" stroke = "black" stroke-width = "1" fill = "none" />    <line x1="276" y1="107" x2="276" y2="100" style="stroke:black;stroke-width:1" />
    <line x1="276" y1="107" x2="269" y2="107" style="stroke:black;stroke-width:1" />
    <line x1="276" y1="107" x2="276" y2="114" style="stroke:black;stroke-width:1" />
    <line x1="276" y1="107" x2="284" y2="107" style="stroke:black;stroke-width:1" />
	<path d = "M105 150 L105 121 L76 121 L76 150 L105 150 Z" stroke = "black" stroke-width = "1" fill = "none" /><circle cx="90" cy = "136" r = "1" stroke = "black" stroke-width = "1" fill = "black" />
	<path d = "M133 150 L133 121 L105 121 L105 150 L133 150 Z" stroke = "black" stroke-width = "1" fill = "none" />    <circle cx="119" cy = "136" r = "14.312500000000005" stroke = "black" stroke-width = "1" fill = "none" />
<circle cx="119" cy = "136" r = "1" stroke = "black" stroke-width = "1" fill = "black" />
	<path d = "M162 150 L162 121 L133 121 L133 150 L162 150 Z" stroke = "black" stroke-width = "1" fill = "none" />    <line x1="148" y1="136" x2="140" y2="136" style="stroke:black;stroke-width:1" />
<circle cx="140" cy = "136" r = "1" stroke = "black" stroke-width = "1" fill = "black" />
    <line x1="148" y1="136" x2="155" y2="136" style="stroke:black;stroke-width:1" />
<circle cx="155" cy = "136" r = "1" stroke = "black" stroke-width = "1" fill = "black" />
	<path d = "M191 150 L191 121 L162 121 L162 150 L191 150 Z" stroke = "black" stroke-width = "1" fill = "none" />  <path d="M166.1295341942652 125.56703419423025           A14.312500000000005 14.312500000000005 0 0 1 186.37046580573008 125.56703419423434" fill = "none" stroke = "black" stroke-width = "1" />
    <line x1="176" y1="136" x2="186" y2="126" style="stroke:black;stroke-width:1" />
    <line x1="176" y1="136" x2="166" y2="126" style="stroke:black;stroke-width:1" />
<circle cx="176" cy = "136" r = "1" stroke = "black" stroke-width = "1" fill = "black" />
	<path d = "M219 150 L219 121 L191 121 L191 150 L219 150 Z" stroke = "black" stroke-width = "1" fill = "none" />	<path d = "M212 143 L212 129 L198 129 L198 143 L212 143 Z" stroke = "black" stroke-width = "1" fill = "none" />	<path d = "M248 150 L248 121 L219 121 L219 150 L248 150 Z" stroke = "black" stroke-width = "1" fill = "none" />	<path d = "M233 136 L226 136 L233 129 L241 136 L233 136 " stroke = "black" stroke-width = "1" fill = "none" />	<path d = "M276 150 L276 121 L248 121 L248 150 L276 150 Z" stroke = "black" stroke-width = "1" fill = "none" />	<path d = "M262 136 L269 136 L262 143 L255 136 L262 136 " stroke = "black" stroke-width = "1" fill = "none" />	<path d = "M305 150 L305 121 L276 121 L276 150 L305 150 Z" stroke = "black" stroke-width = "1" fill = "none" />	<path d = "M291 136 L291 143 L284 136 L291 129 L291 136 " stroke = "black" stroke-width = "1" fill = "none" />	<path d = "M334 150 L334 121 L305 121 L305 150 L334 150 Z" stroke = "black" stroke-width = "1" fill = "none" />	<path d = "M319 136 L319 129 L327 136 L319 143 L319 136 " stroke = "black" stroke-width = "1" fill = "none" />	<path d = "M362 150 L362 121 L334 121 L334 150 L362 150 Z" stroke = "black" stroke-width = "1" fill = "none" />	<path d = "M344 136 L344 129 L337 129 L337 136 L344 136 Z" stroke = "black" stroke-width = "1" fill = "none" />	<path d = "M359 136 L359 129 L352 129 L352 136 L359 136 Z" stroke = "black" stroke-width = "1" fill = "none" />    <line x1="344" y1="132" x2="352" y2="132" style="stroke:black;stroke-width:1" />
    <line x1="344" y1="132" x2="347" y2="135" style="stroke:black;stroke-width:1" />
    <line x1="344" y1="132" x2="347" y2="130" style="stroke:black;stroke-width:1" />
	<path d = "M319 121 L319 93 L291 93 L291 121 L319 121 Z" stroke = "black" stroke-width = "1" fill = "none" />	<path d = "M298 107 L298 100 L305 107 L298 114 L298 107 " stroke = "black" stroke-width = "1" fill = "none" />	<path d = "M305 107 L312 100 L312 107 L312 114 L305 107 " stroke = "black" stroke-width = "1" fill = "none" />	<path d = "M348 121 L348 93 L319 93 L319 121 L348 121 Z" stroke = "black" stroke-width = "1" fill = "none" />	<path d = "M327 107 L327 114 L319 107 L327 100 L327 107 " stroke = "black" stroke-width = "1" fill = "none" />	<path d = "M348 107 L341 114 L341 107 L341 100 L348 107 " stroke = "black" stroke-width = "1" fill = "none" />	<path d = "M377 121 L377 93 L348 93 L348 121 L377 121 Z" stroke = "black" stroke-width = "1" fill = "none" />	<path d = "M359 107 L359 100 L352 100 L352 107 L359 107 Z" stroke = "black" stroke-width = "1" fill = "none" />	<path d = "M373 107 L373 100 L366 100 L366 107 L373 107 Z" stroke = "black" stroke-width = "1" fill = "none" />    <line x1="359" y1="103" x2="366" y2="103" style="stroke:black;stroke-width:1" />
    <line x1="366" y1="103" x2="363" y2="106" style="stroke:black;stroke-width:1" />
    <line x1="366" y1="103" x2="363" y2="101" style="stroke:black;stroke-width:1" />
</svg>