<svg width="597" height="250" viewbox = "0 0 597 250"  xmlns="http://www.w3.org/2000/svg">

<!--
<json>
{
    "svgwidth": 597,
    "svgheight": 250,
    "unit": 72,
    "x0": 723,
    "y0": 403,
    "x0rel": 39,
    "y0rel": 4,
    "glyph": "0332,0332,0332,0226,0333,0333,0227,0333,0333,0230,0331,0332,0332,0332,0332,0335,0331,0331,0336,0330,0337,0337,0232,0232,",
    "table": [
        "0220:0336,0304,0350,0310,0362,0203,0335,0335,0335,0336,0203,0335,0335,0203,0363,0335,0335,0335,0304,0337,0333,0362,0203,0335,0350,0335,0336,0203,0335,0335,0203,0335,0335,0335,0337,0363,0304,0333,0362,0203,0335,0350,0335,0336,0203,0335,0335,0203,0363,0335,0335,0335,0337,0313,0304,0332,0332,0337,",
        "0221:0313,0304,0336,0324,0362,0203,0335,0203,0335,0350,0310,0335,0337,0203,0363,0335,0335,0335,0335,0320,0362,0203,0335,0336,0203,0335,0335,0335,0337,0203,0335,0336,0203,0363,0331,0335,0335,0335,0337,0324,0362,0203,0335,0335,0335,0336,0203,0335,0335,0203,0363,0335,0335,0335,0333,0334,0304,0313,0337,",
        "0222:0221,0221,0336,0362,0203,0335,0203,0335,0310,0350,0335,0337,0203,0363,0335,0335,0335,0335,0320,0362,0203,0335,0335,0335,0336,0203,0335,0335,0203,0363,0335,0335,0304,0333,0313,0337,0332,0332,0336,0332,0337,",
        "0223:0320,0304,0313,0220,0331,0336,0330,0337,0336,0222,0330,0330,0336,0330,0337,0222,0331,0331,0331,0333,0333,0333,0336,0336,0333,0337,0337,0337,0337,0321,0200,0336,0330,0332,0336,0331,0332,0336,0330,0336,0332,0337,0337,0337,",
        "0224:0304,0313,0336,0336,0334,0362,0203,0335,0203,0203,0334,0203,0335,0350,0310,0335,0337,0203,0203,0335,0335,0203,0203,0335,0335,0335,0336,0203,0304,0313,0334,0203,0203,0335,0203,0363,0335,0337,0337,0330,0313,0304,",
        "0225:0336,0332,0332,0223,0333,0333,0335,0224,0334,0331,0336,0330,0333,0337,0336,0330,0333,0337,0336,0330,0330,0332,0223,0337,0337,0331,0336,0336,0330,0223,0331,0331,0331,0331,0330,0223,0333,0331,0333,0337,0321,0337,0336,0331,0336,0330,0333,0337,0337,0362,0203,0203,0336,0203,0334,0203,0203,0203,0203,0203,0203,0334,0203,0203,0203,0203,0203,0334,0203,0203,0203,0203,0203,0203,0354,0334,0337,0337,",
        "0226:0304,0335,0306,0323,0362,0203,0334,0334,0203,0334,0334,0203,0363,0334,0334,0321,0362,0203,0334,0334,0203,0334,0334,0203,0354,0334,0334,0304,0334,0320,",
        "0227:0323,0333,0204,0321,0200,0332,0320,",
        "0230:0304,0323,0335,0305,0311,0362,0203,0350,0334,0334,0334,0337,0203,0334,0334,0334,0334,0203,0363,0334,0334,0334,0336,0321,0362,0203,0334,0334,0334,0337,0203,0334,0334,0334,0334,0203,0354,0334,0334,0334,0336,0304,0334,0313,0320,",
        "0231:0324,0336,0334,0336,0336,0336,0336,0362,0203,0335,0337,0337,0337,0337,0203,0335,0336,0336,0336,0203,0335,0337,0337,0337,0203,0335,0336,0336,0336,0336,0203,0363,0335,0337,0337,0337,0337,0330,0330,0337,",
        "0232:0336,0334,0336,0362,0203,0335,0337,0337,0203,0203,0335,0336,0203,0335,0203,0203,0203,0203,0335,0336,0203,0363,0335,0231,0231,0231,0231,0231,0231,0231,0231,0337,0337,0320,",
        "0233:0321,0350,0310,0362,0203,0203,0335,0335,0335,0337,0203,0203,0335,0335,0335,0336,0203,0203,0354,0335,0335,0335,0320,0337,0201,0334,0334,0334,0336,0201,0335,0335,0335,0336,0201,0334,0334,0334,0336,0201,0335,0335,0335,0336,0201,0334,0334,0334,0336,0201,0335,0335,0335,0336,0201,0331,0337,0333,0337,0331,0337,0333,0337,0331,0337,0333,0337,0331,0334,0336,0304,0313,",
        "0234:0320,0304,0313,0332,0332,0335,0321,0337,0362,0203,0334,0312,0336,0203,0306,0334,0334,0313,0337,0203,0354,0350,0335,0336,0312,0337,0331,0335,0335,0336,0313,0336,0312,0337,0320,0201,0334,0334,0334,0334,0335,0334,0201,0335,0335,0336,0335,0201,0334,0334,0334,0336,0201,0335,0335,0335,0336,0201,0331,0335,0335,0337,0333,0334,0334,0337,0331,0335,0335,0335,0337,0330,0334,0334,0331,0313,0337,0313,0334,0334,0336,0304,0304,0313,0335,",
        "0235:0332,0321,0337,0362,0203,0335,0311,0337,0203,0335,0336,0203,0335,0337,0203,0354,0335,0336,0333,0200,0350,0334,0343,0335,0330,0336,0331,0335,0343,0335,0342,0334,0335,0330,0336,0331,0335,0343,0335,0342,0330,0336,0331,0335,0343,0335,0342,0330,0336,0331,0335,0343,0335,0342,0330,0336,0331,0335,0343,0335,0342,0334,0334,0330,0337,0331,0335,0335,0331,0334,0334,0337,0331,0335,0335,0337,0337,0337,0331,0334,0334,0304,0313,0336,0333,0320,",
        "0236:0335,0331,0337,0321,0305,0362,0203,0335,0335,0203,0335,0335,0203,0335,0335,0203,0335,0335,0203,0354,0335,0350,0335,0311,0336,0362,0203,0335,0335,0203,0335,0335,0203,0335,0335,0203,0335,0335,0203,0354,0335,0335,0335,0337,0313,0336,0330,0304,0334,0320,",
        "0237:0330,0306,0335,0335,0321,0362,0203,0335,0203,0335,0203,0335,0203,0335,0203,0335,0203,0335,0354,0330,0335,0335,0350,0335,0312,0337,0362,0203,0334,0334,0334,0334,0203,0334,0334,0334,0334,0203,0354,0334,0336,0331,0334,0337,0362,0203,0334,0334,0334,0334,0203,0334,0334,0334,0334,0203,0354,0334,0336,0331,0334,0334,0330,0304,0313,0320,",
        "0240:0331,0321,0334,0336,0362,0203,0335,0337,0203,0203,0334,0336,0203,0335,0350,0310,0335,0337,0203,0203,0335,0335,0203,0203,0335,0335,0335,0336,0203,0313,0304,0334,0203,0203,0203,0203,0335,0203,0354,0335,0337,0330,0320,",
        "0241:0306,0362,0203,0335,0335,0203,0335,0335,0203,0363,0335,0335,0304,",
        "0242:0241,0333,0336,0333,0337,0241,0336,0333,0337,0333,0241,0333,0336,0333,0337,",
        "0243:0313,0304,0320,0350,0310,0335,0337,0362,0203,0335,0336,0203,0335,0335,0335,0337,0203,0335,0336,0203,0363,0335,0335,0324,0362,0203,0335,0335,0203,0335,0335,0335,0337,0203,0363,0335,0336,0331,0335,0335,0335,0337,0362,0203,0335,0335,0335,0336,0203,0335,0335,0203,0363,0320,0331,0335,0335,0304,0313,",
        "0244:0243,0243,0243,0243,",
        "0245:0321,0337,0201,0320,0336,0334,0336,0336,0306,0336,0362,0203,0335,0335,0337,0203,0335,0335,0203,0335,0335,0336,0203,0363,0304,0335,0337,0337,0337,0337,0331,0336,",
        "0246:0320,0335,0306,0350,0334,0330,0321,0337,0366,0336,0331,0335,0335,0330,0337,0336,0336,0336,0336,0336,0330,0337,0337,0337,0337,0337,0367,0336,0336,0336,0336,0336,0331,0335,0337,0320,0337,0362,0203,0334,0334,0334,0334,0203,0334,0334,0334,0334,0203,0363,0335,0337,0337,0330,0335,0335,0304,",
        "0247:0336,0336,0336,0347,0337,0337,0337,",
        "0250:0335,0337,0331,0337,0223,",
        "01220:0333,0200,0336,0332,0330,0220,0333,0331,0337,",
        "01221:0333,0200,0336,0332,0336,0330,0337,0221,0333,0331,0331,0336,0330,0337,0337,0336,0330,0332,0337,0320,",
        "01222:0333,0200,0336,0332,0330,0332,0222,0336,0333,0333,0333,0333,0331,0331,0337,0337,",
        "01223:0333,0200,0336,0330,0332,0336,0333,0332,0223,0336,0333,0331,0333,0333,0331,0331,0333,0320,0331,0337,0337,0337,",
        "01224:0333,0200,0336,0332,0337,0224,0333,0331,0336,0332,0337,",
        "01225:0333,0200,0336,0330,0332,0336,0332,0336,0333,0337,0225,0333,0331,0320,0333,0331,0331,0331,0331,0331,0337,0337,0337,0337,",
        "01226:0333,0200,0336,0330,0332,0226,0333,0331,0337,",
        "01227:0333,0200,0336,0330,0332,0210,0227,0211,0331,0333,0337,",
        "01230:0333,0200,0336,0330,0332,0230,0331,0304,0333,0337,",
        "01231:0333,0200,0332,0336,0330,0333,0231,0333,0331,0337,",
        "01232:0333,0200,0336,0332,0330,0332,0232,0333,0331,0333,0337,",
        "01233:0333,0200,0336,0332,0337,0336,0332,0336,0336,0333,0330,0337,0337,0210,0210,0233,0211,0211,0313,0336,0336,0332,0332,0333,0331,0337,0337,0337,0333,",
        "01234:0333,0200,0336,0234,0337,",
        "01235:0333,0200,0336,0332,0336,0330,0332,0235,0333,0333,0333,0336,0336,0331,0331,0331,0331,0337,0337,0337,0337,",
        "01236:0333,0200,0336,0330,0330,0332,0336,0331,0337,0236,0333,0331,0331,0336,0330,0337,0337,",
        "01237:0333,0200,0336,0330,0332,0237,0333,0331,0337,",
        "01240:0333,0200,0336,0336,0332,0332,0240,0333,0333,0337,0337,",
        "01241:0333,0200,0336,0332,0241,0333,0337,",
        "01242:0333,0200,0336,0332,0332,0336,0330,0330,0242,0336,0331,0331,0331,0331,0332,0337,0337,0337,",
        "01243:0333,0200,0336,0332,0332,0243,0337,",
        "01244:0333,0200,0332,0336,0330,0336,0336,0243,0243,0243,0243,0331,0331,0331,0331,0337,0337,0337,",
        "01245:0333,0200,0336,0332,0336,0331,0337,0245,0333,0336,0330,0337,0337,",
        "01246:0333,0200,0330,0332,0336,0331,0336,0332,0337,0246,0333,0333,0336,0333,0331,0331,0337,0337,",
        "01247:0333,0200,0336,0330,0332,0337,0247,0336,0333,0331,0337,"
    ],
    "imgurl": "",
    "imgx": 0,
    "imgy": 0,
    "imgw": 500,
    "angle": 0
}
</json>
-->
	<path d = "M122 129 L194 129 L158 67 L121 129 Z" stroke = "#FF7900" stroke-width = "1" fill = "#FF7900" />	<path d = "M121 129 L193 129 L158 67 L122 129 Z" stroke = "black" stroke-width = "6" fill = "none" />	<path d = "M338 129 L337 57 L265 57 L266 129 L338 129 Z" stroke = "#FF7900" stroke-width = "1" fill = "#FF7900" />	<path d = "M338 129 L337 57 L265 57 L266 129 L338 129 Z" stroke = "black" stroke-width = "6" fill = "none" />	<path d = "M410 129 L482 129 L445 18 L410 129 Z" stroke = "#FF7900" stroke-width = "1" fill = "#FF7900" />	<path d = "M410 129 L482 129 L445 18 L410 129 Z" stroke = "black" stroke-width = "6" fill = "none" />	<path d = "M14 201 L14 165 L158 165 L302 165 L302 237 L230 237 L158 237 L86 237 L14 237 L14 201 Z" stroke = "black" stroke-width = "1" fill = "black" />	<path d = "M14 201 L14 200 L32 200 L32 202 L14 202 L14 201 Z" stroke = "yellow" stroke-width = "1" fill = "yellow" />	<path d = "M50 201 L50 200 L68 200 L68 202 L50 202 L50 201 Z" stroke = "yellow" stroke-width = "1" fill = "yellow" />	<path d = "M86 201 L86 200 L104 200 L104 202 L86 202 L86 201 Z" stroke = "yellow" stroke-width = "1" fill = "yellow" />	<path d = "M122 201 L122 200 L140 200 L140 202 L122 202 L122 201 Z" stroke = "yellow" stroke-width = "1" fill = "yellow" />	<path d = "M158 201 L158 200 L176 200 L176 202 L158 202 L158 201 Z" stroke = "yellow" stroke-width = "1" fill = "yellow" />	<path d = "M194 201 L194 200 L212 200 L212 202 L194 202 L194 201 Z" stroke = "yellow" stroke-width = "1" fill = "yellow" />	<path d = "M230 201 L230 200 L248 200 L248 202 L230 202 L230 201 Z" stroke = "yellow" stroke-width = "1" fill = "yellow" />	<path d = "M266 201 L266 200 L284 200 L284 202 L266 202 L266 201 Z" stroke = "yellow" stroke-width = "1" fill = "yellow" />	<path d = "M302 201 L302 165 L446 165 L590 165 L590 237 L518 237 L446 237 L374 237 L302 237 L302 201 Z" stroke = "black" stroke-width = "1" fill = "black" />	<path d = "M302 201 L302 200 L320 200 L320 202 L302 202 L302 201 Z" stroke = "yellow" stroke-width = "1" fill = "yellow" />	<path d = "M338 201 L338 200 L356 200 L356 202 L338 202 L338 201 Z" stroke = "yellow" stroke-width = "1" fill = "yellow" />	<path d = "M374 201 L374 200 L392 200 L392 202 L374 202 L374 201 Z" stroke = "yellow" stroke-width = "1" fill = "yellow" />	<path d = "M410 201 L410 200 L428 200 L428 202 L410 202 L410 201 Z" stroke = "yellow" stroke-width = "1" fill = "yellow" />	<path d = "M446 201 L446 200 L464 200 L464 202 L446 202 L446 201 Z" stroke = "yellow" stroke-width = "1" fill = "yellow" />	<path d = "M482 201 L482 200 L500 200 L500 202 L482 202 L482 201 Z" stroke = "yellow" stroke-width = "1" fill = "yellow" />	<path d = "M518 201 L518 200 L536 200 L536 202 L518 202 L518 201 Z" stroke = "yellow" stroke-width = "1" fill = "yellow" />	<path d = "M554 201 L554 200 L572 200 L572 202 L554 202 L554 201 Z" stroke = "yellow" stroke-width = "1" fill = "yellow" /></svg>