<svg width="300" height="100" viewbox = "0 0 300 100"  xmlns="http://www.w3.org/2000/svg">

<!--
<json>
{
    "svgwidth": 300,
    "svgheight": 100,
    "unit": 69,
    "x0": 676,
    "y0": 458,
    "x0rel": -8,
    "y0rel": 39,
    "glyph": "0332,0332,0362,0203,0335,0203,0203,0203,0203,0335,0203,0335,0203,0203,0203,0203,0335,0354,0330,0336,0336,0335,0306,0350,0334,0201,0335,0337,0337,0337,0337,0201,0335,0335,0335,0335,0335,0336,0336,0336,0336,0342,0334,0334,0337,0337,0201,0335,0335,0336,0336,0201,0335,0335,0335,0335,0337,0337,0304,0337,0337,0332,0336,0336,0336,0336,0330,0333,0330,0331,0167,0167,0167,056,0155,0171,0144,0157,0155,0141,0151,0156,056,0156,0145,0164,0365,0330,0333,0333,0333,0333,0336,0330,0336,0331,0337,0337,0337,0335,0306,0334,0336,0325,0362,0203,0335,0335,0203,0335,0335,0203,0363,0331,0335,0335,0326,0362,0203,0335,0335,0203,0335,0335,0203,0363,0335,0335,0322,0362,0203,0335,0335,0335,0335,0203,0334,0334,0203,0363,0331,0334,0324,0362,0203,0334,0334,0203,0334,0334,0203,0363,0331,0320,0337,0362,0203,0334,0334,0203,0334,0334,0203,0354,0331,0335,0335,0336,0336,0330,0304,0337,0210,0210,0334,0333,0326,0204,0333,0330,0204,0331,0327,0204,0330,0332,0204,0330,0333,0331,0331,0337,0320,0200,0333,0336,0332,0337,0305,0311,0322,0362,0203,0335,0350,0335,0337,0203,0335,0335,0335,0335,0203,0363,0335,0335,0335,0324,0362,0336,0203,0335,0335,0335,0336,0203,0335,0335,0335,0337,0203,0363,0331,0334,0336,0362,0203,0334,0334,0334,0334,0203,0334,0334,0334,0336,0203,0363,0331,0335,0335,0335,0335,0335,0335,0335,0362,0203,0334,0334,0334,0335,0337,0334,0203,0334,0334,0334,0334,0203,0363,0331,0320,0337,0337,0362,0203,0334,0334,0334,0336,0203,0334,0334,0334,0337,0203,0354,",
    "table": [
        "0220:0333,0200,0332,0336,0333,0337,0326,0342,0336,0330,0332,0335,0337,0342,0336,0334,0331,0337,0320,0210,",
        "0221:0220,0220,0220,0220,0220,0220,0220,0220,0211,0211,0211,0211,0211,0211,0211,0211,",
        "0222:0304,0335,0306,0201,0334,0334,0201,0334,0334,0201,0334,0334,0322,0336,0330,0334,0201,0334,0334,0201,0334,0334,0201,0334,0331,0337,0320,0210,0304,0334,",
        "0223:0222,0222,0222,0222,0222,0222,0222,0211,0211,0211,0211,0211,0211,0211,",
        "0224:0304,0335,0305,0311,0201,0334,0201,0334,0201,0334,0201,0334,0201,0334,0334,0337,0201,0335,0335,0201,0335,0335,0336,0350,0334,0304,0330,0335,0313,0210,",
        "0225:0224,0224,0224,0224,0224,0224,0224,0224,0224,0224,0224,0224,0211,0211,0211,0211,0211,0211,0211,0211,0211,0211,0211,0211,",
        "0226:0306,0335,0201,0335,0335,0336,0330,0335,0335,0337,0201,0335,0335,0335,0350,0335,0336,0312,0337,0201,0334,0334,0334,0334,0201,0334,0336,0331,0334,0337,0201,0334,0334,0334,0334,0201,0335,0335,0335,0335,0335,0336,0342,0335,0335,0330,0330,0335,0335,0335,0335,0201,0335,0335,0335,0335,0330,0335,0335,0304,0313,0337,",
        "0227:0306,0362,0203,0335,0203,0335,0203,0335,0203,0335,0203,0335,0203,0335,0354,0350,0335,0312,0337,0362,0203,0335,0335,0335,0335,0203,0335,0335,0335,0335,0203,0354,0335,0335,0335,0336,0330,0335,0335,0335,0337,0362,0203,0335,0335,0335,0335,0203,0335,0335,0335,0335,0203,0354,0335,0336,0331,0336,0335,0330,",
        "0230:0305,0350,0311,0362,0203,0335,0335,0203,0335,0335,0203,0335,0335,0203,0335,0335,0203,0354,0335,0335,",
        "0231:0306,0362,0203,0335,0335,0203,0335,0335,0203,0354,0335,0335,",
        "0232:0305,0334,0331,0230,0335,0335,0335,0230,0335,0335,0335,0230,0330,0335,0335,0335,0331,0334,0334,0334,0230,0334,0334,0334,0334,0230,0330,0334,0334,0230,0330,0334,0334,0330,0335,0335,0330,0335,0335,0330,0304,0335,0335,",
        "0233:0232,0232,",
        "0244:0243,0243,0243,0243,",
        "01220:0220,0220,0211,0211,0333,",
        "01221:0221,0333,",
        "01222:0333,0200,0332,0222,0222,0211,0211,0333,",
        "01223:0333,0200,0332,0223,0333,",
        "01224:0333,0200,",
        "01225:0333,0200,",
        "01226:0333,0200,",
        "01227:0333,0200,",
        "01230:0333,0200,0332,0230,0304,0313,0333,",
        "01231:0333,0200,0332,0231,0313,0304,0333,",
        "01232:0333,0200,",
        "01233:0333,0200,",
        "01234:0333,0200,",
        "01235:0333,0200,",
        "01236:0333,0200,",
        "01237:0333,0200,",
        "01240:0333,0200,",
        "01241:0333,0200,",
        "01242:0333,0200,",
        "01243:0333,0200,",
        "01244:0333,0200,",
        "01245:0333,0200,",
        "01246:0333,0200,",
        "01247:0333,0200,"
    ],
    "imgurl": "",
    "imgx": -1.2312396694214882,
    "imgy": -0.43462809917355394,
    "imgw": 2.49,
    "angle": 0
}
</json>
-->
	<path d = "M4 89 L4 20 L73 20 L142 20 L211 20 L280 20 L280 89 L211 89 L142 89 L73 89 L4 89 Z" stroke = "black" stroke-width = "1" fill = "none" />    <line x1="4" y1="20" x2="19" y2="11" style="stroke:black;stroke-width:1" />
    <line x1="19" y1="11" x2="295" y2="11" style="stroke:black;stroke-width:1" />
    <line x1="295" y1="11" x2="280" y2="20" style="stroke:black;stroke-width:1" />
    <line x1="295" y1="11" x2="295" y2="80" style="stroke:black;stroke-width:1" />
    <line x1="295" y1="80" x2="280" y2="89" style="stroke:black;stroke-width:1" />
    <text x="21" y = "72" fill = "black" font-size = "17.25px" font-family = "arial">www.mydomain.net</text>
	<path d = "M90 50 L99 35 L107 50 L90 50 Z" stroke = "green" stroke-width = "2" fill = "green" />	<path d = "M107 50 L116 35 L125 50 L107 50 Z" stroke = "blue" stroke-width = "1" fill = "blue" />	<path d = "M107 50 L116 35 L99 35 L107 50 Z" stroke = "red" stroke-width = "1" fill = "red" />	<path d = "M99 35 L116 35 L107 20 L99 35 Z" stroke = "yellow" stroke-width = "2" fill = "yellow" />	<path d = "M107 20 L90 50 L125 50 L107 20 Z" stroke = "black" stroke-width = "1" fill = "none" />	<path d = "M147 50 L147 37 L133 37 L133 50 L147 50 Z" stroke = "blue" stroke-width = "1" fill = "blue" />	<path d = "M160 37 L160 24 L147 24 L147 37 L160 37 Z" stroke = "blue" stroke-width = "1" fill = "blue" />	<path d = "M160 50 L160 37 L147 37 L147 50 L160 50 Z" stroke = "purple" stroke-width = "2" fill = "purple" />	<path d = "M147 37 L147 24 L133 24 L133 37 L147 37 Z" stroke = "purple" stroke-width = "2" fill = "purple" />	<path d = "M160 50 L160 24 L133 24 L133 50 L160 50 Z" stroke = "black" stroke-width = "1" fill = "none" />	<path d = "M173 50 L173 24 L213 37 L173 50 Z" stroke = "red" stroke-width = "1" fill = "red" />	<path d = "M173 50 L173 24 L188 29 L173 50 Z" stroke = "yellow" stroke-width = "2" fill = "yellow" />	<path d = "M188 29 L188 45 L198 32 L188 29 Z" stroke = "yellow" stroke-width = "2" fill = "yellow" />	<path d = "M198 32 L198 42 L213 37 L198 32 Z" stroke = "yellow" stroke-width = "2" fill = "yellow" />	<path d = "M213 37 L173 24 L173 50 L213 37 Z" stroke = "black" stroke-width = "1" fill = "none" /></svg>