<svg width="425" height="508" viewbox = "0 0 425 508"  xmlns="http://www.w3.org/2000/svg">

<!--
<json>
{
    "svgwidth": 425,
    "svgheight": 508,
    "unit": 209.00211734171157,
    "x0": 493.3771538208394,
    "y0": 386.0911698778648,
    "x0rel": -190.6228461791606,
    "y0rel": -32.908830122135214,
    "glyph": "0241,",
    "table": [
        "0220:0200,0306,0335,0311,0336,0201,0334,0337,0201,0334,0334,0336,0342,0335,0337,0350,0334,0201,0334,0336,0201,0335,0335,0335,0335,0337,0331,0304,0333,0313,",
        "0221:0336,0336,0336,0333,0337,0337,0337,0342,",
        "0222:0334,0336,0336,0362,0203,0335,0203,0203,0334,0203,0335,0350,0310,0335,0337,0203,0203,0335,0335,0203,0203,0335,0335,0335,0336,0203,0304,0313,0334,0203,0203,0335,0203,0363,0335,0337,0337,",
        "0223:0334,0336,0350,0310,0362,0203,0335,0335,0335,0337,0203,0335,0335,0203,0335,0335,0335,0336,0203,0363,0335,0335,0330,0330,0304,0313,0337,",
        "0224:0220,0332,0221,0221,0221,0221,0221,0221,0221,0334,0336,0336,0336,0331,0337,0337,0337,0221,0221,0221,0221,0221,0221,0221,0335,0331,0336,0336,0336,0330,0337,0337,0337,0306,0313,0336,0336,0336,0330,0335,0337,0337,0337,0311,0336,0342,0337,0313,0336,0336,0336,0332,0337,0337,0337,0311,0336,0342,0337,0313,0336,0336,0336,0332,0337,0337,0337,0311,0336,0342,0337,0313,0336,0336,0336,0332,0337,0337,0337,0311,0336,0342,0337,0313,0336,0336,0336,0332,0337,0337,0337,0311,0336,0342,0337,0313,0336,0336,0336,0332,0337,0337,0337,0311,0336,0342,0337,0313,0336,0336,0336,0332,0337,0337,0337,0311,0336,0342,0337,0313,0336,0336,0336,0332,0337,0337,0337,0311,0336,0335,0335,0335,0331,0313,0336,0336,0336,0330,0334,0337,0337,0337,0311,0337,0342,0336,0313,0336,0336,0336,0333,0337,0337,0337,0311,0337,0342,0313,0336,0336,0336,0311,0336,0333,0337,0313,0337,0337,0337,0342,0336,0336,0336,0311,0336,0333,0337,0313,0337,0337,0337,0342,0336,0336,0336,0311,0336,0333,0337,0313,0337,0337,0337,0342,0336,0336,0336,0311,0336,0333,0337,0313,0337,0337,0337,0342,0336,0336,0336,0311,0336,0333,0337,0313,0337,0337,0337,0342,0335,0350,0335,0351,0306,0330,0335,0335,0335,0350,0342,0313,0336,0336,0336,0311,0336,0332,0337,0313,0337,0337,0337,0342,0336,0336,0336,0311,0336,0332,0337,0313,0337,0337,0337,0342,0336,0336,0336,0311,0336,0332,0337,0313,0337,0337,0337,0342,0336,0336,0336,0311,0336,0332,0337,0313,0337,0337,0337,0342,0336,0336,0336,0311,0336,0332,0337,0313,0337,0337,0337,0342,0336,0336,0336,0311,0336,0332,0337,0313,0337,0337,0337,0342,0336,0336,0336,0311,0336,0332,0337,0313,0337,0337,0337,0334,0311,0336,0331,0311,0337,0313,0336,0336,0336,0333,0337,0337,0337,0311,0336,0342,0337,0313,0336,0336,0336,0333,0337,0337,0337,0311,0336,0342,0337,0313,0336,0336,0336,0333,0337,0337,0337,0311,0336,0342,0337,0313,0336,0336,0336,0333,0337,0337,0337,0311,0336,0342,0337,0313,0336,0336,0336,0333,0337,0337,0337,0311,0336,0342,0337,0313,0336,0336,0336,0333,0337,0337,0337,0311,0336,0342,0337,0313,0336,0336,0336,0333,0337,0337,0337,0311,0336,0342,0337,0313,0336,0336,0336,0333,0334,0334,0313,0304,0337,0337,0337,0331,",
        "0225:0332,0224,0333,0333,0224,0331,0332,0332,0332,0336,0330,0336,0330,0336,0337,0101,0143,0164,0151,0157,0156,040,0365,0333,0333,0333,0333,0333,0333,0333,0333,0123,0171,0155,0142,0157,0154,0365,0330,0337,0337,",
        "0226:0333,0200,0332,0221,0221,0221,0221,0221,0221,0221,0336,0336,0336,0333,0337,0337,0337,0334,0221,0221,0221,0221,0221,0221,0221,0335,0331,0336,0336,0336,0330,0337,0337,0337,",
        "0227:0224,0370,0332,0336,0336,0336,0331,0336,0336,0330,0333,0322,0337,060,0365,0333,0333,061,0365,0333,0333,062,0365,0333,0333,063,0365,0333,0333,064,0365,0333,0333,065,0365,0333,0333,066,0365,0333,0333,067,0365,0325,0333,0333,0330,0336,0331,0337,0311,0336,0306,060,0337,0365,0336,0333,0333,061,0337,0365,0336,0333,0333,062,0337,0365,0336,0333,0333,063,0337,0365,0336,0333,0333,064,0337,0365,0336,0333,0333,065,0337,0365,0336,0333,0333,066,0337,0365,0336,0333,0333,067,0337,0365,0336,0335,0337,0331,0331,0331,0331,0331,0331,0331,0331,0331,0334,0371,0326,0332,0336,0336,0336,0336,0336,0330,0332,0332,0337,060,0365,0330,0330,061,0365,0330,0330,062,0365,0330,0330,063,0365,0330,0330,064,0365,0330,0330,065,0365,0330,0330,066,0365,0330,0330,067,0365,0371,0320,0336,0331,0332,0336,0330,0332,0336,0331,0337,060,0365,0336,0336,0333,0333,0333,0337,0337,0172,0326,0365,0336,0336,0333,0333,0333,0337,0337,0171,0325,0365,0336,0336,0333,0333,0333,0337,0337,0170,0322,0365,0371,0320,",
        "0230:0336,0336,0336,060,062,060,060,072,060,063,066,062,054,060,062,060,063,054,060,063,063,064,054,060,062,060,063,054,060,063,063,064,054,060,062,060,063,054,060,063,060,064,054,060,062,060,063,054,060,063,063,064,054,060,063,065,064,054,0365,0337,0337,0337,",
        "0231:0336,0336,0336,0331,1300,0333,0333,0333,1304,1305,1306,0331,0332,0332,0332,0332,0332,0332,0332,1310,1311,1312,1313,1314,1316,0333,0331,0332,0332,0332,0332,0332,0332,0332,1320,1321,1322,1323,1324,1325,1326,1327,0331,0332,0332,0332,0332,0332,0332,0332,0332,1330,1331,1332,1333,1334,1335,1336,1337,0330,0330,0201,0201,0334,0201,0201,0201,0201,0201,0201,0201,0201,0335,0333,0333,0333,0333,0333,0333,0331,0333,0333,0331,0331,0331,0337,0337,0332,0332,0337,",
        "0232:0336,0336,0336,0331,01340,01341,01342,01343,01344,01345,01346,01347,0331,0332,0332,0332,0332,0332,0332,0332,0332,01350,01351,01352,01353,01354,01355,01356,01357,0331,0332,0332,0332,0332,0332,01360,01361,01362,01363,01364,01365,01366,01367,0331,0332,0332,0332,0332,0332,0332,0332,0332,01370,01371,01372,01373,01374,01375,01376,01377,0337,0337,0337,0332,",
        "0233:0231,0232,",
        "0234:0331,226,0336,0331,0337,0332,0226,0330,0332,0336,0330,0336,0336,0331,0336,0336,0330,0333,0337,0333,0333,041,0365,0333,0333,042,0365,0333,0333,043,0365,0333,0333,044,0365,0333,0333,045,0365,0333,0333,046,0365,0333,0333,047,0365,0331,0331,0337,0337,0337,0332,0332,0336,0336,0333,0336,050,0365,0333,0333,051,0365,0333,0333,052,0365,0333,0333,053,0365,0333,0333,054,0365,0333,0333,055,0365,0333,0333,056,0365,0333,0333,057,0365,0331,0331,0337,0337,0337,0337,0332,0336,0336,0336,0333,0336,060,0365,0333,0333,061,0365,0333,0333,062,0365,0333,0333,063,0365,0333,0333,064,0365,0333,0333,065,0365,0333,0333,066,0365,0333,0333,067,0365,0331,0331,0337,0337,0337,0337,0332,0336,0336,0336,0333,0336,070,0365,0333,0333,071,0365,0333,0333,072,0365,0333,0333,073,0365,0333,0333,074,0365,0333,0333,075,0365,0333,0333,076,0365,0333,0333,077,0365,0337,0337,0337,0337,0332,0336,0330,0336,0336,0333,0336,0336,0331,0332,0337,0337,0337,0337,0337,",
        "0235:0234,0336,0331,0336,0331,0336,0330,0336,0336,0330,0333,0337,0100,0365,0333,0333,0101,0365,0333,0333,0102,0365,0333,0333,0103,0365,0333,0333,0104,0365,0333,0333,0105,0365,0333,0333,0106,0365,0333,0333,0107,0365,0331,0331,0332,0332,0332,0332,0332,0332,0332,0332,0332,0332,0332,0332,0332,0332,0110,0365,0333,0333,0111,0365,0333,0333,0112,0365,0333,0333,0113,0365,0333,0333,0114,0365,0333,0333,0115,0365,0333,0333,0116,0365,0333,0333,0117,0365,0331,0331,0337,0337,0337,0332,0336,0336,0332,0332,0332,0336,0120,0365,0333,0333,0121,0365,0333,0333,0122,0365,0333,0333,0123,0365,0333,0333,0124,0365,0333,0333,0125,0365,0333,0333,0126,0365,0333,0333,0127,0365,0331,0331,0337,0337,0337,0332,0336,0332,0336,0332,0336,0130,0365,0333,0333,0131,0365,0333,0333,0132,0365,0333,0333,0133,0365,0333,0333,0134,0365,0333,0333,0135,0365,0333,0333,0136,0365,0333,0333,0137,0365,0336,0332,0331,0337,0337,0333,0337,0337,0330,0332,0332,0330,0337,",
        "0236:0235,0331,0336,0336,0336,0331,0336,0336,0330,0333,0337,0140,0365,0333,0333,0141,0365,0333,0333,0142,0365,0333,0333,0143,0365,0333,0333,0144,0365,0333,0333,0145,0365,0333,0333,0146,0365,0333,0333,0147,0365,0331,0331,0337,0337,0337,0337,0332,0336,0336,0336,0333,0336,0150,0365,0333,0333,0151,0365,0333,0333,0152,0365,0333,0333,0153,0365,0333,0333,0154,0365,0333,0333,0155,0365,0333,0333,0156,0365,0333,0333,0157,0365,0331,0331,0337,0337,0337,0337,0332,0336,0336,0336,0333,0336,0160,0365,0333,0333,0161,0365,0333,0333,0162,0365,0333,0333,0163,0365,0333,0333,0164,0365,0333,0333,0165,0365,0333,0333,0166,0365,0333,0333,0167,0365,0337,0337,0337,0337,0332,0336,0336,0336,0333,0331,0336,0170,0365,0333,0333,0171,0365,0333,0333,0172,0365,0333,0333,0173,0365,0333,0333,0174,0365,0333,0333,0175,0365,0333,0333,0176,0365,0333,0333,0365,0336,0331,0332,0337,0337,0333,0337,0337,0337,0330,0336,0332,0332,0330,0337,",
        "0237:0336,0336,0336,0333,0331,0200,0333,0200,0333,0200,0333,0200,0333,0200,0333,0200,0333,0200,0333,0200,0331,0332,0332,0332,0332,0332,0332,0332,0332,01010,0333,0200,0333,0200,0333,0200,0333,0200,0333,0200,0333,0200,0333,0200,0331,0332,0332,0332,0332,0332,0332,0332,0332,01020,01021,01022,01023,01024,01025,01026,01027,0331,0332,0332,0332,0332,0332,0332,0332,0332,01030,01031,01032,01033,01034,01035,01036,01037,0332,0332,0332,0200,0333,0200,0330,0330,0330,0330,0332,0332,0332,0332,0332,0332,0337,0337,0337,",
        "0240:0236,0336,0336,0336,0336,0336,0330,0333,0337,060,0365,0333,0333,061,0365,0333,0333,062,0365,0333,0333,063,0365,0333,0333,064,0365,0333,0333,065,0365,0333,0333,066,0365,0333,0333,067,0365,0337,0337,0337,0337,0332,0336,0336,0336,0336,0331,0331,0332,0336,0332,0337,060,064,0170,0365,0331,0331,060,065,0170,0365,0331,0331,060,066,0170,0365,0331,0331,060,067,0170,0365,0331,0331,060,061,060,0170,0365,0331,0331,060,061,061,0170,0365,0331,0331,060,061,062,0170,0365,0331,0331,060,061,063,0170,0365,0331,0331,060,061,064,0170,0365,0331,0331,060,061,065,0170,0365,0331,0331,060,061,066,0170,0365,0331,0331,060,061,067,0170,0365,0337,0337,0337,0337,0330,0336,0330,0336,0333,0336,0336,0331,0332,0336,0330,0337,0337,0337,0337,0337,",
        "0241:0336,0336,0336,1304,1305,1306,1350,1351,1352,1353,1310,1311,1312,1313,1314,1316,0331,0332,0332,0332,0332,0332,0332,0332,0332,0332,0332,0332,0332,0336,0333,0337,1362,1203,1363,1360,1366,1367,1361,1345,1346,1347,1365,1204,1201,0331,0332,0332,0332,0332,0332,0332,0332,0332,0332,0332,0332,0332,0332,0336,0333,0337,1330,1331,1332,1333,1334,1335,1336,1337,0331,0332,0332,0332,0332,0332,0332,0332,0336,0332,0337,1340,1341,1342,1343,1200,",
        "0242:0333,",
        "0243:0333,",
        "0244:0333,",
        "0245:0333,",
        "0246:0333,",
        "0247:0333,",
        "0250:0241,",
        "01220:0333,0200,0336,0332,0220,0333,0337,",
        "01221:0333,0200,0332,0221,0221,0221,0221,0221,0221,0221,0336,0336,0336,0333,0337,0337,0337,",
        "01222:0333,0200,0336,0332,0337,0222,0336,0333,0337,0331,0330,",
        "01223:0333,0200,0336,0332,0337,0223,0336,0333,0337,0331,",
        "01224:0333,0200,0336,0336,0332,0337,0337,0210,0210,0224,0211,0211,0336,0336,0333,0337,0337,",
        "01225:0333,0200,0336,0330,0332,0336,0332,0336,0333,0337,0200,0333,0333,0200,0331,0334,0336,0333,0337,0342,0330,0330,0342,0335,0333,0333,0331,0336,0333,0331,0337,0337,0337,",
        "01226:0226,",
        "01227:0333,0200,0336,0336,0336,0330,0332,0332,0330,0337,0337,0337,0210,0210,0210,0210,0227,0211,0211,0211,0211,0336,0336,0333,0331,0337,0337,",
        "01230:0333,0200,0336,0330,0332,0336,0332,0332,0336,0333,0337,060,062,060,060,072,0365,0336,0332,0337,0337,0333,0331,0333,0337,",
        "01231:0333,0200,0332,0336,0330,0330,0337,0231,0333,0336,0331,0337,",
        "01232:0333,0200,0336,0330,0332,0332,0337,0232,0333,",
        "01233:0333,0200,0330,0332,0233,0333,",
        "01234:0330,0234,0333,0331,",
        "01235:0333,0200,0330,0332,0235,0331,0333,",
        "01236:0333,0200,0330,0332,0236,0333,0331,",
        "01237:0333,0200,0330,0332,0237,0333,0331,",
        "01240:0333,0200,0330,0332,0240,0333,0331,",
        "01241:0333,0200,",
        "01242:0333,0200,",
        "01243:0333,0200,",
        "01244:0333,0200,",
        "01245:0333,0200,",
        "01246:0333,0200,",
        "01247:0333,0200,"
    ],
    "imgurl": "",
    "imgx": 0,
    "imgy": 0,
    "imgw": 278,
    "angle": 7.853981633974483,
    "styleJSON": {
        "color0": "black",
        "fill0": "black",
        "line0": 1,
        "color1": "black",
        "fill1": "black",
        "line1": 3,
        "color2": "red",
        "fill2": "red",
        "line2": 1,
        "color3": "#FF7900",
        "fill3": "#FF7900",
        "line3": 1,
        "color4": "yellow",
        "fill4": "yellow",
        "line4": 1,
        "color5": "green",
        "fill5": "green",
        "line5": 1,
        "color6": "blue",
        "fill6": "blue",
        "line6": 1,
        "color7": "purple",
        "fill7": "purple",
        "line7": 1
    }
}
</json>
-->
	<path d = "M48 221 L48 195 L22 195 L22 221 L48 221 Z" stroke = "black" stroke-width = "1" fill = "none" />    <circle cx="35" cy = "208" r = "13.062632333856973" stroke = "black" stroke-width = "1" fill = "none" />
    <line x1="35" y1="208" x2="35" y2="195" style="stroke:black;stroke-width:1" />
    <line x1="35" y1="208" x2="48" y2="208" style="stroke:black;stroke-width:1" />
    <line x1="35" y1="208" x2="35" y2="221" style="stroke:black;stroke-width:1" />
    <line x1="35" y1="208" x2="22" y2="208" style="stroke:black;stroke-width:1" />
    <circle cx="30" cy = "203" r = "3.2656580834642432" stroke = "black" stroke-width = "1" fill = "none" />
    <circle cx="40" cy = "203" r = "3.2656580834642432" stroke = "black" stroke-width = "1" fill = "none" />
    <circle cx="40" cy = "213" r = "3.2656580834642432" stroke = "black" stroke-width = "1" fill = "none" />
    <circle cx="30" cy = "213" r = "3.2656580834642432" stroke = "black" stroke-width = "1" fill = "none" />
	<path d = "M74 221 L74 195 L48 195 L48 221 L74 221 Z" stroke = "black" stroke-width = "1" fill = "none" />    <line x1="61" y1="208" x2="61" y2="195" style="stroke:black;stroke-width:1" />
    <line x1="61" y1="208" x2="73" y2="204" style="stroke:black;stroke-width:1" />
    <line x1="61" y1="208" x2="69" y2="219" style="stroke:black;stroke-width:1" />
    <line x1="61" y1="208" x2="53" y2="219" style="stroke:black;stroke-width:1" />
    <line x1="61" y1="208" x2="49" y2="204" style="stroke:black;stroke-width:1" />
    <circle cx="61" cy = "208" r = "13.062632333856973" stroke = "black" stroke-width = "1" fill = "none" />
    <circle cx="65" cy = "203" r = "1.6328290417321216" stroke = "black" stroke-width = "1" fill = "none" />
    <circle cx="67" cy = "210" r = "1.6328290417321216" stroke = "black" stroke-width = "1" fill = "none" />
    <circle cx="61" cy = "215" r = "1.6328290417321216" stroke = "black" stroke-width = "1" fill = "none" />
    <circle cx="55" cy = "210" r = "1.6328290417321216" stroke = "black" stroke-width = "1" fill = "none" />
    <circle cx="57" cy = "203" r = "1.6328290417321216" stroke = "black" stroke-width = "1" fill = "none" />
	<path d = "M100 221 L100 195 L74 195 L74 221 L100 221 Z" stroke = "black" stroke-width = "1" fill = "none" />    <line x1="87" y1="208" x2="87" y2="195" style="stroke:black;stroke-width:1" />
    <line x1="87" y1="208" x2="99" y2="201" style="stroke:black;stroke-width:1" />
    <line x1="87" y1="208" x2="99" y2="215" style="stroke:black;stroke-width:1" />
    <line x1="87" y1="208" x2="87" y2="221" style="stroke:black;stroke-width:1" />
    <line x1="87" y1="208" x2="76" y2="215" style="stroke:black;stroke-width:1" />
    <circle cx="87" cy = "208" r = "13.062632333856973" stroke = "black" stroke-width = "1" fill = "none" />
    <circle cx="84" cy = "202" r = "1.6328290417321216" stroke = "black" stroke-width = "1" fill = "none" />
    <circle cx="90" cy = "202" r = "1.6328290417321216" stroke = "black" stroke-width = "1" fill = "none" />
    <circle cx="94" cy = "208" r = "1.6328290417321216" stroke = "black" stroke-width = "1" fill = "none" />
    <circle cx="90" cy = "214" r = "1.6328290417321216" stroke = "black" stroke-width = "1" fill = "none" />
    <circle cx="84" cy = "214" r = "1.6328290417321216" stroke = "black" stroke-width = "1" fill = "none" />
    <line x1="87" y1="208" x2="76" y2="201" style="stroke:black;stroke-width:1" />
    <circle cx="81" cy = "208" r = "1.6328290417321216" stroke = "black" stroke-width = "1" fill = "none" />
	<path d = "M126 221 L126 195 L100 195 L100 221 L126 221 Z" stroke = "black" stroke-width = "1" fill = "none" />	<path d = "M123 199 L113 208 L123 217 " stroke = "black" stroke-width = "1" fill = "none" />    <line x1="113" y1="208" x2="117" y2="208" style="stroke:black;stroke-width:1" />
    <line x1="120" y1="208" x2="123" y2="208" style="stroke:black;stroke-width:1" />
	<path d = "M153 221 L153 195 L126 195 L126 221 L153 221 Z" stroke = "black" stroke-width = "1" fill = "none" />	<path d = "M149 217 L139 208 L142 206 " stroke = "black" stroke-width = "1" fill = "none" />    <line x1="144" y1="203" x2="146" y2="201" style="stroke:black;stroke-width:1" />
    <line x1="149" y1="199" x2="151" y2="196" style="stroke:black;stroke-width:1" />
    <line x1="139" y1="208" x2="153" y2="208" style="stroke:black;stroke-width:1" />
	<path d = "M179 221 L179 195 L153 195 L153 221 L179 221 Z" stroke = "black" stroke-width = "1" fill = "none" />    <line x1="166" y1="208" x2="175" y2="199" style="stroke:black;stroke-width:1" />
    <line x1="166" y1="208" x2="169" y2="207" style="stroke:black;stroke-width:1" />
    <line x1="172" y1="206" x2="175" y2="205" style="stroke:black;stroke-width:1" />
    <line x1="166" y1="208" x2="169" y2="209" style="stroke:black;stroke-width:1" />
    <line x1="172" y1="210" x2="175" y2="211" style="stroke:black;stroke-width:1" />
    <line x1="166" y1="208" x2="175" y2="217" style="stroke:black;stroke-width:1" />
	<path d = "M205 221 L205 195 L179 195 L179 221 L205 221 Z" stroke = "black" stroke-width = "1" fill = "none" />    <line x1="192" y1="208" x2="204" y2="205" style="stroke:black;stroke-width:1" />
    <line x1="192" y1="208" x2="204" y2="211" style="stroke:black;stroke-width:1" />
    <line x1="192" y1="208" x2="194" y2="210" style="stroke:black;stroke-width:1" />
    <line x1="196" y1="213" x2="199" y2="215" style="stroke:black;stroke-width:1" />
    <line x1="192" y1="208" x2="194" y2="206" style="stroke:black;stroke-width:1" />
    <line x1="196" y1="203" x2="199" y2="201" style="stroke:black;stroke-width:1" />
	<path d = "M231 221 L231 195 L205 195 L205 221 L231 221 Z" stroke = "black" stroke-width = "1" fill = "none" />    <line x1="218" y1="221" x2="231" y2="208" style="stroke:black;stroke-width:1" />
    <line x1="231" y1="208" x2="218" y2="195" style="stroke:black;stroke-width:1" />
    <line x1="218" y1="195" x2="205" y2="208" style="stroke:black;stroke-width:1" />
    <line x1="205" y1="208" x2="218" y2="221" style="stroke:black;stroke-width:1" />
	<path d = "M257 221 L257 195 L231 195 L231 221 L257 221 Z" stroke = "black" stroke-width = "1" fill = "none" />	<path d = "M257 221 L244 181 L231 221 L257 221 Z" stroke = "black" stroke-width = "1" fill = "none" />    <line x1="257" y1="221" x2="236" y2="206" style="stroke:black;stroke-width:1" />
    <line x1="236" y1="206" x2="249" y2="196" style="stroke:black;stroke-width:1" />
    <line x1="249" y1="196" x2="241" y2="190" style="stroke:black;stroke-width:1" />
	<path d = "M283 221 L283 195 L257 195 L257 221 L283 221 Z" stroke = "black" stroke-width = "1" fill = "none" />	<path d = "M283 221 L270 198 L257 221 " stroke = "black" stroke-width = "1" fill = "none" />    <line x1="270" y1="214" x2="270" y2="198" style="stroke:black;stroke-width:1" />
    <line x1="270" y1="214" x2="283" y2="221" style="stroke:black;stroke-width:1" />
    <line x1="270" y1="214" x2="257" y2="221" style="stroke:black;stroke-width:1" />
	<path d = "M309 221 L309 195 L283 195 L283 221 L309 221 Z" stroke = "black" stroke-width = "1" fill = "none" />	<path d = "M303 215 L303 208 L296 208 L290 208 L290 215 L296 215 L303 215 Z" stroke = "black" stroke-width = "1" fill = "none" />    <line x1="296" y1="215" x2="296" y2="208" style="stroke:black;stroke-width:1" />
	<path d = "M335 221 L335 195 L309 195 L309 221 L335 221 Z" stroke = "black" stroke-width = "1" fill = "none" />	<path d = "M318 212 L318 204 L309 204 L309 212 L318 212 Z" stroke = "black" stroke-width = "1" fill = "none" />	<path d = "M327 212 L327 204 L318 204 L318 212 L327 212 Z" stroke = "black" stroke-width = "1" fill = "none" />	<path d = "M335 212 L335 204 L327 204 L327 212 L335 212 Z" stroke = "black" stroke-width = "1" fill = "none" />	<path d = "M362 221 L362 195 L335 195 L335 221 L362 221 Z" stroke = "black" stroke-width = "1" fill = "none" />    <circle cx="342" cy = "215" r = "3.265658083464243" stroke = "black" stroke-width = "1" fill = "none" />
    <circle cx="342" cy = "201" r = "3.265658083464243" stroke = "black" stroke-width = "1" fill = "none" />
    <circle cx="348" cy = "208" r = "3.265658083464243" stroke = "black" stroke-width = "1" fill = "none" />
    <circle cx="355" cy = "201" r = "3.265658083464243" stroke = "black" stroke-width = "1" fill = "none" />
    <circle cx="355" cy = "215" r = "3.265658083464243" stroke = "black" stroke-width = "1" fill = "none" />
	<path d = "M87 247 L87 221 L61 221 L61 247 L87 247 Z" stroke = "black" stroke-width = "1" fill = "none" /><circle cx="68" cy = "241" r = "1" stroke = "black" stroke-width = "1" fill = "black" />
	<path d = "M68 241 L68 228 L81 228 " stroke = "black" stroke-width = "1" fill = "none" />	<path d = "M76 223 L81 228 L76 232 " stroke = "black" stroke-width = "1" fill = "none" />    <line x1="87" y1="247" x2="92" y2="243" style="stroke:black;stroke-width:1" />
    <line x1="94" y1="247" x2="98" y2="243" style="stroke:black;stroke-width:1" />
    <line x1="100" y1="247" x2="105" y2="243" style="stroke:black;stroke-width:1" />
    <line x1="107" y1="247" x2="111" y2="243" style="stroke:black;stroke-width:1" />
	<path d = "M113 247 L113 221 L87 221 L87 247 L113 247 Z" stroke = "black" stroke-width = "1" fill = "none" />    <line x1="94" y1="234" x2="107" y2="234" style="stroke:black;stroke-width:1" />
    <line x1="107" y1="234" x2="104" y2="236" style="stroke:black;stroke-width:1" />
    <line x1="107" y1="234" x2="104" y2="232" style="stroke:black;stroke-width:1" />
    <line x1="113" y1="247" x2="118" y2="243" style="stroke:black;stroke-width:1" />
    <line x1="120" y1="247" x2="124" y2="243" style="stroke:black;stroke-width:1" />
    <line x1="126" y1="247" x2="131" y2="243" style="stroke:black;stroke-width:1" />
    <line x1="133" y1="247" x2="138" y2="243" style="stroke:black;stroke-width:1" />
	<path d = "M139 247 L139 221 L113 221 L113 247 L139 247 Z" stroke = "black" stroke-width = "1" fill = "none" />	<path d = "M120 228 L133 228 L133 241 " stroke = "black" stroke-width = "1" fill = "none" />	<path d = "M128 236 L133 241 L138 236 " stroke = "black" stroke-width = "1" fill = "none" /><circle cx="133" cy = "241" r = "1" stroke = "black" stroke-width = "1" fill = "black" />
	<path d = "M166 247 L166 221 L139 221 L139 247 L166 247 Z" stroke = "black" stroke-width = "1" fill = "none" />    <line x1="146" y1="241" x2="159" y2="241" style="stroke:black;stroke-width:1" />
<circle cx="146" cy = "241" r = "1" stroke = "black" stroke-width = "1" fill = "black" />
<path    d = "M146,241 C159,241 146,228 159,228" fill = "none" stroke-width = "1" stroke = "black" />    <line x1="139" y1="247" x2="144" y2="243" style="stroke:black;stroke-width:1" />
    <line x1="146" y1="247" x2="151" y2="243" style="stroke:black;stroke-width:1" />
    <line x1="153" y1="247" x2="157" y2="243" style="stroke:black;stroke-width:1" />
    <line x1="159" y1="247" x2="164" y2="243" style="stroke:black;stroke-width:1" />
	<path d = "M192 247 L192 221 L166 221 L166 247 L192 247 Z" stroke = "black" stroke-width = "1" fill = "none" />    <line x1="172" y1="241" x2="185" y2="241" style="stroke:black;stroke-width:1" />
<circle cx="172" cy = "241" r = "1" stroke = "black" stroke-width = "1" fill = "black" />
<path    d = "M172,241 C185,241 172,228 185,228" fill = "none" stroke-width = "1" stroke = "black" />	<path d = "M218 247 L218 221 L192 221 L192 247 L218 247 Z" stroke = "black" stroke-width = "1" fill = "none" /><path    d = "M198,241 C211,241 198,228 211,228" fill = "none" stroke-width = "1" stroke = "black" /><circle cx="211" cy = "228" r = "1" stroke = "black" stroke-width = "1" fill = "black" />
    <line x1="211" y1="228" x2="198" y2="228" style="stroke:black;stroke-width:1" />
	<path d = "M244 247 L244 221 L218 221 L218 247 L244 247 Z" stroke = "black" stroke-width = "1" fill = "none" /><path    d = "M224,241 C237,241 224,228 237,228" fill = "none" stroke-width = "1" stroke = "black" /><circle cx="237" cy = "228" r = "1" stroke = "black" stroke-width = "1" fill = "black" />
    <line x1="237" y1="228" x2="224" y2="228" style="stroke:black;stroke-width:1" />
    <line x1="218" y1="247" x2="222" y2="243" style="stroke:black;stroke-width:1" />
    <line x1="224" y1="247" x2="229" y2="243" style="stroke:black;stroke-width:1" />
    <line x1="231" y1="247" x2="235" y2="243" style="stroke:black;stroke-width:1" />
    <line x1="237" y1="247" x2="242" y2="243" style="stroke:black;stroke-width:1" />
    <line x1="244" y1="247" x2="249" y2="243" style="stroke:black;stroke-width:1" />
    <line x1="250" y1="247" x2="255" y2="243" style="stroke:black;stroke-width:1" />
    <line x1="257" y1="247" x2="262" y2="243" style="stroke:black;stroke-width:1" />
    <line x1="264" y1="247" x2="268" y2="243" style="stroke:black;stroke-width:1" />
	<path d = "M270 247 L270 221 L244 221 L244 247 L270 247 Z" stroke = "black" stroke-width = "1" fill = "none" />  <path d="M243.9419034964097 247.21643454557417           A26.125264667713942 26.125264667713942 0 0 1 270.06716816412313 221.09116987785984" fill = "none" stroke = "black" stroke-width = "1" />
    <line x1="270" y1="247" x2="275" y2="243" style="stroke:black;stroke-width:1" />
    <line x1="277" y1="247" x2="281" y2="243" style="stroke:black;stroke-width:1" />
    <line x1="283" y1="247" x2="288" y2="243" style="stroke:black;stroke-width:1" />
    <line x1="290" y1="247" x2="294" y2="243" style="stroke:black;stroke-width:1" />
	<path d = "M296 247 L296 221 L270 221 L270 247 L296 247 Z" stroke = "black" stroke-width = "1" fill = "none" />  <path d="M270.0671681641234 221.09116987785927           A26.125264667713942 26.125264667713942 0 0 1 296.1924328318373 247.2164345455731" fill = "none" stroke = "black" stroke-width = "1" />
	<path d = "M322 247 L322 221 L296 221 L296 247 L322 247 Z" stroke = "black" stroke-width = "1" fill = "none" />    <circle cx="309" cy = "234" r = "6.531316166928486" stroke = "black" stroke-width = "1" fill = "black" />
	<path d = "M348 247 L348 221 L322 221 L322 247 L348 247 Z" stroke = "black" stroke-width = "1" fill = "none" />	<path d = "M325 231 L330 240 L335 231 L340 240 L345 231 " stroke = "black" stroke-width = "1" fill = "none" />    <line x1="348" y1="247" x2="353" y2="243" style="stroke:black;stroke-width:1" />
    <line x1="355" y1="247" x2="360" y2="243" style="stroke:black;stroke-width:1" />
    <line x1="362" y1="247" x2="366" y2="243" style="stroke:black;stroke-width:1" />
    <line x1="368" y1="247" x2="373" y2="243" style="stroke:black;stroke-width:1" />
	<path d = "M375 247 L375 221 L348 221 L348 247 L375 247 Z" stroke = "black" stroke-width = "1" fill = "none" />	<path d = "M368 241 L368 228 L355 228 L355 241 L368 241 Z" stroke = "black" stroke-width = "1" fill = "none" />	<path d = "M401 247 L401 221 L375 221 L375 247 L401 247 Z" stroke = "black" stroke-width = "1" fill = "none" />    <line x1="381" y1="234" x2="394" y2="234" style="stroke:black;stroke-width:1" />
    <line x1="394" y1="234" x2="392" y2="236" style="stroke:black;stroke-width:1" />
    <line x1="394" y1="234" x2="392" y2="232" style="stroke:black;stroke-width:1" />
	<path d = "M100 273 L100 247 L74 247 L74 273 L100 273 Z" stroke = "black" stroke-width = "1" fill = "none" />	<path d = "M90 267 L84 267 L84 260 L81 260 L84 257 L87 254 L90 257 L94 260 L90 260 L90 267 Z" stroke = "black" stroke-width = "1" fill = "none" />	<path d = "M126 273 L126 247 L100 247 L100 273 L126 273 Z" stroke = "black" stroke-width = "1" fill = "none" />	<path d = "M110 254 L117 254 L117 260 L120 260 L117 264 L113 267 L110 264 L107 260 L110 260 L110 254 Z" stroke = "black" stroke-width = "1" fill = "none" />	<path d = "M153 273 L153 247 L126 247 L126 273 L153 273 Z" stroke = "black" stroke-width = "1" fill = "none" />	<path d = "M146 257 L146 264 L139 264 L139 267 L136 264 L133 260 L136 257 L139 254 L139 257 L146 257 Z" stroke = "black" stroke-width = "1" fill = "none" />	<path d = "M179 273 L179 247 L153 247 L153 273 L179 273 Z" stroke = "black" stroke-width = "1" fill = "none" />	<path d = "M159 264 L159 257 L166 257 L166 254 L169 257 L172 260 L169 264 L166 267 L166 264 L159 264 Z" stroke = "black" stroke-width = "1" fill = "none" />	<path d = "M205 273 L205 247 L179 247 L179 273 L205 273 Z" stroke = "black" stroke-width = "1" fill = "none" />  <path d="M187.0730362092708 255.6607289276999           A6.531316166928491 6.531316166928491 0 0 1 196.30971211268772 255.66072892770038" fill = "none" stroke = "black" stroke-width = "1" />
  <path d="M187.07303620927027 264.89740483111683           A6.531316166928491 6.531316166928491 0 0 1 187.0730362092708 255.6607289276999" fill = "none" stroke = "black" stroke-width = "1" />
  <path d="M196.30971211268718 264.8974048311174           A6.531316166928491 6.531316166928491 0 0 1 187.07303620927027 264.89740483111683" fill = "none" stroke = "black" stroke-width = "1" />
	<path d = "M194 271 L196 265 L190 262 " stroke = "black" stroke-width = "1" fill = "none" />	<path d = "M231 273 L231 247 L205 247 L205 273 L231 273 Z" stroke = "black" stroke-width = "1" fill = "none" />  <path d="M222.43497678040103 264.8974048311185           A6.531316166928491 6.531316166928491 0 0 1 213.19830087698412 264.8974048311179" fill = "none" stroke = "black" stroke-width = "1" />
  <path d="M213.19830087698412 264.8974048311179           A6.531316166928491 6.531316166928491 0 0 1 213.19830087698466 255.66072892770097" fill = "none" stroke = "black" stroke-width = "1" />
  <path d="M213.19830087698466 255.66072892770097           A6.531316166928491 6.531316166928491 0 0 1 222.43497678040157 255.66072892770146" fill = "none" stroke = "black" stroke-width = "1" />
	<path d = "M216 258 L222 256 L220 250 " stroke = "black" stroke-width = "1" fill = "none" />	<path d = "M257 273 L257 247 L231 247 L231 273 L257 273 Z" stroke = "black" stroke-width = "1" fill = "none" />    <line x1="250" y1="260" x2="237" y2="260" style="stroke:black;stroke-width:1" />
	<path d = "M283 273 L283 247 L257 247 L257 273 L283 273 Z" stroke = "black" stroke-width = "1" fill = "none" />    <line x1="270" y1="260" x2="270" y2="254" style="stroke:black;stroke-width:1" />
    <line x1="270" y1="260" x2="264" y2="260" style="stroke:black;stroke-width:1" />
    <line x1="270" y1="260" x2="270" y2="267" style="stroke:black;stroke-width:1" />
    <line x1="270" y1="260" x2="277" y2="260" style="stroke:black;stroke-width:1" />
	<path d = "M113 299 L113 273 L87 273 L87 299 L113 299 Z" stroke = "black" stroke-width = "1" fill = "none" /><circle cx="100" cy = "286" r = "1" stroke = "black" stroke-width = "1" fill = "black" />
	<path d = "M139 299 L139 273 L113 273 L113 299 L139 299 Z" stroke = "black" stroke-width = "1" fill = "none" />    <circle cx="126" cy = "286" r = "13.062632333856982" stroke = "black" stroke-width = "1" fill = "none" />
<circle cx="126" cy = "286" r = "1" stroke = "black" stroke-width = "1" fill = "black" />
	<path d = "M166 299 L166 273 L139 273 L139 299 L166 299 Z" stroke = "black" stroke-width = "1" fill = "none" />    <line x1="153" y1="286" x2="146" y2="286" style="stroke:black;stroke-width:1" />
<circle cx="146" cy = "286" r = "1" stroke = "black" stroke-width = "1" fill = "black" />
    <line x1="153" y1="286" x2="159" y2="286" style="stroke:black;stroke-width:1" />
<circle cx="159" cy = "286" r = "1" stroke = "black" stroke-width = "1" fill = "black" />
	<path d = "M192 299 L192 273 L166 273 L166 299 L192 299 Z" stroke = "black" stroke-width = "1" fill = "none" />  <path d="M169.392065923704 277.1676556436982           A13.062632333856982 13.062632333856982 0 0 1 187.8654177305378 277.16765564370195" fill = "none" stroke = "black" stroke-width = "1" />
    <line x1="179" y1="286" x2="188" y2="277" style="stroke:black;stroke-width:1" />
    <line x1="179" y1="286" x2="169" y2="277" style="stroke:black;stroke-width:1" />
<circle cx="179" cy = "286" r = "1" stroke = "black" stroke-width = "1" fill = "black" />
	<path d = "M218 299 L218 273 L192 273 L192 299 L218 299 Z" stroke = "black" stroke-width = "1" fill = "none" />	<path d = "M211 293 L211 280 L198 280 L198 293 L211 293 Z" stroke = "black" stroke-width = "1" fill = "none" /></svg>