<svg width="447" height="238" viewbox = "0 0 447 238"  xmlns="http://www.w3.org/2000/svg">

<!--
<json>
{
    "svgwidth": 447,
    "svgheight": 238,
    "unit": 391.5999999999999,
    "x0": 494,
    "y0": 325,
    "x0rel": -190,
    "y0rel": -94,
    "glyph": "0237,",
    "table": [
        "0220:0200,0306,0335,0311,0336,0201,0334,0337,0201,0334,0334,0336,0342,0335,0337,0350,0334,0201,0334,0336,0201,0335,0335,0335,0335,0337,0331,0304,0333,0313,",
        "0221:0336,0336,0336,0333,0337,0337,0337,0342,",
        "0222:0334,0336,0336,0362,0203,0335,0203,0203,0334,0203,0335,0350,0310,0335,0337,0203,0203,0335,0335,0203,0203,0335,0335,0335,0336,0203,0304,0313,0334,0203,0203,0335,0203,0363,0335,0337,0337,",
        "0223:0334,0336,0350,0310,0362,0203,0335,0335,0335,0337,0203,0335,0335,0203,0335,0335,0335,0336,0203,0363,0335,0335,0330,0330,0304,0313,0337,",
        "0224:0220,0332,0221,0221,0221,0221,0221,0221,0221,0334,0336,0336,0336,0331,0337,0337,0337,0221,0221,0221,0221,0221,0221,0221,0335,0331,0336,0336,0336,0330,0337,0337,0337,0306,0313,0336,0336,0336,0330,0335,0337,0337,0337,0311,0336,0342,0337,0313,0336,0336,0336,0332,0337,0337,0337,0311,0336,0342,0337,0313,0336,0336,0336,0332,0337,0337,0337,0311,0336,0342,0337,0313,0336,0336,0336,0332,0337,0337,0337,0311,0336,0342,0337,0313,0336,0336,0336,0332,0337,0337,0337,0311,0336,0342,0337,0313,0336,0336,0336,0332,0337,0337,0337,0311,0336,0342,0337,0313,0336,0336,0336,0332,0337,0337,0337,0311,0336,0342,0337,0313,0336,0336,0336,0332,0337,0337,0337,0311,0336,0335,0335,0335,0331,0313,0336,0336,0336,0330,0334,0337,0337,0337,0311,0337,0342,0336,0313,0336,0336,0336,0333,0337,0337,0337,0311,0337,0342,0313,0336,0336,0336,0311,0336,0333,0337,0313,0337,0337,0337,0342,0336,0336,0336,0311,0336,0333,0337,0313,0337,0337,0337,0342,0336,0336,0336,0311,0336,0333,0337,0313,0337,0337,0337,0342,0336,0336,0336,0311,0336,0333,0337,0313,0337,0337,0337,0342,0336,0336,0336,0311,0336,0333,0337,0313,0337,0337,0337,0342,0335,0350,0335,0351,0306,0330,0335,0335,0335,0350,0342,0313,0336,0336,0336,0311,0336,0332,0337,0313,0337,0337,0337,0342,0336,0336,0336,0311,0336,0332,0337,0313,0337,0337,0337,0342,0336,0336,0336,0311,0336,0332,0337,0313,0337,0337,0337,0342,0336,0336,0336,0311,0336,0332,0337,0313,0337,0337,0337,0342,0336,0336,0336,0311,0336,0332,0337,0313,0337,0337,0337,0342,0336,0336,0336,0311,0336,0332,0337,0313,0337,0337,0337,0342,0336,0336,0336,0311,0336,0332,0337,0313,0337,0337,0337,0334,0311,0336,0331,0311,0337,0313,0336,0336,0336,0333,0337,0337,0337,0311,0336,0342,0337,0313,0336,0336,0336,0333,0337,0337,0337,0311,0336,0342,0337,0313,0336,0336,0336,0333,0337,0337,0337,0311,0336,0342,0337,0313,0336,0336,0336,0333,0337,0337,0337,0311,0336,0342,0337,0313,0336,0336,0336,0333,0337,0337,0337,0311,0336,0342,0337,0313,0336,0336,0336,0333,0337,0337,0337,0311,0336,0342,0337,0313,0336,0336,0336,0333,0337,0337,0337,0311,0336,0342,0337,0313,0336,0336,0336,0333,0334,0334,0313,0304,0337,0337,0337,0331,",
        "0225:0332,0224,0333,0333,0224,0331,0332,0332,0332,0336,0330,0336,0330,0336,0337,0101,0143,0164,0151,0157,0156,040,0365,0333,0333,0333,0333,0333,0333,0333,0333,0123,0171,0155,0142,0157,0154,0365,0330,0337,0337,",
        "0226:0333,0200,0332,0221,0221,0221,0221,0221,0221,0221,0336,0336,0336,0333,0337,0337,0337,0334,0221,0221,0221,0221,0221,0221,0221,0335,0331,0336,0336,0336,0330,0337,0337,0337,",
        "0227:0224,0370,0332,0336,0336,0336,0331,0336,0336,0330,0333,0322,0337,060,0365,0333,0333,061,0365,0333,0333,062,0365,0333,0333,063,0365,0333,0333,064,0365,0333,0333,065,0365,0333,0333,066,0365,0333,0333,067,0365,0325,0333,0333,0330,0336,0331,0337,0311,0336,0306,060,0337,0365,0336,0333,0333,061,0337,0365,0336,0333,0333,062,0337,0365,0336,0333,0333,063,0337,0365,0336,0333,0333,064,0337,0365,0336,0333,0333,065,0337,0365,0336,0333,0333,066,0337,0365,0336,0333,0333,067,0337,0365,0336,0335,0337,0331,0331,0331,0331,0331,0331,0331,0331,0331,0334,0371,0326,0332,0336,0336,0336,0336,0336,0330,0332,0332,0337,060,0365,0330,0330,061,0365,0330,0330,062,0365,0330,0330,063,0365,0330,0330,064,0365,0330,0330,065,0365,0330,0330,066,0365,0330,0330,067,0365,0371,0320,0336,0331,0332,0336,0330,0332,0336,0331,0337,060,0365,0336,0336,0333,0333,0333,0337,0337,0172,0326,0365,0336,0336,0333,0333,0333,0337,0337,0171,0325,0365,0336,0336,0333,0333,0333,0337,0337,0170,0322,0365,0371,0320,",
        "0230:0336,0336,0336,060,062,060,060,072,060,063,066,062,054,060,062,060,063,054,060,063,063,064,054,060,062,060,063,054,060,063,063,064,054,060,062,060,063,054,060,063,060,064,054,060,062,060,063,054,060,063,063,064,054,060,063,065,064,054,0365,0337,0337,0337,",
        "0231:0336,0336,0336,0331,1300,0333,0333,0333,1304,1305,1306,0331,0332,0332,0332,0332,0332,0332,0332,1310,1311,1312,1313,1314,1316,0333,0331,0332,0332,0332,0332,0332,0332,0332,1320,1321,1322,1323,1324,1325,1326,1327,0331,0332,0332,0332,0332,0332,0332,0332,0332,1330,1331,1332,1333,1334,1335,1336,1337,0330,0330,0201,0201,0334,0201,0201,0201,0201,0201,0201,0201,0201,0335,0333,0333,0333,0333,0333,0333,0331,0333,0333,0331,0331,0331,0337,0337,0332,0332,0337,",
        "0232:0336,0336,0336,0331,01340,01341,01342,01343,01344,01345,01346,01347,0331,0332,0332,0332,0332,0332,0332,0332,0332,01350,01351,01352,01353,01354,01355,01356,01357,0331,0332,0332,0332,0332,0332,01360,01361,01362,01363,01364,01365,01366,01367,0331,0332,0332,0332,0332,0332,0332,0332,0332,01370,01371,01372,01373,01374,01375,01376,01377,0337,0337,0337,0332,",
        "0233:0231,0232,",
        "0234:0331,226,0336,0331,0337,0332,0226,0330,0332,0336,0330,0336,0336,0331,0336,0336,0330,0333,0337,0333,0333,041,0365,0333,0333,042,0365,0333,0333,043,0365,0333,0333,044,0365,0333,0333,045,0365,0333,0333,046,0365,0333,0333,047,0365,0331,0331,0337,0337,0337,0332,0332,0336,0336,0333,0336,050,0365,0333,0333,051,0365,0333,0333,052,0365,0333,0333,053,0365,0333,0333,054,0365,0333,0333,055,0365,0333,0333,056,0365,0333,0333,057,0365,0331,0331,0337,0337,0337,0337,0332,0336,0336,0336,0333,0336,060,0365,0333,0333,061,0365,0333,0333,062,0365,0333,0333,063,0365,0333,0333,064,0365,0333,0333,065,0365,0333,0333,066,0365,0333,0333,067,0365,0331,0331,0337,0337,0337,0337,0332,0336,0336,0336,0333,0336,070,0365,0333,0333,071,0365,0333,0333,072,0365,0333,0333,073,0365,0333,0333,074,0365,0333,0333,075,0365,0333,0333,076,0365,0333,0333,077,0365,0337,0337,0337,0337,0332,0336,0330,0336,0336,0333,0336,0336,0331,0332,0337,0337,0337,0337,0337,",
        "0235:0234,0336,0331,0336,0331,0336,0330,0336,0336,0330,0333,0337,0100,0365,0333,0333,0101,0365,0333,0333,0102,0365,0333,0333,0103,0365,0333,0333,0104,0365,0333,0333,0105,0365,0333,0333,0106,0365,0333,0333,0107,0365,0331,0331,0332,0332,0332,0332,0332,0332,0332,0332,0332,0332,0332,0332,0332,0332,0110,0365,0333,0333,0111,0365,0333,0333,0112,0365,0333,0333,0113,0365,0333,0333,0114,0365,0333,0333,0115,0365,0333,0333,0116,0365,0333,0333,0117,0365,0331,0331,0337,0337,0337,0332,0336,0336,0332,0332,0332,0336,0120,0365,0333,0333,0121,0365,0333,0333,0122,0365,0333,0333,0123,0365,0333,0333,0124,0365,0333,0333,0125,0365,0333,0333,0126,0365,0333,0333,0127,0365,0331,0331,0337,0337,0337,0332,0336,0332,0336,0332,0336,0130,0365,0333,0333,0131,0365,0333,0333,0132,0365,0333,0333,0133,0365,0333,0333,0134,0365,0333,0333,0135,0365,0333,0333,0136,0365,0333,0333,0137,0365,0336,0332,0331,0337,0337,0333,0337,0337,0330,0332,0332,0330,0337,",
        "0236:0235,0331,0336,0336,0336,0331,0336,0336,0330,0333,0337,0140,0365,0333,0333,0141,0365,0333,0333,0142,0365,0333,0333,0143,0365,0333,0333,0144,0365,0333,0333,0145,0365,0333,0333,0146,0365,0333,0333,0147,0365,0331,0331,0337,0337,0337,0337,0332,0336,0336,0336,0333,0336,0150,0365,0333,0333,0151,0365,0333,0333,0152,0365,0333,0333,0153,0365,0333,0333,0154,0365,0333,0333,0155,0365,0333,0333,0156,0365,0333,0333,0157,0365,0331,0331,0337,0337,0337,0337,0332,0336,0336,0336,0333,0336,0160,0365,0333,0333,0161,0365,0333,0333,0162,0365,0333,0333,0163,0365,0333,0333,0164,0365,0333,0333,0165,0365,0333,0333,0166,0365,0333,0333,0167,0365,0337,0337,0337,0337,0332,0336,0336,0336,0333,0331,0336,0170,0365,0333,0333,0171,0365,0333,0333,0172,0365,0333,0333,0173,0365,0333,0333,0174,0365,0333,0333,0175,0365,0333,0333,0176,0365,0333,0333,0365,0336,0331,0332,0337,0337,0333,0337,0337,0337,0330,0336,0332,0332,0330,0337,",
        "0237:0336,0336,0336,0333,0331,0200,0333,0200,0333,0200,0333,0200,0333,0200,0333,0200,0333,0200,0333,0200,0331,0332,0332,0332,0332,0332,0332,0332,0332,01010,0333,0200,0333,0200,0333,0200,0333,0200,0333,0200,0333,0200,0333,0200,0331,0332,0332,0332,0332,0332,0332,0332,0332,01020,01021,01022,01023,01024,01025,01026,01027,0331,0332,0332,0332,0332,0332,0332,0332,0332,01030,01031,01032,01033,01034,01035,01036,01037,0332,0332,0332,0200,0333,0200,0330,0330,0330,0330,0332,0332,0332,0332,0332,0332,0337,0337,0337,",
        "0240:0336,0336,0336,0330,0337,0337,0337,0210,0210,0210,0210,0222,0211,0211,0211,0211,0330,0336,0336,0336,0331,0337,0337,0337,",
        "0241:0336,0330,0337,0210,0210,0221,0211,0211,0330,0336,0331,0337,",
        "0242:0336,0330,0225,0330,0337,",
        "0243:0224,0320,0336,0330,0337,",
        "0244:0243,0243,0243,0243,",
        "0245:0321,0337,0201,0320,0336,0334,0336,0336,0306,0336,0362,0203,0335,0335,0337,0203,0335,0335,0203,0335,0335,0336,0203,0363,0304,0335,0337,0337,0337,0337,0331,0336,",
        "0246:0320,0335,0306,0350,0334,0330,0321,0337,0366,0336,0331,0335,0335,0330,0337,0336,0336,0336,0336,0336,0330,0337,0337,0337,0337,0337,0367,0336,0336,0336,0336,0336,0331,0335,0337,0320,0337,0362,0203,0334,0334,0334,0334,0203,0334,0334,0334,0334,0203,0363,0335,0337,0337,0330,0335,0335,0304,",
        "0247:0341,0333,0336,0332,0341,",
        "0250:0237,",
        "01220:0333,0200,0336,0332,0220,0333,0337,",
        "01221:0333,0200,0332,0221,0221,0221,0221,0221,0221,0221,0336,0336,0336,0333,0337,0337,0337,",
        "01222:0333,0200,0336,0332,0337,0222,0336,0333,0337,0331,0330,",
        "01223:0333,0200,0336,0332,0337,0223,0336,0333,0337,0331,",
        "01224:0333,0200,0336,0336,0332,0337,0337,0210,0210,0224,0211,0211,0336,0336,0333,0337,0337,",
        "01225:0333,0200,0336,0330,0332,0336,0332,0336,0333,0337,0200,0333,0333,0200,0331,0334,0336,0333,0337,0342,0330,0330,0342,0335,0333,0333,0331,0336,0333,0331,0337,0337,0337,",
        "01226:0226,",
        "01227:0333,0200,0336,0336,0336,0330,0332,0332,0330,0337,0337,0337,0210,0210,0210,0210,0227,0211,0211,0211,0211,0336,0336,0333,0331,0337,0337,",
        "01230:0333,0200,0336,0330,0332,0336,0332,0332,0336,0333,0337,060,062,060,060,072,0365,0336,0332,0337,0337,0333,0331,0333,0337,",
        "01231:0333,0200,0332,0336,0330,0330,0337,0231,0333,0336,0331,0337,",
        "01232:0333,0200,0336,0330,0332,0332,0337,0232,0333,",
        "01233:0333,0200,0330,0332,0233,0333,",
        "01234:0330,0234,0333,0331,",
        "01235:0333,0200,0330,0332,0235,0331,0333,",
        "01236:0333,0200,0330,0332,0236,0333,0331,",
        "01237:0333,0200,0330,0332,0237,0333,0331,",
        "01240:0333,0200,0336,0336,0332,0332,0240,0333,0333,0337,0337,",
        "01241:0333,0200,0336,0332,0241,0333,0337,",
        "01242:0333,0200,0336,0332,0332,0336,0330,0330,0242,0336,0331,0331,0331,0331,0332,0337,0337,0337,",
        "01243:0333,0200,0336,0332,0332,0243,0337,",
        "01244:0333,0200,0332,0336,0330,0336,0336,0243,0243,0243,0243,0331,0331,0331,0331,0337,0337,0337,",
        "01245:0333,0200,0336,0332,0336,0331,0337,0245,0333,0336,0330,0337,0337,",
        "01246:0333,0200,0330,0332,0336,0331,0336,0332,0337,0246,0333,0333,0336,0333,0331,0331,0337,0337,",
        "01247:0333,0200,0336,0330,0332,0337,0247,0336,0333,0331,0337,"
    ],
    "imgurl": "",
    "imgx": 0,
    "imgy": 0,
    "imgw": 278,
    "angle": 7.853981633974483,
    "styleJSON": {
        "color0": "black",
        "fill0": "black",
        "line0": 1,
        "color1": "black",
        "fill1": "black",
        "line1": 3,
        "color2": "red",
        "fill2": "red",
        "line2": 1,
        "color3": "#FF7900",
        "fill3": "#FF7900",
        "line3": 1,
        "color4": "yellow",
        "fill4": "yellow",
        "line4": 1,
        "color5": "green",
        "fill5": "green",
        "line5": 1,
        "color6": "blue",
        "fill6": "blue",
        "line6": 1,
        "color7": "purple",
        "fill7": "purple",
        "line7": 1
    }
}
</json>
-->
	<path d = "M82 74 L82 25 L34 25 L33 74 L82 74 Z" stroke = "black" stroke-width = "1" fill = "none" />	<path d = "M131 74 L131 25 L82 25 L82 74 L131 74 Z" stroke = "black" stroke-width = "1" fill = "none" />	<path d = "M180 74 L180 25 L131 25 L131 74 L180 74 Z" stroke = "black" stroke-width = "1" fill = "none" />	<path d = "M229 74 L229 25 L180 25 L180 74 L229 74 Z" stroke = "black" stroke-width = "1" fill = "none" />	<path d = "M278 74 L278 25 L229 25 L229 74 L278 74 Z" stroke = "black" stroke-width = "1" fill = "none" />	<path d = "M327 74 L327 25 L278 25 L278 74 L327 74 Z" stroke = "black" stroke-width = "1" fill = "none" />	<path d = "M376 74 L376 25 L327 25 L327 74 L376 74 Z" stroke = "black" stroke-width = "1" fill = "none" />	<path d = "M425 74 L425 25 L376 25 L376 74 L425 74 Z" stroke = "black" stroke-width = "1" fill = "none" />	<path d = "M82 123 L82 74 L34 74 L34 123 L82 123 Z" stroke = "black" stroke-width = "1" fill = "none" />    <line x1="82" y1="123" x2="34" y2="74" style="stroke:black;stroke-width:1" />
    <line x1="34" y1="123" x2="82" y2="74" style="stroke:black;stroke-width:1" />
	<path d = "M131 123 L131 74 L82 74 L82 123 L131 123 Z" stroke = "black" stroke-width = "1" fill = "none" />	<path d = "M180 123 L180 74 L131 74 L131 123 L180 123 Z" stroke = "black" stroke-width = "1" fill = "none" />	<path d = "M229 123 L229 74 L180 74 L180 123 L229 123 Z" stroke = "black" stroke-width = "1" fill = "none" />	<path d = "M278 123 L278 74 L229 74 L229 123 L278 123 Z" stroke = "black" stroke-width = "1" fill = "none" />	<path d = "M327 123 L327 74 L278 74 L278 123 L327 123 Z" stroke = "black" stroke-width = "1" fill = "none" />	<path d = "M376 123 L376 74 L327 74 L327 123 L376 123 Z" stroke = "black" stroke-width = "1" fill = "none" />	<path d = "M425 123 L425 74 L376 74 L376 123 L425 123 Z" stroke = "black" stroke-width = "1" fill = "none" />	<path d = "M82 172 L82 123 L33 123 L33 172 L82 172 Z" stroke = "black" stroke-width = "1" fill = "none" />	<path d = "M52 147 L52 135 L40 135 L40 147 L52 147 Z" stroke = "black" stroke-width = "1" fill = "none" />	<path d = "M76 147 L76 135 L64 135 L64 147 L76 147 Z" stroke = "black" stroke-width = "1" fill = "none" />    <line x1="52" y1="141" x2="64" y2="141" style="stroke:black;stroke-width:1" />
    <line x1="52" y1="141" x2="56" y2="146" style="stroke:black;stroke-width:1" />
    <line x1="52" y1="141" x2="56" y2="137" style="stroke:black;stroke-width:1" />
	<path d = "M131 172 L131 123 L82 123 L82 172 L131 172 Z" stroke = "black" stroke-width = "1" fill = "none" />	<path d = "M101 147 L101 135 L89 135 L89 147 L101 147 Z" stroke = "black" stroke-width = "1" fill = "none" />	<path d = "M125 147 L125 135 L113 135 L113 147 L125 147 Z" stroke = "black" stroke-width = "1" fill = "none" />    <line x1="101" y1="141" x2="113" y2="141" style="stroke:black;stroke-width:1" />
    <line x1="113" y1="141" x2="109" y2="146" style="stroke:black;stroke-width:1" />
    <line x1="113" y1="141" x2="109" y2="137" style="stroke:black;stroke-width:1" />
	<path d = "M180 172 L180 123 L131 123 L131 172 L180 172 Z" stroke = "black" stroke-width = "1" fill = "none" />	<path d = "M150 141 L150 129 L138 129 L138 141 L150 141 Z" stroke = "black" stroke-width = "1" fill = "none" />	<path d = "M162 141 L162 129 L150 129 L150 141 L162 141 Z" stroke = "black" stroke-width = "1" fill = "none" />	<path d = "M174 141 L174 129 L162 129 L162 141 L174 141 Z" stroke = "black" stroke-width = "1" fill = "none" />	<path d = "M150 166 L150 153 L138 153 L138 166 L150 166 Z" stroke = "black" stroke-width = "1" fill = "none" />	<path d = "M162 166 L162 153 L150 153 L150 166 L162 166 Z" stroke = "black" stroke-width = "1" fill = "none" />	<path d = "M174 166 L174 153 L162 153 L162 166 L174 166 Z" stroke = "black" stroke-width = "1" fill = "none" />    <line x1="156" y1="153" x2="156" y2="141" style="stroke:black;stroke-width:1" />
    <line x1="156" y1="141" x2="160" y2="146" style="stroke:black;stroke-width:1" />
    <line x1="156" y1="141" x2="152" y2="146" style="stroke:black;stroke-width:1" />
	<path d = "M229 172 L229 123 L180 123 L180 172 L229 172 Z" stroke = "black" stroke-width = "1" fill = "none" />	<path d = "M199 141 L199 129 L186 129 L186 141 L199 141 Z" stroke = "black" stroke-width = "1" fill = "none" />	<path d = "M211 141 L211 129 L199 129 L199 141 L211 141 Z" stroke = "black" stroke-width = "1" fill = "none" />	<path d = "M223 141 L223 129 L211 129 L211 141 L223 141 Z" stroke = "black" stroke-width = "1" fill = "none" />	<path d = "M199 166 L199 153 L186 153 L186 166 L199 166 Z" stroke = "black" stroke-width = "1" fill = "none" />	<path d = "M211 166 L211 153 L199 153 L199 166 L211 166 Z" stroke = "black" stroke-width = "1" fill = "none" />	<path d = "M223 166 L223 153 L211 153 L211 166 L223 166 Z" stroke = "black" stroke-width = "1" fill = "none" />    <line x1="205" y1="141" x2="205" y2="153" style="stroke:black;stroke-width:1" />
    <line x1="205" y1="153" x2="200" y2="149" style="stroke:black;stroke-width:1" />
    <line x1="205" y1="153" x2="209" y2="149" style="stroke:black;stroke-width:1" />
	<path d = "M278 172 L278 123 L229 123 L229 172 L278 172 Z" stroke = "black" stroke-width = "1" fill = "none" />	<path d = "M266 160 L266 135 L242 135 L242 160 L266 160 Z" stroke = "black" stroke-width = "1" fill = "none" />	<path d = "M260 153 L260 141 L248 141 L248 153 L260 153 Z" stroke = "black" stroke-width = "1" fill = "none" />	<path d = "M257 150 L257 144 L251 144 L251 150 L257 150 Z" stroke = "black" stroke-width = "1" fill = "none" />	<path d = "M327 172 L327 123 L278 123 L278 172 L327 172 Z" stroke = "black" stroke-width = "1" fill = "none" />    <text x="290" y = "147" fill = "black" font-size = "12.237499999999997px" font-family = "arial">SVG</text>
    <line x1="303" y1="153" x2="303" y2="166" style="stroke:black;stroke-width:3" />
	<path d = "M298 161 L303 166 L307 161 " stroke = "black" stroke-width = "3" fill = "none" />	<path d = "M376 172 L376 123 L327 123 L327 172 L376 172 Z" stroke = "black" stroke-width = "1" fill = "none" />	<path d = "M358 153 L358 141 L346 141 L346 153 L358 153 Z" stroke = "black" stroke-width = "1" fill = "none" />    <line x1="358" y1="153" x2="368" y2="147" style="stroke:black;stroke-width:1" />
    <line x1="358" y1="141" x2="368" y2="135" style="stroke:black;stroke-width:1" />
    <line x1="368" y1="135" x2="368" y2="147" style="stroke:black;stroke-width:1" />
    <line x1="346" y1="141" x2="356" y2="135" style="stroke:black;stroke-width:1" />
    <line x1="356" y1="135" x2="368" y2="135" style="stroke:black;stroke-width:1" />
    <line x1="333" y1="147" x2="346" y2="147" style="stroke:black;stroke-width:1" />
    <line x1="346" y1="147" x2="341" y2="152" style="stroke:black;stroke-width:1" />
    <line x1="346" y1="147" x2="341" y2="143" style="stroke:black;stroke-width:1" />
	<path d = "M425 172 L425 123 L376 123 L376 172 L425 172 Z" stroke = "black" stroke-width = "1" fill = "none" />	<path d = "M395 153 L395 141 L382 141 L382 153 L395 153 Z" stroke = "black" stroke-width = "1" fill = "none" />    <line x1="395" y1="153" x2="405" y2="147" style="stroke:black;stroke-width:1" />
    <line x1="395" y1="141" x2="405" y2="135" style="stroke:black;stroke-width:1" />
    <line x1="405" y1="135" x2="405" y2="147" style="stroke:black;stroke-width:1" />
    <line x1="382" y1="141" x2="393" y2="135" style="stroke:black;stroke-width:1" />
    <line x1="393" y1="135" x2="405" y2="135" style="stroke:black;stroke-width:1" />
    <line x1="407" y1="141" x2="419" y2="141" style="stroke:black;stroke-width:1" />
    <line x1="419" y1="141" x2="415" y2="146" style="stroke:black;stroke-width:1" />
    <line x1="419" y1="141" x2="415" y2="137" style="stroke:black;stroke-width:1" />
	<path d = "M82 221 L82 172 L33 172 L33 221 L82 221 Z" stroke = "black" stroke-width = "1" fill = "none" />	<path d = "M58 196 L46 196 L58 184 L70 196 L58 196 " stroke = "black" stroke-width = "1" fill = "none" />	<path d = "M131 221 L131 172 L82 172 L82 221 L131 221 Z" stroke = "black" stroke-width = "1" fill = "none" />	<path d = "M107 196 L119 196 L107 209 L95 196 L107 196 " stroke = "black" stroke-width = "1" fill = "none" />	<path d = "M180 221 L180 172 L131 172 L131 221 L180 221 Z" stroke = "black" stroke-width = "1" fill = "none" />	<path d = "M156 196 L156 209 L144 196 L156 184 L156 196 " stroke = "black" stroke-width = "1" fill = "none" />	<path d = "M229 221 L229 172 L180 172 L180 221 L229 221 Z" stroke = "black" stroke-width = "1" fill = "none" />	<path d = "M205 196 L205 184 L217 196 L205 209 L205 196 " stroke = "black" stroke-width = "1" fill = "none" />	<path d = "M376 221 L376 172 L327 172 L327 221 L376 221 Z" stroke = "black" stroke-width = "1" fill = "none" />	<path d = "M339 196 L339 184 L352 196 L339 209 L339 196 " stroke = "black" stroke-width = "1" fill = "none" />	<path d = "M352 196 L364 184 L364 196 L364 209 L352 196 " stroke = "black" stroke-width = "1" fill = "none" />	<path d = "M425 221 L425 172 L376 172 L376 221 L425 221 Z" stroke = "black" stroke-width = "1" fill = "none" />	<path d = "M388 196 L388 209 L376 196 L388 184 L388 196 " stroke = "black" stroke-width = "1" fill = "none" />	<path d = "M425 196 L413 209 L413 196 L413 184 L425 196 " stroke = "black" stroke-width = "1" fill = "none" />	<path d = "M278 221 L278 172 L229 172 L229 221 L278 221 Z" stroke = "black" stroke-width = "1" fill = "none" />	<path d = "M327 221 L327 172 L278 172 L278 221 L327 221 Z" stroke = "black" stroke-width = "1" fill = "none" /></svg>