<svg width="425" height="508" viewbox = "0 0 425 508"  xmlns="http://www.w3.org/2000/svg">

<!--
<json>
{
    "svgwidth": 425,
    "svgheight": 508,
    "unit": 209.00211734171157,
    "x0": 482.0876752197638,
    "y0": 386.0911698778648,
    "x0rel": -201.9123247802362,
    "y0rel": -32.908830122135214,
    "glyph": "0241,",
    "table": [
        "0220:0200,0306,0335,0311,0336,0201,0334,0337,0201,0334,0334,0336,0342,0335,0337,0350,0334,0201,0334,0336,0201,0335,0335,0335,0335,0337,0331,0304,0333,0313,",
        "0221:0336,0336,0336,0333,0337,0337,0337,0342,",
        "0222:0334,0336,0336,0362,0203,0335,0203,0203,0334,0203,0335,0350,0310,0335,0337,0203,0203,0335,0335,0203,0203,0335,0335,0335,0336,0203,0304,0313,0334,0203,0203,0335,0203,0363,0335,0337,0337,",
        "0223:0334,0336,0350,0310,0362,0203,0335,0335,0335,0337,0203,0335,0335,0203,0335,0335,0335,0336,0203,0363,0335,0335,0330,0330,0304,0313,0337,",
        "0224:0220,0332,0221,0221,0221,0221,0221,0221,0221,0334,0336,0336,0336,0331,0337,0337,0337,0221,0221,0221,0221,0221,0221,0221,0335,0331,0336,0336,0336,0330,0337,0337,0337,0306,0313,0336,0336,0336,0330,0335,0337,0337,0337,0311,0336,0342,0337,0313,0336,0336,0336,0332,0337,0337,0337,0311,0336,0342,0337,0313,0336,0336,0336,0332,0337,0337,0337,0311,0336,0342,0337,0313,0336,0336,0336,0332,0337,0337,0337,0311,0336,0342,0337,0313,0336,0336,0336,0332,0337,0337,0337,0311,0336,0342,0337,0313,0336,0336,0336,0332,0337,0337,0337,0311,0336,0342,0337,0313,0336,0336,0336,0332,0337,0337,0337,0311,0336,0342,0337,0313,0336,0336,0336,0332,0337,0337,0337,0311,0336,0335,0335,0335,0331,0313,0336,0336,0336,0330,0334,0337,0337,0337,0311,0337,0342,0336,0313,0336,0336,0336,0333,0337,0337,0337,0311,0337,0342,0313,0336,0336,0336,0311,0336,0333,0337,0313,0337,0337,0337,0342,0336,0336,0336,0311,0336,0333,0337,0313,0337,0337,0337,0342,0336,0336,0336,0311,0336,0333,0337,0313,0337,0337,0337,0342,0336,0336,0336,0311,0336,0333,0337,0313,0337,0337,0337,0342,0336,0336,0336,0311,0336,0333,0337,0313,0337,0337,0337,0342,0335,0350,0335,0351,0306,0330,0335,0335,0335,0350,0342,0313,0336,0336,0336,0311,0336,0332,0337,0313,0337,0337,0337,0342,0336,0336,0336,0311,0336,0332,0337,0313,0337,0337,0337,0342,0336,0336,0336,0311,0336,0332,0337,0313,0337,0337,0337,0342,0336,0336,0336,0311,0336,0332,0337,0313,0337,0337,0337,0342,0336,0336,0336,0311,0336,0332,0337,0313,0337,0337,0337,0342,0336,0336,0336,0311,0336,0332,0337,0313,0337,0337,0337,0342,0336,0336,0336,0311,0336,0332,0337,0313,0337,0337,0337,0334,0311,0336,0331,0311,0337,0313,0336,0336,0336,0333,0337,0337,0337,0311,0336,0342,0337,0313,0336,0336,0336,0333,0337,0337,0337,0311,0336,0342,0337,0313,0336,0336,0336,0333,0337,0337,0337,0311,0336,0342,0337,0313,0336,0336,0336,0333,0337,0337,0337,0311,0336,0342,0337,0313,0336,0336,0336,0333,0337,0337,0337,0311,0336,0342,0337,0313,0336,0336,0336,0333,0337,0337,0337,0311,0336,0342,0337,0313,0336,0336,0336,0333,0337,0337,0337,0311,0336,0342,0337,0313,0336,0336,0336,0333,0334,0334,0313,0304,0337,0337,0337,0331,",
        "0225:0332,0224,0333,0333,0224,0331,0332,0332,0332,0336,0330,0336,0330,0336,0337,0101,0143,0164,0151,0157,0156,040,0365,0333,0333,0333,0333,0333,0333,0333,0333,0123,0171,0155,0142,0157,0154,0365,0330,0337,0337,",
        "0226:0333,0200,0332,0221,0221,0221,0221,0221,0221,0221,0336,0336,0336,0333,0337,0337,0337,0334,0221,0221,0221,0221,0221,0221,0221,0335,0331,0336,0336,0336,0330,0337,0337,0337,",
        "0227:0224,0370,0332,0336,0336,0336,0331,0336,0336,0330,0333,0322,0337,060,0365,0333,0333,061,0365,0333,0333,062,0365,0333,0333,063,0365,0333,0333,064,0365,0333,0333,065,0365,0333,0333,066,0365,0333,0333,067,0365,0325,0333,0333,0330,0336,0331,0337,0311,0336,0306,060,0337,0365,0336,0333,0333,061,0337,0365,0336,0333,0333,062,0337,0365,0336,0333,0333,063,0337,0365,0336,0333,0333,064,0337,0365,0336,0333,0333,065,0337,0365,0336,0333,0333,066,0337,0365,0336,0333,0333,067,0337,0365,0336,0335,0337,0331,0331,0331,0331,0331,0331,0331,0331,0331,0334,0371,0326,0332,0336,0336,0336,0336,0336,0330,0332,0332,0337,060,0365,0330,0330,061,0365,0330,0330,062,0365,0330,0330,063,0365,0330,0330,064,0365,0330,0330,065,0365,0330,0330,066,0365,0330,0330,067,0365,0371,0320,0336,0331,0332,0336,0330,0332,0336,0331,0337,060,0365,0336,0336,0333,0333,0333,0337,0337,0172,0326,0365,0336,0336,0333,0333,0333,0337,0337,0171,0325,0365,0336,0336,0333,0333,0333,0337,0337,0170,0322,0365,0371,0320,",
        "0230:0336,0336,0336,060,062,060,060,072,060,063,066,062,054,060,062,060,063,054,060,063,063,064,054,060,062,060,063,054,060,063,063,064,054,060,062,060,063,054,060,063,060,064,054,060,062,060,063,054,060,063,063,064,054,060,063,065,064,054,0365,0337,0337,0337,",
        "0231:0336,0336,0336,0331,1300,0333,0333,0333,1304,1305,1306,0331,0332,0332,0332,0332,0332,0332,0332,1310,1311,1312,1313,1314,1316,0333,0331,0332,0332,0332,0332,0332,0332,0332,1320,1321,1322,1323,1324,1325,1326,1327,0331,0332,0332,0332,0332,0332,0332,0332,0332,1330,1331,1332,1333,1334,1335,1336,1337,0330,0330,0201,0201,0334,0201,0201,0201,0201,0201,0201,0201,0201,0335,0333,0333,0333,0333,0333,0333,0331,0333,0333,0331,0331,0331,0337,0337,0332,0332,0337,",
        "0232:0336,0336,0336,0331,01340,01341,01342,01343,01344,01345,01346,01347,0331,0332,0332,0332,0332,0332,0332,0332,0332,01350,01351,01352,01353,01354,01355,01356,01357,0331,0332,0332,0332,0332,0332,01360,01361,01362,01363,01364,01365,01366,01367,0331,0332,0332,0332,0332,0332,0332,0332,0332,01370,01371,01372,01373,01374,01375,01376,01377,0337,0337,0337,0332,",
        "0233:0231,0232,",
        "0234:0331,226,0336,0331,0337,0332,0226,0330,0332,0336,0330,0336,0336,0331,0336,0336,0330,0333,0337,0333,0333,041,0365,0333,0333,042,0365,0333,0333,043,0365,0333,0333,044,0365,0333,0333,045,0365,0333,0333,046,0365,0333,0333,047,0365,0331,0331,0337,0337,0337,0332,0332,0336,0336,0333,0336,050,0365,0333,0333,051,0365,0333,0333,052,0365,0333,0333,053,0365,0333,0333,054,0365,0333,0333,055,0365,0333,0333,056,0365,0333,0333,057,0365,0331,0331,0337,0337,0337,0337,0332,0336,0336,0336,0333,0336,060,0365,0333,0333,061,0365,0333,0333,062,0365,0333,0333,063,0365,0333,0333,064,0365,0333,0333,065,0365,0333,0333,066,0365,0333,0333,067,0365,0331,0331,0337,0337,0337,0337,0332,0336,0336,0336,0333,0336,070,0365,0333,0333,071,0365,0333,0333,072,0365,0333,0333,073,0365,0333,0333,074,0365,0333,0333,075,0365,0333,0333,076,0365,0333,0333,077,0365,0337,0337,0337,0337,0332,0336,0330,0336,0336,0333,0336,0336,0331,0332,0337,0337,0337,0337,0337,",
        "0235:0234,0336,0331,0336,0331,0336,0330,0336,0336,0330,0333,0337,0100,0365,0333,0333,0101,0365,0333,0333,0102,0365,0333,0333,0103,0365,0333,0333,0104,0365,0333,0333,0105,0365,0333,0333,0106,0365,0333,0333,0107,0365,0331,0331,0332,0332,0332,0332,0332,0332,0332,0332,0332,0332,0332,0332,0332,0332,0110,0365,0333,0333,0111,0365,0333,0333,0112,0365,0333,0333,0113,0365,0333,0333,0114,0365,0333,0333,0115,0365,0333,0333,0116,0365,0333,0333,0117,0365,0331,0331,0337,0337,0337,0332,0336,0336,0332,0332,0332,0336,0120,0365,0333,0333,0121,0365,0333,0333,0122,0365,0333,0333,0123,0365,0333,0333,0124,0365,0333,0333,0125,0365,0333,0333,0126,0365,0333,0333,0127,0365,0331,0331,0337,0337,0337,0332,0336,0332,0336,0332,0336,0130,0365,0333,0333,0131,0365,0333,0333,0132,0365,0333,0333,0133,0365,0333,0333,0134,0365,0333,0333,0135,0365,0333,0333,0136,0365,0333,0333,0137,0365,0336,0332,0331,0337,0337,0333,0337,0337,0330,0332,0332,0330,0337,",
        "0236:0235,0331,0336,0336,0336,0331,0336,0336,0330,0333,0337,0140,0365,0333,0333,0141,0365,0333,0333,0142,0365,0333,0333,0143,0365,0333,0333,0144,0365,0333,0333,0145,0365,0333,0333,0146,0365,0333,0333,0147,0365,0331,0331,0337,0337,0337,0337,0332,0336,0336,0336,0333,0336,0150,0365,0333,0333,0151,0365,0333,0333,0152,0365,0333,0333,0153,0365,0333,0333,0154,0365,0333,0333,0155,0365,0333,0333,0156,0365,0333,0333,0157,0365,0331,0331,0337,0337,0337,0337,0332,0336,0336,0336,0333,0336,0160,0365,0333,0333,0161,0365,0333,0333,0162,0365,0333,0333,0163,0365,0333,0333,0164,0365,0333,0333,0165,0365,0333,0333,0166,0365,0333,0333,0167,0365,0337,0337,0337,0337,0332,0336,0336,0336,0333,0331,0336,0170,0365,0333,0333,0171,0365,0333,0333,0172,0365,0333,0333,0173,0365,0333,0333,0174,0365,0333,0333,0175,0365,0333,0333,0176,0365,0333,0333,0365,0336,0331,0332,0337,0337,0333,0337,0337,0337,0330,0336,0332,0332,0330,0337,",
        "0237:0336,0336,0336,0333,0331,0200,0333,0200,0333,0200,0333,0200,0333,0200,0333,0200,0333,0200,0333,0200,0331,0332,0332,0332,0332,0332,0332,0332,0332,01010,0333,0200,0333,0200,0333,0200,0333,0200,0333,0200,0333,0200,0333,0200,0331,0332,0332,0332,0332,0332,0332,0332,0332,01020,01021,01022,01023,01024,01025,01026,01027,0331,0332,0332,0332,0332,0332,0332,0332,0332,01030,01031,01032,01033,01034,01035,01036,01037,0332,0332,0332,0200,0333,0200,0330,0330,0330,0330,0332,0332,0332,0332,0332,0332,0337,0337,0337,",
        "0240:0236,0336,0336,0336,0336,0336,0330,0333,0337,060,0365,0333,0333,061,0365,0333,0333,062,0365,0333,0333,063,0365,0333,0333,064,0365,0333,0333,065,0365,0333,0333,066,0365,0333,0333,067,0365,0337,0337,0337,0337,0332,0336,0336,0336,0336,0331,0331,0332,0336,0332,0337,060,064,0170,0365,0331,0331,060,065,0170,0365,0331,0331,060,066,0170,0365,0331,0331,060,067,0170,0365,0331,0331,060,061,060,0170,0365,0331,0331,060,061,061,0170,0365,0331,0331,060,061,062,0170,0365,0331,0331,060,061,063,0170,0365,0331,0331,060,061,064,0170,0365,0331,0331,060,061,065,0170,0365,0331,0331,060,061,066,0170,0365,0331,0331,060,061,067,0170,0365,0337,0337,0337,0337,0330,0336,0330,0336,0333,0336,0336,0331,0332,0336,0330,0337,0337,0337,0337,0337,",
        "0241:0336,0336,0336,0331,1304,1305,1306,1350,1351,1352,1353,1310,1311,1312,1313,1314,1316,0331,0332,0332,0332,0332,0332,0332,0332,0332,0332,0332,0332,0332,0336,0333,0337,1362,1203,1363,1360,1366,1367,1361,1345,1346,1347,1365,1204,1201,0331,0332,0332,0332,0332,0332,0332,0332,0332,0332,0332,0332,0332,0332,0336,0333,0337,1330,1331,1332,1333,1334,1335,1336,1337,0331,0332,0332,0332,0332,0332,0332,0332,0336,0332,0337,1340,1341,1342,1343,1200,01030,01031,01032,01033,01020,0330,0332,0332,0336,0332,0337,01036,01037,01021,0330,0330,0330,0332,0332,0332,0332,0332,0332,0332,0332,0332,0332,0332,0332,0332,0337,0337,0337,",
        "0242:0333,",
        "0243:0333,",
        "0244:0333,",
        "0245:0333,",
        "0246:0333,",
        "0247:0333,",
        "0250:0241,",
        "01220:0333,0200,0336,0332,0220,0333,0337,",
        "01221:0333,0200,0332,0221,0221,0221,0221,0221,0221,0221,0336,0336,0336,0333,0337,0337,0337,",
        "01222:0333,0200,0336,0332,0337,0222,0336,0333,0337,0331,0330,",
        "01223:0333,0200,0336,0332,0337,0223,0336,0333,0337,0331,",
        "01224:0333,0200,0336,0336,0332,0337,0337,0210,0210,0224,0211,0211,0336,0336,0333,0337,0337,",
        "01225:0333,0200,0336,0330,0332,0336,0332,0336,0333,0337,0200,0333,0333,0200,0331,0334,0336,0333,0337,0342,0330,0330,0342,0335,0333,0333,0331,0336,0333,0331,0337,0337,0337,",
        "01226:0226,",
        "01227:0333,0200,0336,0336,0336,0330,0332,0332,0330,0337,0337,0337,0210,0210,0210,0210,0227,0211,0211,0211,0211,0336,0336,0333,0331,0337,0337,",
        "01230:0333,0200,0336,0330,0332,0336,0332,0332,0336,0333,0337,060,062,060,060,072,0365,0336,0332,0337,0337,0333,0331,0333,0337,",
        "01231:0333,0200,0332,0336,0330,0330,0337,0231,0333,0336,0331,0337,",
        "01232:0333,0200,0336,0330,0332,0332,0337,0232,0333,",
        "01233:0333,0200,0330,0332,0233,0333,",
        "01234:0330,0234,0333,0331,",
        "01235:0333,0200,0330,0332,0235,0331,0333,",
        "01236:0333,0200,0330,0332,0236,0333,0331,",
        "01237:0333,0200,0330,0332,0237,0333,0331,",
        "01240:0333,0200,0330,0332,0240,0333,0331,",
        "01241:0333,0200,",
        "01242:0333,0200,",
        "01243:0333,0200,",
        "01244:0333,0200,",
        "01245:0333,0200,",
        "01246:0333,0200,",
        "01247:0333,0200,"
    ],
    "imgurl": "",
    "imgx": 0,
    "imgy": 0,
    "imgw": 278,
    "angle": 7.853981633974483,
    "styleJSON": {
        "color0": "black",
        "fill0": "black",
        "line0": 1,
        "color1": "black",
        "fill1": "black",
        "line1": 3,
        "color2": "red",
        "fill2": "red",
        "line2": 1,
        "color3": "#FF7900",
        "fill3": "#FF7900",
        "line3": 1,
        "color4": "yellow",
        "fill4": "yellow",
        "line4": 1,
        "color5": "green",
        "fill5": "green",
        "line5": 1,
        "color6": "blue",
        "fill6": "blue",
        "line6": 1,
        "color7": "purple",
        "fill7": "purple",
        "line7": 1
    }
}
</json>
-->
	<path d = "M37 247 L37 221 L11 221 L11 247 L37 247 Z" stroke = "black" stroke-width = "1" fill = "none" />    <circle cx="24" cy = "234" r = "13.062632333856973" stroke = "black" stroke-width = "1" fill = "none" />
    <line x1="24" y1="234" x2="24" y2="221" style="stroke:black;stroke-width:1" />
    <line x1="24" y1="234" x2="37" y2="234" style="stroke:black;stroke-width:1" />
    <line x1="24" y1="234" x2="24" y2="247" style="stroke:black;stroke-width:1" />
    <line x1="24" y1="234" x2="11" y2="234" style="stroke:black;stroke-width:1" />
    <circle cx="19" cy = "230" r = "3.2656580834642432" stroke = "black" stroke-width = "1" fill = "none" />
    <circle cx="28" cy = "230" r = "3.2656580834642432" stroke = "black" stroke-width = "1" fill = "none" />
    <circle cx="28" cy = "239" r = "3.2656580834642432" stroke = "black" stroke-width = "1" fill = "none" />
    <circle cx="19" cy = "239" r = "3.2656580834642432" stroke = "black" stroke-width = "1" fill = "none" />
	<path d = "M63 247 L63 221 L37 221 L37 247 L63 247 Z" stroke = "black" stroke-width = "1" fill = "none" />    <line x1="50" y1="234" x2="50" y2="221" style="stroke:black;stroke-width:1" />
    <line x1="50" y1="234" x2="62" y2="230" style="stroke:black;stroke-width:1" />
    <line x1="50" y1="234" x2="57" y2="245" style="stroke:black;stroke-width:1" />
    <line x1="50" y1="234" x2="42" y2="245" style="stroke:black;stroke-width:1" />
    <line x1="50" y1="234" x2="37" y2="230" style="stroke:black;stroke-width:1" />
    <circle cx="50" cy = "234" r = "13.062632333856973" stroke = "black" stroke-width = "1" fill = "none" />
    <circle cx="54" cy = "229" r = "1.6328290417321216" stroke = "black" stroke-width = "1" fill = "none" />
    <circle cx="56" cy = "236" r = "1.6328290417321216" stroke = "black" stroke-width = "1" fill = "none" />
    <circle cx="50" cy = "241" r = "1.6328290417321216" stroke = "black" stroke-width = "1" fill = "none" />
    <circle cx="44" cy = "236" r = "1.6328290417321216" stroke = "black" stroke-width = "1" fill = "none" />
    <circle cx="46" cy = "229" r = "1.6328290417321216" stroke = "black" stroke-width = "1" fill = "none" />
	<path d = "M89 247 L89 221 L63 221 L63 247 L89 247 Z" stroke = "black" stroke-width = "1" fill = "none" />    <line x1="76" y1="234" x2="76" y2="221" style="stroke:black;stroke-width:1" />
    <line x1="76" y1="234" x2="87" y2="228" style="stroke:black;stroke-width:1" />
    <line x1="76" y1="234" x2="87" y2="241" style="stroke:black;stroke-width:1" />
    <line x1="76" y1="234" x2="76" y2="247" style="stroke:black;stroke-width:1" />
    <line x1="76" y1="234" x2="65" y2="241" style="stroke:black;stroke-width:1" />
    <circle cx="76" cy = "234" r = "13.062632333856973" stroke = "black" stroke-width = "1" fill = "none" />
    <circle cx="73" cy = "228" r = "1.6328290417321216" stroke = "black" stroke-width = "1" fill = "none" />
    <circle cx="79" cy = "228" r = "1.6328290417321216" stroke = "black" stroke-width = "1" fill = "none" />
    <circle cx="82" cy = "234" r = "1.6328290417321216" stroke = "black" stroke-width = "1" fill = "none" />
    <circle cx="79" cy = "240" r = "1.6328290417321216" stroke = "black" stroke-width = "1" fill = "none" />
    <circle cx="73" cy = "240" r = "1.6328290417321216" stroke = "black" stroke-width = "1" fill = "none" />
    <line x1="76" y1="234" x2="65" y2="228" style="stroke:black;stroke-width:1" />
    <circle cx="69" cy = "234" r = "1.6328290417321216" stroke = "black" stroke-width = "1" fill = "none" />
	<path d = "M115 247 L115 221 L89 221 L89 247 L115 247 Z" stroke = "black" stroke-width = "1" fill = "none" />	<path d = "M111 225 L102 234 L111 243 " stroke = "black" stroke-width = "1" fill = "none" />    <line x1="102" y1="234" x2="105" y2="234" style="stroke:black;stroke-width:1" />
    <line x1="109" y1="234" x2="112" y2="234" style="stroke:black;stroke-width:1" />
	<path d = "M141 247 L141 221 L115 221 L115 247 L141 247 Z" stroke = "black" stroke-width = "1" fill = "none" />	<path d = "M137 243 L128 234 L130 232 " stroke = "black" stroke-width = "1" fill = "none" />    <line x1="133" y1="230" x2="135" y2="227" style="stroke:black;stroke-width:1" />
    <line x1="137" y1="225" x2="140" y2="223" style="stroke:black;stroke-width:1" />
    <line x1="128" y1="234" x2="141" y2="234" style="stroke:black;stroke-width:1" />
	<path d = "M167 247 L167 221 L141 221 L141 247 L167 247 Z" stroke = "black" stroke-width = "1" fill = "none" />    <line x1="154" y1="234" x2="164" y2="225" style="stroke:black;stroke-width:1" />
    <line x1="154" y1="234" x2="157" y2="233" style="stroke:black;stroke-width:1" />
    <line x1="161" y1="232" x2="164" y2="232" style="stroke:black;stroke-width:1" />
    <line x1="154" y1="234" x2="157" y2="235" style="stroke:black;stroke-width:1" />
    <line x1="161" y1="236" x2="164" y2="237" style="stroke:black;stroke-width:1" />
    <line x1="154" y1="234" x2="164" y2="243" style="stroke:black;stroke-width:1" />
	<path d = "M193 247 L193 221 L167 221 L167 247 L193 247 Z" stroke = "black" stroke-width = "1" fill = "none" />    <line x1="180" y1="234" x2="193" y2="231" style="stroke:black;stroke-width:1" />
    <line x1="180" y1="234" x2="193" y2="238" style="stroke:black;stroke-width:1" />
    <line x1="180" y1="234" x2="183" y2="236" style="stroke:black;stroke-width:1" />
    <line x1="185" y1="239" x2="187" y2="241" style="stroke:black;stroke-width:1" />
    <line x1="180" y1="234" x2="183" y2="232" style="stroke:black;stroke-width:1" />
    <line x1="185" y1="230" x2="187" y2="227" style="stroke:black;stroke-width:1" />
	<path d = "M220 247 L220 221 L193 221 L193 247 L220 247 Z" stroke = "black" stroke-width = "1" fill = "none" />    <line x1="207" y1="247" x2="220" y2="234" style="stroke:black;stroke-width:1" />
    <line x1="220" y1="234" x2="207" y2="221" style="stroke:black;stroke-width:1" />
    <line x1="207" y1="221" x2="193" y2="234" style="stroke:black;stroke-width:1" />
    <line x1="193" y1="234" x2="207" y2="247" style="stroke:black;stroke-width:1" />
	<path d = "M246 247 L246 221 L220 221 L220 247 L246 247 Z" stroke = "black" stroke-width = "1" fill = "none" />	<path d = "M246 247 L233 207 L220 247 L246 247 Z" stroke = "black" stroke-width = "1" fill = "none" />    <line x1="246" y1="247" x2="225" y2="232" style="stroke:black;stroke-width:1" />
    <line x1="225" y1="232" x2="238" y2="222" style="stroke:black;stroke-width:1" />
    <line x1="238" y1="222" x2="230" y2="217" style="stroke:black;stroke-width:1" />
	<path d = "M272 247 L272 221 L246 221 L246 247 L272 247 Z" stroke = "black" stroke-width = "1" fill = "none" />	<path d = "M272 247 L259 225 L246 247 " stroke = "black" stroke-width = "1" fill = "none" />    <line x1="259" y1="240" x2="259" y2="225" style="stroke:black;stroke-width:1" />
    <line x1="259" y1="240" x2="272" y2="247" style="stroke:black;stroke-width:1" />
    <line x1="259" y1="240" x2="246" y2="247" style="stroke:black;stroke-width:1" />
	<path d = "M298 247 L298 221 L272 221 L272 247 L298 247 Z" stroke = "black" stroke-width = "1" fill = "none" />	<path d = "M291 241 L291 234 L285 234 L278 234 L278 241 L285 241 L291 241 Z" stroke = "black" stroke-width = "1" fill = "none" />    <line x1="285" y1="241" x2="285" y2="234" style="stroke:black;stroke-width:1" />
	<path d = "M324 247 L324 221 L298 221 L298 247 L324 247 Z" stroke = "black" stroke-width = "1" fill = "none" />	<path d = "M307 239 L307 230 L298 230 L298 239 L307 239 Z" stroke = "black" stroke-width = "1" fill = "none" />	<path d = "M315 239 L315 230 L307 230 L307 239 L315 239 Z" stroke = "black" stroke-width = "1" fill = "none" />	<path d = "M324 239 L324 230 L315 230 L315 239 L324 239 Z" stroke = "black" stroke-width = "1" fill = "none" />	<path d = "M350 247 L350 221 L324 221 L324 247 L350 247 Z" stroke = "black" stroke-width = "1" fill = "none" />    <circle cx="331" cy = "241" r = "3.265658083464243" stroke = "black" stroke-width = "1" fill = "none" />
    <circle cx="331" cy = "228" r = "3.265658083464243" stroke = "black" stroke-width = "1" fill = "none" />
    <circle cx="337" cy = "234" r = "3.265658083464243" stroke = "black" stroke-width = "1" fill = "none" />
    <circle cx="344" cy = "228" r = "3.265658083464243" stroke = "black" stroke-width = "1" fill = "none" />
    <circle cx="344" cy = "241" r = "3.265658083464243" stroke = "black" stroke-width = "1" fill = "none" />
	<path d = "M76 273 L76 247 L50 247 L50 273 L76 273 Z" stroke = "black" stroke-width = "1" fill = "none" /><circle cx="56" cy = "267" r = "1" stroke = "black" stroke-width = "1" fill = "black" />
	<path d = "M56 267 L56 254 L69 254 " stroke = "black" stroke-width = "1" fill = "none" />	<path d = "M65 249 L69 254 L65 258 " stroke = "black" stroke-width = "1" fill = "none" />    <line x1="76" y1="273" x2="81" y2="269" style="stroke:black;stroke-width:1" />
    <line x1="82" y1="273" x2="87" y2="269" style="stroke:black;stroke-width:1" />
    <line x1="89" y1="273" x2="94" y2="269" style="stroke:black;stroke-width:1" />
    <line x1="95" y1="273" x2="100" y2="269" style="stroke:black;stroke-width:1" />
	<path d = "M102 273 L102 247 L76 247 L76 273 L102 273 Z" stroke = "black" stroke-width = "1" fill = "none" />    <line x1="82" y1="260" x2="95" y2="260" style="stroke:black;stroke-width:1" />
    <line x1="95" y1="260" x2="93" y2="263" style="stroke:black;stroke-width:1" />
    <line x1="95" y1="260" x2="93" y2="258" style="stroke:black;stroke-width:1" />
    <line x1="102" y1="273" x2="107" y2="269" style="stroke:black;stroke-width:1" />
    <line x1="109" y1="273" x2="113" y2="269" style="stroke:black;stroke-width:1" />
    <line x1="115" y1="273" x2="120" y2="269" style="stroke:black;stroke-width:1" />
    <line x1="122" y1="273" x2="126" y2="269" style="stroke:black;stroke-width:1" />
	<path d = "M128 273 L128 247 L102 247 L102 273 L128 273 Z" stroke = "black" stroke-width = "1" fill = "none" />	<path d = "M109 254 L122 254 L122 267 " stroke = "black" stroke-width = "1" fill = "none" />	<path d = "M117 262 L122 267 L126 262 " stroke = "black" stroke-width = "1" fill = "none" /><circle cx="122" cy = "267" r = "1" stroke = "black" stroke-width = "1" fill = "black" />
	<path d = "M154 273 L154 247 L128 247 L128 273 L154 273 Z" stroke = "black" stroke-width = "1" fill = "none" />    <line x1="135" y1="267" x2="148" y2="267" style="stroke:black;stroke-width:1" />
<circle cx="135" cy = "267" r = "1" stroke = "black" stroke-width = "1" fill = "black" />
<path    d = "M135,267 C148,267 135,254 148,254" fill = "none" stroke-width = "1" stroke = "black" />    <line x1="128" y1="273" x2="133" y2="269" style="stroke:black;stroke-width:1" />
    <line x1="135" y1="273" x2="139" y2="269" style="stroke:black;stroke-width:1" />
    <line x1="141" y1="273" x2="146" y2="269" style="stroke:black;stroke-width:1" />
    <line x1="148" y1="273" x2="152" y2="269" style="stroke:black;stroke-width:1" />
	<path d = "M180 273 L180 247 L154 247 L154 273 L180 273 Z" stroke = "black" stroke-width = "1" fill = "none" />    <line x1="161" y1="267" x2="174" y2="267" style="stroke:black;stroke-width:1" />
<circle cx="161" cy = "267" r = "1" stroke = "black" stroke-width = "1" fill = "black" />
<path    d = "M161,267 C174,267 161,254 174,254" fill = "none" stroke-width = "1" stroke = "black" />	<path d = "M207 273 L207 247 L180 247 L180 273 L207 273 Z" stroke = "black" stroke-width = "1" fill = "none" /><path    d = "M187,267 C200,267 187,254 200,254" fill = "none" stroke-width = "1" stroke = "black" /><circle cx="200" cy = "254" r = "1" stroke = "black" stroke-width = "1" fill = "black" />
    <line x1="200" y1="254" x2="187" y2="254" style="stroke:black;stroke-width:1" />
	<path d = "M233 273 L233 247 L207 247 L207 273 L233 273 Z" stroke = "black" stroke-width = "1" fill = "none" /><path    d = "M213,267 C226,267 213,254 226,254" fill = "none" stroke-width = "1" stroke = "black" /><circle cx="226" cy = "254" r = "1" stroke = "black" stroke-width = "1" fill = "black" />
    <line x1="226" y1="254" x2="213" y2="254" style="stroke:black;stroke-width:1" />
    <line x1="207" y1="273" x2="211" y2="269" style="stroke:black;stroke-width:1" />
    <line x1="213" y1="273" x2="218" y2="269" style="stroke:black;stroke-width:1" />
    <line x1="220" y1="273" x2="224" y2="269" style="stroke:black;stroke-width:1" />
    <line x1="226" y1="273" x2="231" y2="269" style="stroke:black;stroke-width:1" />
    <line x1="233" y1="273" x2="237" y2="269" style="stroke:black;stroke-width:1" />
    <line x1="239" y1="273" x2="244" y2="269" style="stroke:black;stroke-width:1" />
    <line x1="246" y1="273" x2="250" y2="269" style="stroke:black;stroke-width:1" />
    <line x1="252" y1="273" x2="257" y2="269" style="stroke:black;stroke-width:1" />
	<path d = "M259 273 L259 247 L233 247 L233 273 L259 273 Z" stroke = "black" stroke-width = "1" fill = "none" />  <path d="M232.652424895334 273.34169921328936           A26.125264667713942 26.125264667713942 0 0 1 258.77768956304743 247.21643454557503" fill = "none" stroke = "black" stroke-width = "1" />
    <line x1="259" y1="273" x2="263" y2="269" style="stroke:black;stroke-width:1" />
    <line x1="265" y1="273" x2="270" y2="269" style="stroke:black;stroke-width:1" />
    <line x1="272" y1="273" x2="276" y2="269" style="stroke:black;stroke-width:1" />
    <line x1="278" y1="273" x2="283" y2="269" style="stroke:black;stroke-width:1" />
	<path d = "M285 273 L285 247 L259 247 L259 273 L285 273 Z" stroke = "black" stroke-width = "1" fill = "none" />  <path d="M258.7776895630477 247.21643454557446           A26.125264667713942 26.125264667713942 0 0 1 284.9029542307616 273.3416992132883" fill = "none" stroke = "black" stroke-width = "1" />
	<path d = "M311 273 L311 247 L285 247 L285 273 L311 273 Z" stroke = "black" stroke-width = "1" fill = "none" />    <circle cx="298" cy = "260" r = "6.531316166928486" stroke = "black" stroke-width = "1" fill = "black" />
	<path d = "M337 273 L337 247 L311 247 L311 273 L337 273 Z" stroke = "black" stroke-width = "1" fill = "none" />	<path d = "M314 257 L319 266 L324 257 L329 266 L334 257 " stroke = "black" stroke-width = "1" fill = "none" />    <line x1="337" y1="273" x2="342" y2="269" style="stroke:black;stroke-width:1" />
    <line x1="344" y1="273" x2="348" y2="269" style="stroke:black;stroke-width:1" />
    <line x1="350" y1="273" x2="355" y2="269" style="stroke:black;stroke-width:1" />
    <line x1="357" y1="273" x2="361" y2="269" style="stroke:black;stroke-width:1" />
	<path d = "M363 273 L363 247 L337 247 L337 273 L363 273 Z" stroke = "black" stroke-width = "1" fill = "none" />	<path d = "M357 267 L357 254 L344 254 L344 267 L357 267 Z" stroke = "black" stroke-width = "1" fill = "none" />	<path d = "M389 273 L389 247 L363 247 L363 273 L389 273 Z" stroke = "black" stroke-width = "1" fill = "none" />    <line x1="370" y1="260" x2="383" y2="260" style="stroke:black;stroke-width:1" />
    <line x1="383" y1="260" x2="381" y2="263" style="stroke:black;stroke-width:1" />
    <line x1="383" y1="260" x2="381" y2="258" style="stroke:black;stroke-width:1" />
	<path d = "M89 299 L89 273 L63 273 L63 299 L89 299 Z" stroke = "black" stroke-width = "1" fill = "none" />	<path d = "M79 293 L73 293 L73 286 L69 286 L73 283 L76 280 L79 283 L82 286 L79 286 L79 293 Z" stroke = "black" stroke-width = "1" fill = "none" />	<path d = "M115 299 L115 273 L89 273 L89 299 L115 299 Z" stroke = "black" stroke-width = "1" fill = "none" />	<path d = "M99 280 L105 280 L105 286 L109 286 L105 290 L102 293 L99 290 L95 286 L99 286 L99 280 Z" stroke = "black" stroke-width = "1" fill = "none" />	<path d = "M141 299 L141 273 L115 273 L115 299 L141 299 Z" stroke = "black" stroke-width = "1" fill = "none" />	<path d = "M135 283 L135 290 L128 290 L128 293 L125 290 L122 286 L125 283 L128 280 L128 283 L135 283 Z" stroke = "black" stroke-width = "1" fill = "none" />	<path d = "M167 299 L167 273 L141 273 L141 299 L167 299 Z" stroke = "black" stroke-width = "1" fill = "none" />	<path d = "M148 290 L148 283 L154 283 L154 280 L158 283 L161 286 L158 290 L154 293 L154 290 L148 290 Z" stroke = "black" stroke-width = "1" fill = "none" />	<path d = "M193 299 L193 273 L167 273 L167 299 L193 299 Z" stroke = "black" stroke-width = "1" fill = "none" />  <path d="M175.78355760819508 281.7859935954149           A6.531316166928491 6.531316166928491 0 0 1 185.020233511612 281.7859935954154" fill = "none" stroke = "black" stroke-width = "1" />
  <path d="M175.78355760819454 291.0226694988318           A6.531316166928491 6.531316166928491 0 0 1 175.78355760819508 281.7859935954149" fill = "none" stroke = "black" stroke-width = "1" />
  <path d="M185.02023351161145 291.0226694988324           A6.531316166928491 6.531316166928491 0 0 1 175.78355760819454 291.0226694988318" fill = "none" stroke = "black" stroke-width = "1" />
	<path d = "M183 297 L185 291 L179 289 " stroke = "black" stroke-width = "1" fill = "none" />	<path d = "M220 299 L220 273 L193 273 L193 299 L220 299 Z" stroke = "black" stroke-width = "1" fill = "none" />  <path d="M211.1454981793253 291.02266949883347           A6.531316166928491 6.531316166928491 0 0 1 201.9088222759084 291.0226694988329" fill = "none" stroke = "black" stroke-width = "1" />
  <path d="M201.9088222759084 291.0226694988329           A6.531316166928491 6.531316166928491 0 0 1 201.90882227590893 281.78599359541596" fill = "none" stroke = "black" stroke-width = "1" />
  <path d="M201.90882227590893 281.78599359541596           A6.531316166928491 6.531316166928491 0 0 1 211.14549817932584 281.78599359541647" fill = "none" stroke = "black" stroke-width = "1" />
	<path d = "M205 284 L211 282 L209 276 " stroke = "black" stroke-width = "1" fill = "none" />	<path d = "M246 299 L246 273 L220 273 L220 299 L246 299 Z" stroke = "black" stroke-width = "1" fill = "none" />    <line x1="239" y1="286" x2="226" y2="286" style="stroke:black;stroke-width:1" />
	<path d = "M272 299 L272 273 L246 273 L246 299 L272 299 Z" stroke = "black" stroke-width = "1" fill = "none" />    <line x1="259" y1="286" x2="259" y2="280" style="stroke:black;stroke-width:1" />
    <line x1="259" y1="286" x2="252" y2="286" style="stroke:black;stroke-width:1" />
    <line x1="259" y1="286" x2="259" y2="293" style="stroke:black;stroke-width:1" />
    <line x1="259" y1="286" x2="265" y2="286" style="stroke:black;stroke-width:1" />
	<path d = "M102 326 L102 299 L76 299 L76 326 L102 326 Z" stroke = "black" stroke-width = "1" fill = "none" /><circle cx="89" cy = "313" r = "1" stroke = "black" stroke-width = "1" fill = "black" />
	<path d = "M128 326 L128 299 L102 299 L102 326 L128 326 Z" stroke = "black" stroke-width = "1" fill = "none" />    <circle cx="115" cy = "313" r = "13.062632333856982" stroke = "black" stroke-width = "1" fill = "none" />
<circle cx="115" cy = "313" r = "1" stroke = "black" stroke-width = "1" fill = "black" />
	<path d = "M154 326 L154 299 L128 299 L128 326 L154 326 Z" stroke = "black" stroke-width = "1" fill = "none" />    <line x1="141" y1="313" x2="135" y2="313" style="stroke:black;stroke-width:1" />
<circle cx="135" cy = "313" r = "1" stroke = "black" stroke-width = "1" fill = "black" />
    <line x1="141" y1="313" x2="148" y2="313" style="stroke:black;stroke-width:1" />
<circle cx="148" cy = "313" r = "1" stroke = "black" stroke-width = "1" fill = "black" />
	<path d = "M180 326 L180 299 L154 299 L154 326 L180 326 Z" stroke = "black" stroke-width = "1" fill = "none" />  <path d="M158.1025873226283 303.2929203114132           A13.062632333856982 13.062632333856982 0 0 1 176.5759391294621 303.29292031141694" fill = "none" stroke = "black" stroke-width = "1" />
    <line x1="167" y1="313" x2="177" y2="303" style="stroke:black;stroke-width:1" />
    <line x1="167" y1="313" x2="158" y2="303" style="stroke:black;stroke-width:1" />
<circle cx="167" cy = "313" r = "1" stroke = "black" stroke-width = "1" fill = "black" />
	<path d = "M207 326 L207 299 L180 299 L180 326 L207 326 Z" stroke = "black" stroke-width = "1" fill = "none" />	<path d = "M200 319 L200 306 L187 306 L187 319 L200 319 Z" stroke = "black" stroke-width = "1" fill = "none" />	<path d = "M233 326 L233 299 L207 299 L207 326 L233 326 Z" stroke = "black" stroke-width = "1" fill = "none" />	<path d = "M220 313 L213 313 L220 306 L226 313 L220 313 " stroke = "black" stroke-width = "1" fill = "none" />	<path d = "M259 326 L259 299 L233 299 L233 326 L259 326 Z" stroke = "black" stroke-width = "1" fill = "none" />	<path d = "M246 313 L252 313 L246 319 L239 313 L246 313 " stroke = "black" stroke-width = "1" fill = "none" />	<path d = "M285 326 L285 299 L259 299 L259 326 L285 326 Z" stroke = "black" stroke-width = "1" fill = "none" />	<path d = "M272 313 L272 319 L265 313 L272 306 L272 313 " stroke = "black" stroke-width = "1" fill = "none" />	<path d = "M311 326 L311 299 L285 299 L285 326 L311 326 Z" stroke = "black" stroke-width = "1" fill = "none" />	<path d = "M298 313 L298 306 L304 313 L298 319 L298 313 " stroke = "black" stroke-width = "1" fill = "none" />	<path d = "M337 326 L337 299 L311 299 L311 326 L337 326 Z" stroke = "black" stroke-width = "1" fill = "none" />	<path d = "M321 313 L321 306 L314 306 L314 313 L321 313 Z" stroke = "black" stroke-width = "1" fill = "none" />	<path d = "M334 313 L334 306 L327 306 L327 313 L334 313 Z" stroke = "black" stroke-width = "1" fill = "none" />    <line x1="321" y1="309" x2="327" y2="309" style="stroke:black;stroke-width:1" />
    <line x1="321" y1="309" x2="323" y2="312" style="stroke:black;stroke-width:1" />
    <line x1="321" y1="309" x2="323" y2="307" style="stroke:black;stroke-width:1" />
	<path d = "M298 299 L298 273 L272 273 L272 299 L298 299 Z" stroke = "black" stroke-width = "1" fill = "none" />	<path d = "M278 286 L278 280 L285 286 L278 293 L278 286 " stroke = "black" stroke-width = "1" fill = "none" />	<path d = "M285 286 L291 280 L291 286 L291 293 L285 286 " stroke = "black" stroke-width = "1" fill = "none" />	<path d = "M324 299 L324 273 L298 273 L298 299 L324 299 Z" stroke = "black" stroke-width = "1" fill = "none" />	<path d = "M304 286 L304 293 L298 286 L304 280 L304 286 " stroke = "black" stroke-width = "1" fill = "none" />	<path d = "M324 286 L318 293 L318 286 L318 280 L324 286 " stroke = "black" stroke-width = "1" fill = "none" />	<path d = "M350 299 L350 273 L324 273 L324 299 L350 299 Z" stroke = "black" stroke-width = "1" fill = "none" />	<path d = "M334 286 L334 280 L327 280 L327 286 L334 286 Z" stroke = "black" stroke-width = "1" fill = "none" />	<path d = "M347 286 L347 280 L340 280 L340 286 L347 286 Z" stroke = "black" stroke-width = "1" fill = "none" />    <line x1="334" y1="283" x2="340" y2="283" style="stroke:black;stroke-width:1" />
    <line x1="340" y1="283" x2="338" y2="285" style="stroke:black;stroke-width:1" />
    <line x1="340" y1="283" x2="338" y2="281" style="stroke:black;stroke-width:1" />
</svg>